<!-- CAJAL SVG | book: Quantum Mechanics | chapter: 01-complex-numbers-and-the-complex-exponential | figure: 04 | type: diagram | date: 2026-06-06 -->
<svg viewBox="0 0 700 420" xmlns="http://www.w3.org/2000/svg" role="img" aria-labelledby="fig-title-04">
<title id="fig-title-04">Stationary-state phasor rotation and constant probability density</title>
<desc>Left panel: unit circle in the complex plane with three phasor snapshots at different rotation angles, all of unit length, with an arc indicating counterclockwise rotation. Right panel: three equal-height bars showing that the probability density |psi|^2 equals 1 for every phasor angle, demonstrating time-independence of the measurement probability.</desc>
<metadata><cajal:figure xmlns:cajal="https://bearbrown.ai/cajal/1.0" book="Quantum Mechanics" book-slug="quantum-mechanics-vol5" chapter="01-complex-numbers-and-the-complex-exponential" figure-number="04" figure-title="Stationary-state phasor rotation and constant probability density" figure-slug="stationary-state-phasor-rotation" figure-type="diagram" priority="IMPORTANT" author="Humanitarians AI Incorporated" date-generated="2026-06-06" source-file="pantry/01-complex-numbers-and-the-complex-exponential-cajal.md"/></metadata>

<defs>
  <marker id="arr-04a" markerWidth="8" markerHeight="6" refX="7" refY="3" orient="auto">
    <polygon points="0 0, 8 3, 0 6" fill="#2a1a0e"/>
  </marker>
  <marker id="arr-04r" markerWidth="8" markerHeight="6" refX="7" refY="3" orient="auto">
    <polygon points="0 0, 8 3, 0 6" fill="#C8102E"/>
  </marker>
  <marker id="arr-04o" markerWidth="8" markerHeight="6" refX="7" refY="3" orient="auto">
    <polygon points="0 0, 8 3, 0 6" fill="#C8860E"/>
  </marker>
  <marker id="arr-04g" markerWidth="8" markerHeight="6" refX="7" refY="3" orient="auto">
    <polygon points="0 0, 8 3, 0 6" fill="#787878"/>
  </marker>
</defs>

<!-- Divider line -->
<line x1="390" y1="30" x2="390" y2="390" stroke="#D4D4D4" stroke-width="1"/>

<!-- ===== LEFT PANEL ===== -->
<rect x="40" y="30" width="340" height="360" fill="#F5F5F5" stroke="#D4D4D4" stroke-width="0.75"/>

<!-- Left panel axes -->
<line x1="40" y1="210" x2="380" y2="210" stroke="#2a1a0e" stroke-width="0.75" marker-end="url(#arr-04a)"/>
<line x1="220" y1="390" x2="220" y2="30" stroke="#2a1a0e" stroke-width="0.75" marker-end="url(#arr-04a)"/>
<text x="384" y="214" font-family="'Inter',-apple-system,'Helvetica Neue',sans-serif" font-size="10" fill="#545454">Re</text>
<text x="223" y="26" font-family="'Inter',-apple-system,'Helvetica Neue',sans-serif" font-size="10" fill="#545454">Im</text>

<!-- Unit circle -->
<path d="M 350.00,210.00 L 349.51,198.67 L 348.03,187.43 L 345.57,176.35 L 342.16,165.54 L 337.82,155.06 L 332.58,145.00 L 326.49,135.44 L 319.59,126.44 L 311.92,118.08 L 303.56,110.41 L 294.56,103.51 L 285.00,97.42 L 274.94,92.18 L 264.46,87.84 L 253.65,84.43 L 242.57,81.97 L 231.33,80.49 L 220.00,80.00 L 208.67,80.49 L 197.43,81.97 L 186.35,84.43 L 175.54,87.84 L 165.06,92.18 L 155.00,97.42 L 145.44,103.51 L 136.44,110.41 L 128.08,118.08 L 120.41,126.44 L 113.51,135.44 L 107.42,145.00 L 102.18,155.06 L 97.84,165.54 L 94.43,176.35 L 91.97,187.43 L 90.49,198.67 L 90.00,210.00 L 90.49,221.33 L 91.97,232.57 L 94.43,243.65 L 97.84,254.46 L 102.18,264.94 L 107.42,275.00 L 113.51,284.56 L 120.41,293.56 L 128.08,301.92 L 136.44,309.59 L 145.44,316.49 L 155.00,322.58 L 165.06,327.82 L 175.54,332.16 L 186.35,335.57 L 197.43,338.03 L 208.67,339.51 L 220.00,340.00 L 231.33,339.51 L 242.57,338.03 L 253.65,335.57 L 264.46,332.16 L 274.94,327.82 L 285.00,322.58 L 294.56,316.49 L 303.56,309.59 L 311.92,301.92 L 319.59,293.56 L 326.49,284.56 L 332.58,275.00 L 337.82,264.94 L 342.16,254.46 L 345.57,243.65 L 348.03,232.57 L 349.51,221.33 L 350.00,210.00 Z" fill="none" stroke="#D4D4D4" stroke-width="1.2"/>

<!-- Arc arrow showing rotation direction -->
<path d="M 359.1,159.4 A 148,148 0 0,0 258.3,67.0" fill="none" stroke="#C8860E" stroke-width="1.2" stroke-dasharray="none" marker-end="url(#arr-04o)"/>

<!-- Phasor arrows -->
<line x1="220" y1="210" x2="337.46" y2="167.25" stroke="#C8102E" stroke-width="2" marker-end="url(#arr-04r)"/>
<line x1="220" y1="210" x2="252.35" y2="89.26" stroke="#C8860E" stroke-width="2" marker-end="url(#arr-04o)"/>
<line x1="220" y1="210" x2="124.24" y2="129.65" stroke="#787878" stroke-width="2" marker-end="url(#arr-04g)"/>

<!-- Dot at tips -->
<circle cx="342.2" cy="165.5" r="4" fill="#C8102E"/>
<circle cx="253.6" cy="84.4" r="4" fill="#C8860E"/>
<circle cx="120.4" cy="126.4" r="4" fill="#787878"/>
<!-- |r|=1 annotation -->
<text x="195" y="72" font-family="'EB Garamond','Garamond',Georgia,serif" font-size="12" fill="#545454" font-style="italic">|ψ| = 1</text>
<!-- Rotation label -->
<text x="372.0" y="82.0" font-family="'EB Garamond','Garamond',Georgia,serif" font-size="11" fill="#C8860E" font-style="italic">E/ħ</text>

<!-- ===== RIGHT PANEL ===== -->
<rect x="400" y="30" width="290" height="360" fill="#F5F5F5" stroke="#D4D4D4" stroke-width="0.75"/>

<!-- Right panel axes -->
<line x1="430" y1="350" x2="660" y2="350" stroke="#2a1a0e" stroke-width="0.75"/>
<line x1="435" y1="350" x2="435" y2="50" stroke="#2a1a0e" stroke-width="0.75" marker-end="url(#arr-04a)"/>
<text x="432" y="45" font-family="'EB Garamond','Garamond',Georgia,serif" font-size="11" fill="#545454" font-style="italic">|ψ|²</text>

<!-- Bar baseline tick at 1.0 -->
<line x1="430" y1="130" x2="440" y2="130" stroke="#2a1a0e" stroke-width="0.75"/>
<text x="415" y="134" font-family="'JetBrains Mono','Fira Code','Courier New',monospace" font-size="10" fill="#545454" text-anchor="end">1</text>

<!-- Equal bars -->
<rect x="425" y="130" width="50" height="220" fill="#C8102E" opacity="0.85"/>
<rect x="495" y="130" width="50" height="220" fill="#C8860E" opacity="0.85"/>
<rect x="565" y="130" width="50" height="220" fill="#787878" opacity="0.85"/>

<!-- Right panel label -->
<text x="545" y="370" text-anchor="middle" font-family="'EB Garamond','Garamond',Georgia,serif" font-size="11" fill="#545454">three phasor angles → identical |ψ|²</text>

<!-- Figure title -->
<text x="350" y="412" text-anchor="middle" font-family="'EB Garamond','Garamond',Georgia,serif" font-size="13" fill="#2a1a0e">Phasor rotates at E/ħ; modulus stays 1; probability density |ψ|² is time-independent</text>
</svg>