<!-- CAJAL SVG | book: Quantum Mechanics | chapter: 02-probability-normalization-and-expectation | figure: 02 | type: chart | date: 2026-06-06 -->
<svg viewBox="0 0 700 420" xmlns="http://www.w3.org/2000/svg" role="img" aria-labelledby="fig-title-0202">
<title id="fig-title-0202">Mean as centroid: symmetric distribution where mean equals mode vs. skewed distribution where they differ</title>
<desc>Two panels. Left: symmetric Gaussian where peak and mean coincide, with sigma bracket. Right: right-skewed distribution with separate dashed lines for mode and mean showing they diverge.</desc>
<metadata><cajal:figure xmlns:cajal="https://bearbrown.ai/cajal/1.0" book="Quantum Mechanics" book-slug="quantum-mechanics-vol5" chapter="02-probability-normalization-and-expectation" figure-number="02" figure-title="Mean as centroid: symmetric vs. skewed distribution" figure-slug="mean-mode-symmetric-vs-skewed" figure-type="chart" priority="CRITICAL" author="Humanitarians AI Incorporated" date-generated="2026-06-06" source-file="pantry/02-probability-normalization-and-expectation-cajal.md"/></metadata>
<defs>
  <marker id="arr-0202" markerWidth="8" markerHeight="6" refX="7" refY="3" orient="auto">
    <polygon points="0 0, 8 3, 0 6" fill="#2a1a0e"/>
  </marker>
</defs>
<rect x="50" y="30" width="290" height="350" fill="#F5F5F5" stroke="#D4D4D4" stroke-width="0.75"/>
<rect x="360" y="30" width="290" height="350" fill="#F5F5F5" stroke="#D4D4D4" stroke-width="0.75"/>
<text x="195" y="24" text-anchor="middle" font-family="'Inter',-apple-system,'Helvetica Neue',sans-serif" font-size="11" fill="#545454">Symmetric</text>
<text x="505" y="24" text-anchor="middle" font-family="'Inter',-apple-system,'Helvetica Neue',sans-serif" font-size="11" fill="#545454">Right-skewed</text>
<line x1="70" y1="350" x2="315" y2="350" stroke="#2a1a0e" stroke-width="0.75" marker-end="url(#arr-0202)"/>
<line x1="70" y1="355" x2="70" y2="45" stroke="#2a1a0e" stroke-width="0.75" marker-end="url(#arr-0202)"/>
<line x1="390" y1="350" x2="635" y2="350" stroke="#2a1a0e" stroke-width="0.75" marker-end="url(#arr-0202)"/>
<line x1="390" y1="355" x2="390" y2="45" stroke="#2a1a0e" stroke-width="0.75" marker-end="url(#arr-0202)"/>
<path d="M 70.00,349.99 L 71.20,349.99 L 72.40,349.99 L 73.60,349.99 L 74.80,349.98 L 76.00,349.98 L 77.20,349.97 L 78.40,349.97 L 79.60,349.96 L 80.80,349.95 L 82.00,349.94 L 83.20,349.93 L 84.40,349.92 L 85.60,349.90 L 86.80,349.88 L 88.00,349.86 L 89.20,349.83 L 90.40,349.80 L 91.60,349.76 L 92.80,349.72 L 94.00,349.67 L 95.20,349.61 L 96.40,349.54 L 97.60,349.46 L 98.80,349.37 L 100.00,349.26 L 101.20,349.14 L 102.40,348.99 L 103.60,348.83 L 104.80,348.65 L 106.00,348.43 L 107.20,348.19 L 108.40,347.92 L 109.60,347.60 L 110.80,347.25 L 112.00,346.85 L 113.20,346.40 L 114.40,345.90 L 115.60,345.33 L 116.80,344.70 L 118.00,344.00 L 119.20,343.21 L 120.40,342.34 L 121.60,341.37 L 122.80,340.30 L 124.00,339.13 L 125.20,337.83 L 126.40,336.41 L 127.60,334.85 L 128.80,333.15 L 130.00,331.30 L 131.20,329.28 L 132.40,327.10 L 133.60,324.74 L 134.80,322.19 L 136.00,319.45 L 137.20,316.51 L 138.40,313.36 L 139.60,310.00 L 140.80,306.41 L 142.00,302.61 L 143.20,298.58 L 144.40,294.32 L 145.60,289.84 L 146.80,285.13 L 148.00,280.19 L 149.20,275.03 L 150.40,269.66 L 151.60,264.08 L 152.80,258.30 L 154.00,252.33 L 155.20,246.20 L 156.40,239.90 L 157.60,233.46 L 158.80,226.91 L 160.00,220.25 L 161.20,213.51 L 162.40,206.72 L 163.60,199.90 L 164.80,193.08 L 166.00,186.29 L 167.20,179.56 L 168.40,172.92 L 169.60,166.40 L 170.80,160.04 L 172.00,153.85 L 173.20,147.89 L 174.40,142.17 L 175.60,136.73 L 176.80,131.61 L 178.00,126.82 L 179.20,122.39 L 180.40,118.36 L 181.60,114.74 L 182.80,111.56 L 184.00,108.84 L 185.20,106.58 L 186.40,104.82 L 187.60,103.55 L 188.80,102.78 L 190.00,102.53 L 191.20,102.78 L 192.40,103.55 L 193.60,104.82 L 194.80,106.58 L 196.00,108.84 L 197.20,111.56 L 198.40,114.74 L 199.60,118.36 L 200.80,122.39 L 202.00,126.82 L 203.20,131.61 L 204.40,136.73 L 205.60,142.17 L 206.80,147.89 L 208.00,153.85 L 209.20,160.04 L 210.40,166.40 L 211.60,172.92 L 212.80,179.56 L 214.00,186.29 L 215.20,193.08 L 216.40,199.90 L 217.60,206.72 L 218.80,213.51 L 220.00,220.25 L 221.20,226.91 L 222.40,233.46 L 223.60,239.90 L 224.80,246.20 L 226.00,252.33 L 227.20,258.30 L 228.40,264.08 L 229.60,269.66 L 230.80,275.03 L 232.00,280.19 L 233.20,285.13 L 234.40,289.84 L 235.60,294.32 L 236.80,298.58 L 238.00,302.61 L 239.20,306.41 L 240.40,310.00 L 241.60,313.36 L 242.80,316.51 L 244.00,319.45 L 245.20,322.19 L 246.40,324.74 L 247.60,327.10 L 248.80,329.28 L 250.00,331.30 L 251.20,333.15 L 252.40,334.85 L 253.60,336.41 L 254.80,337.83 L 256.00,339.13 L 257.20,340.30 L 258.40,341.37 L 259.60,342.34 L 260.80,343.21 L 262.00,344.00 L 263.20,344.70 L 264.40,345.33 L 265.60,345.90 L 266.80,346.40 L 268.00,346.85 L 269.20,347.25 L 270.40,347.60 L 271.60,347.92 L 272.80,348.19 L 274.00,348.43 L 275.20,348.65 L 276.40,348.83 L 277.60,348.99 L 278.80,349.14 L 280.00,349.26 L 281.20,349.37 L 282.40,349.46 L 283.60,349.54 L 284.80,349.61 L 286.00,349.67 L 287.20,349.72 L 288.40,349.76 L 289.60,349.80 L 290.80,349.83 L 292.00,349.86 L 293.20,349.88 L 294.40,349.90 L 295.60,349.92 L 296.80,349.93 L 298.00,349.94 L 299.20,349.95 L 300.40,349.96 L 301.60,349.97 L 302.80,349.97 L 304.00,349.98 L 305.20,349.98 L 306.40,349.99 L 307.60,349.99 L 308.80,349.99 L 310.00,349.99" fill="none" stroke="#C8102E" stroke-width="2"/>
<line x1="190.0" y1="350" x2="190.0" y2="58" stroke="#C8102E" stroke-width="1" stroke-dasharray="4 3"/>
<line x1="163.6" y1="362" x2="216.4" y2="362" stroke="#C8860E" stroke-width="1.5"/>
<line x1="163.6" y1="357" x2="163.6" y2="367" stroke="#C8860E" stroke-width="1.5"/>
<line x1="216.4" y1="357" x2="216.4" y2="367" stroke="#C8860E" stroke-width="1.5"/>
<text x="190.0" y="382" text-anchor="middle" font-family="'EB Garamond','Garamond',Georgia,serif" font-size="12" fill="#C8860E" font-style="italic">&#x3C3;</text>
<text x="190.0" y="400" text-anchor="middle" font-family="'EB Garamond','Garamond',Georgia,serif" font-size="11" fill="#C8102E" font-style="italic">mean = mode</text>
<path d="M 390.00,335.13 L 391.20,324.47 L 392.40,312.51 L 393.60,300.18 L 394.80,288.16 L 396.00,276.88 L 397.20,266.60 L 398.40,257.46 L 399.60,249.49 L 400.80,242.68 L 402.00,236.98 L 403.20,232.31 L 404.40,228.60 L 405.60,225.73 L 406.80,223.64 L 408.00,222.23 L 409.20,221.42 L 410.40,221.14 L 411.60,221.31 L 412.80,221.89 L 414.00,222.80 L 415.20,224.01 L 416.40,225.47 L 417.60,227.13 L 418.80,228.97 L 420.00,230.95 L 421.20,233.04 L 422.40,235.23 L 423.60,237.49 L 424.80,239.81 L 426.00,242.16 L 427.20,244.54 L 428.40,246.93 L 429.60,249.32 L 430.80,251.70 L 432.00,254.07 L 433.20,256.42 L 434.40,258.75 L 435.60,261.05 L 436.80,263.31 L 438.00,265.53 L 439.20,267.72 L 440.40,269.86 L 441.60,271.96 L 442.80,274.02 L 444.00,276.03 L 445.20,278.00 L 446.40,279.91 L 447.60,281.79 L 448.80,283.61 L 450.00,285.39 L 451.20,287.13 L 452.40,288.82 L 453.60,290.46 L 454.80,292.06 L 456.00,293.62 L 457.20,295.14 L 458.40,296.61 L 459.60,298.04 L 460.80,299.43 L 462.00,300.79 L 463.20,302.10 L 464.40,303.38 L 465.60,304.62 L 466.80,305.82 L 468.00,307.00 L 469.20,308.13 L 470.40,309.24 L 471.60,310.31 L 472.80,311.35 L 474.00,312.37 L 475.20,313.35 L 476.40,314.30 L 477.60,315.23 L 478.80,316.13 L 480.00,317.01 L 481.20,317.85 L 482.40,318.68 L 483.60,319.48 L 484.80,320.26 L 486.00,321.02 L 487.20,321.75 L 488.40,322.46 L 489.60,323.16 L 490.80,323.83 L 492.00,324.48 L 493.20,325.12 L 494.40,325.74 L 495.60,326.34 L 496.80,326.92 L 498.00,327.49 L 499.20,328.04 L 500.40,328.58 L 501.60,329.10 L 502.80,329.60 L 504.00,330.10 L 505.20,330.58 L 506.40,331.04 L 507.60,331.49 L 508.80,331.93 L 510.00,332.36 L 511.20,332.78 L 512.40,333.19 L 513.60,333.58 L 514.80,333.96 L 516.00,334.34 L 517.20,334.70 L 518.40,335.06 L 519.60,335.40 L 520.80,335.74 L 522.00,336.06 L 523.20,336.38 L 524.40,336.69 L 525.60,336.99 L 526.80,337.29 L 528.00,337.57 L 529.20,337.85 L 530.40,338.12 L 531.60,338.39 L 532.80,338.64 L 534.00,338.90 L 535.20,339.14 L 536.40,339.38 L 537.60,339.61 L 538.80,339.84 L 540.00,340.06 L 541.20,340.27 L 542.40,340.48 L 543.60,340.69 L 544.80,340.89 L 546.00,341.08 L 547.20,341.27 L 548.40,341.46 L 549.60,341.64 L 550.80,341.82 L 552.00,341.99 L 553.20,342.15 L 554.40,342.32 L 555.60,342.48 L 556.80,342.63 L 558.00,342.79 L 559.20,342.93 L 560.40,343.08 L 561.60,343.22 L 562.80,343.36 L 564.00,343.49 L 565.20,343.63 L 566.40,343.76 L 567.60,343.88 L 568.80,344.00 L 570.00,344.12 L 571.20,344.24 L 572.40,344.36 L 573.60,344.47 L 574.80,344.58 L 576.00,344.68 L 577.20,344.79 L 578.40,344.89 L 579.60,344.99 L 580.80,345.09 L 582.00,345.18 L 583.20,345.27 L 584.40,345.37 L 585.60,345.45 L 586.80,345.54 L 588.00,345.63 L 589.20,345.71 L 590.40,345.79 L 591.60,345.87 L 592.80,345.95 L 594.00,346.03 L 595.20,346.10 L 596.40,346.17 L 597.60,346.24 L 598.80,346.31 L 600.00,346.38 L 601.20,346.45 L 602.40,346.51 L 603.60,346.58 L 604.80,346.64 L 606.00,346.70 L 607.20,346.76 L 608.40,346.82 L 609.60,346.88 L 610.80,346.93 L 612.00,346.99 L 613.20,347.04 L 614.40,347.10 L 615.60,347.15 L 616.80,347.20 L 618.00,347.25 L 619.20,347.30 L 620.40,347.35 L 621.60,347.39 L 622.80,347.44 L 624.00,347.48 L 625.20,347.53 L 626.40,347.57 L 627.60,347.61 L 628.80,347.65 L 630.00,347.69" fill="none" stroke="#787878" stroke-width="2"/>
<line x1="410.5" y1="350" x2="410.5" y2="55" stroke="#787878" stroke-width="1" stroke-dasharray="4 3"/>
<line x1="451.3" y1="350" x2="451.3" y2="55" stroke="#C8102E" stroke-width="1.2" stroke-dasharray="4 3"/>
<text x="410.5" y="396" text-anchor="middle" font-family="'EB Garamond','Garamond',Georgia,serif" font-size="11" fill="#787878" font-style="italic">mode</text>
<text x="451.3" y="410" text-anchor="middle" font-family="'EB Garamond','Garamond',Georgia,serif" font-size="11" fill="#C8102E" font-style="italic">mean</text>
<text x="350" y="418" text-anchor="middle" font-family="'EB Garamond','Garamond',Georgia,serif" font-size="13" fill="#2a1a0e">Mean is the probability-weighted centroid; for skewed distributions mean ≠ mode</text>
</svg>