<!-- CAJAL SVG | book: Quantum Mechanics | chapter: 04-series-expansions-and-approximation | figure: 01 | type: chart | date: 2026-06-06 -->
<svg viewBox="0 0 700 420" xmlns="http://www.w3.org/2000/svg" role="img" aria-labelledby="fig-title-0401">
<title id="fig-title-0401">Taylor truncation of sin(x): accuracy vs. expansion order</title>
<desc>Two stacked panels from 0 to 1.6 radians. Upper: exact sin(x) and three truncations (order 1, 3, 5). Lower: absolute errors of each truncation starting at zero. Vertical lines mark 5 and 15 degrees.</desc>
<metadata><cajal:figure xmlns:cajal="https://bearbrown.ai/cajal/1.0" book="Quantum Mechanics" book-slug="quantum-mechanics-vol5" chapter="04-series-expansions-and-approximation" figure-number="01" figure-title="Taylor truncation of sin(x): accuracy vs. expansion order" figure-slug="taylor-sin-truncation-error" figure-type="chart" priority="CRITICAL" author="Humanitarians AI Incorporated" date-generated="2026-06-06" source-file="pantry/04-series-expansions-and-approximation-cajal.md"/></metadata>
<defs><marker id="arr04" markerWidth="8" markerHeight="6" refX="7" refY="3" orient="auto"><polygon points="0 0, 8 3, 0 6" fill="#2a1a0e"/></marker></defs>
<rect x="80" y="40" width="540" height="220" fill="#F5F5F5" stroke="#D4D4D4" stroke-width="0.75"/>
<rect x="80" y="280" width="540" height="110" fill="#F5F5F5" stroke="#D4D4D4" stroke-width="0.75"/>
<line x1="80" y1="260.0" x2="630" y2="260.0" stroke="#2a1a0e" stroke-width="0.75"/>
<line x1="80" y1="260.0" x2="80" y2="40" stroke="#2a1a0e" stroke-width="0.75" marker-end="url(#arr04)"/>
<text x="84" y="36" font-family="'EB Garamond',Georgia,serif" font-size="12" fill="#545454" font-style="italic">f(x)</text>
<line x1="80" y1="390.0" x2="630" y2="390.0" stroke="#2a1a0e" stroke-width="0.75" marker-end="url(#arr04)"/>
<line x1="80" y1="390.0" x2="80" y2="280" stroke="#2a1a0e" stroke-width="0.75" marker-end="url(#arr04)"/>
<text x="84" y="277" font-family="'EB Garamond',Georgia,serif" font-size="11" fill="#545454" font-style="italic">|error|</text>
<text x="625" y="404.0" font-family="'EB Garamond',Georgia,serif" font-size="11" fill="#545454" font-style="italic">x (rad)</text>
<line x1="109.5" y1="40" x2="109.5" y2="390" stroke="#ADADAD" stroke-width="0.75" stroke-dasharray="4 3"/>
<text x="109.5" y="406" text-anchor="middle" font-family="'JetBrains Mono',monospace" font-size="10" fill="#545454">5&#xB0;</text>
<line x1="168.4" y1="40" x2="168.4" y2="390" stroke="#ADADAD" stroke-width="0.75" stroke-dasharray="4 3"/>
<text x="168.4" y="406" text-anchor="middle" font-family="'JetBrains Mono',monospace" font-size="10" fill="#545454">15&#xB0;</text>
<path d="M 80.00,260.00 L 81.80,259.17 L 83.60,258.34 L 85.40,257.51 L 87.20,256.68 L 89.00,255.85 L 90.80,255.02 L 92.60,254.19 L 94.40,253.36 L 96.20,252.54 L 98.00,251.71 L 99.80,250.88 L 101.60,250.05 L 103.40,249.22 L 105.20,248.40 L 107.00,247.57 L 108.80,246.74 L 110.60,245.92 L 112.40,245.09 L 114.20,244.26 L 116.00,243.44 L 117.80,242.61 L 119.60,241.79 L 121.40,240.97 L 123.20,240.14 L 125.00,239.32 L 126.80,238.50 L 128.60,237.68 L 130.40,236.86 L 132.20,236.04 L 134.00,235.22 L 135.80,234.40 L 137.60,233.58 L 139.40,232.76 L 141.20,231.95 L 143.00,231.13 L 144.80,230.32 L 146.60,229.50 L 148.40,228.69 L 150.20,227.88 L 152.00,227.07 L 153.80,226.26 L 155.60,225.45 L 157.40,224.64 L 159.20,223.83 L 161.00,223.02 L 162.80,222.22 L 164.60,221.41 L 166.40,220.61 L 168.20,219.81 L 170.00,219.01 L 171.80,218.21 L 173.60,217.41 L 175.40,216.61 L 177.20,215.82 L 179.00,215.02 L 180.80,214.23 L 182.60,213.44 L 184.40,212.65 L 186.20,211.86 L 188.00,211.07 L 189.80,210.28 L 191.60,209.50 L 193.40,208.71 L 195.20,207.93 L 197.00,207.15 L 198.80,206.37 L 200.60,205.59 L 202.40,204.81 L 204.20,204.04 L 206.00,203.27 L 207.80,202.49 L 209.60,201.72 L 211.40,200.96 L 213.20,200.19 L 215.00,199.42 L 216.80,198.66 L 218.60,197.90 L 220.40,197.14 L 222.20,196.38 L 224.00,195.63 L 225.80,194.87 L 227.60,194.12 L 229.40,193.37 L 231.20,192.62 L 233.00,191.87 L 234.80,191.13 L 236.60,190.38 L 238.40,189.64 L 240.20,188.90 L 242.00,188.17 L 243.80,187.43 L 245.60,186.70 L 247.40,185.97 L 249.20,185.24 L 251.00,184.51 L 252.80,183.79 L 254.60,183.07 L 256.40,182.35 L 258.20,181.63 L 260.00,180.91 L 261.80,180.20 L 263.60,179.49 L 265.40,178.78 L 267.20,178.08 L 269.00,177.37 L 270.80,176.67 L 272.60,175.97 L 274.40,175.27 L 276.20,174.58 L 278.00,173.89 L 279.80,173.20 L 281.60,172.51 L 283.40,171.82 L 285.20,171.14 L 287.00,170.46 L 288.80,169.79 L 290.60,169.11 L 292.40,168.44 L 294.20,167.77 L 296.00,167.10 L 297.80,166.44 L 299.60,165.78 L 301.40,165.12 L 303.20,164.46 L 305.00,163.81 L 306.80,163.16 L 308.60,162.51 L 310.40,161.87 L 312.20,161.22 L 314.00,160.58 L 315.80,159.95 L 317.60,159.31 L 319.40,158.68 L 321.20,158.05 L 323.00,157.43 L 324.80,156.81 L 326.60,156.19 L 328.40,155.57 L 330.20,154.96 L 332.00,154.35 L 333.80,153.74 L 335.60,153.14 L 337.40,152.53 L 339.20,151.94 L 341.00,151.34 L 342.80,150.75 L 344.60,150.16 L 346.40,149.57 L 348.20,148.99 L 350.00,148.41 L 351.80,147.83 L 353.60,147.26 L 355.40,146.69 L 357.20,146.12 L 359.00,145.56 L 360.80,145.00 L 362.60,144.44 L 364.40,143.89 L 366.20,143.34 L 368.00,142.79 L 369.80,142.25 L 371.60,141.71 L 373.40,141.17 L 375.20,140.64 L 377.00,140.11 L 378.80,139.58 L 380.60,139.06 L 382.40,138.54 L 384.20,138.02 L 386.00,137.51 L 387.80,137.00 L 389.60,136.49 L 391.40,135.99 L 393.20,135.49 L 395.00,134.99 L 396.80,134.50 L 398.60,134.01 L 400.40,133.53 L 402.20,133.05 L 404.00,132.57 L 405.80,132.10 L 407.60,131.63 L 409.40,131.16 L 411.20,130.70 L 413.00,130.24 L 414.80,129.78 L 416.60,129.33 L 418.40,128.88 L 420.20,128.44 L 422.00,128.00 L 423.80,127.56 L 425.60,127.13 L 427.40,126.70 L 429.20,126.27 L 431.00,125.85 L 432.80,125.43 L 434.60,125.02 L 436.40,124.61 L 438.20,124.20 L 440.00,123.80 L 441.80,123.40 L 443.60,123.00 L 445.40,122.61 L 447.20,122.22 L 449.00,121.84 L 450.80,121.46 L 452.60,121.09 L 454.40,120.72 L 456.20,120.35 L 458.00,119.98 L 459.80,119.62 L 461.60,119.27 L 463.40,118.92 L 465.20,118.57 L 467.00,118.23 L 468.80,117.89 L 470.60,117.55 L 472.40,117.22 L 474.20,116.89 L 476.00,116.57 L 477.80,116.25 L 479.60,115.94 L 481.40,115.63 L 483.20,115.32 L 485.00,115.02 L 486.80,114.72 L 488.60,114.42 L 490.40,114.13 L 492.20,113.85 L 494.00,113.56 L 495.80,113.29 L 497.60,113.01 L 499.40,112.74 L 501.20,112.48 L 503.00,112.22 L 504.80,111.96 L 506.60,111.71 L 508.40,111.46 L 510.20,111.22 L 512.00,110.98 L 513.80,110.74 L 515.60,110.51 L 517.40,110.28 L 519.20,110.06 L 521.00,109.84 L 522.80,109.62 L 524.60,109.41 L 526.40,109.21 L 528.20,109.01 L 530.00,108.81 L 531.80,108.62 L 533.60,108.43 L 535.40,108.24 L 537.20,108.06 L 539.00,107.89 L 540.80,107.72 L 542.60,107.55 L 544.40,107.39 L 546.20,107.23 L 548.00,107.07 L 549.80,106.92 L 551.60,106.78 L 553.40,106.64 L 555.20,106.50 L 557.00,106.37 L 558.80,106.24 L 560.60,106.12 L 562.40,106.00 L 564.20,105.88 L 566.00,105.77 L 567.80,105.67 L 569.60,105.57 L 571.40,105.47 L 573.20,105.38 L 575.00,105.29 L 576.80,105.20 L 578.60,105.12 L 580.40,105.05 L 582.20,104.98 L 584.00,104.91 L 585.80,104.85 L 587.60,104.79 L 589.40,104.74 L 591.20,104.69 L 593.00,104.65 L 594.80,104.61 L 596.60,104.57 L 598.40,104.54 L 600.20,104.51 L 602.00,104.49 L 603.80,104.47 L 605.60,104.46 L 607.40,104.45 L 609.20,104.45 L 611.00,104.44 L 612.80,104.45 L 614.60,104.46 L 616.40,104.47 L 618.20,104.49 L 620.00,104.51" fill="none" stroke="#C8102E" stroke-width="2.5"/>
<path d="M 80.00,260.00 L 81.80,259.17 L 83.60,258.34 L 85.40,257.51 L 87.20,256.68 L 89.00,255.85 L 90.80,255.02 L 92.60,254.19 L 94.40,253.36 L 96.20,252.53 L 98.00,251.70 L 99.80,250.87 L 101.60,250.04 L 103.40,249.21 L 105.20,248.39 L 107.00,247.56 L 108.80,246.73 L 110.60,245.90 L 112.40,245.07 L 114.20,244.24 L 116.00,243.41 L 117.80,242.58 L 119.60,241.75 L 121.40,240.92 L 123.20,240.09 L 125.00,239.26 L 126.80,238.43 L 128.60,237.60 L 130.40,236.77 L 132.20,235.94 L 134.00,235.11 L 135.80,234.28 L 137.60,233.45 L 139.40,232.62 L 141.20,231.79 L 143.00,230.96 L 144.80,230.13 L 146.60,229.30 L 148.40,228.47 L 150.20,227.64 L 152.00,226.81 L 153.80,225.99 L 155.60,225.16 L 157.40,224.33 L 159.20,223.50 L 161.00,222.67 L 162.80,221.84 L 164.60,221.01 L 166.40,220.18 L 168.20,219.35 L 170.00,218.52 L 171.80,217.69 L 173.60,216.86 L 175.40,216.03 L 177.20,215.20 L 179.00,214.37 L 180.80,213.54 L 182.60,212.71 L 184.40,211.88 L 186.20,211.05 L 188.00,210.22 L 189.80,209.39 L 191.60,208.56 L 193.40,207.73 L 195.20,206.90 L 197.00,206.07 L 198.80,205.24 L 200.60,204.41 L 202.40,203.59 L 204.20,202.76 L 206.00,201.93 L 207.80,201.10 L 209.60,200.27 L 211.40,199.44 L 213.20,198.61 L 215.00,197.78 L 216.80,196.95 L 218.60,196.12 L 220.40,195.29 L 222.20,194.46 L 224.00,193.63 L 225.80,192.80 L 227.60,191.97 L 229.40,191.14 L 231.20,190.31 L 233.00,189.48 L 234.80,188.65 L 236.60,187.82 L 238.40,186.99 L 240.20,186.16 L 242.00,185.33 L 243.80,184.50 L 245.60,183.67 L 247.40,182.84 L 249.20,182.01 L 251.00,181.19 L 252.80,180.36 L 254.60,179.53 L 256.40,178.70 L 258.20,177.87 L 260.00,177.04 L 261.80,176.21 L 263.60,175.38 L 265.40,174.55 L 267.20,173.72 L 269.00,172.89 L 270.80,172.06 L 272.60,171.23 L 274.40,170.40 L 276.20,169.57 L 278.00,168.74 L 279.80,167.91 L 281.60,167.08 L 283.40,166.25 L 285.20,165.42 L 287.00,164.59 L 288.80,163.76 L 290.60,162.93 L 292.40,162.10 L 294.20,161.27 L 296.00,160.44 L 297.80,159.61 L 299.60,158.79 L 301.40,157.96 L 303.20,157.13 L 305.00,156.30 L 306.80,155.47 L 308.60,154.64 L 310.40,153.81 L 312.20,152.98 L 314.00,152.15 L 315.80,151.32 L 317.60,150.49 L 319.40,149.66 L 321.20,148.83 L 323.00,148.00 L 324.80,147.17 L 326.60,146.34 L 328.40,145.51 L 330.20,144.68 L 332.00,143.85 L 333.80,143.02 L 335.60,142.19 L 337.40,141.36 L 339.20,140.53 L 341.00,139.70 L 342.80,138.87 L 344.60,138.04 L 346.40,137.21 L 348.20,136.39 L 350.00,135.56 L 351.80,134.73 L 353.60,133.90 L 355.40,133.07 L 357.20,132.24 L 359.00,131.41 L 360.80,130.58 L 362.60,129.75 L 364.40,128.92 L 366.20,128.09 L 368.00,127.26 L 369.80,126.43 L 371.60,125.60 L 373.40,124.77 L 375.20,123.94 L 377.00,123.11 L 378.80,122.28 L 380.60,121.45 L 382.40,120.62 L 384.20,119.79 L 386.00,118.96 L 387.80,118.13 L 389.60,117.30 L 391.40,116.47 L 393.20,115.64 L 395.00,114.81 L 396.80,113.99 L 398.60,113.16 L 400.40,112.33 L 402.20,111.50 L 404.00,110.67 L 405.80,109.84 L 407.60,109.01 L 409.40,108.18 L 411.20,107.35 L 413.00,106.52 L 414.80,105.69 L 416.60,104.86 L 418.40,104.03 L 420.20,103.20 L 422.00,102.37 L 423.80,101.54 L 425.60,100.71 L 427.40,99.88 L 429.20,99.05 L 431.00,98.22 L 432.80,97.39 L 434.60,96.56 L 436.40,95.73 L 438.20,94.90 L 440.00,94.07 L 441.80,93.24 L 443.60,92.41 L 445.40,91.59 L 447.20,90.76 L 449.00,89.93 L 450.80,89.10 L 452.60,88.27 L 454.40,87.44 L 456.20,86.61 L 458.00,85.78 L 459.80,84.95 L 461.60,84.12 L 463.40,83.29 L 465.20,82.46 L 467.00,81.63 L 468.80,80.80 L 470.60,79.97 L 472.40,79.14 L 474.20,78.31 L 476.00,77.48 L 477.80,76.65 L 479.60,75.82 L 481.40,74.99 L 483.20,74.16 L 485.00,73.33 L 486.80,72.50 L 488.60,71.67 L 490.40,70.84 L 492.20,70.01 L 494.00,69.19 L 495.80,68.36 L 497.60,67.53 L 499.40,66.70 L 501.20,65.87 L 503.00,65.04 L 504.80,64.21 L 506.60,63.38 L 508.40,62.55 L 510.20,61.72 L 512.00,60.89 L 513.80,60.06 L 515.60,59.23 L 517.40,58.40 L 519.20,57.57 L 521.00,56.74 L 522.80,55.91 L 524.60,55.08 L 526.40,54.25 L 528.20,53.42 L 530.00,52.59 L 531.80,51.76 L 533.60,51.56 L 535.40,51.56 L 537.20,51.56 L 539.00,51.56 L 540.80,51.56 L 542.60,51.56 L 544.40,51.56 L 546.20,51.56 L 548.00,51.56 L 549.80,51.56 L 551.60,51.56 L 553.40,51.56 L 555.20,51.56 L 557.00,51.56 L 558.80,51.56 L 560.60,51.56 L 562.40,51.56 L 564.20,51.56 L 566.00,51.56 L 567.80,51.56 L 569.60,51.56 L 571.40,51.56 L 573.20,51.56 L 575.00,51.56 L 576.80,51.56 L 578.60,51.56 L 580.40,51.56 L 582.20,51.56 L 584.00,51.56 L 585.80,51.56 L 587.60,51.56 L 589.40,51.56 L 591.20,51.56 L 593.00,51.56 L 594.80,51.56 L 596.60,51.56 L 598.40,51.56 L 600.20,51.56 L 602.00,51.56 L 603.80,51.56 L 605.60,51.56 L 607.40,51.56 L 609.20,51.56 L 611.00,51.56 L 612.80,51.56 L 614.60,51.56 L 616.40,51.56 L 618.20,51.56 L 620.00,51.56" fill="none" stroke="#2a1a0e" stroke-width="1.5"/>
<path d="M 80.00,260.00 L 81.80,259.17 L 83.60,258.34 L 85.40,257.51 L 87.20,256.68 L 89.00,255.85 L 90.80,255.02 L 92.60,254.19 L 94.40,253.36 L 96.20,252.54 L 98.00,251.71 L 99.80,250.88 L 101.60,250.05 L 103.40,249.22 L 105.20,248.40 L 107.00,247.57 L 108.80,246.74 L 110.60,245.92 L 112.40,245.09 L 114.20,244.26 L 116.00,243.44 L 117.80,242.61 L 119.60,241.79 L 121.40,240.97 L 123.20,240.14 L 125.00,239.32 L 126.80,238.50 L 128.60,237.68 L 130.40,236.86 L 132.20,236.04 L 134.00,235.22 L 135.80,234.40 L 137.60,233.58 L 139.40,232.76 L 141.20,231.95 L 143.00,231.13 L 144.80,230.32 L 146.60,229.50 L 148.40,228.69 L 150.20,227.88 L 152.00,227.07 L 153.80,226.26 L 155.60,225.45 L 157.40,224.64 L 159.20,223.83 L 161.00,223.03 L 162.80,222.22 L 164.60,221.42 L 166.40,220.61 L 168.20,219.81 L 170.00,219.01 L 171.80,218.21 L 173.60,217.41 L 175.40,216.62 L 177.20,215.82 L 179.00,215.02 L 180.80,214.23 L 182.60,213.44 L 184.40,212.65 L 186.20,211.86 L 188.00,211.07 L 189.80,210.29 L 191.60,209.50 L 193.40,208.72 L 195.20,207.93 L 197.00,207.15 L 198.80,206.38 L 200.60,205.60 L 202.40,204.82 L 204.20,204.05 L 206.00,203.27 L 207.80,202.50 L 209.60,201.73 L 211.40,200.97 L 213.20,200.20 L 215.00,199.44 L 216.80,198.67 L 218.60,197.91 L 220.40,197.16 L 222.20,196.40 L 224.00,195.64 L 225.80,194.89 L 227.60,194.14 L 229.40,193.39 L 231.20,192.64 L 233.00,191.90 L 234.80,191.15 L 236.60,190.41 L 238.40,189.67 L 240.20,188.94 L 242.00,188.20 L 243.80,187.47 L 245.60,186.74 L 247.40,186.01 L 249.20,185.28 L 251.00,184.56 L 252.80,183.84 L 254.60,183.12 L 256.40,182.40 L 258.20,181.68 L 260.00,180.97 L 261.80,180.26 L 263.60,179.55 L 265.40,178.85 L 267.20,178.14 L 269.00,177.44 L 270.80,176.74 L 272.60,176.05 L 274.40,175.35 L 276.20,174.66 L 278.00,173.98 L 279.80,173.29 L 281.60,172.61 L 283.40,171.93 L 285.20,171.25 L 287.00,170.57 L 288.80,169.90 L 290.60,169.23 L 292.40,168.57 L 294.20,167.90 L 296.00,167.24 L 297.80,166.58 L 299.60,165.93 L 301.40,165.27 L 303.20,164.62 L 305.00,163.98 L 306.80,163.33 L 308.60,162.69 L 310.40,162.06 L 312.20,161.42 L 314.00,160.79 L 315.80,160.16 L 317.60,159.53 L 319.40,158.91 L 321.20,158.29 L 323.00,157.68 L 324.80,157.06 L 326.60,156.45 L 328.40,155.85 L 330.20,155.24 L 332.00,154.64 L 333.80,154.05 L 335.60,153.45 L 337.40,152.86 L 339.20,152.28 L 341.00,151.69 L 342.80,151.11 L 344.60,150.54 L 346.40,149.96 L 348.20,149.40 L 350.00,148.83 L 351.80,148.27 L 353.60,147.71 L 355.40,147.15 L 357.20,146.60 L 359.00,146.05 L 360.80,145.51 L 362.60,144.97 L 364.40,144.43 L 366.20,143.90 L 368.00,143.37 L 369.80,142.84 L 371.60,142.32 L 373.40,141.80 L 375.20,141.29 L 377.00,140.78 L 378.80,140.27 L 380.60,139.77 L 382.40,139.27 L 384.20,138.78 L 386.00,138.29 L 387.80,137.80 L 389.60,137.32 L 391.40,136.84 L 393.20,136.36 L 395.00,135.89 L 396.80,135.43 L 398.60,134.97 L 400.40,134.51 L 402.20,134.05 L 404.00,133.60 L 405.80,133.16 L 407.60,132.72 L 409.40,132.28 L 411.20,131.85 L 413.00,131.42 L 414.80,131.00 L 416.60,130.58 L 418.40,130.16 L 420.20,129.75 L 422.00,129.35 L 423.80,128.95 L 425.60,128.55 L 427.40,128.16 L 429.20,127.77 L 431.00,127.39 L 432.80,127.01 L 434.60,126.63 L 436.40,126.26 L 438.20,125.90 L 440.00,125.54 L 441.80,125.18 L 443.60,124.83 L 445.40,124.49 L 447.20,124.15 L 449.00,123.81 L 450.80,123.48 L 452.60,123.15 L 454.40,122.83 L 456.20,122.51 L 458.00,122.20 L 459.80,121.90 L 461.60,121.59 L 463.40,121.30 L 465.20,121.00 L 467.00,120.72 L 468.80,120.44 L 470.60,120.16 L 472.40,119.89 L 474.20,119.62 L 476.00,119.36 L 477.80,119.10 L 479.60,118.85 L 481.40,118.61 L 483.20,118.37 L 485.00,118.13 L 486.80,117.90 L 488.60,117.68 L 490.40,117.46 L 492.20,117.25 L 494.00,117.04 L 495.80,116.84 L 497.60,116.64 L 499.40,116.45 L 501.20,116.26 L 503.00,116.08 L 504.80,115.90 L 506.60,115.73 L 508.40,115.57 L 510.20,115.41 L 512.00,115.26 L 513.80,115.11 L 515.60,114.97 L 517.40,114.84 L 519.20,114.71 L 521.00,114.58 L 522.80,114.46 L 524.60,114.35 L 526.40,114.24 L 528.20,114.14 L 530.00,114.05 L 531.80,113.96 L 533.60,113.87 L 535.40,113.80 L 537.20,113.73 L 539.00,113.66 L 540.80,113.60 L 542.60,113.55 L 544.40,113.50 L 546.20,113.46 L 548.00,113.42 L 549.80,113.39 L 551.60,113.37 L 553.40,113.36 L 555.20,113.35 L 557.00,113.34 L 558.80,113.34 L 560.60,113.35 L 562.40,113.37 L 564.20,113.39 L 566.00,113.41 L 567.80,113.45 L 569.60,113.49 L 571.40,113.53 L 573.20,113.59 L 575.00,113.65 L 576.80,113.71 L 578.60,113.79 L 580.40,113.86 L 582.20,113.95 L 584.00,114.04 L 585.80,114.14 L 587.60,114.25 L 589.40,114.36 L 591.20,114.48 L 593.00,114.60 L 594.80,114.73 L 596.60,114.87 L 598.40,115.02 L 600.20,115.17 L 602.00,115.33 L 603.80,115.50 L 605.60,115.67 L 607.40,115.85 L 609.20,116.04 L 611.00,116.23 L 612.80,116.43 L 614.60,116.64 L 616.40,116.85 L 618.20,117.07 L 620.00,117.30" fill="none" stroke="#787878" stroke-width="1.5"/>
<path d="M 80.00,260.00 L 81.80,259.17 L 83.60,258.34 L 85.40,257.51 L 87.20,256.68 L 89.00,255.85 L 90.80,255.02 L 92.60,254.19 L 94.40,253.36 L 96.20,252.54 L 98.00,251.71 L 99.80,250.88 L 101.60,250.05 L 103.40,249.22 L 105.20,248.40 L 107.00,247.57 L 108.80,246.74 L 110.60,245.92 L 112.40,245.09 L 114.20,244.26 L 116.00,243.44 L 117.80,242.61 L 119.60,241.79 L 121.40,240.97 L 123.20,240.14 L 125.00,239.32 L 126.80,238.50 L 128.60,237.68 L 130.40,236.86 L 132.20,236.04 L 134.00,235.22 L 135.80,234.40 L 137.60,233.58 L 139.40,232.76 L 141.20,231.95 L 143.00,231.13 L 144.80,230.32 L 146.60,229.50 L 148.40,228.69 L 150.20,227.88 L 152.00,227.07 L 153.80,226.26 L 155.60,225.45 L 157.40,224.64 L 159.20,223.83 L 161.00,223.02 L 162.80,222.22 L 164.60,221.41 L 166.40,220.61 L 168.20,219.81 L 170.00,219.01 L 171.80,218.21 L 173.60,217.41 L 175.40,216.61 L 177.20,215.82 L 179.00,215.02 L 180.80,214.23 L 182.60,213.44 L 184.40,212.65 L 186.20,211.86 L 188.00,211.07 L 189.80,210.28 L 191.60,209.50 L 193.40,208.71 L 195.20,207.93 L 197.00,207.15 L 198.80,206.37 L 200.60,205.59 L 202.40,204.81 L 204.20,204.04 L 206.00,203.27 L 207.80,202.49 L 209.60,201.72 L 211.40,200.96 L 213.20,200.19 L 215.00,199.42 L 216.80,198.66 L 218.60,197.90 L 220.40,197.14 L 222.20,196.38 L 224.00,195.63 L 225.80,194.87 L 227.60,194.12 L 229.40,193.37 L 231.20,192.62 L 233.00,191.87 L 234.80,191.13 L 236.60,190.38 L 238.40,189.64 L 240.20,188.90 L 242.00,188.17 L 243.80,187.43 L 245.60,186.70 L 247.40,185.97 L 249.20,185.24 L 251.00,184.51 L 252.80,183.79 L 254.60,183.07 L 256.40,182.35 L 258.20,181.63 L 260.00,180.91 L 261.80,180.20 L 263.60,179.49 L 265.40,178.78 L 267.20,178.07 L 269.00,177.37 L 270.80,176.67 L 272.60,175.97 L 274.40,175.27 L 276.20,174.58 L 278.00,173.89 L 279.80,173.20 L 281.60,172.51 L 283.40,171.82 L 285.20,171.14 L 287.00,170.46 L 288.80,169.78 L 290.60,169.11 L 292.40,168.44 L 294.20,167.77 L 296.00,167.10 L 297.80,166.44 L 299.60,165.78 L 301.40,165.12 L 303.20,164.46 L 305.00,163.81 L 306.80,163.16 L 308.60,162.51 L 310.40,161.86 L 312.20,161.22 L 314.00,160.58 L 315.80,159.94 L 317.60,159.31 L 319.40,158.68 L 321.20,158.05 L 323.00,157.43 L 324.80,156.80 L 326.60,156.18 L 328.40,155.57 L 330.20,154.95 L 332.00,154.34 L 333.80,153.74 L 335.60,153.13 L 337.40,152.53 L 339.20,151.93 L 341.00,151.34 L 342.80,150.74 L 344.60,150.15 L 346.40,149.57 L 348.20,148.98 L 350.00,148.40 L 351.80,147.83 L 353.60,147.25 L 355.40,146.68 L 357.20,146.12 L 359.00,145.55 L 360.80,144.99 L 362.60,144.44 L 364.40,143.88 L 366.20,143.33 L 368.00,142.78 L 369.80,142.24 L 371.60,141.70 L 373.40,141.16 L 375.20,140.63 L 377.00,140.09 L 378.80,139.57 L 380.60,139.04 L 382.40,138.52 L 384.20,138.01 L 386.00,137.49 L 387.80,136.98 L 389.60,136.47 L 391.40,135.97 L 393.20,135.47 L 395.00,134.98 L 396.80,134.48 L 398.60,133.99 L 400.40,133.51 L 402.20,133.03 L 404.00,132.55 L 405.80,132.07 L 407.60,131.60 L 409.40,131.13 L 411.20,130.67 L 413.00,130.21 L 414.80,129.75 L 416.60,129.30 L 418.40,128.85 L 420.20,128.40 L 422.00,127.96 L 423.80,127.52 L 425.60,127.09 L 427.40,126.66 L 429.20,126.23 L 431.00,125.81 L 432.80,125.39 L 434.60,124.97 L 436.40,124.56 L 438.20,124.15 L 440.00,123.75 L 441.80,123.35 L 443.60,122.95 L 445.40,122.56 L 447.20,122.17 L 449.00,121.78 L 450.80,121.40 L 452.60,121.03 L 454.40,120.65 L 456.20,120.28 L 458.00,119.92 L 459.80,119.56 L 461.60,119.20 L 463.40,118.84 L 465.20,118.49 L 467.00,118.15 L 468.80,117.81 L 470.60,117.47 L 472.40,117.13 L 474.20,116.80 L 476.00,116.48 L 477.80,116.16 L 479.60,115.84 L 481.40,115.52 L 483.20,115.21 L 485.00,114.91 L 486.80,114.61 L 488.60,114.31 L 490.40,114.01 L 492.20,113.72 L 494.00,113.44 L 495.80,113.16 L 497.60,112.88 L 499.40,112.61 L 501.20,112.34 L 503.00,112.07 L 504.80,111.81 L 506.60,111.55 L 508.40,111.30 L 510.20,111.05 L 512.00,110.81 L 513.80,110.56 L 515.60,110.33 L 517.40,110.10 L 519.20,109.87 L 521.00,109.64 L 522.80,109.42 L 524.60,109.21 L 526.40,109.00 L 528.20,108.79 L 530.00,108.58 L 531.80,108.38 L 533.60,108.19 L 535.40,108.00 L 537.20,107.81 L 539.00,107.63 L 540.80,107.45 L 542.60,107.28 L 544.40,107.11 L 546.20,106.94 L 548.00,106.78 L 549.80,106.62 L 551.60,106.47 L 553.40,106.32 L 555.20,106.17 L 557.00,106.03 L 558.80,105.89 L 560.60,105.76 L 562.40,105.63 L 564.20,105.51 L 566.00,105.39 L 567.80,105.27 L 569.60,105.16 L 571.40,105.05 L 573.20,104.95 L 575.00,104.85 L 576.80,104.75 L 578.60,104.66 L 580.40,104.58 L 582.20,104.49 L 584.00,104.42 L 585.80,104.34 L 587.60,104.27 L 589.40,104.20 L 591.20,104.14 L 593.00,104.08 L 594.80,104.03 L 596.60,103.98 L 598.40,103.94 L 600.20,103.89 L 602.00,103.86 L 603.80,103.82 L 605.60,103.80 L 607.40,103.77 L 609.20,103.75 L 611.00,103.73 L 612.80,103.72 L 614.60,103.71 L 616.40,103.71 L 618.20,103.71 L 620.00,103.71" fill="none" stroke="#ADADAD" stroke-width="1.5"/>
<path d="M 80.00,390.00 L 81.80,390.00 L 83.60,390.00 L 85.40,390.00 L 87.20,390.00 L 89.00,390.00 L 90.80,390.00 L 92.60,390.00 L 94.40,390.00 L 96.20,390.00 L 98.00,390.00 L 99.80,390.00 L 101.60,389.99 L 103.40,389.99 L 105.20,389.99 L 107.00,389.99 L 108.80,389.98 L 110.60,389.98 L 112.40,389.98 L 114.20,389.97 L 116.00,389.97 L 117.80,389.97 L 119.60,389.96 L 121.40,389.96 L 123.20,389.95 L 125.00,389.94 L 126.80,389.94 L 128.60,389.93 L 130.40,389.92 L 132.20,389.91 L 134.00,389.90 L 135.80,389.89 L 137.60,389.88 L 139.40,389.87 L 141.20,389.85 L 143.00,389.84 L 144.80,389.83 L 146.60,389.81 L 148.40,389.80 L 150.20,389.78 L 152.00,389.76 L 153.80,389.75 L 155.60,389.73 L 157.40,389.71 L 159.20,389.69 L 161.00,389.66 L 162.80,389.64 L 164.60,389.62 L 166.40,389.59 L 168.20,389.57 L 170.00,389.54 L 171.80,389.51 L 173.60,389.48 L 175.40,389.45 L 177.20,389.42 L 179.00,389.39 L 180.80,389.35 L 182.60,389.32 L 184.40,389.28 L 186.20,389.24 L 188.00,389.21 L 189.80,389.17 L 191.60,389.12 L 193.40,389.08 L 195.20,389.04 L 197.00,388.99 L 198.80,388.94 L 200.60,388.90 L 202.40,388.85 L 204.20,388.79 L 206.00,388.74 L 207.80,388.69 L 209.60,388.63 L 211.40,388.57 L 213.20,388.51 L 215.00,388.45 L 216.80,388.39 L 218.60,388.33 L 220.40,388.26 L 222.20,388.19 L 224.00,388.13 L 225.80,388.05 L 227.60,387.98 L 229.40,387.91 L 231.20,387.83 L 233.00,387.75 L 234.80,387.67 L 236.60,387.59 L 238.40,387.51 L 240.20,387.42 L 242.00,387.34 L 243.80,387.25 L 245.60,387.16 L 247.40,387.06 L 249.20,386.97 L 251.00,386.87 L 252.80,386.77 L 254.60,386.67 L 256.40,386.57 L 258.20,386.46 L 260.00,386.36 L 261.80,386.25 L 263.60,386.14 L 265.40,386.02 L 267.20,385.91 L 269.00,385.79 L 270.80,385.67 L 272.60,385.55 L 274.40,385.42 L 276.20,385.29 L 278.00,385.17 L 279.80,385.03 L 281.60,384.90 L 283.40,384.76 L 285.20,384.63 L 287.00,384.48 L 288.80,384.34 L 290.60,384.20 L 292.40,384.05 L 294.20,383.90 L 296.00,383.74 L 297.80,383.59 L 299.60,383.43 L 301.40,383.27 L 303.20,383.11 L 305.00,382.94 L 306.80,382.77 L 308.60,382.60 L 310.40,382.43 L 312.20,382.25 L 314.00,382.07 L 315.80,381.89 L 317.60,381.71 L 319.40,381.52 L 321.20,381.33 L 323.00,381.14 L 324.80,380.95 L 326.60,380.75 L 328.40,380.55 L 330.20,380.34 L 332.00,380.14 L 333.80,379.93 L 335.60,379.72 L 337.40,379.50 L 339.20,379.29 L 341.00,379.07 L 342.80,378.84 L 344.60,378.62 L 346.40,378.39 L 348.20,378.16 L 350.00,377.92 L 351.80,377.68 L 353.60,377.44 L 355.40,377.20 L 357.20,376.95 L 359.00,376.70 L 360.80,376.45 L 362.60,376.19 L 364.40,375.93 L 366.20,375.67 L 368.00,375.41 L 369.80,375.14 L 371.60,374.87 L 373.40,374.59 L 375.20,374.31 L 377.00,374.03 L 378.80,373.75 L 380.60,373.46 L 382.40,373.17 L 384.20,372.87 L 386.00,372.58 L 387.80,372.28 L 389.60,371.97 L 391.40,371.66 L 393.20,371.35 L 395.00,371.04 L 396.80,370.72 L 398.60,370.40 L 400.40,370.08 L 402.20,369.75 L 404.00,369.42 L 405.80,369.09 L 407.60,368.75 L 409.40,368.41 L 411.20,368.06 L 413.00,367.72 L 414.80,367.36 L 416.60,367.01 L 418.40,366.65 L 420.20,366.29 L 422.00,365.92 L 423.80,365.55 L 425.60,365.18 L 427.40,364.81 L 429.20,364.43 L 431.00,364.04 L 432.80,363.66 L 434.60,363.27 L 436.40,362.87 L 438.20,362.48 L 440.00,362.07 L 441.80,361.67 L 443.60,361.26 L 445.40,360.85 L 447.20,360.43 L 449.00,360.01 L 450.80,359.59 L 452.60,359.16 L 454.40,358.73 L 456.20,358.30 L 458.00,357.86 L 459.80,357.42 L 461.60,356.97 L 463.40,356.52 L 465.20,356.07 L 467.00,355.61 L 468.80,355.15 L 470.60,354.69 L 472.40,354.22 L 474.20,353.75 L 476.00,353.27 L 477.80,352.79 L 479.60,352.31 L 481.40,351.82 L 483.20,351.33 L 485.00,350.84 L 486.80,350.34 L 488.60,349.83 L 490.40,349.33 L 492.20,348.82 L 494.00,348.30 L 495.80,347.78 L 497.60,347.26 L 499.40,346.74 L 501.20,346.21 L 503.00,345.67 L 504.80,345.13 L 506.60,344.59 L 508.40,344.04 L 510.20,343.49 L 512.00,342.94 L 513.80,342.38 L 515.60,341.82 L 517.40,341.25 L 519.20,340.68 L 521.00,340.11 L 522.80,339.53 L 524.60,338.95 L 526.40,338.36 L 528.20,337.77 L 530.00,337.18 L 531.80,336.58 L 533.60,335.98 L 535.40,335.37 L 537.20,334.76 L 539.00,334.15 L 540.80,333.53 L 542.60,332.91 L 544.40,332.28 L 546.20,331.65 L 548.00,331.02 L 549.80,330.38 L 551.60,329.73 L 553.40,329.09 L 555.20,328.44 L 557.00,327.78 L 558.80,327.12 L 560.60,326.46 L 562.40,325.79 L 564.20,325.12 L 566.00,324.44 L 567.80,323.76 L 569.60,323.08 L 571.40,322.39 L 573.20,321.70 L 575.00,321.00 L 576.80,320.30 L 578.60,319.60 L 580.40,318.89 L 582.20,318.18 L 584.00,317.46 L 585.80,316.74 L 587.60,316.01 L 589.40,315.28 L 591.20,314.55 L 593.00,313.81 L 594.80,313.07 L 596.60,312.32 L 598.40,311.57 L 600.20,310.82 L 602.00,310.06 L 603.80,309.30 L 605.60,308.53 L 607.40,307.76 L 609.20,306.98 L 611.00,306.20 L 612.80,305.42 L 614.60,304.63 L 616.40,303.84 L 618.20,303.05 L 620.00,302.25" fill="none" stroke="#2a1a0e" stroke-width="1.5"/>
<path d="M 80.00,390.00 L 81.80,390.00 L 83.60,390.00 L 85.40,390.00 L 87.20,390.00 L 89.00,390.00 L 90.80,390.00 L 92.60,390.00 L 94.40,390.00 L 96.20,390.00 L 98.00,390.00 L 99.80,390.00 L 101.60,390.00 L 103.40,390.00 L 105.20,390.00 L 107.00,390.00 L 108.80,390.00 L 110.60,390.00 L 112.40,390.00 L 114.20,390.00 L 116.00,390.00 L 117.80,390.00 L 119.60,390.00 L 121.40,390.00 L 123.20,390.00 L 125.00,390.00 L 126.80,390.00 L 128.60,390.00 L 130.40,390.00 L 132.20,390.00 L 134.00,390.00 L 135.80,390.00 L 137.60,390.00 L 139.40,390.00 L 141.20,390.00 L 143.00,390.00 L 144.80,390.00 L 146.60,390.00 L 148.40,390.00 L 150.20,390.00 L 152.00,390.00 L 153.80,390.00 L 155.60,390.00 L 157.40,390.00 L 159.20,390.00 L 161.00,390.00 L 162.80,390.00 L 164.60,390.00 L 166.40,390.00 L 168.20,390.00 L 170.00,390.00 L 171.80,390.00 L 173.60,390.00 L 175.40,390.00 L 177.20,390.00 L 179.00,390.00 L 180.80,390.00 L 182.60,390.00 L 184.40,390.00 L 186.20,390.00 L 188.00,390.00 L 189.80,390.00 L 191.60,390.00 L 193.40,389.99 L 195.20,389.99 L 197.00,389.99 L 198.80,389.99 L 200.60,389.99 L 202.40,389.99 L 204.20,389.99 L 206.00,389.99 L 207.80,389.99 L 209.60,389.99 L 211.40,389.99 L 213.20,389.99 L 215.00,389.99 L 216.80,389.99 L 218.60,389.99 L 220.40,389.98 L 222.20,389.98 L 224.00,389.98 L 225.80,389.98 L 227.60,389.98 L 229.40,389.98 L 231.20,389.98 L 233.00,389.98 L 234.80,389.98 L 236.60,389.97 L 238.40,389.97 L 240.20,389.97 L 242.00,389.97 L 243.80,389.97 L 245.60,389.97 L 247.40,389.96 L 249.20,389.96 L 251.00,389.96 L 252.80,389.96 L 254.60,389.96 L 256.40,389.95 L 258.20,389.95 L 260.00,389.95 L 261.80,389.95 L 263.60,389.94 L 265.40,389.94 L 267.20,389.94 L 269.00,389.93 L 270.80,389.93 L 272.60,389.93 L 274.40,389.92 L 276.20,389.92 L 278.00,389.92 L 279.80,389.91 L 281.60,389.91 L 283.40,389.90 L 285.20,389.90 L 287.00,389.90 L 288.80,389.89 L 290.60,389.89 L 292.40,389.88 L 294.20,389.88 L 296.00,389.87 L 297.80,389.87 L 299.60,389.86 L 301.40,389.85 L 303.20,389.85 L 305.00,389.84 L 306.80,389.83 L 308.60,389.83 L 310.40,389.82 L 312.20,389.81 L 314.00,389.81 L 315.80,389.80 L 317.60,389.79 L 319.40,389.78 L 321.20,389.78 L 323.00,389.77 L 324.80,389.76 L 326.60,389.75 L 328.40,389.74 L 330.20,389.73 L 332.00,389.72 L 333.80,389.71 L 335.60,389.70 L 337.40,389.69 L 339.20,389.68 L 341.00,389.67 L 342.80,389.66 L 344.60,389.64 L 346.40,389.63 L 348.20,389.62 L 350.00,389.61 L 351.80,389.59 L 353.60,389.58 L 355.40,389.57 L 357.20,389.55 L 359.00,389.54 L 360.80,389.52 L 362.60,389.51 L 364.40,389.49 L 366.20,389.47 L 368.00,389.46 L 369.80,389.44 L 371.60,389.42 L 373.40,389.41 L 375.20,389.39 L 377.00,389.37 L 378.80,389.35 L 380.60,389.33 L 382.40,389.31 L 384.20,389.29 L 386.00,389.27 L 387.80,389.25 L 389.60,389.22 L 391.40,389.20 L 393.20,389.18 L 395.00,389.16 L 396.80,389.13 L 398.60,389.11 L 400.40,389.08 L 402.20,389.05 L 404.00,389.03 L 405.80,389.00 L 407.60,388.97 L 409.40,388.95 L 411.20,388.92 L 413.00,388.89 L 414.80,388.86 L 416.60,388.83 L 418.40,388.79 L 420.20,388.76 L 422.00,388.73 L 423.80,388.70 L 425.60,388.66 L 427.40,388.63 L 429.20,388.59 L 431.00,388.56 L 432.80,388.52 L 434.60,388.48 L 436.40,388.44 L 438.20,388.40 L 440.00,388.36 L 441.80,388.32 L 443.60,388.28 L 445.40,388.24 L 447.20,388.19 L 449.00,388.15 L 450.80,388.11 L 452.60,388.06 L 454.40,388.01 L 456.20,387.97 L 458.00,387.92 L 459.80,387.87 L 461.60,387.82 L 463.40,387.77 L 465.20,387.71 L 467.00,387.66 L 468.80,387.61 L 470.60,387.55 L 472.40,387.49 L 474.20,387.44 L 476.00,387.38 L 477.80,387.32 L 479.60,387.26 L 481.40,387.20 L 483.20,387.13 L 485.00,387.07 L 486.80,387.01 L 488.60,386.94 L 490.40,386.87 L 492.20,386.81 L 494.00,386.74 L 495.80,386.67 L 497.60,386.59 L 499.40,386.52 L 501.20,386.45 L 503.00,386.37 L 504.80,386.29 L 506.60,386.22 L 508.40,386.14 L 510.20,386.06 L 512.00,385.97 L 513.80,385.89 L 515.60,385.81 L 517.40,385.72 L 519.20,385.63 L 521.00,385.54 L 522.80,385.45 L 524.60,385.36 L 526.40,385.27 L 528.20,385.18 L 530.00,385.08 L 531.80,384.98 L 533.60,384.88 L 535.40,384.78 L 537.20,384.68 L 539.00,384.58 L 540.80,384.47 L 542.60,384.36 L 544.40,384.26 L 546.20,384.15 L 548.00,384.03 L 549.80,383.92 L 551.60,383.81 L 553.40,383.69 L 555.20,383.57 L 557.00,383.45 L 558.80,383.33 L 560.60,383.20 L 562.40,383.08 L 564.20,382.95 L 566.00,382.82 L 567.80,382.69 L 569.60,382.56 L 571.40,382.42 L 573.20,382.28 L 575.00,382.15 L 576.80,382.00 L 578.60,381.86 L 580.40,381.72 L 582.20,381.57 L 584.00,381.42 L 585.80,381.27 L 587.60,381.12 L 589.40,380.96 L 591.20,380.80 L 593.00,380.64 L 594.80,380.48 L 596.60,380.32 L 598.40,380.15 L 600.20,379.98 L 602.00,379.81 L 603.80,379.64 L 605.60,379.47 L 607.40,379.29 L 609.20,379.11 L 611.00,378.93 L 612.80,378.74 L 614.60,378.56 L 616.40,378.37 L 618.20,378.17 L 620.00,377.98" fill="none" stroke="#787878" stroke-width="1.5"/>
<path d="M 80.00,390.00 L 81.80,390.00 L 83.60,390.00 L 85.40,390.00 L 87.20,390.00 L 89.00,390.00 L 90.80,390.00 L 92.60,390.00 L 94.40,390.00 L 96.20,390.00 L 98.00,390.00 L 99.80,390.00 L 101.60,390.00 L 103.40,390.00 L 105.20,390.00 L 107.00,390.00 L 108.80,390.00 L 110.60,390.00 L 112.40,390.00 L 114.20,390.00 L 116.00,390.00 L 117.80,390.00 L 119.60,390.00 L 121.40,390.00 L 123.20,390.00 L 125.00,390.00 L 126.80,390.00 L 128.60,390.00 L 130.40,390.00 L 132.20,390.00 L 134.00,390.00 L 135.80,390.00 L 137.60,390.00 L 139.40,390.00 L 141.20,390.00 L 143.00,390.00 L 144.80,390.00 L 146.60,390.00 L 148.40,390.00 L 150.20,390.00 L 152.00,390.00 L 153.80,390.00 L 155.60,390.00 L 157.40,390.00 L 159.20,390.00 L 161.00,390.00 L 162.80,390.00 L 164.60,390.00 L 166.40,390.00 L 168.20,390.00 L 170.00,390.00 L 171.80,390.00 L 173.60,390.00 L 175.40,390.00 L 177.20,390.00 L 179.00,390.00 L 180.80,390.00 L 182.60,390.00 L 184.40,390.00 L 186.20,390.00 L 188.00,390.00 L 189.80,390.00 L 191.60,390.00 L 193.40,390.00 L 195.20,390.00 L 197.00,390.00 L 198.80,390.00 L 200.60,390.00 L 202.40,390.00 L 204.20,390.00 L 206.00,390.00 L 207.80,390.00 L 209.60,390.00 L 211.40,390.00 L 213.20,390.00 L 215.00,390.00 L 216.80,390.00 L 218.60,390.00 L 220.40,390.00 L 222.20,390.00 L 224.00,390.00 L 225.80,390.00 L 227.60,390.00 L 229.40,390.00 L 231.20,390.00 L 233.00,390.00 L 234.80,390.00 L 236.60,390.00 L 238.40,390.00 L 240.20,390.00 L 242.00,390.00 L 243.80,390.00 L 245.60,390.00 L 247.40,390.00 L 249.20,390.00 L 251.00,390.00 L 252.80,390.00 L 254.60,390.00 L 256.40,390.00 L 258.20,390.00 L 260.00,390.00 L 261.80,390.00 L 263.60,390.00 L 265.40,390.00 L 267.20,390.00 L 269.00,390.00 L 270.80,390.00 L 272.60,390.00 L 274.40,390.00 L 276.20,390.00 L 278.00,390.00 L 279.80,390.00 L 281.60,390.00 L 283.40,390.00 L 285.20,390.00 L 287.00,390.00 L 288.80,390.00 L 290.60,390.00 L 292.40,390.00 L 294.20,390.00 L 296.00,390.00 L 297.80,390.00 L 299.60,390.00 L 301.40,390.00 L 303.20,390.00 L 305.00,390.00 L 306.80,390.00 L 308.60,390.00 L 310.40,390.00 L 312.20,390.00 L 314.00,390.00 L 315.80,390.00 L 317.60,390.00 L 319.40,390.00 L 321.20,390.00 L 323.00,390.00 L 324.80,390.00 L 326.60,390.00 L 328.40,390.00 L 330.20,390.00 L 332.00,390.00 L 333.80,390.00 L 335.60,390.00 L 337.40,390.00 L 339.20,390.00 L 341.00,390.00 L 342.80,390.00 L 344.60,389.99 L 346.40,389.99 L 348.20,389.99 L 350.00,389.99 L 351.80,389.99 L 353.60,389.99 L 355.40,389.99 L 357.20,389.99 L 359.00,389.99 L 360.80,389.99 L 362.60,389.99 L 364.40,389.99 L 366.20,389.99 L 368.00,389.99 L 369.80,389.99 L 371.60,389.99 L 373.40,389.99 L 375.20,389.99 L 377.00,389.99 L 378.80,389.99 L 380.60,389.99 L 382.40,389.99 L 384.20,389.99 L 386.00,389.99 L 387.80,389.98 L 389.60,389.98 L 391.40,389.98 L 393.20,389.98 L 395.00,389.98 L 396.80,389.98 L 398.60,389.98 L 400.40,389.98 L 402.20,389.98 L 404.00,389.98 L 405.80,389.98 L 407.60,389.98 L 409.40,389.98 L 411.20,389.97 L 413.00,389.97 L 414.80,389.97 L 416.60,389.97 L 418.40,389.97 L 420.20,389.97 L 422.00,389.97 L 423.80,389.97 L 425.60,389.97 L 427.40,389.97 L 429.20,389.96 L 431.00,389.96 L 432.80,389.96 L 434.60,389.96 L 436.40,389.96 L 438.20,389.96 L 440.00,389.96 L 441.80,389.95 L 443.60,389.95 L 445.40,389.95 L 447.20,389.95 L 449.00,389.95 L 450.80,389.94 L 452.60,389.94 L 454.40,389.94 L 456.20,389.94 L 458.00,389.94 L 459.80,389.93 L 461.60,389.93 L 463.40,389.93 L 465.20,389.93 L 467.00,389.93 L 468.80,389.92 L 470.60,389.92 L 472.40,389.92 L 474.20,389.92 L 476.00,389.91 L 477.80,389.91 L 479.60,389.91 L 481.40,389.90 L 483.20,389.90 L 485.00,389.90 L 486.80,389.89 L 488.60,389.89 L 490.40,389.89 L 492.20,389.88 L 494.00,389.88 L 495.80,389.88 L 497.60,389.87 L 499.40,389.87 L 501.20,389.87 L 503.00,389.86 L 504.80,389.86 L 506.60,389.85 L 508.40,389.85 L 510.20,389.84 L 512.00,389.84 L 513.80,389.84 L 515.60,389.83 L 517.40,389.83 L 519.20,389.82 L 521.00,389.82 L 522.80,389.81 L 524.60,389.81 L 526.40,389.80 L 528.20,389.79 L 530.00,389.79 L 531.80,389.78 L 533.60,389.78 L 535.40,389.77 L 537.20,389.76 L 539.00,389.76 L 540.80,389.75 L 542.60,389.74 L 544.40,389.74 L 546.20,389.73 L 548.00,389.72 L 549.80,389.71 L 551.60,389.71 L 553.40,389.70 L 555.20,389.69 L 557.00,389.68 L 558.80,389.67 L 560.60,389.67 L 562.40,389.66 L 564.20,389.65 L 566.00,389.64 L 567.80,389.63 L 569.60,389.62 L 571.40,389.61 L 573.20,389.60 L 575.00,389.59 L 576.80,389.58 L 578.60,389.57 L 580.40,389.56 L 582.20,389.55 L 584.00,389.53 L 585.80,389.52 L 587.60,389.51 L 589.40,389.50 L 591.20,389.49 L 593.00,389.47 L 594.80,389.46 L 596.60,389.45 L 598.40,389.43 L 600.20,389.42 L 602.00,389.41 L 603.80,389.39 L 605.60,389.38 L 607.40,389.36 L 609.20,389.35 L 611.00,389.33 L 612.80,389.32 L 614.60,389.30 L 616.40,389.28 L 618.20,389.27 L 620.00,389.25" fill="none" stroke="#ADADAD" stroke-width="1.5"/>
<line x1="450" y1="62" x2="474" y2="62" stroke="#C8102E" stroke-width="2"/>
<text x="478" y="66" font-family="'EB Garamond',Georgia,serif" font-size="11" fill="#545454" font-style="italic">exact sin(x)</text>
<line x1="450" y1="79" x2="474" y2="79" stroke="#2a1a0e" stroke-width="2"/>
<text x="478" y="83" font-family="'EB Garamond',Georgia,serif" font-size="11" fill="#545454" font-style="italic">order 1: x</text>
<line x1="450" y1="96" x2="474" y2="96" stroke="#787878" stroke-width="2"/>
<text x="478" y="100" font-family="'EB Garamond',Georgia,serif" font-size="11" fill="#545454" font-style="italic">order 3: x−x³/6</text>
<line x1="450" y1="113" x2="474" y2="113" stroke="#ADADAD" stroke-width="2"/>
<text x="478" y="117" font-family="'EB Garamond',Georgia,serif" font-size="11" fill="#545454" font-style="italic">order 5: x−x³/6+x⁵/120</text>
<text x="350" y="418" text-anchor="middle" font-family="'EB Garamond',Georgia,serif" font-size="13" fill="#2a1a0e">Taylor truncation: higher order gives greater accuracy over a wider range</text>
</svg>