<?xml version="1.0" encoding="utf-8" standalone="no"?>
<!DOCTYPE svg PUBLIC "-//W3C//DTD SVG 1.1//EN"
  "http://www.w3.org/Graphics/SVG/1.1/DTD/svg11.dtd">
<svg xmlns:xlink="http://www.w3.org/1999/xlink" width="792pt" height="273.6pt" viewBox="0 0 792 273.6" xmlns="http://www.w3.org/2000/svg" version="1.1">
 <metadata>
  <rdf:RDF xmlns:dc="http://purl.org/dc/elements/1.1/" xmlns:cc="http://creativecommons.org/ns#" xmlns:rdf="http://www.w3.org/1999/02/22-rdf-syntax-ns#">
   <cc:Work>
    <dc:type rdf:resource="http://purl.org/dc/dcmitype/StillImage"/>
    <dc:date>2026-06-04T06:15:20.554681</dc:date>
    <dc:format>image/svg+xml</dc:format>
    <dc:creator>
     <cc:Agent>
      <dc:title>Matplotlib v3.10.8, https://matplotlib.org/</dc:title>
     </cc:Agent>
    </dc:creator>
   </cc:Work>
  </rdf:RDF>
 </metadata>
 <defs>
  <style type="text/css">*{stroke-linejoin: round; stroke-linecap: butt}</style>
 </defs>
 <g id="figure_1">
  <g id="patch_1">
   <path d="M 0 273.6 
L 792 273.6 
L 792 0 
L 0 0 
z
" style="fill: #ffffff"/>
  </g>
  <g id="axes_1">
   <g id="patch_2">
    <path d="M 51.14 229.12 
L 245.295 229.12 
L 245.295 29.4 
L 51.14 29.4 
z
" style="fill: #ffffff"/>
   </g>
   <g id="matplotlib.axis_1">
    <g id="xtick_1">
     <g id="line2d_1">
      <defs>
       <path id="ma2b72e15a0" d="M 0 0 
L 0 3.5 
" style="stroke: #000000; stroke-width: 0.8"/>
      </defs>
      <g>
       <use xlink:href="#ma2b72e15a0" x="51.14" y="229.12" style="stroke: #000000; stroke-width: 0.8"/>
      </g>
     </g>
     <g id="text_1">
      <!-- 0.0 -->
      <g transform="translate(42.393281 244.478281) scale(0.11 -0.11)">
       <defs>
        <path id="DejaVuSans-30" d="M 2034 4250 
Q 1547 4250 1301 3770 
Q 1056 3291 1056 2328 
Q 1056 1369 1301 889 
Q 1547 409 2034 409 
Q 2525 409 2770 889 
Q 3016 1369 3016 2328 
Q 3016 3291 2770 3770 
Q 2525 4250 2034 4250 
z
M 2034 4750 
Q 2819 4750 3233 4129 
Q 3647 3509 3647 2328 
Q 3647 1150 3233 529 
Q 2819 -91 2034 -91 
Q 1250 -91 836 529 
Q 422 1150 422 2328 
Q 422 3509 836 4129 
Q 1250 4750 2034 4750 
z
" transform="scale(0.015625)"/>
        <path id="DejaVuSans-2e" d="M 684 794 
L 1344 794 
L 1344 0 
L 684 0 
L 684 794 
z
" transform="scale(0.015625)"/>
       </defs>
       <use xlink:href="#DejaVuSans-30"/>
       <use xlink:href="#DejaVuSans-2e" transform="translate(63.623047 0)"/>
       <use xlink:href="#DejaVuSans-30" transform="translate(95.410156 0)"/>
      </g>
     </g>
    </g>
    <g id="xtick_2">
     <g id="line2d_2">
      <g>
       <use xlink:href="#ma2b72e15a0" x="89.971" y="229.12" style="stroke: #000000; stroke-width: 0.8"/>
      </g>
     </g>
     <g id="text_2">
      <!-- 0.2 -->
      <g transform="translate(81.224281 244.478281) scale(0.11 -0.11)">
       <defs>
        <path id="DejaVuSans-32" d="M 1228 531 
L 3431 531 
L 3431 0 
L 469 0 
L 469 531 
Q 828 903 1448 1529 
Q 2069 2156 2228 2338 
Q 2531 2678 2651 2914 
Q 2772 3150 2772 3378 
Q 2772 3750 2511 3984 
Q 2250 4219 1831 4219 
Q 1534 4219 1204 4116 
Q 875 4013 500 3803 
L 500 4441 
Q 881 4594 1212 4672 
Q 1544 4750 1819 4750 
Q 2544 4750 2975 4387 
Q 3406 4025 3406 3419 
Q 3406 3131 3298 2873 
Q 3191 2616 2906 2266 
Q 2828 2175 2409 1742 
Q 1991 1309 1228 531 
z
" transform="scale(0.015625)"/>
       </defs>
       <use xlink:href="#DejaVuSans-30"/>
       <use xlink:href="#DejaVuSans-2e" transform="translate(63.623047 0)"/>
       <use xlink:href="#DejaVuSans-32" transform="translate(95.410156 0)"/>
      </g>
     </g>
    </g>
    <g id="xtick_3">
     <g id="line2d_3">
      <g>
       <use xlink:href="#ma2b72e15a0" x="128.802" y="229.12" style="stroke: #000000; stroke-width: 0.8"/>
      </g>
     </g>
     <g id="text_3">
      <!-- 0.4 -->
      <g transform="translate(120.055281 244.478281) scale(0.11 -0.11)">
       <defs>
        <path id="DejaVuSans-34" d="M 2419 4116 
L 825 1625 
L 2419 1625 
L 2419 4116 
z
M 2253 4666 
L 3047 4666 
L 3047 1625 
L 3713 1625 
L 3713 1100 
L 3047 1100 
L 3047 0 
L 2419 0 
L 2419 1100 
L 313 1100 
L 313 1709 
L 2253 4666 
z
" transform="scale(0.015625)"/>
       </defs>
       <use xlink:href="#DejaVuSans-30"/>
       <use xlink:href="#DejaVuSans-2e" transform="translate(63.623047 0)"/>
       <use xlink:href="#DejaVuSans-34" transform="translate(95.410156 0)"/>
      </g>
     </g>
    </g>
    <g id="xtick_4">
     <g id="line2d_4">
      <g>
       <use xlink:href="#ma2b72e15a0" x="167.633" y="229.12" style="stroke: #000000; stroke-width: 0.8"/>
      </g>
     </g>
     <g id="text_4">
      <!-- 0.6 -->
      <g transform="translate(158.886281 244.478281) scale(0.11 -0.11)">
       <defs>
        <path id="DejaVuSans-36" d="M 2113 2584 
Q 1688 2584 1439 2293 
Q 1191 2003 1191 1497 
Q 1191 994 1439 701 
Q 1688 409 2113 409 
Q 2538 409 2786 701 
Q 3034 994 3034 1497 
Q 3034 2003 2786 2293 
Q 2538 2584 2113 2584 
z
M 3366 4563 
L 3366 3988 
Q 3128 4100 2886 4159 
Q 2644 4219 2406 4219 
Q 1781 4219 1451 3797 
Q 1122 3375 1075 2522 
Q 1259 2794 1537 2939 
Q 1816 3084 2150 3084 
Q 2853 3084 3261 2657 
Q 3669 2231 3669 1497 
Q 3669 778 3244 343 
Q 2819 -91 2113 -91 
Q 1303 -91 875 529 
Q 447 1150 447 2328 
Q 447 3434 972 4092 
Q 1497 4750 2381 4750 
Q 2619 4750 2861 4703 
Q 3103 4656 3366 4563 
z
" transform="scale(0.015625)"/>
       </defs>
       <use xlink:href="#DejaVuSans-30"/>
       <use xlink:href="#DejaVuSans-2e" transform="translate(63.623047 0)"/>
       <use xlink:href="#DejaVuSans-36" transform="translate(95.410156 0)"/>
      </g>
     </g>
    </g>
    <g id="xtick_5">
     <g id="line2d_5">
      <g>
       <use xlink:href="#ma2b72e15a0" x="206.464" y="229.12" style="stroke: #000000; stroke-width: 0.8"/>
      </g>
     </g>
     <g id="text_5">
      <!-- 0.8 -->
      <g transform="translate(197.717281 244.478281) scale(0.11 -0.11)">
       <defs>
        <path id="DejaVuSans-38" d="M 2034 2216 
Q 1584 2216 1326 1975 
Q 1069 1734 1069 1313 
Q 1069 891 1326 650 
Q 1584 409 2034 409 
Q 2484 409 2743 651 
Q 3003 894 3003 1313 
Q 3003 1734 2745 1975 
Q 2488 2216 2034 2216 
z
M 1403 2484 
Q 997 2584 770 2862 
Q 544 3141 544 3541 
Q 544 4100 942 4425 
Q 1341 4750 2034 4750 
Q 2731 4750 3128 4425 
Q 3525 4100 3525 3541 
Q 3525 3141 3298 2862 
Q 3072 2584 2669 2484 
Q 3125 2378 3379 2068 
Q 3634 1759 3634 1313 
Q 3634 634 3220 271 
Q 2806 -91 2034 -91 
Q 1263 -91 848 271 
Q 434 634 434 1313 
Q 434 1759 690 2068 
Q 947 2378 1403 2484 
z
M 1172 3481 
Q 1172 3119 1398 2916 
Q 1625 2713 2034 2713 
Q 2441 2713 2670 2916 
Q 2900 3119 2900 3481 
Q 2900 3844 2670 4047 
Q 2441 4250 2034 4250 
Q 1625 4250 1398 4047 
Q 1172 3844 1172 3481 
z
" transform="scale(0.015625)"/>
       </defs>
       <use xlink:href="#DejaVuSans-30"/>
       <use xlink:href="#DejaVuSans-2e" transform="translate(63.623047 0)"/>
       <use xlink:href="#DejaVuSans-38" transform="translate(95.410156 0)"/>
      </g>
     </g>
    </g>
    <g id="xtick_6">
     <g id="line2d_6">
      <g>
       <use xlink:href="#ma2b72e15a0" x="245.295" y="229.12" style="stroke: #000000; stroke-width: 0.8"/>
      </g>
     </g>
     <g id="text_6">
      <!-- 1.0 -->
      <g transform="translate(236.548281 244.478281) scale(0.11 -0.11)">
       <defs>
        <path id="DejaVuSans-31" d="M 794 531 
L 1825 531 
L 1825 4091 
L 703 3866 
L 703 4441 
L 1819 4666 
L 2450 4666 
L 2450 531 
L 3481 531 
L 3481 0 
L 794 0 
L 794 531 
z
" transform="scale(0.015625)"/>
       </defs>
       <use xlink:href="#DejaVuSans-31"/>
       <use xlink:href="#DejaVuSans-2e" transform="translate(63.623047 0)"/>
       <use xlink:href="#DejaVuSans-30" transform="translate(95.410156 0)"/>
      </g>
     </g>
    </g>
    <g id="text_7">
     <!-- x / L -->
     <g transform="translate(136.548906 259.124219) scale(0.11 -0.11)">
      <defs>
       <path id="DejaVuSans-78" d="M 3513 3500 
L 2247 1797 
L 3578 0 
L 2900 0 
L 1881 1375 
L 863 0 
L 184 0 
L 1544 1831 
L 300 3500 
L 978 3500 
L 1906 2253 
L 2834 3500 
L 3513 3500 
z
" transform="scale(0.015625)"/>
       <path id="DejaVuSans-20" transform="scale(0.015625)"/>
       <path id="DejaVuSans-2f" d="M 1625 4666 
L 2156 4666 
L 531 -594 
L 0 -594 
L 1625 4666 
z
" transform="scale(0.015625)"/>
       <path id="DejaVuSans-4c" d="M 628 4666 
L 1259 4666 
L 1259 531 
L 3531 531 
L 3531 0 
L 628 0 
L 628 4666 
z
" transform="scale(0.015625)"/>
      </defs>
      <use xlink:href="#DejaVuSans-78"/>
      <use xlink:href="#DejaVuSans-20" transform="translate(59.179688 0)"/>
      <use xlink:href="#DejaVuSans-2f" transform="translate(90.966797 0)"/>
      <use xlink:href="#DejaVuSans-20" transform="translate(124.658203 0)"/>
      <use xlink:href="#DejaVuSans-4c" transform="translate(156.445312 0)"/>
     </g>
    </g>
   </g>
   <g id="matplotlib.axis_2">
    <g id="ytick_1">
     <g id="line2d_7">
      <defs>
       <path id="m136fb708d0" d="M 0 0 
L -3.5 0 
" style="stroke: #000000; stroke-width: 0.8"/>
      </defs>
      <g>
       <use xlink:href="#m136fb708d0" x="51.14" y="229.12" style="stroke: #000000; stroke-width: 0.8"/>
      </g>
     </g>
     <g id="text_8">
      <!-- 0.0 -->
      <g transform="translate(26.646563 233.299141) scale(0.11 -0.11)">
       <use xlink:href="#DejaVuSans-30"/>
       <use xlink:href="#DejaVuSans-2e" transform="translate(63.623047 0)"/>
       <use xlink:href="#DejaVuSans-30" transform="translate(95.410156 0)"/>
      </g>
     </g>
    </g>
    <g id="ytick_2">
     <g id="line2d_8">
      <g>
       <use xlink:href="#m136fb708d0" x="51.14" y="192.807273" style="stroke: #000000; stroke-width: 0.8"/>
      </g>
     </g>
     <g id="text_9">
      <!-- 0.2 -->
      <g transform="translate(26.646563 196.986413) scale(0.11 -0.11)">
       <use xlink:href="#DejaVuSans-30"/>
       <use xlink:href="#DejaVuSans-2e" transform="translate(63.623047 0)"/>
       <use xlink:href="#DejaVuSans-32" transform="translate(95.410156 0)"/>
      </g>
     </g>
    </g>
    <g id="ytick_3">
     <g id="line2d_9">
      <g>
       <use xlink:href="#m136fb708d0" x="51.14" y="156.494545" style="stroke: #000000; stroke-width: 0.8"/>
      </g>
     </g>
     <g id="text_10">
      <!-- 0.4 -->
      <g transform="translate(26.646563 160.673686) scale(0.11 -0.11)">
       <use xlink:href="#DejaVuSans-30"/>
       <use xlink:href="#DejaVuSans-2e" transform="translate(63.623047 0)"/>
       <use xlink:href="#DejaVuSans-34" transform="translate(95.410156 0)"/>
      </g>
     </g>
    </g>
    <g id="ytick_4">
     <g id="line2d_10">
      <g>
       <use xlink:href="#m136fb708d0" x="51.14" y="120.181818" style="stroke: #000000; stroke-width: 0.8"/>
      </g>
     </g>
     <g id="text_11">
      <!-- 0.6 -->
      <g transform="translate(26.646563 124.360959) scale(0.11 -0.11)">
       <use xlink:href="#DejaVuSans-30"/>
       <use xlink:href="#DejaVuSans-2e" transform="translate(63.623047 0)"/>
       <use xlink:href="#DejaVuSans-36" transform="translate(95.410156 0)"/>
      </g>
     </g>
    </g>
    <g id="ytick_5">
     <g id="line2d_11">
      <g>
       <use xlink:href="#m136fb708d0" x="51.14" y="83.869091" style="stroke: #000000; stroke-width: 0.8"/>
      </g>
     </g>
     <g id="text_12">
      <!-- 0.8 -->
      <g transform="translate(26.646563 88.048232) scale(0.11 -0.11)">
       <use xlink:href="#DejaVuSans-30"/>
       <use xlink:href="#DejaVuSans-2e" transform="translate(63.623047 0)"/>
       <use xlink:href="#DejaVuSans-38" transform="translate(95.410156 0)"/>
      </g>
     </g>
    </g>
    <g id="ytick_6">
     <g id="line2d_12">
      <g>
       <use xlink:href="#m136fb708d0" x="51.14" y="47.556364" style="stroke: #000000; stroke-width: 0.8"/>
      </g>
     </g>
     <g id="text_13">
      <!-- 1.0 -->
      <g transform="translate(26.646563 51.735504) scale(0.11 -0.11)">
       <use xlink:href="#DejaVuSans-31"/>
       <use xlink:href="#DejaVuSans-2e" transform="translate(63.623047 0)"/>
       <use xlink:href="#DejaVuSans-30" transform="translate(95.410156 0)"/>
      </g>
     </g>
    </g>
    <g id="text_14">
     <!-- amplitude -->
     <g transform="translate(20.358906 157.053047) rotate(-90) scale(0.11 -0.11)">
      <defs>
       <path id="DejaVuSans-61" d="M 2194 1759 
Q 1497 1759 1228 1600 
Q 959 1441 959 1056 
Q 959 750 1161 570 
Q 1363 391 1709 391 
Q 2188 391 2477 730 
Q 2766 1069 2766 1631 
L 2766 1759 
L 2194 1759 
z
M 3341 1997 
L 3341 0 
L 2766 0 
L 2766 531 
Q 2569 213 2275 61 
Q 1981 -91 1556 -91 
Q 1019 -91 701 211 
Q 384 513 384 1019 
Q 384 1609 779 1909 
Q 1175 2209 1959 2209 
L 2766 2209 
L 2766 2266 
Q 2766 2663 2505 2880 
Q 2244 3097 1772 3097 
Q 1472 3097 1187 3025 
Q 903 2953 641 2809 
L 641 3341 
Q 956 3463 1253 3523 
Q 1550 3584 1831 3584 
Q 2591 3584 2966 3190 
Q 3341 2797 3341 1997 
z
" transform="scale(0.015625)"/>
       <path id="DejaVuSans-6d" d="M 3328 2828 
Q 3544 3216 3844 3400 
Q 4144 3584 4550 3584 
Q 5097 3584 5394 3201 
Q 5691 2819 5691 2113 
L 5691 0 
L 5113 0 
L 5113 2094 
Q 5113 2597 4934 2840 
Q 4756 3084 4391 3084 
Q 3944 3084 3684 2787 
Q 3425 2491 3425 1978 
L 3425 0 
L 2847 0 
L 2847 2094 
Q 2847 2600 2669 2842 
Q 2491 3084 2119 3084 
Q 1678 3084 1418 2786 
Q 1159 2488 1159 1978 
L 1159 0 
L 581 0 
L 581 3500 
L 1159 3500 
L 1159 2956 
Q 1356 3278 1631 3431 
Q 1906 3584 2284 3584 
Q 2666 3584 2933 3390 
Q 3200 3197 3328 2828 
z
" transform="scale(0.015625)"/>
       <path id="DejaVuSans-70" d="M 1159 525 
L 1159 -1331 
L 581 -1331 
L 581 3500 
L 1159 3500 
L 1159 2969 
Q 1341 3281 1617 3432 
Q 1894 3584 2278 3584 
Q 2916 3584 3314 3078 
Q 3713 2572 3713 1747 
Q 3713 922 3314 415 
Q 2916 -91 2278 -91 
Q 1894 -91 1617 61 
Q 1341 213 1159 525 
z
M 3116 1747 
Q 3116 2381 2855 2742 
Q 2594 3103 2138 3103 
Q 1681 3103 1420 2742 
Q 1159 2381 1159 1747 
Q 1159 1113 1420 752 
Q 1681 391 2138 391 
Q 2594 391 2855 752 
Q 3116 1113 3116 1747 
z
" transform="scale(0.015625)"/>
       <path id="DejaVuSans-6c" d="M 603 4863 
L 1178 4863 
L 1178 0 
L 603 0 
L 603 4863 
z
" transform="scale(0.015625)"/>
       <path id="DejaVuSans-69" d="M 603 3500 
L 1178 3500 
L 1178 0 
L 603 0 
L 603 3500 
z
M 603 4863 
L 1178 4863 
L 1178 4134 
L 603 4134 
L 603 4863 
z
" transform="scale(0.015625)"/>
       <path id="DejaVuSans-74" d="M 1172 4494 
L 1172 3500 
L 2356 3500 
L 2356 3053 
L 1172 3053 
L 1172 1153 
Q 1172 725 1289 603 
Q 1406 481 1766 481 
L 2356 481 
L 2356 0 
L 1766 0 
Q 1100 0 847 248 
Q 594 497 594 1153 
L 594 3053 
L 172 3053 
L 172 3500 
L 594 3500 
L 594 4494 
L 1172 4494 
z
" transform="scale(0.015625)"/>
       <path id="DejaVuSans-75" d="M 544 1381 
L 544 3500 
L 1119 3500 
L 1119 1403 
Q 1119 906 1312 657 
Q 1506 409 1894 409 
Q 2359 409 2629 706 
Q 2900 1003 2900 1516 
L 2900 3500 
L 3475 3500 
L 3475 0 
L 2900 0 
L 2900 538 
Q 2691 219 2414 64 
Q 2138 -91 1772 -91 
Q 1169 -91 856 284 
Q 544 659 544 1381 
z
M 1991 3584 
L 1991 3584 
z
" transform="scale(0.015625)"/>
       <path id="DejaVuSans-64" d="M 2906 2969 
L 2906 4863 
L 3481 4863 
L 3481 0 
L 2906 0 
L 2906 525 
Q 2725 213 2448 61 
Q 2172 -91 1784 -91 
Q 1150 -91 751 415 
Q 353 922 353 1747 
Q 353 2572 751 3078 
Q 1150 3584 1784 3584 
Q 2172 3584 2448 3432 
Q 2725 3281 2906 2969 
z
M 947 1747 
Q 947 1113 1208 752 
Q 1469 391 1925 391 
Q 2381 391 2643 752 
Q 2906 1113 2906 1747 
Q 2906 2381 2643 2742 
Q 2381 3103 1925 3103 
Q 1469 3103 1208 2742 
Q 947 2381 947 1747 
z
" transform="scale(0.015625)"/>
       <path id="DejaVuSans-65" d="M 3597 1894 
L 3597 1613 
L 953 1613 
Q 991 1019 1311 708 
Q 1631 397 2203 397 
Q 2534 397 2845 478 
Q 3156 559 3463 722 
L 3463 178 
Q 3153 47 2828 -22 
Q 2503 -91 2169 -91 
Q 1331 -91 842 396 
Q 353 884 353 1716 
Q 353 2575 817 3079 
Q 1281 3584 2069 3584 
Q 2775 3584 3186 3129 
Q 3597 2675 3597 1894 
z
M 3022 2063 
Q 3016 2534 2758 2815 
Q 2500 3097 2075 3097 
Q 1594 3097 1305 2825 
Q 1016 2553 972 2059 
L 3022 2063 
z
" transform="scale(0.015625)"/>
      </defs>
      <use xlink:href="#DejaVuSans-61"/>
      <use xlink:href="#DejaVuSans-6d" transform="translate(61.279297 0)"/>
      <use xlink:href="#DejaVuSans-70" transform="translate(158.691406 0)"/>
      <use xlink:href="#DejaVuSans-6c" transform="translate(222.167969 0)"/>
      <use xlink:href="#DejaVuSans-69" transform="translate(249.951172 0)"/>
      <use xlink:href="#DejaVuSans-74" transform="translate(277.734375 0)"/>
      <use xlink:href="#DejaVuSans-75" transform="translate(316.943359 0)"/>
      <use xlink:href="#DejaVuSans-64" transform="translate(380.322266 0)"/>
      <use xlink:href="#DejaVuSans-65" transform="translate(443.798828 0)"/>
     </g>
    </g>
   </g>
   <g id="line2d_13">
    <path d="M 51.14 229.12 
L 115.642245 48.162586 
L 115.966377 47.707919 
L 245.295 229.12 
L 245.295 229.12 
" clip-path="url(#p8a1e3e5814)" style="fill: none; stroke: #0072b2; stroke-width: 2.4; stroke-linecap: square"/>
   </g>
   <g id="patch_3">
    <path d="M 51.14 229.12 
L 51.14 29.4 
" style="fill: none; stroke: #000000; stroke-linejoin: miter; stroke-linecap: square"/>
   </g>
   <g id="patch_4">
    <path d="M 51.14 229.12 
L 245.295 229.12 
" style="fill: none; stroke: #000000; stroke-linejoin: miter; stroke-linecap: square"/>
   </g>
   <g id="text_15">
    <!-- (1) initial wavefunction  ψ(x,0) -->
    <g transform="translate(57.34 23.4) scale(0.12 -0.12)">
     <defs>
      <path id="DejaVuSans-28" d="M 1984 4856 
Q 1566 4138 1362 3434 
Q 1159 2731 1159 2009 
Q 1159 1288 1364 580 
Q 1569 -128 1984 -844 
L 1484 -844 
Q 1016 -109 783 600 
Q 550 1309 550 2009 
Q 550 2706 781 3412 
Q 1013 4119 1484 4856 
L 1984 4856 
z
" transform="scale(0.015625)"/>
      <path id="DejaVuSans-29" d="M 513 4856 
L 1013 4856 
Q 1481 4119 1714 3412 
Q 1947 2706 1947 2009 
Q 1947 1309 1714 600 
Q 1481 -109 1013 -844 
L 513 -844 
Q 928 -128 1133 580 
Q 1338 1288 1338 2009 
Q 1338 2731 1133 3434 
Q 928 4138 513 4856 
z
" transform="scale(0.015625)"/>
      <path id="DejaVuSans-6e" d="M 3513 2113 
L 3513 0 
L 2938 0 
L 2938 2094 
Q 2938 2591 2744 2837 
Q 2550 3084 2163 3084 
Q 1697 3084 1428 2787 
Q 1159 2491 1159 1978 
L 1159 0 
L 581 0 
L 581 3500 
L 1159 3500 
L 1159 2956 
Q 1366 3272 1645 3428 
Q 1925 3584 2291 3584 
Q 2894 3584 3203 3211 
Q 3513 2838 3513 2113 
z
" transform="scale(0.015625)"/>
      <path id="DejaVuSans-77" d="M 269 3500 
L 844 3500 
L 1563 769 
L 2278 3500 
L 2956 3500 
L 3675 769 
L 4391 3500 
L 4966 3500 
L 4050 0 
L 3372 0 
L 2619 2869 
L 1863 0 
L 1184 0 
L 269 3500 
z
" transform="scale(0.015625)"/>
      <path id="DejaVuSans-76" d="M 191 3500 
L 800 3500 
L 1894 563 
L 2988 3500 
L 3597 3500 
L 2284 0 
L 1503 0 
L 191 3500 
z
" transform="scale(0.015625)"/>
      <path id="DejaVuSans-66" d="M 2375 4863 
L 2375 4384 
L 1825 4384 
Q 1516 4384 1395 4259 
Q 1275 4134 1275 3809 
L 1275 3500 
L 2222 3500 
L 2222 3053 
L 1275 3053 
L 1275 0 
L 697 0 
L 697 3053 
L 147 3053 
L 147 3500 
L 697 3500 
L 697 3744 
Q 697 4328 969 4595 
Q 1241 4863 1831 4863 
L 2375 4863 
z
" transform="scale(0.015625)"/>
      <path id="DejaVuSans-63" d="M 3122 3366 
L 3122 2828 
Q 2878 2963 2633 3030 
Q 2388 3097 2138 3097 
Q 1578 3097 1268 2742 
Q 959 2388 959 1747 
Q 959 1106 1268 751 
Q 1578 397 2138 397 
Q 2388 397 2633 464 
Q 2878 531 3122 666 
L 3122 134 
Q 2881 22 2623 -34 
Q 2366 -91 2075 -91 
Q 1284 -91 818 406 
Q 353 903 353 1747 
Q 353 2603 823 3093 
Q 1294 3584 2113 3584 
Q 2378 3584 2631 3529 
Q 2884 3475 3122 3366 
z
" transform="scale(0.015625)"/>
      <path id="DejaVuSans-6f" d="M 1959 3097 
Q 1497 3097 1228 2736 
Q 959 2375 959 1747 
Q 959 1119 1226 758 
Q 1494 397 1959 397 
Q 2419 397 2687 759 
Q 2956 1122 2956 1747 
Q 2956 2369 2687 2733 
Q 2419 3097 1959 3097 
z
M 1959 3584 
Q 2709 3584 3137 3096 
Q 3566 2609 3566 1747 
Q 3566 888 3137 398 
Q 2709 -91 1959 -91 
Q 1206 -91 779 398 
Q 353 888 353 1747 
Q 353 2609 779 3096 
Q 1206 3584 1959 3584 
z
" transform="scale(0.015625)"/>
      <path id="DejaVuSans-3c8" d="M 1816 -78 
Q 1094 38 759 341 
Q 350 713 350 1472 
L 350 3500 
L 931 3500 
L 931 1494 
Q 931 922 1197 684 
Q 1428 478 1816 434 
L 1816 3500 
L 2388 3500 
L 2388 438 
Q 2797 481 3006 688 
Q 3272 950 3272 1497 
L 3272 3500 
L 3853 3500 
L 3853 1475 
Q 3853 688 3444 344 
Q 3075 34 2388 -75 
L 2388 -1331 
L 1816 -1331 
L 1816 -78 
z
" transform="scale(0.015625)"/>
      <path id="DejaVuSans-2c" d="M 750 794 
L 1409 794 
L 1409 256 
L 897 -744 
L 494 -744 
L 750 256 
L 750 794 
z
" transform="scale(0.015625)"/>
     </defs>
     <use xlink:href="#DejaVuSans-28"/>
     <use xlink:href="#DejaVuSans-31" transform="translate(39.013672 0)"/>
     <use xlink:href="#DejaVuSans-29" transform="translate(102.636719 0)"/>
     <use xlink:href="#DejaVuSans-20" transform="translate(141.650391 0)"/>
     <use xlink:href="#DejaVuSans-69" transform="translate(173.4375 0)"/>
     <use xlink:href="#DejaVuSans-6e" transform="translate(201.220703 0)"/>
     <use xlink:href="#DejaVuSans-69" transform="translate(264.599609 0)"/>
     <use xlink:href="#DejaVuSans-74" transform="translate(292.382812 0)"/>
     <use xlink:href="#DejaVuSans-69" transform="translate(331.591797 0)"/>
     <use xlink:href="#DejaVuSans-61" transform="translate(359.375 0)"/>
     <use xlink:href="#DejaVuSans-6c" transform="translate(420.654297 0)"/>
     <use xlink:href="#DejaVuSans-20" transform="translate(448.4375 0)"/>
     <use xlink:href="#DejaVuSans-77" transform="translate(480.224609 0)"/>
     <use xlink:href="#DejaVuSans-61" transform="translate(562.011719 0)"/>
     <use xlink:href="#DejaVuSans-76" transform="translate(623.291016 0)"/>
     <use xlink:href="#DejaVuSans-65" transform="translate(682.470703 0)"/>
     <use xlink:href="#DejaVuSans-66" transform="translate(743.994141 0)"/>
     <use xlink:href="#DejaVuSans-75" transform="translate(779.199219 0)"/>
     <use xlink:href="#DejaVuSans-6e" transform="translate(842.578125 0)"/>
     <use xlink:href="#DejaVuSans-63" transform="translate(905.957031 0)"/>
     <use xlink:href="#DejaVuSans-74" transform="translate(960.9375 0)"/>
     <use xlink:href="#DejaVuSans-69" transform="translate(1000.146484 0)"/>
     <use xlink:href="#DejaVuSans-6f" transform="translate(1027.929688 0)"/>
     <use xlink:href="#DejaVuSans-6e" transform="translate(1089.111328 0)"/>
     <use xlink:href="#DejaVuSans-20" transform="translate(1152.490234 0)"/>
     <use xlink:href="#DejaVuSans-20" transform="translate(1184.277344 0)"/>
     <use xlink:href="#DejaVuSans-3c8" transform="translate(1216.064453 0)"/>
     <use xlink:href="#DejaVuSans-28" transform="translate(1282.03125 0)"/>
     <use xlink:href="#DejaVuSans-78" transform="translate(1321.044922 0)"/>
     <use xlink:href="#DejaVuSans-2c" transform="translate(1380.224609 0)"/>
     <use xlink:href="#DejaVuSans-30" transform="translate(1412.011719 0)"/>
     <use xlink:href="#DejaVuSans-29" transform="translate(1475.634766 0)"/>
    </g>
   </g>
  </g>
  <g id="axes_2">
   <g id="patch_5">
    <path d="M 314.21 229.12 
L 508.365 229.12 
L 508.365 29.4 
L 314.21 29.4 
z
" style="fill: #ffffff"/>
   </g>
   <g id="matplotlib.axis_3">
    <g id="xtick_7">
     <g id="line2d_14">
      <g>
       <use xlink:href="#ma2b72e15a0" x="314.21" y="229.12" style="stroke: #000000; stroke-width: 0.8"/>
      </g>
     </g>
     <g id="text_16">
      <!-- 0.0 -->
      <g transform="translate(305.463281 244.478281) scale(0.11 -0.11)">
       <use xlink:href="#DejaVuSans-30"/>
       <use xlink:href="#DejaVuSans-2e" transform="translate(63.623047 0)"/>
       <use xlink:href="#DejaVuSans-30" transform="translate(95.410156 0)"/>
      </g>
     </g>
    </g>
    <g id="xtick_8">
     <g id="line2d_15">
      <g>
       <use xlink:href="#ma2b72e15a0" x="353.041" y="229.12" style="stroke: #000000; stroke-width: 0.8"/>
      </g>
     </g>
     <g id="text_17">
      <!-- 0.2 -->
      <g transform="translate(344.294281 244.478281) scale(0.11 -0.11)">
       <use xlink:href="#DejaVuSans-30"/>
       <use xlink:href="#DejaVuSans-2e" transform="translate(63.623047 0)"/>
       <use xlink:href="#DejaVuSans-32" transform="translate(95.410156 0)"/>
      </g>
     </g>
    </g>
    <g id="xtick_9">
     <g id="line2d_16">
      <g>
       <use xlink:href="#ma2b72e15a0" x="391.872" y="229.12" style="stroke: #000000; stroke-width: 0.8"/>
      </g>
     </g>
     <g id="text_18">
      <!-- 0.4 -->
      <g transform="translate(383.125281 244.478281) scale(0.11 -0.11)">
       <use xlink:href="#DejaVuSans-30"/>
       <use xlink:href="#DejaVuSans-2e" transform="translate(63.623047 0)"/>
       <use xlink:href="#DejaVuSans-34" transform="translate(95.410156 0)"/>
      </g>
     </g>
    </g>
    <g id="xtick_10">
     <g id="line2d_17">
      <g>
       <use xlink:href="#ma2b72e15a0" x="430.703" y="229.12" style="stroke: #000000; stroke-width: 0.8"/>
      </g>
     </g>
     <g id="text_19">
      <!-- 0.6 -->
      <g transform="translate(421.956281 244.478281) scale(0.11 -0.11)">
       <use xlink:href="#DejaVuSans-30"/>
       <use xlink:href="#DejaVuSans-2e" transform="translate(63.623047 0)"/>
       <use xlink:href="#DejaVuSans-36" transform="translate(95.410156 0)"/>
      </g>
     </g>
    </g>
    <g id="xtick_11">
     <g id="line2d_18">
      <g>
       <use xlink:href="#ma2b72e15a0" x="469.534" y="229.12" style="stroke: #000000; stroke-width: 0.8"/>
      </g>
     </g>
     <g id="text_20">
      <!-- 0.8 -->
      <g transform="translate(460.787281 244.478281) scale(0.11 -0.11)">
       <use xlink:href="#DejaVuSans-30"/>
       <use xlink:href="#DejaVuSans-2e" transform="translate(63.623047 0)"/>
       <use xlink:href="#DejaVuSans-38" transform="translate(95.410156 0)"/>
      </g>
     </g>
    </g>
    <g id="xtick_12">
     <g id="line2d_19">
      <g>
       <use xlink:href="#ma2b72e15a0" x="508.365" y="229.12" style="stroke: #000000; stroke-width: 0.8"/>
      </g>
     </g>
     <g id="text_21">
      <!-- 1.0 -->
      <g transform="translate(499.618281 244.478281) scale(0.11 -0.11)">
       <use xlink:href="#DejaVuSans-31"/>
       <use xlink:href="#DejaVuSans-2e" transform="translate(63.623047 0)"/>
       <use xlink:href="#DejaVuSans-30" transform="translate(95.410156 0)"/>
      </g>
     </g>
    </g>
    <g id="text_22">
     <!-- x / L -->
     <g transform="translate(399.618906 259.124219) scale(0.11 -0.11)">
      <use xlink:href="#DejaVuSans-78"/>
      <use xlink:href="#DejaVuSans-20" transform="translate(59.179688 0)"/>
      <use xlink:href="#DejaVuSans-2f" transform="translate(90.966797 0)"/>
      <use xlink:href="#DejaVuSans-20" transform="translate(124.658203 0)"/>
      <use xlink:href="#DejaVuSans-4c" transform="translate(156.445312 0)"/>
     </g>
    </g>
   </g>
   <g id="matplotlib.axis_4">
    <g id="ytick_7">
     <g id="line2d_20">
      <g>
       <use xlink:href="#m136fb708d0" x="314.21" y="220.514615" style="stroke: #000000; stroke-width: 0.8"/>
      </g>
     </g>
     <g id="text_23">
      <!-- −0.2 -->
      <g transform="translate(280.498906 224.693756) scale(0.11 -0.11)">
       <defs>
        <path id="DejaVuSans-2212" d="M 678 2272 
L 4684 2272 
L 4684 1741 
L 678 1741 
L 678 2272 
z
" transform="scale(0.015625)"/>
       </defs>
       <use xlink:href="#DejaVuSans-2212"/>
       <use xlink:href="#DejaVuSans-30" transform="translate(83.789062 0)"/>
       <use xlink:href="#DejaVuSans-2e" transform="translate(147.412109 0)"/>
       <use xlink:href="#DejaVuSans-32" transform="translate(179.199219 0)"/>
      </g>
     </g>
    </g>
    <g id="ytick_8">
     <g id="line2d_21">
      <g>
       <use xlink:href="#m136fb708d0" x="314.21" y="183.729091" style="stroke: #000000; stroke-width: 0.8"/>
      </g>
     </g>
     <g id="text_24">
      <!-- 0.0 -->
      <g transform="translate(289.716562 187.908232) scale(0.11 -0.11)">
       <use xlink:href="#DejaVuSans-30"/>
       <use xlink:href="#DejaVuSans-2e" transform="translate(63.623047 0)"/>
       <use xlink:href="#DejaVuSans-30" transform="translate(95.410156 0)"/>
      </g>
     </g>
    </g>
    <g id="ytick_9">
     <g id="line2d_22">
      <g>
       <use xlink:href="#m136fb708d0" x="314.21" y="146.943566" style="stroke: #000000; stroke-width: 0.8"/>
      </g>
     </g>
     <g id="text_25">
      <!-- 0.2 -->
      <g transform="translate(289.716562 151.122707) scale(0.11 -0.11)">
       <use xlink:href="#DejaVuSans-30"/>
       <use xlink:href="#DejaVuSans-2e" transform="translate(63.623047 0)"/>
       <use xlink:href="#DejaVuSans-32" transform="translate(95.410156 0)"/>
      </g>
     </g>
    </g>
    <g id="ytick_10">
     <g id="line2d_23">
      <g>
       <use xlink:href="#m136fb708d0" x="314.21" y="110.158042" style="stroke: #000000; stroke-width: 0.8"/>
      </g>
     </g>
     <g id="text_26">
      <!-- 0.4 -->
      <g transform="translate(289.716562 114.337183) scale(0.11 -0.11)">
       <use xlink:href="#DejaVuSans-30"/>
       <use xlink:href="#DejaVuSans-2e" transform="translate(63.623047 0)"/>
       <use xlink:href="#DejaVuSans-34" transform="translate(95.410156 0)"/>
      </g>
     </g>
    </g>
    <g id="ytick_11">
     <g id="line2d_24">
      <g>
       <use xlink:href="#m136fb708d0" x="314.21" y="73.372517" style="stroke: #000000; stroke-width: 0.8"/>
      </g>
     </g>
     <g id="text_27">
      <!-- 0.6 -->
      <g transform="translate(289.716562 77.551658) scale(0.11 -0.11)">
       <use xlink:href="#DejaVuSans-30"/>
       <use xlink:href="#DejaVuSans-2e" transform="translate(63.623047 0)"/>
       <use xlink:href="#DejaVuSans-36" transform="translate(95.410156 0)"/>
      </g>
     </g>
    </g>
    <g id="ytick_12">
     <g id="line2d_25">
      <g>
       <use xlink:href="#m136fb708d0" x="314.21" y="36.586993" style="stroke: #000000; stroke-width: 0.8"/>
      </g>
     </g>
     <g id="text_28">
      <!-- 0.8 -->
      <g transform="translate(289.716562 40.766134) scale(0.11 -0.11)">
       <use xlink:href="#DejaVuSans-30"/>
       <use xlink:href="#DejaVuSans-2e" transform="translate(63.623047 0)"/>
       <use xlink:href="#DejaVuSans-38" transform="translate(95.410156 0)"/>
      </g>
     </g>
    </g>
    <g id="text_29">
     <!-- amplitude -->
     <g transform="translate(274.21125 157.053047) rotate(-90) scale(0.11 -0.11)">
      <use xlink:href="#DejaVuSans-61"/>
      <use xlink:href="#DejaVuSans-6d" transform="translate(61.279297 0)"/>
      <use xlink:href="#DejaVuSans-70" transform="translate(158.691406 0)"/>
      <use xlink:href="#DejaVuSans-6c" transform="translate(222.167969 0)"/>
      <use xlink:href="#DejaVuSans-69" transform="translate(249.951172 0)"/>
      <use xlink:href="#DejaVuSans-74" transform="translate(277.734375 0)"/>
      <use xlink:href="#DejaVuSans-75" transform="translate(316.943359 0)"/>
      <use xlink:href="#DejaVuSans-64" transform="translate(380.322266 0)"/>
      <use xlink:href="#DejaVuSans-65" transform="translate(443.798828 0)"/>
     </g>
    </g>
   </g>
   <g id="line2d_26">
    <path d="M 314.21 183.729091 
L 328.147671 151.248481 
L 335.602705 134.448095 
L 341.76121 121.099356 
L 347.271452 109.678666 
L 352.133431 100.087274 
L 356.671277 91.600977 
L 360.884992 84.164459 
L 365.098706 77.190609 
L 368.988289 71.191926 
L 372.55374 66.084045 
L 376.11919 61.367623 
L 379.360509 57.432892 
L 382.601828 53.845486 
L 385.519015 50.921959 
L 388.436202 48.294282 
L 391.353389 45.968309 
L 394.270576 43.949221 
L 396.863631 42.415759 
L 399.456686 41.131038 
L 402.049741 40.097318 
L 404.642796 39.316419 
L 407.235851 38.789716 
L 409.828907 38.518135 
L 412.09783 38.490168 
L 414.366753 38.65794 
L 416.959808 39.089057 
L 419.552863 39.77477 
L 422.145918 40.713872 
L 424.738973 41.904709 
L 427.332028 43.345185 
L 429.925083 45.032766 
L 432.518139 46.96448 
L 435.435326 49.425223 
L 438.352513 52.185152 
L 441.269699 55.238116 
L 444.511018 58.96569 
L 447.752337 63.036374 
L 451.317788 67.89703 
L 454.883239 73.143111 
L 458.772821 79.28514 
L 462.662404 85.840738 
L 466.876119 93.379193 
L 471.413965 101.966015 
L 476.275943 111.653863 
L 481.462053 122.477475 
L 487.296427 135.165387 
L 494.103197 150.506418 
L 503.17889 171.554523 
L 508.365 183.729091 
L 508.365 183.729091 
" clip-path="url(#p324d1f7de4)" style="fill: none; stroke: #56b4e9; stroke-width: 1.8; stroke-linecap: square"/>
   </g>
   <g id="line2d_27">
    <path d="M 314.21 183.729091 
L 323.609825 172.8525 
L 328.471803 167.558104 
L 332.685518 163.288322 
L 336.250968 159.968863 
L 339.492287 157.224289 
L 342.733606 154.771076 
L 345.650793 152.834658 
L 348.56798 151.173377 
L 351.161035 149.93968 
L 353.75409 148.943783 
L 356.347145 148.192695 
L 358.9402 147.691701 
L 361.533255 147.444328 
L 363.802179 147.437338 
L 366.071102 147.625923 
L 368.664157 148.079578 
L 371.257212 148.784123 
L 373.850267 149.734601 
L 376.443322 150.924323 
L 379.036377 152.344914 
L 381.953564 154.206533 
L 384.870751 156.331071 
L 388.11207 158.976943 
L 391.677521 162.200462 
L 395.567104 166.041969 
L 399.780818 170.517408 
L 404.966928 176.353184 
L 414.690885 187.720482 
L 421.497654 195.510374 
L 426.359633 200.74704 
L 430.573347 204.9498 
L 434.138798 208.201179 
L 437.380117 210.875622 
L 440.621436 213.251649 
L 443.538623 215.113268 
L 446.45581 216.695388 
L 449.048865 217.855627 
L 451.64192 218.775695 
L 454.234975 219.449114 
L 456.82803 219.871146 
L 459.421085 220.038822 
L 461.690008 219.975913 
L 464.283063 219.664902 
L 466.876119 219.100985 
L 469.469174 218.288131 
L 472.062229 217.23206 
L 474.655284 215.940205 
L 477.572471 214.216416 
L 480.489658 212.221116 
L 483.730977 209.707366 
L 486.972295 206.908042 
L 490.537746 203.535762 
L 494.427329 199.558146 
L 499.289307 194.241675 
L 505.771945 186.772733 
L 508.365 183.729091 
L 508.365 183.729091 
" clip-path="url(#p324d1f7de4)" style="fill: none; stroke: #e69f00; stroke-width: 1.8; stroke-linecap: square"/>
   </g>
   <g id="line2d_28">
    <path d="M 314.21 183.729091 
L 508.365 183.729091 
L 508.365 183.729091 
" clip-path="url(#p324d1f7de4)" style="fill: none; stroke: #009e73; stroke-width: 1.8; stroke-linecap: square"/>
   </g>
   <g id="line2d_29">
    <path d="M 314.21 183.729091 
L 321.01677 187.600436 
L 324.58222 189.37596 
L 327.499407 190.60975 
L 330.416594 191.598977 
L 333.009649 192.244336 
L 335.602705 192.650406 
L 338.19576 192.805774 
L 340.464683 192.732461 
L 343.057738 192.411634 
L 345.650793 191.846816 
L 348.243848 191.05388 
L 351.161035 189.917128 
L 354.402354 188.398139 
L 358.291937 186.311627 
L 366.395234 181.606352 
L 370.93308 179.141963 
L 374.174399 177.611069 
L 377.091586 176.460959 
L 379.684641 175.654441 
L 382.277696 175.074832 
L 384.870751 174.738418 
L 387.139674 174.651159 
L 389.408598 174.759319 
L 392.001653 175.119042 
L 394.594708 175.720719 
L 397.187763 176.547441 
L 400.10495 177.717351 
L 403.346269 179.265788 
L 407.235851 181.375644 
L 420.849391 188.995559 
L 424.09071 190.420017 
L 427.007896 191.452699 
L 429.600952 192.141101 
L 432.194007 192.593115 
L 434.787062 192.796038 
L 437.055985 192.764605 
L 439.64904 192.490742 
L 442.242095 191.970665 
L 444.83515 191.218989 
L 447.752337 190.123057 
L 450.993656 188.640784 
L 454.883239 186.584177 
L 461.041745 183.015636 
L 466.876119 179.729031 
L 470.441569 177.971084 
L 473.358756 176.756109 
L 476.275943 175.788979 
L 478.868998 175.165384 
L 481.462053 174.78244 
L 484.055109 174.650909 
L 486.324032 174.745138 
L 488.917087 175.089331 
L 491.510142 175.676312 
L 494.103197 176.489587 
L 497.020384 177.646329 
L 500.261703 179.183114 
L 504.151285 181.283805 
L 508.365 183.729091 
L 508.365 183.729091 
" clip-path="url(#p324d1f7de4)" style="fill: none; stroke: #cc79a7; stroke-width: 1.8; stroke-linecap: square"/>
   </g>
   <g id="line2d_30">
    <path d="M 314.21 183.729091 
L 508.365 183.729091 
" clip-path="url(#p324d1f7de4)" style="fill: none; stroke: #999999; stroke-width: 0.6; stroke-linecap: square"/>
   </g>
   <g id="patch_6">
    <path d="M 314.21 229.12 
L 314.21 29.4 
" style="fill: none; stroke: #000000; stroke-linejoin: miter; stroke-linecap: square"/>
   </g>
   <g id="patch_7">
    <path d="M 314.21 229.12 
L 508.365 229.12 
" style="fill: none; stroke: #000000; stroke-linejoin: miter; stroke-linecap: square"/>
   </g>
   <g id="text_30">
    <!-- (2) Fourier sine modes  D$_n$ sin(nπx/L) -->
    <g transform="translate(300.5875 23.4) scale(0.12 -0.12)">
     <defs>
      <path id="DejaVuSans-46" d="M 628 4666 
L 3309 4666 
L 3309 4134 
L 1259 4134 
L 1259 2759 
L 3109 2759 
L 3109 2228 
L 1259 2228 
L 1259 0 
L 628 0 
L 628 4666 
z
" transform="scale(0.015625)"/>
      <path id="DejaVuSans-72" d="M 2631 2963 
Q 2534 3019 2420 3045 
Q 2306 3072 2169 3072 
Q 1681 3072 1420 2755 
Q 1159 2438 1159 1844 
L 1159 0 
L 581 0 
L 581 3500 
L 1159 3500 
L 1159 2956 
Q 1341 3275 1631 3429 
Q 1922 3584 2338 3584 
Q 2397 3584 2469 3576 
Q 2541 3569 2628 3553 
L 2631 2963 
z
" transform="scale(0.015625)"/>
      <path id="DejaVuSans-73" d="M 2834 3397 
L 2834 2853 
Q 2591 2978 2328 3040 
Q 2066 3103 1784 3103 
Q 1356 3103 1142 2972 
Q 928 2841 928 2578 
Q 928 2378 1081 2264 
Q 1234 2150 1697 2047 
L 1894 2003 
Q 2506 1872 2764 1633 
Q 3022 1394 3022 966 
Q 3022 478 2636 193 
Q 2250 -91 1575 -91 
Q 1294 -91 989 -36 
Q 684 19 347 128 
L 347 722 
Q 666 556 975 473 
Q 1284 391 1588 391 
Q 1994 391 2212 530 
Q 2431 669 2431 922 
Q 2431 1156 2273 1281 
Q 2116 1406 1581 1522 
L 1381 1569 
Q 847 1681 609 1914 
Q 372 2147 372 2553 
Q 372 3047 722 3315 
Q 1072 3584 1716 3584 
Q 2034 3584 2315 3537 
Q 2597 3491 2834 3397 
z
" transform="scale(0.015625)"/>
      <path id="DejaVuSans-44" d="M 1259 4147 
L 1259 519 
L 2022 519 
Q 2988 519 3436 956 
Q 3884 1394 3884 2338 
Q 3884 3275 3436 3711 
Q 2988 4147 2022 4147 
L 1259 4147 
z
M 628 4666 
L 1925 4666 
Q 3281 4666 3915 4102 
Q 4550 3538 4550 2338 
Q 4550 1131 3912 565 
Q 3275 0 1925 0 
L 628 0 
L 628 4666 
z
" transform="scale(0.015625)"/>
      <path id="DejaVuSans-Oblique-6e" d="M 3566 2113 
L 3156 0 
L 2578 0 
L 2988 2091 
Q 3016 2238 3031 2350 
Q 3047 2463 3047 2528 
Q 3047 2791 2881 2937 
Q 2716 3084 2419 3084 
Q 1956 3084 1622 2776 
Q 1288 2469 1184 1941 
L 800 0 
L 225 0 
L 903 3500 
L 1478 3500 
L 1363 2950 
Q 1603 3253 1940 3418 
Q 2278 3584 2650 3584 
Q 3113 3584 3367 3334 
Q 3622 3084 3622 2631 
Q 3622 2519 3608 2391 
Q 3594 2263 3566 2113 
z
" transform="scale(0.015625)"/>
      <path id="DejaVuSans-3c0" d="M 231 3500 
L 3584 3500 
L 3584 2925 
L 3144 2925 
L 3144 775 
Q 3144 550 3220 451 
Q 3297 353 3469 353 
Q 3516 353 3584 361 
Q 3653 369 3675 372 
L 3675 -44 
Q 3566 -84 3450 -103 
Q 3334 -122 3219 -122 
Q 2844 -122 2700 83 
Q 2556 288 2556 838 
L 2556 2925 
L 1266 2925 
L 1266 0 
L 678 0 
L 678 2925 
L 231 2925 
L 231 3500 
z
" transform="scale(0.015625)"/>
     </defs>
     <use xlink:href="#DejaVuSans-28" transform="translate(0 0.015625)"/>
     <use xlink:href="#DejaVuSans-32" transform="translate(39.013672 0.015625)"/>
     <use xlink:href="#DejaVuSans-29" transform="translate(102.636719 0.015625)"/>
     <use xlink:href="#DejaVuSans-20" transform="translate(141.650391 0.015625)"/>
     <use xlink:href="#DejaVuSans-46" transform="translate(173.4375 0.015625)"/>
     <use xlink:href="#DejaVuSans-6f" transform="translate(230.957031 0.015625)"/>
     <use xlink:href="#DejaVuSans-75" transform="translate(292.138672 0.015625)"/>
     <use xlink:href="#DejaVuSans-72" transform="translate(355.517578 0.015625)"/>
     <use xlink:href="#DejaVuSans-69" transform="translate(396.630859 0.015625)"/>
     <use xlink:href="#DejaVuSans-65" transform="translate(424.414062 0.015625)"/>
     <use xlink:href="#DejaVuSans-72" transform="translate(485.9375 0.015625)"/>
     <use xlink:href="#DejaVuSans-20" transform="translate(527.050781 0.015625)"/>
     <use xlink:href="#DejaVuSans-73" transform="translate(558.837891 0.015625)"/>
     <use xlink:href="#DejaVuSans-69" transform="translate(610.9375 0.015625)"/>
     <use xlink:href="#DejaVuSans-6e" transform="translate(638.720703 0.015625)"/>
     <use xlink:href="#DejaVuSans-65" transform="translate(702.099609 0.015625)"/>
     <use xlink:href="#DejaVuSans-20" transform="translate(763.623047 0.015625)"/>
     <use xlink:href="#DejaVuSans-6d" transform="translate(795.410156 0.015625)"/>
     <use xlink:href="#DejaVuSans-6f" transform="translate(892.822266 0.015625)"/>
     <use xlink:href="#DejaVuSans-64" transform="translate(954.003906 0.015625)"/>
     <use xlink:href="#DejaVuSans-65" transform="translate(1017.480469 0.015625)"/>
     <use xlink:href="#DejaVuSans-73" transform="translate(1079.003906 0.015625)"/>
     <use xlink:href="#DejaVuSans-20" transform="translate(1131.103516 0.015625)"/>
     <use xlink:href="#DejaVuSans-20" transform="translate(1162.890625 0.015625)"/>
     <use xlink:href="#DejaVuSans-44" transform="translate(1194.677734 0.015625)"/>
     <use xlink:href="#DejaVuSans-Oblique-6e" transform="translate(1272.636719 -16.390625) scale(0.7)"/>
     <use xlink:href="#DejaVuSans-20" transform="translate(1319.736328 0.015625)"/>
     <use xlink:href="#DejaVuSans-73" transform="translate(1351.523438 0.015625)"/>
     <use xlink:href="#DejaVuSans-69" transform="translate(1403.623047 0.015625)"/>
     <use xlink:href="#DejaVuSans-6e" transform="translate(1431.40625 0.015625)"/>
     <use xlink:href="#DejaVuSans-28" transform="translate(1494.785156 0.015625)"/>
     <use xlink:href="#DejaVuSans-6e" transform="translate(1533.798828 0.015625)"/>
     <use xlink:href="#DejaVuSans-3c0" transform="translate(1597.177734 0.015625)"/>
     <use xlink:href="#DejaVuSans-78" transform="translate(1657.382812 0.015625)"/>
     <use xlink:href="#DejaVuSans-2f" transform="translate(1716.5625 0.015625)"/>
     <use xlink:href="#DejaVuSans-4c" transform="translate(1750.253906 0.015625)"/>
     <use xlink:href="#DejaVuSans-29" transform="translate(1805.966797 0.015625)"/>
    </g>
   </g>
   <g id="legend_1">
    <g id="line2d_31">
     <path d="M 362.8075 182.22875 
L 370.8075 182.22875 
L 378.8075 182.22875 
" style="fill: none; stroke: #56b4e9; stroke-width: 1.8; stroke-linecap: square"/>
    </g>
    <g id="text_31">
     <!-- n=1  (D$_1$=+0.790) -->
     <g transform="translate(385.2075 185.02875) scale(0.08 -0.08)">
      <defs>
       <path id="DejaVuSans-3d" d="M 678 2906 
L 4684 2906 
L 4684 2381 
L 678 2381 
L 678 2906 
z
M 678 1631 
L 4684 1631 
L 4684 1100 
L 678 1100 
L 678 1631 
z
" transform="scale(0.015625)"/>
       <path id="DejaVuSans-2b" d="M 2944 4013 
L 2944 2272 
L 4684 2272 
L 4684 1741 
L 2944 1741 
L 2944 0 
L 2419 0 
L 2419 1741 
L 678 1741 
L 678 2272 
L 2419 2272 
L 2419 4013 
L 2944 4013 
z
" transform="scale(0.015625)"/>
       <path id="DejaVuSans-37" d="M 525 4666 
L 3525 4666 
L 3525 4397 
L 1831 0 
L 1172 0 
L 2766 4134 
L 525 4134 
L 525 4666 
z
" transform="scale(0.015625)"/>
       <path id="DejaVuSans-39" d="M 703 97 
L 703 672 
Q 941 559 1184 500 
Q 1428 441 1663 441 
Q 2288 441 2617 861 
Q 2947 1281 2994 2138 
Q 2813 1869 2534 1725 
Q 2256 1581 1919 1581 
Q 1219 1581 811 2004 
Q 403 2428 403 3163 
Q 403 3881 828 4315 
Q 1253 4750 1959 4750 
Q 2769 4750 3195 4129 
Q 3622 3509 3622 2328 
Q 3622 1225 3098 567 
Q 2575 -91 1691 -91 
Q 1453 -91 1209 -44 
Q 966 3 703 97 
z
M 1959 2075 
Q 2384 2075 2632 2365 
Q 2881 2656 2881 3163 
Q 2881 3666 2632 3958 
Q 2384 4250 1959 4250 
Q 1534 4250 1286 3958 
Q 1038 3666 1038 3163 
Q 1038 2656 1286 2365 
Q 1534 2075 1959 2075 
z
" transform="scale(0.015625)"/>
      </defs>
      <use xlink:href="#DejaVuSans-6e" transform="translate(0 0.125)"/>
      <use xlink:href="#DejaVuSans-3d" transform="translate(63.378906 0.125)"/>
      <use xlink:href="#DejaVuSans-31" transform="translate(147.167969 0.125)"/>
      <use xlink:href="#DejaVuSans-20" transform="translate(210.791016 0.125)"/>
      <use xlink:href="#DejaVuSans-20" transform="translate(242.578125 0.125)"/>
      <use xlink:href="#DejaVuSans-28" transform="translate(274.365234 0.125)"/>
      <use xlink:href="#DejaVuSans-44" transform="translate(313.378906 0.125)"/>
      <use xlink:href="#DejaVuSans-31" transform="translate(391.337891 -16.28125) scale(0.7)"/>
      <use xlink:href="#DejaVuSans-3d" transform="translate(438.608398 0.125)"/>
      <use xlink:href="#DejaVuSans-2b" transform="translate(522.397461 0.125)"/>
      <use xlink:href="#DejaVuSans-30" transform="translate(606.186523 0.125)"/>
      <use xlink:href="#DejaVuSans-2e" transform="translate(669.80957 0.125)"/>
      <use xlink:href="#DejaVuSans-37" transform="translate(693.84668 0.125)"/>
      <use xlink:href="#DejaVuSans-39" transform="translate(757.469727 0.125)"/>
      <use xlink:href="#DejaVuSans-30" transform="translate(821.092773 0.125)"/>
      <use xlink:href="#DejaVuSans-29" transform="translate(884.71582 0.125)"/>
     </g>
    </g>
    <g id="line2d_32">
     <path d="M 362.8075 193.97125 
L 370.8075 193.97125 
L 378.8075 193.97125 
" style="fill: none; stroke: #e69f00; stroke-width: 1.8; stroke-linecap: square"/>
    </g>
    <g id="text_32">
     <!-- n=2  (D$_2$=+0.197) -->
     <g transform="translate(385.2075 196.77125) scale(0.08 -0.08)">
      <use xlink:href="#DejaVuSans-6e" transform="translate(0 0.125)"/>
      <use xlink:href="#DejaVuSans-3d" transform="translate(63.378906 0.125)"/>
      <use xlink:href="#DejaVuSans-32" transform="translate(147.167969 0.125)"/>
      <use xlink:href="#DejaVuSans-20" transform="translate(210.791016 0.125)"/>
      <use xlink:href="#DejaVuSans-20" transform="translate(242.578125 0.125)"/>
      <use xlink:href="#DejaVuSans-28" transform="translate(274.365234 0.125)"/>
      <use xlink:href="#DejaVuSans-44" transform="translate(313.378906 0.125)"/>
      <use xlink:href="#DejaVuSans-32" transform="translate(391.337891 -16.28125) scale(0.7)"/>
      <use xlink:href="#DejaVuSans-3d" transform="translate(438.608398 0.125)"/>
      <use xlink:href="#DejaVuSans-2b" transform="translate(522.397461 0.125)"/>
      <use xlink:href="#DejaVuSans-30" transform="translate(606.186523 0.125)"/>
      <use xlink:href="#DejaVuSans-2e" transform="translate(669.80957 0.125)"/>
      <use xlink:href="#DejaVuSans-31" transform="translate(701.59668 0.125)"/>
      <use xlink:href="#DejaVuSans-39" transform="translate(765.219727 0.125)"/>
      <use xlink:href="#DejaVuSans-37" transform="translate(828.842773 0.125)"/>
      <use xlink:href="#DejaVuSans-29" transform="translate(892.46582 0.125)"/>
     </g>
    </g>
    <g id="line2d_33">
     <path d="M 362.8075 205.71375 
L 370.8075 205.71375 
L 378.8075 205.71375 
" style="fill: none; stroke: #009e73; stroke-width: 1.8; stroke-linecap: square"/>
    </g>
    <g id="text_33">
     <!-- n=3  (D$_3$=+0.000) -->
     <g transform="translate(385.2075 208.51375) scale(0.08 -0.08)">
      <defs>
       <path id="DejaVuSans-33" d="M 2597 2516 
Q 3050 2419 3304 2112 
Q 3559 1806 3559 1356 
Q 3559 666 3084 287 
Q 2609 -91 1734 -91 
Q 1441 -91 1130 -33 
Q 819 25 488 141 
L 488 750 
Q 750 597 1062 519 
Q 1375 441 1716 441 
Q 2309 441 2620 675 
Q 2931 909 2931 1356 
Q 2931 1769 2642 2001 
Q 2353 2234 1838 2234 
L 1294 2234 
L 1294 2753 
L 1863 2753 
Q 2328 2753 2575 2939 
Q 2822 3125 2822 3475 
Q 2822 3834 2567 4026 
Q 2313 4219 1838 4219 
Q 1578 4219 1281 4162 
Q 984 4106 628 3988 
L 628 4550 
Q 988 4650 1302 4700 
Q 1616 4750 1894 4750 
Q 2613 4750 3031 4423 
Q 3450 4097 3450 3541 
Q 3450 3153 3228 2886 
Q 3006 2619 2597 2516 
z
" transform="scale(0.015625)"/>
      </defs>
      <use xlink:href="#DejaVuSans-6e" transform="translate(0 0.125)"/>
      <use xlink:href="#DejaVuSans-3d" transform="translate(63.378906 0.125)"/>
      <use xlink:href="#DejaVuSans-33" transform="translate(147.167969 0.125)"/>
      <use xlink:href="#DejaVuSans-20" transform="translate(210.791016 0.125)"/>
      <use xlink:href="#DejaVuSans-20" transform="translate(242.578125 0.125)"/>
      <use xlink:href="#DejaVuSans-28" transform="translate(274.365234 0.125)"/>
      <use xlink:href="#DejaVuSans-44" transform="translate(313.378906 0.125)"/>
      <use xlink:href="#DejaVuSans-33" transform="translate(391.337891 -16.28125) scale(0.7)"/>
      <use xlink:href="#DejaVuSans-3d" transform="translate(438.608398 0.125)"/>
      <use xlink:href="#DejaVuSans-2b" transform="translate(522.397461 0.125)"/>
      <use xlink:href="#DejaVuSans-30" transform="translate(606.186523 0.125)"/>
      <use xlink:href="#DejaVuSans-2e" transform="translate(669.80957 0.125)"/>
      <use xlink:href="#DejaVuSans-30" transform="translate(701.59668 0.125)"/>
      <use xlink:href="#DejaVuSans-30" transform="translate(765.219727 0.125)"/>
      <use xlink:href="#DejaVuSans-30" transform="translate(828.842773 0.125)"/>
      <use xlink:href="#DejaVuSans-29" transform="translate(892.46582 0.125)"/>
     </g>
    </g>
    <g id="line2d_34">
     <path d="M 362.8075 217.45625 
L 370.8075 217.45625 
L 378.8075 217.45625 
" style="fill: none; stroke: #cc79a7; stroke-width: 1.8; stroke-linecap: square"/>
    </g>
    <g id="text_34">
     <!-- n=4  (D$_4$=-0.049) -->
     <g transform="translate(385.2075 220.25625) scale(0.08 -0.08)">
      <defs>
       <path id="DejaVuSans-2d" d="M 313 2009 
L 1997 2009 
L 1997 1497 
L 313 1497 
L 313 2009 
z
" transform="scale(0.015625)"/>
      </defs>
      <use xlink:href="#DejaVuSans-6e" transform="translate(0 0.125)"/>
      <use xlink:href="#DejaVuSans-3d" transform="translate(63.378906 0.125)"/>
      <use xlink:href="#DejaVuSans-34" transform="translate(147.167969 0.125)"/>
      <use xlink:href="#DejaVuSans-20" transform="translate(210.791016 0.125)"/>
      <use xlink:href="#DejaVuSans-20" transform="translate(242.578125 0.125)"/>
      <use xlink:href="#DejaVuSans-28" transform="translate(274.365234 0.125)"/>
      <use xlink:href="#DejaVuSans-44" transform="translate(313.378906 0.125)"/>
      <use xlink:href="#DejaVuSans-34" transform="translate(391.337891 -16.28125) scale(0.7)"/>
      <use xlink:href="#DejaVuSans-3d" transform="translate(438.608398 0.125)"/>
      <use xlink:href="#DejaVuSans-2d" transform="translate(522.397461 0.125)"/>
      <use xlink:href="#DejaVuSans-30" transform="translate(558.481445 0.125)"/>
      <use xlink:href="#DejaVuSans-2e" transform="translate(622.104492 0.125)"/>
      <use xlink:href="#DejaVuSans-30" transform="translate(653.891602 0.125)"/>
      <use xlink:href="#DejaVuSans-34" transform="translate(717.514648 0.125)"/>
      <use xlink:href="#DejaVuSans-39" transform="translate(781.137695 0.125)"/>
      <use xlink:href="#DejaVuSans-29" transform="translate(844.760742 0.125)"/>
     </g>
    </g>
   </g>
  </g>
  <g id="axes_3">
   <g id="patch_8">
    <path d="M 577.28 229.12 
L 771.435 229.12 
L 771.435 29.4 
L 577.28 29.4 
z
" style="fill: #ffffff"/>
   </g>
   <g id="matplotlib.axis_5">
    <g id="xtick_13">
     <g id="line2d_35">
      <g>
       <use xlink:href="#ma2b72e15a0" x="577.28" y="229.12" style="stroke: #000000; stroke-width: 0.8"/>
      </g>
     </g>
     <g id="text_35">
      <!-- 0.0 -->
      <g transform="translate(568.533281 244.478281) scale(0.11 -0.11)">
       <use xlink:href="#DejaVuSans-30"/>
       <use xlink:href="#DejaVuSans-2e" transform="translate(63.623047 0)"/>
       <use xlink:href="#DejaVuSans-30" transform="translate(95.410156 0)"/>
      </g>
     </g>
    </g>
    <g id="xtick_14">
     <g id="line2d_36">
      <g>
       <use xlink:href="#ma2b72e15a0" x="616.111" y="229.12" style="stroke: #000000; stroke-width: 0.8"/>
      </g>
     </g>
     <g id="text_36">
      <!-- 0.2 -->
      <g transform="translate(607.364281 244.478281) scale(0.11 -0.11)">
       <use xlink:href="#DejaVuSans-30"/>
       <use xlink:href="#DejaVuSans-2e" transform="translate(63.623047 0)"/>
       <use xlink:href="#DejaVuSans-32" transform="translate(95.410156 0)"/>
      </g>
     </g>
    </g>
    <g id="xtick_15">
     <g id="line2d_37">
      <g>
       <use xlink:href="#ma2b72e15a0" x="654.942" y="229.12" style="stroke: #000000; stroke-width: 0.8"/>
      </g>
     </g>
     <g id="text_37">
      <!-- 0.4 -->
      <g transform="translate(646.195281 244.478281) scale(0.11 -0.11)">
       <use xlink:href="#DejaVuSans-30"/>
       <use xlink:href="#DejaVuSans-2e" transform="translate(63.623047 0)"/>
       <use xlink:href="#DejaVuSans-34" transform="translate(95.410156 0)"/>
      </g>
     </g>
    </g>
    <g id="xtick_16">
     <g id="line2d_38">
      <g>
       <use xlink:href="#ma2b72e15a0" x="693.773" y="229.12" style="stroke: #000000; stroke-width: 0.8"/>
      </g>
     </g>
     <g id="text_38">
      <!-- 0.6 -->
      <g transform="translate(685.026281 244.478281) scale(0.11 -0.11)">
       <use xlink:href="#DejaVuSans-30"/>
       <use xlink:href="#DejaVuSans-2e" transform="translate(63.623047 0)"/>
       <use xlink:href="#DejaVuSans-36" transform="translate(95.410156 0)"/>
      </g>
     </g>
    </g>
    <g id="xtick_17">
     <g id="line2d_39">
      <g>
       <use xlink:href="#ma2b72e15a0" x="732.604" y="229.12" style="stroke: #000000; stroke-width: 0.8"/>
      </g>
     </g>
     <g id="text_39">
      <!-- 0.8 -->
      <g transform="translate(723.857281 244.478281) scale(0.11 -0.11)">
       <use xlink:href="#DejaVuSans-30"/>
       <use xlink:href="#DejaVuSans-2e" transform="translate(63.623047 0)"/>
       <use xlink:href="#DejaVuSans-38" transform="translate(95.410156 0)"/>
      </g>
     </g>
    </g>
    <g id="xtick_18">
     <g id="line2d_40">
      <g>
       <use xlink:href="#ma2b72e15a0" x="771.435" y="229.12" style="stroke: #000000; stroke-width: 0.8"/>
      </g>
     </g>
     <g id="text_40">
      <!-- 1.0 -->
      <g transform="translate(762.688281 244.478281) scale(0.11 -0.11)">
       <use xlink:href="#DejaVuSans-31"/>
       <use xlink:href="#DejaVuSans-2e" transform="translate(63.623047 0)"/>
       <use xlink:href="#DejaVuSans-30" transform="translate(95.410156 0)"/>
      </g>
     </g>
    </g>
    <g id="text_41">
     <!-- x / L -->
     <g transform="translate(662.688906 259.124219) scale(0.11 -0.11)">
      <use xlink:href="#DejaVuSans-78"/>
      <use xlink:href="#DejaVuSans-20" transform="translate(59.179688 0)"/>
      <use xlink:href="#DejaVuSans-2f" transform="translate(90.966797 0)"/>
      <use xlink:href="#DejaVuSans-20" transform="translate(124.658203 0)"/>
      <use xlink:href="#DejaVuSans-4c" transform="translate(156.445312 0)"/>
     </g>
    </g>
   </g>
   <g id="matplotlib.axis_6">
    <g id="ytick_13">
     <g id="line2d_41">
      <g>
       <use xlink:href="#m136fb708d0" x="577.28" y="229.12" style="stroke: #000000; stroke-width: 0.8"/>
      </g>
     </g>
     <g id="text_42">
      <!-- 0.0 -->
      <g transform="translate(552.786562 233.299141) scale(0.11 -0.11)">
       <use xlink:href="#DejaVuSans-30"/>
       <use xlink:href="#DejaVuSans-2e" transform="translate(63.623047 0)"/>
       <use xlink:href="#DejaVuSans-30" transform="translate(95.410156 0)"/>
      </g>
     </g>
    </g>
    <g id="ytick_14">
     <g id="line2d_42">
      <g>
       <use xlink:href="#m136fb708d0" x="577.28" y="192.807273" style="stroke: #000000; stroke-width: 0.8"/>
      </g>
     </g>
     <g id="text_43">
      <!-- 0.2 -->
      <g transform="translate(552.786562 196.986413) scale(0.11 -0.11)">
       <use xlink:href="#DejaVuSans-30"/>
       <use xlink:href="#DejaVuSans-2e" transform="translate(63.623047 0)"/>
       <use xlink:href="#DejaVuSans-32" transform="translate(95.410156 0)"/>
      </g>
     </g>
    </g>
    <g id="ytick_15">
     <g id="line2d_43">
      <g>
       <use xlink:href="#m136fb708d0" x="577.28" y="156.494545" style="stroke: #000000; stroke-width: 0.8"/>
      </g>
     </g>
     <g id="text_44">
      <!-- 0.4 -->
      <g transform="translate(552.786562 160.673686) scale(0.11 -0.11)">
       <use xlink:href="#DejaVuSans-30"/>
       <use xlink:href="#DejaVuSans-2e" transform="translate(63.623047 0)"/>
       <use xlink:href="#DejaVuSans-34" transform="translate(95.410156 0)"/>
      </g>
     </g>
    </g>
    <g id="ytick_16">
     <g id="line2d_44">
      <g>
       <use xlink:href="#m136fb708d0" x="577.28" y="120.181818" style="stroke: #000000; stroke-width: 0.8"/>
      </g>
     </g>
     <g id="text_45">
      <!-- 0.6 -->
      <g transform="translate(552.786562 124.360959) scale(0.11 -0.11)">
       <use xlink:href="#DejaVuSans-30"/>
       <use xlink:href="#DejaVuSans-2e" transform="translate(63.623047 0)"/>
       <use xlink:href="#DejaVuSans-36" transform="translate(95.410156 0)"/>
      </g>
     </g>
    </g>
    <g id="ytick_17">
     <g id="line2d_45">
      <g>
       <use xlink:href="#m136fb708d0" x="577.28" y="83.869091" style="stroke: #000000; stroke-width: 0.8"/>
      </g>
     </g>
     <g id="text_46">
      <!-- 0.8 -->
      <g transform="translate(552.786562 88.048232) scale(0.11 -0.11)">
       <use xlink:href="#DejaVuSans-30"/>
       <use xlink:href="#DejaVuSans-2e" transform="translate(63.623047 0)"/>
       <use xlink:href="#DejaVuSans-38" transform="translate(95.410156 0)"/>
      </g>
     </g>
    </g>
    <g id="ytick_18">
     <g id="line2d_46">
      <g>
       <use xlink:href="#m136fb708d0" x="577.28" y="47.556364" style="stroke: #000000; stroke-width: 0.8"/>
      </g>
     </g>
     <g id="text_47">
      <!-- 1.0 -->
      <g transform="translate(552.786562 51.735504) scale(0.11 -0.11)">
       <use xlink:href="#DejaVuSans-31"/>
       <use xlink:href="#DejaVuSans-2e" transform="translate(63.623047 0)"/>
       <use xlink:href="#DejaVuSans-30" transform="translate(95.410156 0)"/>
      </g>
     </g>
    </g>
    <g id="text_48">
     <!-- amplitude -->
     <g transform="translate(546.498906 157.053047) rotate(-90) scale(0.11 -0.11)">
      <use xlink:href="#DejaVuSans-61"/>
      <use xlink:href="#DejaVuSans-6d" transform="translate(61.279297 0)"/>
      <use xlink:href="#DejaVuSans-70" transform="translate(158.691406 0)"/>
      <use xlink:href="#DejaVuSans-6c" transform="translate(222.167969 0)"/>
      <use xlink:href="#DejaVuSans-69" transform="translate(249.951172 0)"/>
      <use xlink:href="#DejaVuSans-74" transform="translate(277.734375 0)"/>
      <use xlink:href="#DejaVuSans-75" transform="translate(316.943359 0)"/>
      <use xlink:href="#DejaVuSans-64" transform="translate(380.322266 0)"/>
      <use xlink:href="#DejaVuSans-65" transform="translate(443.798828 0)"/>
     </g>
    </g>
   </g>
   <g id="line2d_47">
    <path d="M 577.28 229.12 
L 641.782245 48.162586 
L 642.106377 47.707919 
L 771.435 229.12 
L 771.435 229.12 
" clip-path="url(#peaad30f1a3)" style="fill: none; stroke: #999999; stroke-width: 2.6; stroke-linecap: square"/>
   </g>
   <g id="line2d_48">
    <path d="M 577.28 229.12 
L 593.162462 182.725209 
L 611.962112 127.512245 
L 616.82409 114.097005 
L 620.713673 103.992559 
L 623.954992 96.132503 
L 626.872179 89.582607 
L 629.465234 84.237224 
L 632.058289 79.389923 
L 634.327212 75.59148 
L 636.596135 72.233984 
L 638.540927 69.724465 
L 640.485718 67.567826 
L 642.430509 65.773903 
L 644.051169 64.561449 
L 645.671828 63.608973 
L 647.292487 62.918101 
L 648.913147 62.489145 
L 650.533806 62.321081 
L 652.154466 62.411543 
L 653.775125 62.756833 
L 655.395785 63.351936 
L 657.016444 64.190555 
L 658.637104 65.26515 
L 660.581895 66.853791 
L 662.526686 68.75243 
L 664.471477 70.941755 
L 666.740401 73.834962 
L 669.333456 77.54358 
L 672.250643 82.158404 
L 675.491962 87.732784 
L 679.381544 94.874428 
L 685.864182 107.329492 
L 692.995083 120.912221 
L 697.53293 129.072604 
L 701.422513 135.615438 
L 704.987963 141.194448 
L 708.553414 146.358865 
L 712.118865 151.122535 
L 715.684316 155.52379 
L 719.573898 159.981812 
L 724.435876 165.198968 
L 738.373548 179.914979 
L 742.587262 184.835147 
L 746.476845 189.72923 
L 750.366427 195.000905 
L 754.25601 200.657832 
L 758.469725 207.19438 
L 763.331703 215.178744 
L 769.814341 226.301243 
L 771.435 229.12 
L 771.435 229.12 
" clip-path="url(#peaad30f1a3)" style="fill: none; stroke-dasharray: 7.4,3.2; stroke-dashoffset: 0; stroke: #d55e00; stroke-width: 2"/>
   </g>
   <g id="patch_9">
    <path d="M 577.28 229.12 
L 577.28 29.4 
" style="fill: none; stroke: #000000; stroke-linejoin: miter; stroke-linecap: square"/>
   </g>
   <g id="patch_10">
    <path d="M 577.28 229.12 
L 771.435 229.12 
" style="fill: none; stroke: #000000; stroke-linejoin: miter; stroke-linecap: square"/>
   </g>
   <g id="text_49">
    <!-- (3) partial sum (n=1..4) vs original -->
    <g transform="translate(570.17125 23.4) scale(0.12 -0.12)">
     <defs>
      <path id="DejaVuSans-67" d="M 2906 1791 
Q 2906 2416 2648 2759 
Q 2391 3103 1925 3103 
Q 1463 3103 1205 2759 
Q 947 2416 947 1791 
Q 947 1169 1205 825 
Q 1463 481 1925 481 
Q 2391 481 2648 825 
Q 2906 1169 2906 1791 
z
M 3481 434 
Q 3481 -459 3084 -895 
Q 2688 -1331 1869 -1331 
Q 1566 -1331 1297 -1286 
Q 1028 -1241 775 -1147 
L 775 -588 
Q 1028 -725 1275 -790 
Q 1522 -856 1778 -856 
Q 2344 -856 2625 -561 
Q 2906 -266 2906 331 
L 2906 616 
Q 2728 306 2450 153 
Q 2172 0 1784 0 
Q 1141 0 747 490 
Q 353 981 353 1791 
Q 353 2603 747 3093 
Q 1141 3584 1784 3584 
Q 2172 3584 2450 3431 
Q 2728 3278 2906 2969 
L 2906 3500 
L 3481 3500 
L 3481 434 
z
" transform="scale(0.015625)"/>
     </defs>
     <use xlink:href="#DejaVuSans-28"/>
     <use xlink:href="#DejaVuSans-33" transform="translate(39.013672 0)"/>
     <use xlink:href="#DejaVuSans-29" transform="translate(102.636719 0)"/>
     <use xlink:href="#DejaVuSans-20" transform="translate(141.650391 0)"/>
     <use xlink:href="#DejaVuSans-70" transform="translate(173.4375 0)"/>
     <use xlink:href="#DejaVuSans-61" transform="translate(236.914062 0)"/>
     <use xlink:href="#DejaVuSans-72" transform="translate(298.193359 0)"/>
     <use xlink:href="#DejaVuSans-74" transform="translate(339.306641 0)"/>
     <use xlink:href="#DejaVuSans-69" transform="translate(378.515625 0)"/>
     <use xlink:href="#DejaVuSans-61" transform="translate(406.298828 0)"/>
     <use xlink:href="#DejaVuSans-6c" transform="translate(467.578125 0)"/>
     <use xlink:href="#DejaVuSans-20" transform="translate(495.361328 0)"/>
     <use xlink:href="#DejaVuSans-73" transform="translate(527.148438 0)"/>
     <use xlink:href="#DejaVuSans-75" transform="translate(579.248047 0)"/>
     <use xlink:href="#DejaVuSans-6d" transform="translate(642.626953 0)"/>
     <use xlink:href="#DejaVuSans-20" transform="translate(740.039062 0)"/>
     <use xlink:href="#DejaVuSans-28" transform="translate(771.826172 0)"/>
     <use xlink:href="#DejaVuSans-6e" transform="translate(810.839844 0)"/>
     <use xlink:href="#DejaVuSans-3d" transform="translate(874.21875 0)"/>
     <use xlink:href="#DejaVuSans-31" transform="translate(958.007812 0)"/>
     <use xlink:href="#DejaVuSans-2e" transform="translate(1021.630859 0)"/>
     <use xlink:href="#DejaVuSans-2e" transform="translate(1053.417969 0)"/>
     <use xlink:href="#DejaVuSans-34" transform="translate(1085.205078 0)"/>
     <use xlink:href="#DejaVuSans-29" transform="translate(1148.828125 0)"/>
     <use xlink:href="#DejaVuSans-20" transform="translate(1187.841797 0)"/>
     <use xlink:href="#DejaVuSans-76" transform="translate(1219.628906 0)"/>
     <use xlink:href="#DejaVuSans-73" transform="translate(1278.808594 0)"/>
     <use xlink:href="#DejaVuSans-20" transform="translate(1330.908203 0)"/>
     <use xlink:href="#DejaVuSans-6f" transform="translate(1362.695312 0)"/>
     <use xlink:href="#DejaVuSans-72" transform="translate(1423.876953 0)"/>
     <use xlink:href="#DejaVuSans-69" transform="translate(1464.990234 0)"/>
     <use xlink:href="#DejaVuSans-67" transform="translate(1492.773438 0)"/>
     <use xlink:href="#DejaVuSans-69" transform="translate(1556.25 0)"/>
     <use xlink:href="#DejaVuSans-6e" transform="translate(1584.033203 0)"/>
     <use xlink:href="#DejaVuSans-61" transform="translate(1647.412109 0)"/>
     <use xlink:href="#DejaVuSans-6c" transform="translate(1708.691406 0)"/>
    </g>
   </g>
   <g id="legend_2">
    <g id="line2d_49">
     <path d="M 680.131719 40.533672 
L 688.631719 40.533672 
L 697.131719 40.533672 
" style="fill: none; stroke: #999999; stroke-width: 2.6; stroke-linecap: square"/>
    </g>
    <g id="text_50">
     <!-- original ψ(x,0) -->
     <g transform="translate(703.931719 43.508672) scale(0.085 -0.085)">
      <use xlink:href="#DejaVuSans-6f"/>
      <use xlink:href="#DejaVuSans-72" transform="translate(61.181641 0)"/>
      <use xlink:href="#DejaVuSans-69" transform="translate(102.294922 0)"/>
      <use xlink:href="#DejaVuSans-67" transform="translate(130.078125 0)"/>
      <use xlink:href="#DejaVuSans-69" transform="translate(193.554688 0)"/>
      <use xlink:href="#DejaVuSans-6e" transform="translate(221.337891 0)"/>
      <use xlink:href="#DejaVuSans-61" transform="translate(284.716797 0)"/>
      <use xlink:href="#DejaVuSans-6c" transform="translate(345.996094 0)"/>
      <use xlink:href="#DejaVuSans-20" transform="translate(373.779297 0)"/>
      <use xlink:href="#DejaVuSans-3c8" transform="translate(405.566406 0)"/>
      <use xlink:href="#DejaVuSans-28" transform="translate(471.533203 0)"/>
      <use xlink:href="#DejaVuSans-78" transform="translate(510.546875 0)"/>
      <use xlink:href="#DejaVuSans-2c" transform="translate(569.726562 0)"/>
      <use xlink:href="#DejaVuSans-30" transform="translate(601.513672 0)"/>
      <use xlink:href="#DejaVuSans-29" transform="translate(665.136719 0)"/>
     </g>
    </g>
    <g id="line2d_50">
     <path d="M 680.131719 53.010078 
L 688.631719 53.010078 
L 697.131719 53.010078 
" style="fill: none; stroke-dasharray: 7.4,3.2; stroke-dashoffset: 0; stroke: #d55e00; stroke-width: 2"/>
    </g>
    <g id="text_51">
     <!-- sum n=1..4 -->
     <g transform="translate(703.931719 55.985078) scale(0.085 -0.085)">
      <use xlink:href="#DejaVuSans-73"/>
      <use xlink:href="#DejaVuSans-75" transform="translate(52.099609 0)"/>
      <use xlink:href="#DejaVuSans-6d" transform="translate(115.478516 0)"/>
      <use xlink:href="#DejaVuSans-20" transform="translate(212.890625 0)"/>
      <use xlink:href="#DejaVuSans-6e" transform="translate(244.677734 0)"/>
      <use xlink:href="#DejaVuSans-3d" transform="translate(308.056641 0)"/>
      <use xlink:href="#DejaVuSans-31" transform="translate(391.845703 0)"/>
      <use xlink:href="#DejaVuSans-2e" transform="translate(455.46875 0)"/>
      <use xlink:href="#DejaVuSans-2e" transform="translate(487.255859 0)"/>
      <use xlink:href="#DejaVuSans-34" transform="translate(519.042969 0)"/>
     </g>
    </g>
   </g>
  </g>
 </g>
 <defs>
  <clipPath id="p8a1e3e5814">
   <rect x="51.14" y="29.4" width="194.155" height="199.72"/>
  </clipPath>
  <clipPath id="p324d1f7de4">
   <rect x="314.21" y="29.4" width="194.155" height="199.72"/>
  </clipPath>
  <clipPath id="peaad30f1a3">
   <rect x="577.28" y="29.4" width="194.155" height="199.72"/>
  </clipPath>
 </defs>
</svg>
