<?xml version="1.0" encoding="utf-8" standalone="no"?>
<!DOCTYPE svg PUBLIC "-//W3C//DTD SVG 1.1//EN"
  "http://www.w3.org/Graphics/SVG/1.1/DTD/svg11.dtd">
<svg xmlns:xlink="http://www.w3.org/1999/xlink" width="475.2pt" height="345.6pt" viewBox="0 0 475.2 345.6" xmlns="http://www.w3.org/2000/svg" version="1.1">
 <metadata>
  <rdf:RDF xmlns:dc="http://purl.org/dc/elements/1.1/" xmlns:cc="http://creativecommons.org/ns#" xmlns:rdf="http://www.w3.org/1999/02/22-rdf-syntax-ns#">
   <cc:Work>
    <dc:type rdf:resource="http://purl.org/dc/dcmitype/StillImage"/>
    <dc:date>2026-06-04T06:15:45.434272</dc:date>
    <dc:format>image/svg+xml</dc:format>
    <dc:creator>
     <cc:Agent>
      <dc:title>Matplotlib v3.10.8, https://matplotlib.org/</dc:title>
     </cc:Agent>
    </dc:creator>
   </cc:Work>
  </rdf:RDF>
 </metadata>
 <defs>
  <style type="text/css">*{stroke-linejoin: round; stroke-linecap: butt}</style>
 </defs>
 <g id="figure_1">
  <g id="patch_1">
   <path d="M 0 345.6 
L 475.2 345.6 
L 475.2 0 
L 0 0 
z
" style="fill: #ffffff"/>
  </g>
  <g id="axes_1">
   <g id="patch_2">
    <path d="M 47.54 301.12 
L 451.35 301.12 
L 451.35 27.96 
L 47.54 27.96 
z
" style="fill: #ffffff"/>
   </g>
   <g id="matplotlib.axis_1">
    <g id="xtick_1">
     <g id="line2d_1">
      <defs>
       <path id="m75539a656e" d="M 0 0 
L 0 3.5 
" style="stroke: #000000; stroke-width: 0.8"/>
      </defs>
      <g>
       <use xlink:href="#m75539a656e" x="47.54" y="301.12" style="stroke: #000000; stroke-width: 0.8"/>
      </g>
     </g>
     <g id="text_1">
      <!-- 0 -->
      <g transform="translate(44.040625 316.478281) scale(0.11 -0.11)">
       <defs>
        <path id="DejaVuSans-30" d="M 2034 4250 
Q 1547 4250 1301 3770 
Q 1056 3291 1056 2328 
Q 1056 1369 1301 889 
Q 1547 409 2034 409 
Q 2525 409 2770 889 
Q 3016 1369 3016 2328 
Q 3016 3291 2770 3770 
Q 2525 4250 2034 4250 
z
M 2034 4750 
Q 2819 4750 3233 4129 
Q 3647 3509 3647 2328 
Q 3647 1150 3233 529 
Q 2819 -91 2034 -91 
Q 1250 -91 836 529 
Q 422 1150 422 2328 
Q 422 3509 836 4129 
Q 1250 4750 2034 4750 
z
" transform="scale(0.015625)"/>
       </defs>
       <use xlink:href="#DejaVuSans-30"/>
      </g>
     </g>
    </g>
    <g id="xtick_2">
     <g id="line2d_2">
      <g>
       <use xlink:href="#m75539a656e" x="249.445" y="301.12" style="stroke: #000000; stroke-width: 0.8"/>
      </g>
     </g>
     <g id="text_2">
      <!-- π/a -->
      <g transform="translate(240.910547 316.478281) scale(0.11 -0.11)">
       <defs>
        <path id="DejaVuSans-3c0" d="M 231 3500 
L 3584 3500 
L 3584 2925 
L 3144 2925 
L 3144 775 
Q 3144 550 3220 451 
Q 3297 353 3469 353 
Q 3516 353 3584 361 
Q 3653 369 3675 372 
L 3675 -44 
Q 3566 -84 3450 -103 
Q 3334 -122 3219 -122 
Q 2844 -122 2700 83 
Q 2556 288 2556 838 
L 2556 2925 
L 1266 2925 
L 1266 0 
L 678 0 
L 678 2925 
L 231 2925 
L 231 3500 
z
" transform="scale(0.015625)"/>
        <path id="DejaVuSans-2f" d="M 1625 4666 
L 2156 4666 
L 531 -594 
L 0 -594 
L 1625 4666 
z
" transform="scale(0.015625)"/>
        <path id="DejaVuSans-61" d="M 2194 1759 
Q 1497 1759 1228 1600 
Q 959 1441 959 1056 
Q 959 750 1161 570 
Q 1363 391 1709 391 
Q 2188 391 2477 730 
Q 2766 1069 2766 1631 
L 2766 1759 
L 2194 1759 
z
M 3341 1997 
L 3341 0 
L 2766 0 
L 2766 531 
Q 2569 213 2275 61 
Q 1981 -91 1556 -91 
Q 1019 -91 701 211 
Q 384 513 384 1019 
Q 384 1609 779 1909 
Q 1175 2209 1959 2209 
L 2766 2209 
L 2766 2266 
Q 2766 2663 2505 2880 
Q 2244 3097 1772 3097 
Q 1472 3097 1187 3025 
Q 903 2953 641 2809 
L 641 3341 
Q 956 3463 1253 3523 
Q 1550 3584 1831 3584 
Q 2591 3584 2966 3190 
Q 3341 2797 3341 1997 
z
" transform="scale(0.015625)"/>
       </defs>
       <use xlink:href="#DejaVuSans-3c0"/>
       <use xlink:href="#DejaVuSans-2f" transform="translate(60.205078 0)"/>
       <use xlink:href="#DejaVuSans-61" transform="translate(93.896484 0)"/>
      </g>
     </g>
    </g>
    <g id="xtick_3">
     <g id="line2d_3">
      <g>
       <use xlink:href="#m75539a656e" x="451.35" y="301.12" style="stroke: #000000; stroke-width: 0.8"/>
      </g>
     </g>
     <g id="text_3">
      <!-- 2π/a -->
      <g transform="translate(439.316172 316.478281) scale(0.11 -0.11)">
       <defs>
        <path id="DejaVuSans-32" d="M 1228 531 
L 3431 531 
L 3431 0 
L 469 0 
L 469 531 
Q 828 903 1448 1529 
Q 2069 2156 2228 2338 
Q 2531 2678 2651 2914 
Q 2772 3150 2772 3378 
Q 2772 3750 2511 3984 
Q 2250 4219 1831 4219 
Q 1534 4219 1204 4116 
Q 875 4013 500 3803 
L 500 4441 
Q 881 4594 1212 4672 
Q 1544 4750 1819 4750 
Q 2544 4750 2975 4387 
Q 3406 4025 3406 3419 
Q 3406 3131 3298 2873 
Q 3191 2616 2906 2266 
Q 2828 2175 2409 1742 
Q 1991 1309 1228 531 
z
" transform="scale(0.015625)"/>
       </defs>
       <use xlink:href="#DejaVuSans-32"/>
       <use xlink:href="#DejaVuSans-3c0" transform="translate(63.623047 0)"/>
       <use xlink:href="#DejaVuSans-2f" transform="translate(123.828125 0)"/>
       <use xlink:href="#DejaVuSans-61" transform="translate(157.519531 0)"/>
      </g>
     </g>
    </g>
    <g id="text_4">
     <!-- wavevector  k  (units of 1/a) -->
     <g transform="translate(171.981797 331.124219) scale(0.11 -0.11)">
      <defs>
       <path id="DejaVuSans-77" d="M 269 3500 
L 844 3500 
L 1563 769 
L 2278 3500 
L 2956 3500 
L 3675 769 
L 4391 3500 
L 4966 3500 
L 4050 0 
L 3372 0 
L 2619 2869 
L 1863 0 
L 1184 0 
L 269 3500 
z
" transform="scale(0.015625)"/>
       <path id="DejaVuSans-76" d="M 191 3500 
L 800 3500 
L 1894 563 
L 2988 3500 
L 3597 3500 
L 2284 0 
L 1503 0 
L 191 3500 
z
" transform="scale(0.015625)"/>
       <path id="DejaVuSans-65" d="M 3597 1894 
L 3597 1613 
L 953 1613 
Q 991 1019 1311 708 
Q 1631 397 2203 397 
Q 2534 397 2845 478 
Q 3156 559 3463 722 
L 3463 178 
Q 3153 47 2828 -22 
Q 2503 -91 2169 -91 
Q 1331 -91 842 396 
Q 353 884 353 1716 
Q 353 2575 817 3079 
Q 1281 3584 2069 3584 
Q 2775 3584 3186 3129 
Q 3597 2675 3597 1894 
z
M 3022 2063 
Q 3016 2534 2758 2815 
Q 2500 3097 2075 3097 
Q 1594 3097 1305 2825 
Q 1016 2553 972 2059 
L 3022 2063 
z
" transform="scale(0.015625)"/>
       <path id="DejaVuSans-63" d="M 3122 3366 
L 3122 2828 
Q 2878 2963 2633 3030 
Q 2388 3097 2138 3097 
Q 1578 3097 1268 2742 
Q 959 2388 959 1747 
Q 959 1106 1268 751 
Q 1578 397 2138 397 
Q 2388 397 2633 464 
Q 2878 531 3122 666 
L 3122 134 
Q 2881 22 2623 -34 
Q 2366 -91 2075 -91 
Q 1284 -91 818 406 
Q 353 903 353 1747 
Q 353 2603 823 3093 
Q 1294 3584 2113 3584 
Q 2378 3584 2631 3529 
Q 2884 3475 3122 3366 
z
" transform="scale(0.015625)"/>
       <path id="DejaVuSans-74" d="M 1172 4494 
L 1172 3500 
L 2356 3500 
L 2356 3053 
L 1172 3053 
L 1172 1153 
Q 1172 725 1289 603 
Q 1406 481 1766 481 
L 2356 481 
L 2356 0 
L 1766 0 
Q 1100 0 847 248 
Q 594 497 594 1153 
L 594 3053 
L 172 3053 
L 172 3500 
L 594 3500 
L 594 4494 
L 1172 4494 
z
" transform="scale(0.015625)"/>
       <path id="DejaVuSans-6f" d="M 1959 3097 
Q 1497 3097 1228 2736 
Q 959 2375 959 1747 
Q 959 1119 1226 758 
Q 1494 397 1959 397 
Q 2419 397 2687 759 
Q 2956 1122 2956 1747 
Q 2956 2369 2687 2733 
Q 2419 3097 1959 3097 
z
M 1959 3584 
Q 2709 3584 3137 3096 
Q 3566 2609 3566 1747 
Q 3566 888 3137 398 
Q 2709 -91 1959 -91 
Q 1206 -91 779 398 
Q 353 888 353 1747 
Q 353 2609 779 3096 
Q 1206 3584 1959 3584 
z
" transform="scale(0.015625)"/>
       <path id="DejaVuSans-72" d="M 2631 2963 
Q 2534 3019 2420 3045 
Q 2306 3072 2169 3072 
Q 1681 3072 1420 2755 
Q 1159 2438 1159 1844 
L 1159 0 
L 581 0 
L 581 3500 
L 1159 3500 
L 1159 2956 
Q 1341 3275 1631 3429 
Q 1922 3584 2338 3584 
Q 2397 3584 2469 3576 
Q 2541 3569 2628 3553 
L 2631 2963 
z
" transform="scale(0.015625)"/>
       <path id="DejaVuSans-20" transform="scale(0.015625)"/>
       <path id="DejaVuSans-6b" d="M 581 4863 
L 1159 4863 
L 1159 1991 
L 2875 3500 
L 3609 3500 
L 1753 1863 
L 3688 0 
L 2938 0 
L 1159 1709 
L 1159 0 
L 581 0 
L 581 4863 
z
" transform="scale(0.015625)"/>
       <path id="DejaVuSans-28" d="M 1984 4856 
Q 1566 4138 1362 3434 
Q 1159 2731 1159 2009 
Q 1159 1288 1364 580 
Q 1569 -128 1984 -844 
L 1484 -844 
Q 1016 -109 783 600 
Q 550 1309 550 2009 
Q 550 2706 781 3412 
Q 1013 4119 1484 4856 
L 1984 4856 
z
" transform="scale(0.015625)"/>
       <path id="DejaVuSans-75" d="M 544 1381 
L 544 3500 
L 1119 3500 
L 1119 1403 
Q 1119 906 1312 657 
Q 1506 409 1894 409 
Q 2359 409 2629 706 
Q 2900 1003 2900 1516 
L 2900 3500 
L 3475 3500 
L 3475 0 
L 2900 0 
L 2900 538 
Q 2691 219 2414 64 
Q 2138 -91 1772 -91 
Q 1169 -91 856 284 
Q 544 659 544 1381 
z
M 1991 3584 
L 1991 3584 
z
" transform="scale(0.015625)"/>
       <path id="DejaVuSans-6e" d="M 3513 2113 
L 3513 0 
L 2938 0 
L 2938 2094 
Q 2938 2591 2744 2837 
Q 2550 3084 2163 3084 
Q 1697 3084 1428 2787 
Q 1159 2491 1159 1978 
L 1159 0 
L 581 0 
L 581 3500 
L 1159 3500 
L 1159 2956 
Q 1366 3272 1645 3428 
Q 1925 3584 2291 3584 
Q 2894 3584 3203 3211 
Q 3513 2838 3513 2113 
z
" transform="scale(0.015625)"/>
       <path id="DejaVuSans-69" d="M 603 3500 
L 1178 3500 
L 1178 0 
L 603 0 
L 603 3500 
z
M 603 4863 
L 1178 4863 
L 1178 4134 
L 603 4134 
L 603 4863 
z
" transform="scale(0.015625)"/>
       <path id="DejaVuSans-73" d="M 2834 3397 
L 2834 2853 
Q 2591 2978 2328 3040 
Q 2066 3103 1784 3103 
Q 1356 3103 1142 2972 
Q 928 2841 928 2578 
Q 928 2378 1081 2264 
Q 1234 2150 1697 2047 
L 1894 2003 
Q 2506 1872 2764 1633 
Q 3022 1394 3022 966 
Q 3022 478 2636 193 
Q 2250 -91 1575 -91 
Q 1294 -91 989 -36 
Q 684 19 347 128 
L 347 722 
Q 666 556 975 473 
Q 1284 391 1588 391 
Q 1994 391 2212 530 
Q 2431 669 2431 922 
Q 2431 1156 2273 1281 
Q 2116 1406 1581 1522 
L 1381 1569 
Q 847 1681 609 1914 
Q 372 2147 372 2553 
Q 372 3047 722 3315 
Q 1072 3584 1716 3584 
Q 2034 3584 2315 3537 
Q 2597 3491 2834 3397 
z
" transform="scale(0.015625)"/>
       <path id="DejaVuSans-66" d="M 2375 4863 
L 2375 4384 
L 1825 4384 
Q 1516 4384 1395 4259 
Q 1275 4134 1275 3809 
L 1275 3500 
L 2222 3500 
L 2222 3053 
L 1275 3053 
L 1275 0 
L 697 0 
L 697 3053 
L 147 3053 
L 147 3500 
L 697 3500 
L 697 3744 
Q 697 4328 969 4595 
Q 1241 4863 1831 4863 
L 2375 4863 
z
" transform="scale(0.015625)"/>
       <path id="DejaVuSans-31" d="M 794 531 
L 1825 531 
L 1825 4091 
L 703 3866 
L 703 4441 
L 1819 4666 
L 2450 4666 
L 2450 531 
L 3481 531 
L 3481 0 
L 794 0 
L 794 531 
z
" transform="scale(0.015625)"/>
       <path id="DejaVuSans-29" d="M 513 4856 
L 1013 4856 
Q 1481 4119 1714 3412 
Q 1947 2706 1947 2009 
Q 1947 1309 1714 600 
Q 1481 -109 1013 -844 
L 513 -844 
Q 928 -128 1133 580 
Q 1338 1288 1338 2009 
Q 1338 2731 1133 3434 
Q 928 4138 513 4856 
z
" transform="scale(0.015625)"/>
      </defs>
      <use xlink:href="#DejaVuSans-77"/>
      <use xlink:href="#DejaVuSans-61" transform="translate(81.787109 0)"/>
      <use xlink:href="#DejaVuSans-76" transform="translate(143.066406 0)"/>
      <use xlink:href="#DejaVuSans-65" transform="translate(202.246094 0)"/>
      <use xlink:href="#DejaVuSans-76" transform="translate(263.769531 0)"/>
      <use xlink:href="#DejaVuSans-65" transform="translate(322.949219 0)"/>
      <use xlink:href="#DejaVuSans-63" transform="translate(384.472656 0)"/>
      <use xlink:href="#DejaVuSans-74" transform="translate(439.453125 0)"/>
      <use xlink:href="#DejaVuSans-6f" transform="translate(478.662109 0)"/>
      <use xlink:href="#DejaVuSans-72" transform="translate(539.84375 0)"/>
      <use xlink:href="#DejaVuSans-20" transform="translate(580.957031 0)"/>
      <use xlink:href="#DejaVuSans-20" transform="translate(612.744141 0)"/>
      <use xlink:href="#DejaVuSans-6b" transform="translate(644.53125 0)"/>
      <use xlink:href="#DejaVuSans-20" transform="translate(702.441406 0)"/>
      <use xlink:href="#DejaVuSans-20" transform="translate(734.228516 0)"/>
      <use xlink:href="#DejaVuSans-28" transform="translate(766.015625 0)"/>
      <use xlink:href="#DejaVuSans-75" transform="translate(805.029297 0)"/>
      <use xlink:href="#DejaVuSans-6e" transform="translate(868.408203 0)"/>
      <use xlink:href="#DejaVuSans-69" transform="translate(931.787109 0)"/>
      <use xlink:href="#DejaVuSans-74" transform="translate(959.570312 0)"/>
      <use xlink:href="#DejaVuSans-73" transform="translate(998.779297 0)"/>
      <use xlink:href="#DejaVuSans-20" transform="translate(1050.878906 0)"/>
      <use xlink:href="#DejaVuSans-6f" transform="translate(1082.666016 0)"/>
      <use xlink:href="#DejaVuSans-66" transform="translate(1143.847656 0)"/>
      <use xlink:href="#DejaVuSans-20" transform="translate(1179.052734 0)"/>
      <use xlink:href="#DejaVuSans-31" transform="translate(1210.839844 0)"/>
      <use xlink:href="#DejaVuSans-2f" transform="translate(1274.462891 0)"/>
      <use xlink:href="#DejaVuSans-61" transform="translate(1308.154297 0)"/>
      <use xlink:href="#DejaVuSans-29" transform="translate(1369.433594 0)"/>
     </g>
    </g>
   </g>
   <g id="matplotlib.axis_2">
    <g id="ytick_1">
     <g id="line2d_4">
      <defs>
       <path id="mffda2a50cf" d="M 0 0 
L -3.5 0 
" style="stroke: #000000; stroke-width: 0.8"/>
      </defs>
      <g>
       <use xlink:href="#mffda2a50cf" x="47.54" y="301.12" style="stroke: #000000; stroke-width: 0.8"/>
      </g>
     </g>
     <g id="text_5">
      <!-- 0 -->
      <g transform="translate(33.54125 305.299141) scale(0.11 -0.11)">
       <use xlink:href="#DejaVuSans-30"/>
      </g>
     </g>
    </g>
    <g id="ytick_2">
     <g id="line2d_5">
      <g>
       <use xlink:href="#mffda2a50cf" x="47.54" y="256.479848" style="stroke: #000000; stroke-width: 0.8"/>
      </g>
     </g>
     <g id="text_6">
      <!-- 2 -->
      <g transform="translate(33.54125 260.658988) scale(0.11 -0.11)">
       <use xlink:href="#DejaVuSans-32"/>
      </g>
     </g>
    </g>
    <g id="ytick_3">
     <g id="line2d_6">
      <g>
       <use xlink:href="#mffda2a50cf" x="47.54" y="211.839695" style="stroke: #000000; stroke-width: 0.8"/>
      </g>
     </g>
     <g id="text_7">
      <!-- 4 -->
      <g transform="translate(33.54125 216.018836) scale(0.11 -0.11)">
       <defs>
        <path id="DejaVuSans-34" d="M 2419 4116 
L 825 1625 
L 2419 1625 
L 2419 4116 
z
M 2253 4666 
L 3047 4666 
L 3047 1625 
L 3713 1625 
L 3713 1100 
L 3047 1100 
L 3047 0 
L 2419 0 
L 2419 1100 
L 313 1100 
L 313 1709 
L 2253 4666 
z
" transform="scale(0.015625)"/>
       </defs>
       <use xlink:href="#DejaVuSans-34"/>
      </g>
     </g>
    </g>
    <g id="ytick_4">
     <g id="line2d_7">
      <g>
       <use xlink:href="#mffda2a50cf" x="47.54" y="167.199543" style="stroke: #000000; stroke-width: 0.8"/>
      </g>
     </g>
     <g id="text_8">
      <!-- 6 -->
      <g transform="translate(33.54125 171.378683) scale(0.11 -0.11)">
       <defs>
        <path id="DejaVuSans-36" d="M 2113 2584 
Q 1688 2584 1439 2293 
Q 1191 2003 1191 1497 
Q 1191 994 1439 701 
Q 1688 409 2113 409 
Q 2538 409 2786 701 
Q 3034 994 3034 1497 
Q 3034 2003 2786 2293 
Q 2538 2584 2113 2584 
z
M 3366 4563 
L 3366 3988 
Q 3128 4100 2886 4159 
Q 2644 4219 2406 4219 
Q 1781 4219 1451 3797 
Q 1122 3375 1075 2522 
Q 1259 2794 1537 2939 
Q 1816 3084 2150 3084 
Q 2853 3084 3261 2657 
Q 3669 2231 3669 1497 
Q 3669 778 3244 343 
Q 2819 -91 2113 -91 
Q 1303 -91 875 529 
Q 447 1150 447 2328 
Q 447 3434 972 4092 
Q 1497 4750 2381 4750 
Q 2619 4750 2861 4703 
Q 3103 4656 3366 4563 
z
" transform="scale(0.015625)"/>
       </defs>
       <use xlink:href="#DejaVuSans-36"/>
      </g>
     </g>
    </g>
    <g id="ytick_5">
     <g id="line2d_8">
      <g>
       <use xlink:href="#mffda2a50cf" x="47.54" y="122.55939" style="stroke: #000000; stroke-width: 0.8"/>
      </g>
     </g>
     <g id="text_9">
      <!-- 8 -->
      <g transform="translate(33.54125 126.738531) scale(0.11 -0.11)">
       <defs>
        <path id="DejaVuSans-38" d="M 2034 2216 
Q 1584 2216 1326 1975 
Q 1069 1734 1069 1313 
Q 1069 891 1326 650 
Q 1584 409 2034 409 
Q 2484 409 2743 651 
Q 3003 894 3003 1313 
Q 3003 1734 2745 1975 
Q 2488 2216 2034 2216 
z
M 1403 2484 
Q 997 2584 770 2862 
Q 544 3141 544 3541 
Q 544 4100 942 4425 
Q 1341 4750 2034 4750 
Q 2731 4750 3128 4425 
Q 3525 4100 3525 3541 
Q 3525 3141 3298 2862 
Q 3072 2584 2669 2484 
Q 3125 2378 3379 2068 
Q 3634 1759 3634 1313 
Q 3634 634 3220 271 
Q 2806 -91 2034 -91 
Q 1263 -91 848 271 
Q 434 634 434 1313 
Q 434 1759 690 2068 
Q 947 2378 1403 2484 
z
M 1172 3481 
Q 1172 3119 1398 2916 
Q 1625 2713 2034 2713 
Q 2441 2713 2670 2916 
Q 2900 3119 2900 3481 
Q 2900 3844 2670 4047 
Q 2441 4250 2034 4250 
Q 1625 4250 1398 4047 
Q 1172 3844 1172 3481 
z
" transform="scale(0.015625)"/>
       </defs>
       <use xlink:href="#DejaVuSans-38"/>
      </g>
     </g>
    </g>
    <g id="ytick_6">
     <g id="line2d_9">
      <g>
       <use xlink:href="#mffda2a50cf" x="47.54" y="77.919238" style="stroke: #000000; stroke-width: 0.8"/>
      </g>
     </g>
     <g id="text_10">
      <!-- 10 -->
      <g transform="translate(26.5425 82.098378) scale(0.11 -0.11)">
       <use xlink:href="#DejaVuSans-31"/>
       <use xlink:href="#DejaVuSans-30" transform="translate(63.623047 0)"/>
      </g>
     </g>
    </g>
    <g id="ytick_7">
     <g id="line2d_10">
      <g>
       <use xlink:href="#mffda2a50cf" x="47.54" y="33.279085" style="stroke: #000000; stroke-width: 0.8"/>
      </g>
     </g>
     <g id="text_11">
      <!-- 12 -->
      <g transform="translate(26.5425 37.458226) scale(0.11 -0.11)">
       <use xlink:href="#DejaVuSans-31"/>
       <use xlink:href="#DejaVuSans-32" transform="translate(63.623047 0)"/>
      </g>
     </g>
    </g>
    <g id="text_12">
     <!-- energy  E(k)  (ℏ²/2m a² units) -->
     <g transform="translate(20.254844 244.933672) rotate(-90) scale(0.11 -0.11)">
      <defs>
       <path id="DejaVuSans-67" d="M 2906 1791 
Q 2906 2416 2648 2759 
Q 2391 3103 1925 3103 
Q 1463 3103 1205 2759 
Q 947 2416 947 1791 
Q 947 1169 1205 825 
Q 1463 481 1925 481 
Q 2391 481 2648 825 
Q 2906 1169 2906 1791 
z
M 3481 434 
Q 3481 -459 3084 -895 
Q 2688 -1331 1869 -1331 
Q 1566 -1331 1297 -1286 
Q 1028 -1241 775 -1147 
L 775 -588 
Q 1028 -725 1275 -790 
Q 1522 -856 1778 -856 
Q 2344 -856 2625 -561 
Q 2906 -266 2906 331 
L 2906 616 
Q 2728 306 2450 153 
Q 2172 0 1784 0 
Q 1141 0 747 490 
Q 353 981 353 1791 
Q 353 2603 747 3093 
Q 1141 3584 1784 3584 
Q 2172 3584 2450 3431 
Q 2728 3278 2906 2969 
L 2906 3500 
L 3481 3500 
L 3481 434 
z
" transform="scale(0.015625)"/>
       <path id="DejaVuSans-79" d="M 2059 -325 
Q 1816 -950 1584 -1140 
Q 1353 -1331 966 -1331 
L 506 -1331 
L 506 -850 
L 844 -850 
Q 1081 -850 1212 -737 
Q 1344 -625 1503 -206 
L 1606 56 
L 191 3500 
L 800 3500 
L 1894 763 
L 2988 3500 
L 3597 3500 
L 2059 -325 
z
" transform="scale(0.015625)"/>
       <path id="DejaVuSans-45" d="M 628 4666 
L 3578 4666 
L 3578 4134 
L 1259 4134 
L 1259 2753 
L 3481 2753 
L 3481 2222 
L 1259 2222 
L 1259 531 
L 3634 531 
L 3634 0 
L 628 0 
L 628 4666 
z
" transform="scale(0.015625)"/>
       <path id="DejaVuSans-210f" d="M 1225 4863 
L 1803 4863 
L 1663 4131 
L 2903 4519 
L 2947 4216 
L 1597 3791 
L 1434 2956 
Q 1966 3584 2688 3584 
Q 3291 3584 3527 3211 
Q 3763 2838 3622 2113 
L 3213 0 
L 2638 0 
L 3044 2094 
Q 3238 3084 2463 3084 
Q 1997 3084 1670 2787 
Q 1344 2491 1244 1978 
L 859 0 
L 281 0 
L 978 3597 
L 325 3391 
L 281 3700 
L 1047 3938 
L 1225 4863 
z
" transform="scale(0.015625)"/>
       <path id="DejaVuSans-b2" d="M 838 2444 
L 2163 2444 
L 2163 2088 
L 294 2088 
L 294 2431 
Q 400 2528 597 2703 
Q 1672 3656 1672 3950 
Q 1672 4156 1509 4282 
Q 1347 4409 1081 4409 
Q 919 4409 728 4354 
Q 538 4300 313 4191 
L 313 4575 
Q 553 4663 761 4706 
Q 969 4750 1147 4750 
Q 1600 4750 1872 4544 
Q 2144 4338 2144 4000 
Q 2144 3566 1109 2678 
Q 934 2528 838 2444 
z
" transform="scale(0.015625)"/>
       <path id="DejaVuSans-6d" d="M 3328 2828 
Q 3544 3216 3844 3400 
Q 4144 3584 4550 3584 
Q 5097 3584 5394 3201 
Q 5691 2819 5691 2113 
L 5691 0 
L 5113 0 
L 5113 2094 
Q 5113 2597 4934 2840 
Q 4756 3084 4391 3084 
Q 3944 3084 3684 2787 
Q 3425 2491 3425 1978 
L 3425 0 
L 2847 0 
L 2847 2094 
Q 2847 2600 2669 2842 
Q 2491 3084 2119 3084 
Q 1678 3084 1418 2786 
Q 1159 2488 1159 1978 
L 1159 0 
L 581 0 
L 581 3500 
L 1159 3500 
L 1159 2956 
Q 1356 3278 1631 3431 
Q 1906 3584 2284 3584 
Q 2666 3584 2933 3390 
Q 3200 3197 3328 2828 
z
" transform="scale(0.015625)"/>
      </defs>
      <use xlink:href="#DejaVuSans-65"/>
      <use xlink:href="#DejaVuSans-6e" transform="translate(61.523438 0)"/>
      <use xlink:href="#DejaVuSans-65" transform="translate(124.902344 0)"/>
      <use xlink:href="#DejaVuSans-72" transform="translate(186.425781 0)"/>
      <use xlink:href="#DejaVuSans-67" transform="translate(225.789062 0)"/>
      <use xlink:href="#DejaVuSans-79" transform="translate(289.265625 0)"/>
      <use xlink:href="#DejaVuSans-20" transform="translate(348.445312 0)"/>
      <use xlink:href="#DejaVuSans-20" transform="translate(380.232422 0)"/>
      <use xlink:href="#DejaVuSans-45" transform="translate(412.019531 0)"/>
      <use xlink:href="#DejaVuSans-28" transform="translate(475.203125 0)"/>
      <use xlink:href="#DejaVuSans-6b" transform="translate(514.216797 0)"/>
      <use xlink:href="#DejaVuSans-29" transform="translate(572.126953 0)"/>
      <use xlink:href="#DejaVuSans-20" transform="translate(611.140625 0)"/>
      <use xlink:href="#DejaVuSans-20" transform="translate(642.927734 0)"/>
      <use xlink:href="#DejaVuSans-28" transform="translate(674.714844 0)"/>
      <use xlink:href="#DejaVuSans-210f" transform="translate(713.728516 0)"/>
      <use xlink:href="#DejaVuSans-b2" transform="translate(777.107422 0)"/>
      <use xlink:href="#DejaVuSans-2f" transform="translate(817.195312 0)"/>
      <use xlink:href="#DejaVuSans-32" transform="translate(850.886719 0)"/>
      <use xlink:href="#DejaVuSans-6d" transform="translate(914.509766 0)"/>
      <use xlink:href="#DejaVuSans-20" transform="translate(1011.921875 0)"/>
      <use xlink:href="#DejaVuSans-61" transform="translate(1043.708984 0)"/>
      <use xlink:href="#DejaVuSans-b2" transform="translate(1104.988281 0)"/>
      <use xlink:href="#DejaVuSans-20" transform="translate(1145.076172 0)"/>
      <use xlink:href="#DejaVuSans-75" transform="translate(1176.863281 0)"/>
      <use xlink:href="#DejaVuSans-6e" transform="translate(1240.242188 0)"/>
      <use xlink:href="#DejaVuSans-69" transform="translate(1303.621094 0)"/>
      <use xlink:href="#DejaVuSans-74" transform="translate(1331.404297 0)"/>
      <use xlink:href="#DejaVuSans-73" transform="translate(1370.613281 0)"/>
      <use xlink:href="#DejaVuSans-29" transform="translate(1422.712891 0)"/>
     </g>
    </g>
   </g>
   <g id="line2d_11">
    <path d="M 47.54 301.12 
L 54.211204 300.999751 
L 60.882408 300.639006 
L 67.553612 300.037763 
L 74.224816 299.196024 
L 80.89602 298.113787 
L 87.567224 296.791053 
L 94.238428 295.227823 
L 100.909632 293.424095 
L 107.580836 291.37987 
L 114.25204 289.095149 
L 120.923244 286.56993 
L 127.594448 283.804214 
L 134.265652 280.798001 
L 140.936856 277.551291 
L 147.60806 274.064084 
L 154.279264 270.33638 
L 160.950468 266.368179 
L 168.177606 261.797901 
L 175.404743 256.945372 
L 182.631881 251.810594 
L 189.859019 246.393565 
L 197.086156 240.694287 
L 204.313294 234.712758 
L 211.540432 228.44898 
L 218.767569 221.902951 
L 225.994707 215.074673 
L 233.777778 207.40549 
L 241.56085 199.408963 
L 249.343921 191.085094 
L 257.126992 182.433882 
L 264.910064 173.455326 
L 272.693135 164.149427 
L 280.476207 154.516185 
L 288.815212 143.831603 
L 297.154217 132.771245 
L 305.493222 121.335111 
L 313.832227 109.523199 
L 322.171232 97.335511 
L 330.510237 84.772047 
L 339.405175 70.956829 
L 348.300114 56.71406 
L 357.195053 42.043741 
L 366.089991 26.945872 
L 374.98493 11.420453 
L 381.930515 -1 
L 381.930515 -1 
" clip-path="url(#p91489fd37b)" style="fill: none; stroke-dasharray: 1,1.65; stroke-dashoffset: 0; stroke: #999999"/>
   </g>
   <g id="line2d_12">
    <path d="M 116.959422 -1 
L 125.926647 14.986501 
L 134.821586 30.414749 
L 143.716524 45.415448 
L 152.611463 59.988596 
L 161.506402 74.134194 
L 170.40134 87.852242 
L 179.296279 101.142739 
L 187.635284 113.214278 
L 195.974289 124.91004 
L 204.313294 136.230026 
L 212.652299 147.174235 
L 220.991304 157.742667 
L 229.330309 167.935323 
L 237.11338 177.109434 
L 244.896452 185.956202 
L 252.679523 194.475627 
L 260.462594 202.667709 
L 268.245666 210.532448 
L 276.028737 218.069843 
L 283.811809 225.279896 
L 291.038946 231.681839 
L 298.266084 237.801531 
L 305.493222 243.638974 
L 312.720359 249.194167 
L 319.947497 254.46711 
L 327.174635 259.457803 
L 334.401772 264.166246 
L 341.62891 268.592439 
L 348.300114 272.427638 
L 354.971318 276.022339 
L 361.642522 279.376544 
L 368.313726 282.490252 
L 374.98493 285.363463 
L 381.656134 287.996176 
L 388.327338 290.388393 
L 394.998542 292.540113 
L 401.669746 294.451335 
L 408.34095 296.122061 
L 415.012154 297.552289 
L 421.683358 298.742021 
L 428.354562 299.691255 
L 435.025766 300.399993 
L 441.69697 300.868233 
L 448.368174 301.095977 
L 455.039378 301.083223 
L 461.710582 300.829972 
L 468.381786 300.336225 
L 475.05299 299.60198 
L 476.2 299.451459 
L 476.2 299.451459 
" clip-path="url(#p91489fd37b)" style="fill: none; stroke-dasharray: 1,1.65; stroke-dashoffset: 0; stroke: #999999"/>
   </g>
   <g id="line2d_13">
    <path d="M 47.54 302.742304 
L 54.211204 302.677064 
L 60.882408 302.375172 
L 67.553612 301.837045 
L 74.224816 301.063159 
L 80.89602 300.054067 
L 87.567224 298.810408 
L 94.238428 297.332931 
L 100.909632 295.622511 
L 107.580836 293.680187 
L 114.25204 291.507191 
L 120.923244 289.105004 
L 127.594448 286.475416 
L 134.265652 283.62061 
L 141.49279 280.276889 
L 148.719927 276.676329 
L 155.947065 272.82448 
L 163.174203 268.728596 
L 170.957274 264.055877 
L 178.740345 259.128004 
L 187.07935 253.592134 
L 196.530223 247.053134 
L 224.326906 227.590377 
L 229.330309 224.508634 
L 233.221845 222.368121 
L 236.557447 220.776728 
L 239.337115 219.664473 
L 242.116783 218.781767 
L 244.896452 218.158914 
L 247.120186 217.864165 
L 249.343921 217.75913 
L 251.567656 217.846696 
L 253.79139 218.124453 
L 256.571059 218.727371 
L 259.350727 219.592147 
L 262.130395 220.688805 
L 265.465997 222.264656 
L 269.357533 224.391126 
L 273.805003 227.104621 
L 279.364339 230.781802 
L 287.147411 236.221031 
L 310.496625 252.698183 
L 319.391563 258.635188 
L 327.730568 263.931023 
L 335.51364 268.610604 
L 343.296711 273.01878 
L 350.523849 276.858481 
L 357.750986 280.446585 
L 364.978124 283.777615 
L 372.205262 286.847312 
L 378.876466 289.446009 
L 385.54767 291.81704 
L 392.218874 293.958662 
L 398.890078 295.869431 
L 405.561282 297.548142 
L 412.232486 298.993784 
L 418.90369 300.205498 
L 425.574894 301.182552 
L 432.246098 301.924319 
L 438.917302 302.43026 
L 445.588506 302.699904 
L 452.25971 302.732844 
L 458.930914 302.528722 
L 465.602118 302.087226 
L 472.273322 301.408077 
L 476.2 300.897071 
L 476.2 300.897071 
" clip-path="url(#p91489fd37b)" style="fill: none; stroke: #0072b2; stroke-width: 2.4; stroke-linecap: square"/>
   </g>
   <g id="line2d_14">
    <path d="M 118.338064 -1 
L 127.038514 14.279106 
L 135.933453 29.450068 
L 144.272458 43.254364 
L 152.611463 56.646383 
L 160.950468 69.616464 
L 168.733539 81.329515 
L 176.516611 92.648377 
L 183.743748 102.787256 
L 190.970886 112.543447 
L 197.64209 121.178936 
L 203.75736 128.746963 
L 209.316697 135.298741 
L 214.3201 140.885941 
L 218.767569 145.563788 
L 223.215039 149.918919 
L 227.106574 153.413195 
L 230.442176 156.128029 
L 233.777778 158.53761 
L 236.557447 160.275434 
L 239.337115 161.7331 
L 241.56085 162.675353 
L 243.784584 163.401387 
L 246.008319 163.897646 
L 248.232054 164.154098 
L 250.455788 164.165292 
L 252.679523 163.930987 
L 254.903258 163.456176 
L 257.126992 162.750515 
L 259.350727 161.827289 
L 262.130395 160.391293 
L 264.910064 158.67273 
L 267.689732 156.704211 
L 271.025334 154.054581 
L 274.360936 151.134686 
L 278.252472 147.437639 
L 282.699941 142.888572 
L 287.703344 137.423754 
L 293.262681 130.987903 
L 299.377951 123.53036 
L 305.493222 115.726677 
L 312.164426 106.860636 
L 319.391563 96.876158 
L 326.618701 86.524426 
L 334.401772 74.988365 
L 342.184844 63.066962 
L 350.523849 49.880676 
L 358.862854 36.277741 
L 367.201859 22.266436 
L 376.096797 6.877889 
L 380.552041 -1 
L 380.552041 -1 
" clip-path="url(#p91489fd37b)" style="fill: none; stroke: #e69f00; stroke-width: 2.4; stroke-linecap: square"/>
   </g>
   <g id="line2d_15">
    <path d="M 249.445 301.12 
L 249.445 27.96 
" clip-path="url(#p91489fd37b)" style="fill: none; stroke-dasharray: 2.96,1.28; stroke-dashoffset: 0; stroke: #999999; stroke-width: 0.8"/>
   </g>
   <g id="patch_3">
    <path d="M 47.54 301.12 
L 47.54 27.96 
" style="fill: none; stroke: #000000; stroke-linejoin: miter; stroke-linecap: square"/>
   </g>
   <g id="patch_4">
    <path d="M 47.54 301.12 
L 451.35 301.12 
" style="fill: none; stroke: #000000; stroke-linejoin: miter; stroke-linecap: square"/>
   </g>
   <g id="text_13">
    <!--   k = π/a -->
    <g transform="translate(256.283594 289.894796) rotate(-90) scale(0.09 -0.09)">
     <defs>
      <path id="DejaVuSans-3d" d="M 678 2906 
L 4684 2906 
L 4684 2381 
L 678 2381 
L 678 2906 
z
M 678 1631 
L 4684 1631 
L 4684 1100 
L 678 1100 
L 678 1631 
z
" transform="scale(0.015625)"/>
     </defs>
     <use xlink:href="#DejaVuSans-20"/>
     <use xlink:href="#DejaVuSans-20" transform="translate(31.787109 0)"/>
     <use xlink:href="#DejaVuSans-6b" transform="translate(63.574219 0)"/>
     <use xlink:href="#DejaVuSans-20" transform="translate(121.484375 0)"/>
     <use xlink:href="#DejaVuSans-3d" transform="translate(153.271484 0)"/>
     <use xlink:href="#DejaVuSans-20" transform="translate(237.060547 0)"/>
     <use xlink:href="#DejaVuSans-3c0" transform="translate(268.847656 0)"/>
     <use xlink:href="#DejaVuSans-2f" transform="translate(329.052734 0)"/>
     <use xlink:href="#DejaVuSans-61" transform="translate(362.744141 0)"/>
    </g>
   </g>
   <g id="patch_5">
    <path d="M 249.445 213.972385 
Q 249.445 190.975361 249.445 167.978336 
" style="fill: none; stroke: #d55e00; stroke-width: 1.6; stroke-linecap: round"/>
    <path d="M 251.645 209.572385 
L 249.445 213.972385 
L 247.245 209.572385 
" style="fill: none; stroke: #d55e00; stroke-width: 1.6; stroke-linecap: round"/>
    <path d="M 247.245 172.378336 
L 249.445 167.978336 
L 251.645 172.378336 
" style="fill: none; stroke: #d55e00; stroke-width: 1.6; stroke-linecap: round"/>
   </g>
   <g id="text_14">
    <!-- gap = 2|V₁| = 2.4 -->
    <g style="fill: #d55e00" transform="translate(257.157203 193.617026) scale(0.1 -0.1)">
     <defs>
      <path id="DejaVuSans-70" d="M 1159 525 
L 1159 -1331 
L 581 -1331 
L 581 3500 
L 1159 3500 
L 1159 2969 
Q 1341 3281 1617 3432 
Q 1894 3584 2278 3584 
Q 2916 3584 3314 3078 
Q 3713 2572 3713 1747 
Q 3713 922 3314 415 
Q 2916 -91 2278 -91 
Q 1894 -91 1617 61 
Q 1341 213 1159 525 
z
M 3116 1747 
Q 3116 2381 2855 2742 
Q 2594 3103 2138 3103 
Q 1681 3103 1420 2742 
Q 1159 2381 1159 1747 
Q 1159 1113 1420 752 
Q 1681 391 2138 391 
Q 2594 391 2855 752 
Q 3116 1113 3116 1747 
z
" transform="scale(0.015625)"/>
      <path id="DejaVuSans-7c" d="M 1344 4891 
L 1344 -1509 
L 813 -1509 
L 813 4891 
L 1344 4891 
z
" transform="scale(0.015625)"/>
      <path id="DejaVuSans-56" d="M 1831 0 
L 50 4666 
L 709 4666 
L 2188 738 
L 3669 4666 
L 4325 4666 
L 2547 0 
L 1831 0 
z
" transform="scale(0.015625)"/>
      <path id="DejaVuSans-2081" d="M 488 319 
L 1125 319 
L 1125 2229 
L 428 2101 
L 428 2463 
L 1147 2585 
L 1575 2585 
L 1575 319 
L 2216 319 
L 2216 -24 
L 488 -24 
L 488 319 
z
" transform="scale(0.015625)"/>
      <path id="DejaVuSans-2e" d="M 684 794 
L 1344 794 
L 1344 0 
L 684 0 
L 684 794 
z
" transform="scale(0.015625)"/>
     </defs>
     <use xlink:href="#DejaVuSans-67"/>
     <use xlink:href="#DejaVuSans-61" transform="translate(63.476562 0)"/>
     <use xlink:href="#DejaVuSans-70" transform="translate(124.755859 0)"/>
     <use xlink:href="#DejaVuSans-20" transform="translate(188.232422 0)"/>
     <use xlink:href="#DejaVuSans-3d" transform="translate(220.019531 0)"/>
     <use xlink:href="#DejaVuSans-20" transform="translate(303.808594 0)"/>
     <use xlink:href="#DejaVuSans-32" transform="translate(335.595703 0)"/>
     <use xlink:href="#DejaVuSans-7c" transform="translate(399.21875 0)"/>
     <use xlink:href="#DejaVuSans-56" transform="translate(432.910156 0)"/>
     <use xlink:href="#DejaVuSans-2081" transform="translate(501.318359 0)"/>
     <use xlink:href="#DejaVuSans-7c" transform="translate(541.40625 0)"/>
     <use xlink:href="#DejaVuSans-20" transform="translate(575.097656 0)"/>
     <use xlink:href="#DejaVuSans-3d" transform="translate(606.884766 0)"/>
     <use xlink:href="#DejaVuSans-20" transform="translate(690.673828 0)"/>
     <use xlink:href="#DejaVuSans-32" transform="translate(722.460938 0)"/>
     <use xlink:href="#DejaVuSans-2e" transform="translate(786.083984 0)"/>
     <use xlink:href="#DejaVuSans-34" transform="translate(817.871094 0)"/>
    </g>
   </g>
   <g id="text_15">
    <!-- Nearly-free-electron bands: avoided crossing at the zone boundary -->
    <g transform="translate(48.264063 21.96) scale(0.12 -0.12)">
     <defs>
      <path id="DejaVuSans-4e" d="M 628 4666 
L 1478 4666 
L 3547 763 
L 3547 4666 
L 4159 4666 
L 4159 0 
L 3309 0 
L 1241 3903 
L 1241 0 
L 628 0 
L 628 4666 
z
" transform="scale(0.015625)"/>
      <path id="DejaVuSans-6c" d="M 603 4863 
L 1178 4863 
L 1178 0 
L 603 0 
L 603 4863 
z
" transform="scale(0.015625)"/>
      <path id="DejaVuSans-2d" d="M 313 2009 
L 1997 2009 
L 1997 1497 
L 313 1497 
L 313 2009 
z
" transform="scale(0.015625)"/>
      <path id="DejaVuSans-62" d="M 3116 1747 
Q 3116 2381 2855 2742 
Q 2594 3103 2138 3103 
Q 1681 3103 1420 2742 
Q 1159 2381 1159 1747 
Q 1159 1113 1420 752 
Q 1681 391 2138 391 
Q 2594 391 2855 752 
Q 3116 1113 3116 1747 
z
M 1159 2969 
Q 1341 3281 1617 3432 
Q 1894 3584 2278 3584 
Q 2916 3584 3314 3078 
Q 3713 2572 3713 1747 
Q 3713 922 3314 415 
Q 2916 -91 2278 -91 
Q 1894 -91 1617 61 
Q 1341 213 1159 525 
L 1159 0 
L 581 0 
L 581 4863 
L 1159 4863 
L 1159 2969 
z
" transform="scale(0.015625)"/>
      <path id="DejaVuSans-64" d="M 2906 2969 
L 2906 4863 
L 3481 4863 
L 3481 0 
L 2906 0 
L 2906 525 
Q 2725 213 2448 61 
Q 2172 -91 1784 -91 
Q 1150 -91 751 415 
Q 353 922 353 1747 
Q 353 2572 751 3078 
Q 1150 3584 1784 3584 
Q 2172 3584 2448 3432 
Q 2725 3281 2906 2969 
z
M 947 1747 
Q 947 1113 1208 752 
Q 1469 391 1925 391 
Q 2381 391 2643 752 
Q 2906 1113 2906 1747 
Q 2906 2381 2643 2742 
Q 2381 3103 1925 3103 
Q 1469 3103 1208 2742 
Q 947 2381 947 1747 
z
" transform="scale(0.015625)"/>
      <path id="DejaVuSans-3a" d="M 750 794 
L 1409 794 
L 1409 0 
L 750 0 
L 750 794 
z
M 750 3309 
L 1409 3309 
L 1409 2516 
L 750 2516 
L 750 3309 
z
" transform="scale(0.015625)"/>
      <path id="DejaVuSans-68" d="M 3513 2113 
L 3513 0 
L 2938 0 
L 2938 2094 
Q 2938 2591 2744 2837 
Q 2550 3084 2163 3084 
Q 1697 3084 1428 2787 
Q 1159 2491 1159 1978 
L 1159 0 
L 581 0 
L 581 4863 
L 1159 4863 
L 1159 2956 
Q 1366 3272 1645 3428 
Q 1925 3584 2291 3584 
Q 2894 3584 3203 3211 
Q 3513 2838 3513 2113 
z
" transform="scale(0.015625)"/>
      <path id="DejaVuSans-7a" d="M 353 3500 
L 3084 3500 
L 3084 2975 
L 922 459 
L 3084 459 
L 3084 0 
L 275 0 
L 275 525 
L 2438 3041 
L 353 3041 
L 353 3500 
z
" transform="scale(0.015625)"/>
     </defs>
     <use xlink:href="#DejaVuSans-4e"/>
     <use xlink:href="#DejaVuSans-65" transform="translate(74.804688 0)"/>
     <use xlink:href="#DejaVuSans-61" transform="translate(136.328125 0)"/>
     <use xlink:href="#DejaVuSans-72" transform="translate(197.607422 0)"/>
     <use xlink:href="#DejaVuSans-6c" transform="translate(238.720703 0)"/>
     <use xlink:href="#DejaVuSans-79" transform="translate(266.503906 0)"/>
     <use xlink:href="#DejaVuSans-2d" transform="translate(323.933594 0)"/>
     <use xlink:href="#DejaVuSans-66" transform="translate(360.017578 0)"/>
     <use xlink:href="#DejaVuSans-72" transform="translate(395.222656 0)"/>
     <use xlink:href="#DejaVuSans-65" transform="translate(434.085938 0)"/>
     <use xlink:href="#DejaVuSans-65" transform="translate(495.609375 0)"/>
     <use xlink:href="#DejaVuSans-2d" transform="translate(557.132812 0)"/>
     <use xlink:href="#DejaVuSans-65" transform="translate(593.216797 0)"/>
     <use xlink:href="#DejaVuSans-6c" transform="translate(654.740234 0)"/>
     <use xlink:href="#DejaVuSans-65" transform="translate(682.523438 0)"/>
     <use xlink:href="#DejaVuSans-63" transform="translate(744.046875 0)"/>
     <use xlink:href="#DejaVuSans-74" transform="translate(799.027344 0)"/>
     <use xlink:href="#DejaVuSans-72" transform="translate(838.236328 0)"/>
     <use xlink:href="#DejaVuSans-6f" transform="translate(877.099609 0)"/>
     <use xlink:href="#DejaVuSans-6e" transform="translate(938.28125 0)"/>
     <use xlink:href="#DejaVuSans-20" transform="translate(1001.660156 0)"/>
     <use xlink:href="#DejaVuSans-62" transform="translate(1033.447266 0)"/>
     <use xlink:href="#DejaVuSans-61" transform="translate(1096.923828 0)"/>
     <use xlink:href="#DejaVuSans-6e" transform="translate(1158.203125 0)"/>
     <use xlink:href="#DejaVuSans-64" transform="translate(1221.582031 0)"/>
     <use xlink:href="#DejaVuSans-73" transform="translate(1285.058594 0)"/>
     <use xlink:href="#DejaVuSans-3a" transform="translate(1337.158203 0)"/>
     <use xlink:href="#DejaVuSans-20" transform="translate(1370.849609 0)"/>
     <use xlink:href="#DejaVuSans-61" transform="translate(1402.636719 0)"/>
     <use xlink:href="#DejaVuSans-76" transform="translate(1463.916016 0)"/>
     <use xlink:href="#DejaVuSans-6f" transform="translate(1523.095703 0)"/>
     <use xlink:href="#DejaVuSans-69" transform="translate(1584.277344 0)"/>
     <use xlink:href="#DejaVuSans-64" transform="translate(1612.060547 0)"/>
     <use xlink:href="#DejaVuSans-65" transform="translate(1675.537109 0)"/>
     <use xlink:href="#DejaVuSans-64" transform="translate(1737.060547 0)"/>
     <use xlink:href="#DejaVuSans-20" transform="translate(1800.537109 0)"/>
     <use xlink:href="#DejaVuSans-63" transform="translate(1832.324219 0)"/>
     <use xlink:href="#DejaVuSans-72" transform="translate(1887.304688 0)"/>
     <use xlink:href="#DejaVuSans-6f" transform="translate(1926.167969 0)"/>
     <use xlink:href="#DejaVuSans-73" transform="translate(1987.349609 0)"/>
     <use xlink:href="#DejaVuSans-73" transform="translate(2039.449219 0)"/>
     <use xlink:href="#DejaVuSans-69" transform="translate(2091.548828 0)"/>
     <use xlink:href="#DejaVuSans-6e" transform="translate(2119.332031 0)"/>
     <use xlink:href="#DejaVuSans-67" transform="translate(2182.710938 0)"/>
     <use xlink:href="#DejaVuSans-20" transform="translate(2246.1875 0)"/>
     <use xlink:href="#DejaVuSans-61" transform="translate(2277.974609 0)"/>
     <use xlink:href="#DejaVuSans-74" transform="translate(2339.253906 0)"/>
     <use xlink:href="#DejaVuSans-20" transform="translate(2378.462891 0)"/>
     <use xlink:href="#DejaVuSans-74" transform="translate(2410.25 0)"/>
     <use xlink:href="#DejaVuSans-68" transform="translate(2449.458984 0)"/>
     <use xlink:href="#DejaVuSans-65" transform="translate(2512.837891 0)"/>
     <use xlink:href="#DejaVuSans-20" transform="translate(2574.361328 0)"/>
     <use xlink:href="#DejaVuSans-7a" transform="translate(2606.148438 0)"/>
     <use xlink:href="#DejaVuSans-6f" transform="translate(2658.638672 0)"/>
     <use xlink:href="#DejaVuSans-6e" transform="translate(2719.820312 0)"/>
     <use xlink:href="#DejaVuSans-65" transform="translate(2783.199219 0)"/>
     <use xlink:href="#DejaVuSans-20" transform="translate(2844.722656 0)"/>
     <use xlink:href="#DejaVuSans-62" transform="translate(2876.509766 0)"/>
     <use xlink:href="#DejaVuSans-6f" transform="translate(2939.986328 0)"/>
     <use xlink:href="#DejaVuSans-75" transform="translate(3001.167969 0)"/>
     <use xlink:href="#DejaVuSans-6e" transform="translate(3064.546875 0)"/>
     <use xlink:href="#DejaVuSans-64" transform="translate(3127.925781 0)"/>
     <use xlink:href="#DejaVuSans-61" transform="translate(3191.402344 0)"/>
     <use xlink:href="#DejaVuSans-72" transform="translate(3252.681641 0)"/>
     <use xlink:href="#DejaVuSans-79" transform="translate(3293.794922 0)"/>
    </g>
   </g>
   <g id="legend_1">
    <g id="line2d_16">
     <path d="M 55.64 39.748594 
L 64.64 39.748594 
L 73.64 39.748594 
" style="fill: none; stroke-dasharray: 1,1.65; stroke-dashoffset: 0; stroke: #999999"/>
    </g>
    <g id="text_16">
     <!-- free electron  E₀(k) -->
     <g transform="translate(80.84 42.898594) scale(0.09 -0.09)">
      <defs>
       <path id="DejaVuSans-2080" d="M 1781 2091 
Q 1625 2360 1309 2360 
Q 994 2360 838 2091 
Q 678 1822 678 1285 
Q 678 744 838 476 
Q 994 207 1309 207 
Q 1625 207 1781 476 
Q 1941 744 1941 1285 
Q 1941 1822 1781 2091 
z
M 1309 2638 
Q 1813 2638 2078 2291 
Q 2344 1944 2344 1285 
Q 2344 622 2078 275 
Q 1813 -71 1309 -71 
Q 803 -71 537 275 
Q 272 622 272 1285 
Q 272 1944 537 2291 
Q 803 2638 1309 2638 
z
" transform="scale(0.015625)"/>
      </defs>
      <use xlink:href="#DejaVuSans-66"/>
      <use xlink:href="#DejaVuSans-72" transform="translate(35.205078 0)"/>
      <use xlink:href="#DejaVuSans-65" transform="translate(74.068359 0)"/>
      <use xlink:href="#DejaVuSans-65" transform="translate(135.591797 0)"/>
      <use xlink:href="#DejaVuSans-20" transform="translate(197.115234 0)"/>
      <use xlink:href="#DejaVuSans-65" transform="translate(228.902344 0)"/>
      <use xlink:href="#DejaVuSans-6c" transform="translate(290.425781 0)"/>
      <use xlink:href="#DejaVuSans-65" transform="translate(318.208984 0)"/>
      <use xlink:href="#DejaVuSans-63" transform="translate(379.732422 0)"/>
      <use xlink:href="#DejaVuSans-74" transform="translate(434.712891 0)"/>
      <use xlink:href="#DejaVuSans-72" transform="translate(473.921875 0)"/>
      <use xlink:href="#DejaVuSans-6f" transform="translate(512.785156 0)"/>
      <use xlink:href="#DejaVuSans-6e" transform="translate(573.966797 0)"/>
      <use xlink:href="#DejaVuSans-20" transform="translate(637.345703 0)"/>
      <use xlink:href="#DejaVuSans-20" transform="translate(669.132812 0)"/>
      <use xlink:href="#DejaVuSans-45" transform="translate(700.919922 0)"/>
      <use xlink:href="#DejaVuSans-2080" transform="translate(764.103516 0)"/>
      <use xlink:href="#DejaVuSans-28" transform="translate(804.191406 0)"/>
      <use xlink:href="#DejaVuSans-6b" transform="translate(843.205078 0)"/>
      <use xlink:href="#DejaVuSans-29" transform="translate(901.115234 0)"/>
     </g>
    </g>
    <g id="line2d_17">
     <path d="M 55.64 52.958906 
L 64.64 52.958906 
L 73.64 52.958906 
" style="fill: none; stroke: #0072b2; stroke-width: 2.4; stroke-linecap: square"/>
    </g>
    <g id="text_17">
     <!-- lower band -->
     <g transform="translate(80.84 56.108906) scale(0.09 -0.09)">
      <use xlink:href="#DejaVuSans-6c"/>
      <use xlink:href="#DejaVuSans-6f" transform="translate(27.783203 0)"/>
      <use xlink:href="#DejaVuSans-77" transform="translate(88.964844 0)"/>
      <use xlink:href="#DejaVuSans-65" transform="translate(170.751953 0)"/>
      <use xlink:href="#DejaVuSans-72" transform="translate(232.275391 0)"/>
      <use xlink:href="#DejaVuSans-20" transform="translate(273.388672 0)"/>
      <use xlink:href="#DejaVuSans-62" transform="translate(305.175781 0)"/>
      <use xlink:href="#DejaVuSans-61" transform="translate(368.652344 0)"/>
      <use xlink:href="#DejaVuSans-6e" transform="translate(429.931641 0)"/>
      <use xlink:href="#DejaVuSans-64" transform="translate(493.310547 0)"/>
     </g>
    </g>
    <g id="line2d_18">
     <path d="M 55.64 66.169219 
L 64.64 66.169219 
L 73.64 66.169219 
" style="fill: none; stroke: #e69f00; stroke-width: 2.4; stroke-linecap: square"/>
    </g>
    <g id="text_18">
     <!-- upper band -->
     <g transform="translate(80.84 69.319219) scale(0.09 -0.09)">
      <use xlink:href="#DejaVuSans-75"/>
      <use xlink:href="#DejaVuSans-70" transform="translate(63.378906 0)"/>
      <use xlink:href="#DejaVuSans-70" transform="translate(126.855469 0)"/>
      <use xlink:href="#DejaVuSans-65" transform="translate(190.332031 0)"/>
      <use xlink:href="#DejaVuSans-72" transform="translate(251.855469 0)"/>
      <use xlink:href="#DejaVuSans-20" transform="translate(292.96875 0)"/>
      <use xlink:href="#DejaVuSans-62" transform="translate(324.755859 0)"/>
      <use xlink:href="#DejaVuSans-61" transform="translate(388.232422 0)"/>
      <use xlink:href="#DejaVuSans-6e" transform="translate(449.511719 0)"/>
      <use xlink:href="#DejaVuSans-64" transform="translate(512.890625 0)"/>
     </g>
    </g>
   </g>
  </g>
 </g>
 <defs>
  <clipPath id="p91489fd37b">
   <rect x="47.54" y="27.96" width="403.81" height="273.16"/>
  </clipPath>
 </defs>
</svg>
