<!-- CAJAL SVG | book: Quantum Mechanics | chapter: 06-the-fourier-transform | figure: 02 | type: chart | date: 2026-06-06 -->
<svg viewBox="0 0 700 420" xmlns="http://www.w3.org/2000/svg" role="img" aria-labelledby="fig-title-0602">
<title id="fig-title-0602">Gaussian wave packet uncertainty: reciprocal widths in position and momentum space</title>
<desc>A 2-by-2 grid of Gaussian probability density curves. Top row shows position space, bottom row shows momentum space. Left column shows state A: narrow in position (small delta-x), correspondingly wide in momentum (large delta-p). Right column shows state B: wide in position (large delta-x), correspondingly narrow in momentum (small delta-p). Width brackets at half-maximum confirm the reciprocal relationship, illustrating the minimum-uncertainty Gaussian satisfies delta-x times delta-p equals hbar over 2.</desc>
<metadata><cajal:figure xmlns:cajal="https://bearbrown.ai/cajal/1.0" book="Quantum Mechanics" book-slug="quantum-mechanics-vol5" chapter="06-the-fourier-transform" figure-number="02" figure-title="Gaussian wave packet: reciprocal position and momentum widths" figure-slug="gaussian-wave-packet-uncertainty-2x2" figure-type="chart" priority="CRITICAL" author="Humanitarians AI Incorporated" date-generated="2026-06-06" source-file="pantry/06-the-fourier-transform-cajal.md"/></metadata>
<defs><marker id="arr0602" markerWidth="8" markerHeight="6" refX="7" refY="3" orient="auto"><polygon points="0 0, 8 3, 0 6" fill="#2a1a0e"/></marker></defs>
<rect x="55" y="30" width="280" height="175" fill="#F5F5F5" stroke="#D4D4D4" stroke-width="0.75"/>
<rect x="365" y="30" width="280" height="175" fill="#F5F5F5" stroke="#D4D4D4" stroke-width="0.75"/>
<rect x="55" y="215" width="280" height="175" fill="#F5F5F5" stroke="#D4D4D4" stroke-width="0.75"/>
<rect x="365" y="215" width="280" height="175" fill="#F5F5F5" stroke="#D4D4D4" stroke-width="0.75"/>
<text x="195" y="22" text-anchor="middle" font-family="'Inter',-apple-system,sans-serif" font-size="11" fill="#545454">State A — localized in x</text>
<text x="505" y="22" text-anchor="middle" font-family="'Inter',-apple-system,sans-serif" font-size="11" fill="#545454">State B — delocalized in x</text>
<text x="20" y="115" text-anchor="middle" font-family="'EB Garamond',Georgia,serif" font-size="11" fill="#545454" font-style="italic" transform="rotate(-90,20,115)">|&#x3C8;(x)|&#xB2;</text>
<text x="20" y="300" text-anchor="middle" font-family="'EB Garamond',Georgia,serif" font-size="11" fill="#545454" font-style="italic" transform="rotate(-90,20,300)">|&#x3C6;&#x0303;(p)|&#xB2;</text>
<line x1="60" y1="200" x2="340" y2="200" stroke="#2a1a0e" stroke-width="0.75" marker-end="url(#arr0602)"/>
<line x1="60" y1="204" x2="60" y2="35" stroke="#2a1a0e" stroke-width="0.75" marker-end="url(#arr0602)"/>
<text x="344" y="204" font-family="'EB Garamond',Georgia,serif" font-size="11" fill="#545454" font-style="italic">x</text>
<line x1="370" y1="200" x2="650" y2="200" stroke="#2a1a0e" stroke-width="0.75" marker-end="url(#arr0602)"/>
<line x1="370" y1="204" x2="370" y2="35" stroke="#2a1a0e" stroke-width="0.75" marker-end="url(#arr0602)"/>
<text x="654" y="204" font-family="'EB Garamond',Georgia,serif" font-size="11" fill="#545454" font-style="italic">x</text>
<line x1="60" y1="385" x2="340" y2="385" stroke="#2a1a0e" stroke-width="0.75" marker-end="url(#arr0602)"/>
<line x1="60" y1="389" x2="60" y2="220" stroke="#2a1a0e" stroke-width="0.75" marker-end="url(#arr0602)"/>
<text x="344" y="389" font-family="'EB Garamond',Georgia,serif" font-size="11" fill="#545454" font-style="italic">p</text>
<line x1="370" y1="385" x2="650" y2="385" stroke="#2a1a0e" stroke-width="0.75" marker-end="url(#arr0602)"/>
<line x1="370" y1="389" x2="370" y2="220" stroke="#2a1a0e" stroke-width="0.75" marker-end="url(#arr0602)"/>
<text x="654" y="389" font-family="'EB Garamond',Georgia,serif" font-size="11" fill="#545454" font-style="italic">p</text>
<path d="M 55.00,200.00 L 56.12,200.00 L 57.24,200.00 L 58.36,200.00 L 59.48,200.00 L 60.60,200.00 L 61.72,200.00 L 62.84,200.00 L 63.96,200.00 L 65.08,200.00 L 66.20,200.00 L 67.32,200.00 L 68.44,200.00 L 69.56,200.00 L 70.68,200.00 L 71.80,200.00 L 72.92,200.00 L 74.04,200.00 L 75.16,200.00 L 76.28,200.00 L 77.40,199.99 L 78.52,199.99 L 79.64,199.99 L 80.76,199.99 L 81.88,199.99 L 83.00,199.98 L 84.12,199.98 L 85.24,199.98 L 86.36,199.97 L 87.48,199.97 L 88.60,199.96 L 89.72,199.95 L 90.84,199.95 L 91.96,199.94 L 93.08,199.92 L 94.20,199.91 L 95.32,199.89 L 96.44,199.87 L 97.56,199.85 L 98.68,199.83 L 99.80,199.80 L 100.92,199.76 L 102.04,199.72 L 103.16,199.68 L 104.28,199.63 L 105.40,199.56 L 106.52,199.50 L 107.64,199.42 L 108.76,199.33 L 109.88,199.22 L 111.00,199.11 L 112.12,198.97 L 113.24,198.82 L 114.36,198.66 L 115.48,198.46 L 116.60,198.25 L 117.72,198.01 L 118.84,197.74 L 119.96,197.44 L 121.08,197.10 L 122.20,196.73 L 123.32,196.31 L 124.44,195.85 L 125.56,195.34 L 126.68,194.77 L 127.80,194.15 L 128.92,193.47 L 130.04,192.72 L 131.16,191.90 L 132.28,191.01 L 133.40,190.03 L 134.52,188.97 L 135.64,187.82 L 136.76,186.57 L 137.88,185.23 L 139.00,183.78 L 140.12,182.22 L 141.24,180.54 L 142.36,178.75 L 143.48,176.83 L 144.60,174.79 L 145.72,172.62 L 146.84,170.32 L 147.96,167.89 L 149.08,165.32 L 150.20,162.61 L 151.32,159.76 L 152.44,156.79 L 153.56,153.67 L 154.68,150.42 L 155.80,147.05 L 156.92,143.55 L 158.04,139.93 L 159.16,136.19 L 160.28,132.35 L 161.40,128.41 L 162.52,124.38 L 163.64,120.28 L 164.76,116.10 L 165.88,111.88 L 167.00,107.61 L 168.12,103.31 L 169.24,99.00 L 170.36,94.69 L 171.48,90.41 L 172.60,86.16 L 173.72,81.96 L 174.84,77.84 L 175.96,73.81 L 177.08,69.88 L 178.20,66.09 L 179.32,62.44 L 180.44,58.95 L 181.56,55.64 L 182.68,52.52 L 183.80,49.62 L 184.92,46.95 L 186.04,44.51 L 187.16,42.33 L 188.28,40.42 L 189.40,38.78 L 190.52,37.43 L 191.64,36.37 L 192.76,35.61 L 193.88,35.15 L 195.00,35.00 L 196.12,35.15 L 197.24,35.61 L 198.36,36.37 L 199.48,37.43 L 200.60,38.78 L 201.72,40.42 L 202.84,42.33 L 203.96,44.51 L 205.08,46.95 L 206.20,49.62 L 207.32,52.52 L 208.44,55.64 L 209.56,58.95 L 210.68,62.44 L 211.80,66.09 L 212.92,69.88 L 214.04,73.81 L 215.16,77.84 L 216.28,81.96 L 217.40,86.16 L 218.52,90.41 L 219.64,94.69 L 220.76,99.00 L 221.88,103.31 L 223.00,107.61 L 224.12,111.88 L 225.24,116.10 L 226.36,120.28 L 227.48,124.38 L 228.60,128.41 L 229.72,132.35 L 230.84,136.19 L 231.96,139.93 L 233.08,143.55 L 234.20,147.05 L 235.32,150.42 L 236.44,153.67 L 237.56,156.79 L 238.68,159.76 L 239.80,162.61 L 240.92,165.32 L 242.04,167.89 L 243.16,170.32 L 244.28,172.62 L 245.40,174.79 L 246.52,176.83 L 247.64,178.75 L 248.76,180.54 L 249.88,182.22 L 251.00,183.78 L 252.12,185.23 L 253.24,186.57 L 254.36,187.82 L 255.48,188.97 L 256.60,190.03 L 257.72,191.01 L 258.84,191.90 L 259.96,192.72 L 261.08,193.47 L 262.20,194.15 L 263.32,194.77 L 264.44,195.34 L 265.56,195.85 L 266.68,196.31 L 267.80,196.73 L 268.92,197.10 L 270.04,197.44 L 271.16,197.74 L 272.28,198.01 L 273.40,198.25 L 274.52,198.46 L 275.64,198.66 L 276.76,198.82 L 277.88,198.97 L 279.00,199.11 L 280.12,199.22 L 281.24,199.33 L 282.36,199.42 L 283.48,199.50 L 284.60,199.56 L 285.72,199.63 L 286.84,199.68 L 287.96,199.72 L 289.08,199.76 L 290.20,199.80 L 291.32,199.83 L 292.44,199.85 L 293.56,199.87 L 294.68,199.89 L 295.80,199.91 L 296.92,199.92 L 298.04,199.94 L 299.16,199.95 L 300.28,199.95 L 301.40,199.96 L 302.52,199.97 L 303.64,199.97 L 304.76,199.98 L 305.88,199.98 L 307.00,199.98 L 308.12,199.99 L 309.24,199.99 L 310.36,199.99 L 311.48,199.99 L 312.60,199.99 L 313.72,200.00 L 314.84,200.00 L 315.96,200.00 L 317.08,200.00 L 318.20,200.00 L 319.32,200.00 L 320.44,200.00 L 321.56,200.00 L 322.68,200.00 L 323.80,200.00 L 324.92,200.00 L 326.04,200.00 L 327.16,200.00 L 328.28,200.00 L 329.40,200.00 L 330.52,200.00 L 331.64,200.00 L 332.76,200.00 L 333.88,200.00 L 335.00,200.00" fill="none" stroke="#C8102E" stroke-width="2.5"/>
<path d="M 365.00,184.92 L 366.12,184.33 L 367.24,183.73 L 368.36,183.11 L 369.48,182.47 L 370.60,181.81 L 371.72,181.13 L 372.84,180.43 L 373.96,179.72 L 375.08,178.98 L 376.20,178.22 L 377.32,177.45 L 378.44,176.65 L 379.56,175.83 L 380.68,174.99 L 381.80,174.13 L 382.92,173.25 L 384.04,172.34 L 385.16,171.42 L 386.28,170.47 L 387.40,169.50 L 388.52,168.51 L 389.64,167.49 L 390.76,166.46 L 391.88,165.40 L 393.00,164.32 L 394.12,163.21 L 395.24,162.09 L 396.36,160.94 L 397.48,159.76 L 398.60,158.57 L 399.72,157.35 L 400.84,156.12 L 401.96,154.85 L 403.08,153.57 L 404.20,152.27 L 405.32,150.94 L 406.44,149.59 L 407.56,148.22 L 408.68,146.83 L 409.80,145.42 L 410.92,143.99 L 412.04,142.54 L 413.16,141.07 L 414.28,139.58 L 415.40,138.07 L 416.52,136.55 L 417.64,135.00 L 418.76,133.44 L 419.88,131.86 L 421.00,130.27 L 422.12,128.66 L 423.24,127.04 L 424.36,125.40 L 425.48,123.75 L 426.60,122.08 L 427.72,120.41 L 428.84,118.72 L 429.96,117.02 L 431.08,115.32 L 432.20,113.60 L 433.32,111.88 L 434.44,110.15 L 435.56,108.41 L 436.68,106.67 L 437.80,104.92 L 438.92,103.17 L 440.04,101.42 L 441.16,99.67 L 442.28,97.92 L 443.40,96.17 L 444.52,94.42 L 445.64,92.68 L 446.76,90.94 L 447.88,89.21 L 449.00,87.48 L 450.12,85.76 L 451.24,84.05 L 452.36,82.35 L 453.48,80.67 L 454.60,78.99 L 455.72,77.33 L 456.84,75.69 L 457.96,74.06 L 459.08,72.45 L 460.20,70.85 L 461.32,69.28 L 462.44,67.73 L 463.56,66.20 L 464.68,64.70 L 465.80,63.22 L 466.92,61.77 L 468.04,60.34 L 469.16,58.95 L 470.28,57.58 L 471.40,56.24 L 472.52,54.94 L 473.64,53.67 L 474.76,52.43 L 475.88,51.23 L 477.00,50.06 L 478.12,48.93 L 479.24,47.84 L 480.36,46.79 L 481.48,45.77 L 482.60,44.80 L 483.72,43.87 L 484.84,42.99 L 485.96,42.14 L 487.08,41.34 L 488.20,40.59 L 489.32,39.88 L 490.44,39.22 L 491.56,38.60 L 492.68,38.03 L 493.80,37.51 L 494.92,37.03 L 496.04,36.61 L 497.16,36.23 L 498.28,35.91 L 499.40,35.63 L 500.52,35.40 L 501.64,35.23 L 502.76,35.10 L 503.88,35.03 L 505.00,35.00 L 506.12,35.03 L 507.24,35.10 L 508.36,35.23 L 509.48,35.40 L 510.60,35.63 L 511.72,35.91 L 512.84,36.23 L 513.96,36.61 L 515.08,37.03 L 516.20,37.51 L 517.32,38.03 L 518.44,38.60 L 519.56,39.22 L 520.68,39.88 L 521.80,40.59 L 522.92,41.34 L 524.04,42.14 L 525.16,42.99 L 526.28,43.87 L 527.40,44.80 L 528.52,45.77 L 529.64,46.79 L 530.76,47.84 L 531.88,48.93 L 533.00,50.06 L 534.12,51.23 L 535.24,52.43 L 536.36,53.67 L 537.48,54.94 L 538.60,56.24 L 539.72,57.58 L 540.84,58.95 L 541.96,60.34 L 543.08,61.77 L 544.20,63.22 L 545.32,64.70 L 546.44,66.20 L 547.56,67.73 L 548.68,69.28 L 549.80,70.85 L 550.92,72.45 L 552.04,74.06 L 553.16,75.69 L 554.28,77.33 L 555.40,78.99 L 556.52,80.67 L 557.64,82.35 L 558.76,84.05 L 559.88,85.76 L 561.00,87.48 L 562.12,89.21 L 563.24,90.94 L 564.36,92.68 L 565.48,94.42 L 566.60,96.17 L 567.72,97.92 L 568.84,99.67 L 569.96,101.42 L 571.08,103.17 L 572.20,104.92 L 573.32,106.67 L 574.44,108.41 L 575.56,110.15 L 576.68,111.88 L 577.80,113.60 L 578.92,115.32 L 580.04,117.02 L 581.16,118.72 L 582.28,120.41 L 583.40,122.08 L 584.52,123.75 L 585.64,125.40 L 586.76,127.04 L 587.88,128.66 L 589.00,130.27 L 590.12,131.86 L 591.24,133.44 L 592.36,135.00 L 593.48,136.55 L 594.60,138.07 L 595.72,139.58 L 596.84,141.07 L 597.96,142.54 L 599.08,143.99 L 600.20,145.42 L 601.32,146.83 L 602.44,148.22 L 603.56,149.59 L 604.68,150.94 L 605.80,152.27 L 606.92,153.57 L 608.04,154.85 L 609.16,156.12 L 610.28,157.35 L 611.40,158.57 L 612.52,159.76 L 613.64,160.94 L 614.76,162.09 L 615.88,163.21 L 617.00,164.32 L 618.12,165.40 L 619.24,166.46 L 620.36,167.49 L 621.48,168.51 L 622.60,169.50 L 623.72,170.47 L 624.84,171.42 L 625.96,172.34 L 627.08,173.25 L 628.20,174.13 L 629.32,174.99 L 630.44,175.83 L 631.56,176.65 L 632.68,177.45 L 633.80,178.22 L 634.92,178.98 L 636.04,179.72 L 637.16,180.43 L 638.28,181.13 L 639.40,181.81 L 640.52,182.47 L 641.64,183.11 L 642.76,183.73 L 643.88,184.33 L 645.00,184.92" fill="none" stroke="#787878" stroke-width="2.5"/>
<path d="M 55.00,372.59 L 56.12,372.07 L 57.24,371.53 L 58.36,370.97 L 59.48,370.40 L 60.60,369.80 L 61.72,369.19 L 62.84,368.56 L 63.96,367.91 L 65.08,367.23 L 66.20,366.54 L 67.32,365.83 L 68.44,365.09 L 69.56,364.34 L 70.68,363.56 L 71.80,362.76 L 72.92,361.94 L 74.04,361.09 L 75.16,360.23 L 76.28,359.34 L 77.40,358.42 L 78.52,357.49 L 79.64,356.53 L 80.76,355.55 L 81.88,354.54 L 83.00,353.51 L 84.12,352.45 L 85.24,351.37 L 86.36,350.27 L 87.48,349.14 L 88.60,347.99 L 89.72,346.81 L 90.84,345.61 L 91.96,344.38 L 93.08,343.14 L 94.20,341.86 L 95.32,340.56 L 96.44,339.24 L 97.56,337.90 L 98.68,336.53 L 99.80,335.13 L 100.92,333.72 L 102.04,332.28 L 103.16,330.82 L 104.28,329.34 L 105.40,327.83 L 106.52,326.31 L 107.64,324.76 L 108.76,323.19 L 109.88,321.61 L 111.00,320.00 L 112.12,318.38 L 113.24,316.74 L 114.36,315.08 L 115.48,313.40 L 116.60,311.71 L 117.72,310.00 L 118.84,308.28 L 119.96,306.55 L 121.08,304.80 L 122.20,303.04 L 123.32,301.27 L 124.44,299.49 L 125.56,297.70 L 126.68,295.91 L 127.80,294.10 L 128.92,292.30 L 130.04,290.48 L 131.16,288.66 L 132.28,286.84 L 133.40,285.02 L 134.52,283.20 L 135.64,281.38 L 136.76,279.56 L 137.88,277.75 L 139.00,275.94 L 140.12,274.14 L 141.24,272.34 L 142.36,270.56 L 143.48,268.78 L 144.60,267.01 L 145.72,265.26 L 146.84,263.52 L 147.96,261.80 L 149.08,260.10 L 150.20,258.41 L 151.32,256.74 L 152.44,255.10 L 153.56,253.47 L 154.68,251.87 L 155.80,250.30 L 156.92,248.75 L 158.04,247.23 L 159.16,245.74 L 160.28,244.28 L 161.40,242.85 L 162.52,241.45 L 163.64,240.09 L 164.76,238.77 L 165.88,237.48 L 167.00,236.23 L 168.12,235.01 L 169.24,233.84 L 170.36,232.71 L 171.48,231.62 L 172.60,230.58 L 173.72,229.58 L 174.84,228.62 L 175.96,227.71 L 177.08,226.85 L 178.20,226.04 L 179.32,225.27 L 180.44,224.55 L 181.56,223.89 L 182.68,223.27 L 183.80,222.71 L 184.92,222.20 L 186.04,221.74 L 187.16,221.33 L 188.28,220.98 L 189.40,220.68 L 190.52,220.44 L 191.64,220.25 L 192.76,220.11 L 193.88,220.03 L 195.00,220.00 L 196.12,220.03 L 197.24,220.11 L 198.36,220.25 L 199.48,220.44 L 200.60,220.68 L 201.72,220.98 L 202.84,221.33 L 203.96,221.74 L 205.08,222.20 L 206.20,222.71 L 207.32,223.27 L 208.44,223.89 L 209.56,224.55 L 210.68,225.27 L 211.80,226.04 L 212.92,226.85 L 214.04,227.71 L 215.16,228.62 L 216.28,229.58 L 217.40,230.58 L 218.52,231.62 L 219.64,232.71 L 220.76,233.84 L 221.88,235.01 L 223.00,236.23 L 224.12,237.48 L 225.24,238.77 L 226.36,240.09 L 227.48,241.45 L 228.60,242.85 L 229.72,244.28 L 230.84,245.74 L 231.96,247.23 L 233.08,248.75 L 234.20,250.30 L 235.32,251.87 L 236.44,253.47 L 237.56,255.10 L 238.68,256.74 L 239.80,258.41 L 240.92,260.10 L 242.04,261.80 L 243.16,263.52 L 244.28,265.26 L 245.40,267.01 L 246.52,268.78 L 247.64,270.56 L 248.76,272.34 L 249.88,274.14 L 251.00,275.94 L 252.12,277.75 L 253.24,279.56 L 254.36,281.38 L 255.48,283.20 L 256.60,285.02 L 257.72,286.84 L 258.84,288.66 L 259.96,290.48 L 261.08,292.30 L 262.20,294.10 L 263.32,295.91 L 264.44,297.70 L 265.56,299.49 L 266.68,301.27 L 267.80,303.04 L 268.92,304.80 L 270.04,306.55 L 271.16,308.28 L 272.28,310.00 L 273.40,311.71 L 274.52,313.40 L 275.64,315.08 L 276.76,316.74 L 277.88,318.38 L 279.00,320.00 L 280.12,321.61 L 281.24,323.19 L 282.36,324.76 L 283.48,326.31 L 284.60,327.83 L 285.72,329.34 L 286.84,330.82 L 287.96,332.28 L 289.08,333.72 L 290.20,335.13 L 291.32,336.53 L 292.44,337.90 L 293.56,339.24 L 294.68,340.56 L 295.80,341.86 L 296.92,343.14 L 298.04,344.38 L 299.16,345.61 L 300.28,346.81 L 301.40,347.99 L 302.52,349.14 L 303.64,350.27 L 304.76,351.37 L 305.88,352.45 L 307.00,353.51 L 308.12,354.54 L 309.24,355.55 L 310.36,356.53 L 311.48,357.49 L 312.60,358.42 L 313.72,359.34 L 314.84,360.23 L 315.96,361.09 L 317.08,361.94 L 318.20,362.76 L 319.32,363.56 L 320.44,364.34 L 321.56,365.09 L 322.68,365.83 L 323.80,366.54 L 324.92,367.23 L 326.04,367.91 L 327.16,368.56 L 328.28,369.19 L 329.40,369.80 L 330.52,370.40 L 331.64,370.97 L 332.76,371.53 L 333.88,372.07 L 335.00,372.59" fill="none" stroke="#C8102E" stroke-width="2.5"/>
<path d="M 365.00,385.00 L 366.12,385.00 L 367.24,385.00 L 368.36,385.00 L 369.48,385.00 L 370.60,385.00 L 371.72,385.00 L 372.84,385.00 L 373.96,385.00 L 375.08,385.00 L 376.20,385.00 L 377.32,385.00 L 378.44,385.00 L 379.56,385.00 L 380.68,385.00 L 381.80,385.00 L 382.92,385.00 L 384.04,385.00 L 385.16,385.00 L 386.28,385.00 L 387.40,385.00 L 388.52,385.00 L 389.64,385.00 L 390.76,385.00 L 391.88,384.99 L 393.00,384.99 L 394.12,384.99 L 395.24,384.99 L 396.36,384.99 L 397.48,384.98 L 398.60,384.98 L 399.72,384.98 L 400.84,384.97 L 401.96,384.97 L 403.08,384.96 L 404.20,384.95 L 405.32,384.94 L 406.44,384.93 L 407.56,384.92 L 408.68,384.90 L 409.80,384.88 L 410.92,384.86 L 412.04,384.84 L 413.16,384.81 L 414.28,384.77 L 415.40,384.73 L 416.52,384.69 L 417.64,384.63 L 418.76,384.57 L 419.88,384.50 L 421.00,384.42 L 422.12,384.32 L 423.24,384.21 L 424.36,384.09 L 425.48,383.95 L 426.60,383.79 L 427.72,383.61 L 428.84,383.41 L 429.96,383.18 L 431.08,382.92 L 432.20,382.62 L 433.32,382.29 L 434.44,381.93 L 435.56,381.52 L 436.68,381.06 L 437.80,380.55 L 438.92,379.98 L 440.04,379.36 L 441.16,378.67 L 442.28,377.91 L 443.40,377.07 L 444.52,376.16 L 445.64,375.15 L 446.76,374.06 L 447.88,372.87 L 449.00,371.57 L 450.12,370.17 L 451.24,368.66 L 452.36,367.02 L 453.48,365.26 L 454.60,363.38 L 455.72,361.36 L 456.84,359.20 L 457.96,356.90 L 459.08,354.46 L 460.20,351.87 L 461.32,349.14 L 462.44,346.26 L 463.56,343.23 L 464.68,340.06 L 465.80,336.74 L 466.92,333.28 L 468.04,329.68 L 469.16,325.95 L 470.28,322.10 L 471.40,318.13 L 472.52,314.05 L 473.64,309.87 L 474.76,305.61 L 475.88,301.27 L 477.00,296.88 L 478.12,292.43 L 479.24,287.96 L 480.36,283.48 L 481.48,279.00 L 482.60,274.55 L 483.72,270.14 L 484.84,265.80 L 485.96,261.54 L 487.08,257.38 L 488.20,253.35 L 489.32,249.46 L 490.44,245.74 L 491.56,242.20 L 492.68,238.87 L 493.80,235.75 L 494.92,232.88 L 496.04,230.26 L 497.16,227.92 L 498.28,225.85 L 499.40,224.09 L 500.52,222.63 L 501.64,221.48 L 502.76,220.66 L 503.88,220.17 L 505.00,220.00 L 506.12,220.17 L 507.24,220.66 L 508.36,221.48 L 509.48,222.63 L 510.60,224.09 L 511.72,225.85 L 512.84,227.92 L 513.96,230.26 L 515.08,232.88 L 516.20,235.75 L 517.32,238.87 L 518.44,242.20 L 519.56,245.74 L 520.68,249.46 L 521.80,253.35 L 522.92,257.38 L 524.04,261.54 L 525.16,265.80 L 526.28,270.14 L 527.40,274.55 L 528.52,279.00 L 529.64,283.48 L 530.76,287.96 L 531.88,292.43 L 533.00,296.88 L 534.12,301.27 L 535.24,305.61 L 536.36,309.87 L 537.48,314.05 L 538.60,318.13 L 539.72,322.10 L 540.84,325.95 L 541.96,329.68 L 543.08,333.28 L 544.20,336.74 L 545.32,340.06 L 546.44,343.23 L 547.56,346.26 L 548.68,349.14 L 549.80,351.87 L 550.92,354.46 L 552.04,356.90 L 553.16,359.20 L 554.28,361.36 L 555.40,363.38 L 556.52,365.26 L 557.64,367.02 L 558.76,368.66 L 559.88,370.17 L 561.00,371.57 L 562.12,372.87 L 563.24,374.06 L 564.36,375.15 L 565.48,376.16 L 566.60,377.07 L 567.72,377.91 L 568.84,378.67 L 569.96,379.36 L 571.08,379.98 L 572.20,380.55 L 573.32,381.06 L 574.44,381.52 L 575.56,381.93 L 576.68,382.29 L 577.80,382.62 L 578.92,382.92 L 580.04,383.18 L 581.16,383.41 L 582.28,383.61 L 583.40,383.79 L 584.52,383.95 L 585.64,384.09 L 586.76,384.21 L 587.88,384.32 L 589.00,384.42 L 590.12,384.50 L 591.24,384.57 L 592.36,384.63 L 593.48,384.69 L 594.60,384.73 L 595.72,384.77 L 596.84,384.81 L 597.96,384.84 L 599.08,384.86 L 600.20,384.88 L 601.32,384.90 L 602.44,384.92 L 603.56,384.93 L 604.68,384.94 L 605.80,384.95 L 606.92,384.96 L 608.04,384.97 L 609.16,384.97 L 610.28,384.98 L 611.40,384.98 L 612.52,384.98 L 613.64,384.99 L 614.76,384.99 L 615.88,384.99 L 617.00,384.99 L 618.12,384.99 L 619.24,385.00 L 620.36,385.00 L 621.48,385.00 L 622.60,385.00 L 623.72,385.00 L 624.84,385.00 L 625.96,385.00 L 627.08,385.00 L 628.20,385.00 L 629.32,385.00 L 630.44,385.00 L 631.56,385.00 L 632.68,385.00 L 633.80,385.00 L 634.92,385.00 L 636.04,385.00 L 637.16,385.00 L 638.28,385.00 L 639.40,385.00 L 640.52,385.00 L 641.64,385.00 L 642.76,385.00 L 643.88,385.00 L 645.00,385.00" fill="none" stroke="#787878" stroke-width="2.5"/>
<line x1="164.4" y1="117.5" x2="225.6" y2="117.5" stroke="#C8102E" stroke-width="1.2"/>
<line x1="164.4" y1="113.5" x2="164.4" y2="121.5" stroke="#C8102E" stroke-width="1.2"/>
<line x1="225.6" y1="113.5" x2="225.6" y2="121.5" stroke="#C8102E" stroke-width="1.2"/>
<line x1="429.6" y1="117.5" x2="580.4" y2="117.5" stroke="#787878" stroke-width="1.2"/>
<line x1="429.6" y1="113.5" x2="429.6" y2="121.5" stroke="#787878" stroke-width="1.2"/>
<line x1="580.4" y1="113.5" x2="580.4" y2="121.5" stroke="#787878" stroke-width="1.2"/>
<line x1="122.5" y1="302.5" x2="267.5" y2="302.5" stroke="#C8102E" stroke-width="1.2"/>
<line x1="122.5" y1="298.5" x2="122.5" y2="306.5" stroke="#C8102E" stroke-width="1.2"/>
<line x1="267.5" y1="298.5" x2="267.5" y2="306.5" stroke="#C8102E" stroke-width="1.2"/>
<line x1="475.6" y1="302.5" x2="534.4" y2="302.5" stroke="#787878" stroke-width="1.2"/>
<line x1="475.6" y1="298.5" x2="475.6" y2="306.5" stroke="#787878" stroke-width="1.2"/>
<line x1="534.4" y1="298.5" x2="534.4" y2="306.5" stroke="#787878" stroke-width="1.2"/>
<text x="195" y="90" text-anchor="middle" font-family="'EB Garamond',Georgia,serif" font-size="12" fill="#C8102E" font-style="italic">small &#x394;x</text>
<text x="505" y="90" text-anchor="middle" font-family="'EB Garamond',Georgia,serif" font-size="12" fill="#787878" font-style="italic">large &#x394;x</text>
<text x="195" y="270" text-anchor="middle" font-family="'EB Garamond',Georgia,serif" font-size="12" fill="#C8102E" font-style="italic">large &#x394;p</text>
<text x="505" y="270" text-anchor="middle" font-family="'EB Garamond',Georgia,serif" font-size="12" fill="#787878" font-style="italic">small &#x394;p</text>
<text x="350" y="412" text-anchor="middle" font-family="'EB Garamond',Georgia,serif" font-size="13" fill="#2a1a0e">Gaussian minimizes &#x394;x&#x22C5;&#x394;p = &#x210F;/2; narrowing one inevitably widens the other</text>
</svg>