<!-- ============================================================
     CAJAL SVG Figure
     Book        : Quantum Mechanics — Math for Quantum Physics
     Book slug   : quantum-mechanics-vol5
     Chapter     : 11-special-functions
     Figure      : 02
     Title       : Harmonic oscillator eigenstates — Hermite polynomial node count (n=0 to 3)
     Type        : quantitative / proportional
     Priority    : Important
     Author      : Humanitarians AI Incorporated
     Generated   : 2026-06-06
     Source      : pantry/11-special-functions-cajal.md
     MATH NOTE   : Curves computed via ψ_n(x) = H_n(x)·exp(−x²/2) normalized to unit max.
                   Node counts verified: n=0:0, n=1:1, n=2:2, n=3:3
                   Zero crossings: n=1 at x≈0.0; n=2 at x≈−0.73,+0.73; n=3 at x≈−1.22,0.0,+1.22
     ============================================================ -->
<svg viewBox="0 0 700 420" xmlns="http://www.w3.org/2000/svg"
     role="img" aria-labelledby="fig-title-11-02">
  <title id="fig-title-11-02">Harmonic oscillator eigenstates — Hermite polynomial node count n=0 to 3</title>
  <desc>Four panels sharing a horizontal baseline axis showing the quantum harmonic oscillator wavefunctions for n=0 (zero nodes, single Gaussian peak), n=1 (one node at origin, odd function), n=2 (two nodes, even function with three lobes), and n=3 (three nodes, odd function with four lobes). Gaussian envelope shown as dashed orange reference curve. Positive lobes filled green, negative lobes filled red at 30% opacity.</desc>
  <metadata>
    <cajal:figure xmlns:cajal="https://bearbrown.ai/cajal/1.0"
      book="Quantum Mechanics — Math for Quantum Physics"
      book-slug="quantum-mechanics-vol5"
      chapter="11-special-functions"
      figure-number="02"
      figure-title="Harmonic oscillator eigenstates — Hermite polynomial node count (n=0 to 3)"
      figure-slug="hermite-polynomial-node-count"
      figure-type="quantitative-comparison"
      priority="Important"
      author="Humanitarians AI Incorporated"
      date-generated="2026-06-06"
      source-file="pantry/11-special-functions-cajal.md"/>
  </metadata>

  <rect width="700" height="420" fill="#FFFFFF"/>

  <!-- Title -->
  <text x="350" y="20" text-anchor="middle"
        font-family="'EB Garamond','Garamond',Georgia,serif" font-size="14" font-weight="400"
        fill="#2a1a0e">Harmonic oscillator: ψₙ(x) = Hₙ(x) e^{−x²/2} (normalized)</text>

  <!-- Plot area background for all 4 panels combined -->
  <!-- Panel layout: x0=36, panel_w=148, gap=10, 4 panels: 36–184, 194–342, 352–500, 510–658 -->

  <!-- Panel dividers and backgrounds -->
  <rect x="36" y="30" width="148" height="310" fill="#F5F5F5" stroke="#D4D4D4" stroke-width="0.75"/>
  <rect x="194" y="30" width="148" height="310" fill="#F5F5F5" stroke="#D4D4D4" stroke-width="0.75"/>
  <rect x="352" y="30" width="148" height="310" fill="#F5F5F5" stroke="#D4D4D4" stroke-width="0.75"/>
  <rect x="510" y="30" width="148" height="310" fill="#F5F5F5" stroke="#D4D4D4" stroke-width="0.75"/>

  <!-- Shared y-axis label -->
  <text x="20" y="200" text-anchor="middle"
        font-family="'JetBrains Mono','Fira Code','Courier New',monospace" font-size="10"
        fill="#545454" transform="rotate(-90,20,200)">amplitude ψₙ(x)</text>

  <!-- Panel labels -->
  <text x="110" y="46" text-anchor="middle"
        font-family="'JetBrains Mono','Fira Code','Courier New',monospace" font-size="11"
        font-weight="600" fill="#2a1a0e">n = 0</text>
  <text x="268" y="46" text-anchor="middle"
        font-family="'JetBrains Mono','Fira Code','Courier New',monospace" font-size="11"
        font-weight="600" fill="#2a1a0e">n = 1</text>
  <text x="426" y="46" text-anchor="middle"
        font-family="'JetBrains Mono','Fira Code','Courier New',monospace" font-size="11"
        font-weight="600" fill="#2a1a0e">n = 2</text>
  <text x="584" y="46" text-anchor="middle"
        font-family="'JetBrains Mono','Fira Code','Courier New',monospace" font-size="11"
        font-weight="600" fill="#2a1a0e">n = 3</text>

  <!-- Node count labels -->
  <text x="110" y="62" text-anchor="middle"
        font-family="'Inter',-apple-system,'Helvetica Neue',sans-serif" font-size="10"
        fill="#545454">0 nodes</text>
  <text x="268" y="62" text-anchor="middle"
        font-family="'Inter',-apple-system,'Helvetica Neue',sans-serif" font-size="10"
        fill="#545454">1 node</text>
  <text x="426" y="62" text-anchor="middle"
        font-family="'Inter',-apple-system,'Helvetica Neue',sans-serif" font-size="10"
        fill="#545454">2 nodes</text>
  <text x="584" y="62" text-anchor="middle"
        font-family="'Inter',-apple-system,'Helvetica Neue',sans-serif" font-size="10"
        fill="#545454">3 nodes</text>

  <!-- Shared y=0 baseline across all panels -->
  <line x1="36" y1="270" x2="658" y2="270" stroke="#ADADAD" stroke-width="0.75"/>

  <!-- ══ PANEL n=0 ══ -->
  <!-- Lobe fill: entirely positive (n=0 has no zero crossings) -->
  <!-- Fill polygon: baseline + curve + back to baseline -->
  <polygon fill="#2a1a0e" fill-opacity="0.10" stroke="none"
    points="44.0,270 44.0,269.8 45.3,269.8 46.6,269.7 48.0,269.7 49.3,269.6 50.6,269.5 51.9,269.4 53.2,269.2 54.6,269.0 55.9,268.8 57.2,268.6 58.5,268.3 59.8,267.9 61.2,267.5 62.5,267.0 63.8,266.4 65.1,265.8 66.4,265.0 67.8,264.1 69.1,263.2 70.4,262.1 71.7,260.8 73.0,259.5 74.4,257.9 75.7,256.3 77.0,254.4 78.3,252.4 79.6,250.3 81.0,248.0 82.3,245.6 83.6,243.0 84.9,240.3 86.2,237.4 87.6,234.5 88.9,231.5 90.2,228.5 91.5,225.5 92.8,222.4 94.2,219.4 95.5,216.5 96.8,213.6 98.1,211.0 99.4,208.4 100.8,206.1 102.1,204.1 103.4,202.3 104.7,200.8 106.0,199.6 107.4,198.7 108.7,198.2 110.0,198.0 111.3,198.2 112.6,198.7 114.0,199.6 115.3,200.8 116.6,202.3 117.9,204.1 119.2,206.1 120.6,208.4 121.9,211.0 123.2,213.6 124.5,216.5 125.8,219.4 127.2,222.4 128.5,225.5 129.8,228.5 131.1,231.5 132.4,234.5 133.8,237.4 135.1,240.3 136.4,243.0 137.7,245.6 139.0,248.0 140.4,250.3 141.7,252.4 143.0,254.4 144.3,256.3 145.6,257.9 147.0,259.5 148.3,260.8 149.6,262.1 150.9,263.2 152.2,264.1 153.6,265.0 154.9,265.8 156.2,266.4 157.5,267.0 158.8,267.5 160.2,267.9 161.5,268.3 162.8,268.6 164.1,268.8 165.4,269.0 166.8,269.2 168.1,269.4 169.4,269.5 170.7,269.6 172.0,269.7 173.4,269.7 174.7,269.8 176.0,269.8 176.0,270"/>
  <!-- Wavefunction curve -->
  <polyline fill="none" stroke="#2a1a0e" stroke-width="2"
    points="44.0,269.8 45.3,269.8 46.6,269.7 48.0,269.7 49.3,269.6 50.6,269.5 51.9,269.4 53.2,269.2 54.6,269.0 55.9,268.8 57.2,268.6 58.5,268.3 59.8,267.9 61.2,267.5 62.5,267.0 63.8,266.4 65.1,265.8 66.4,265.0 67.8,264.1 69.1,263.2 70.4,262.1 71.7,260.8 73.0,259.5 74.4,257.9 75.7,256.3 77.0,254.4 78.3,252.4 79.6,250.3 81.0,248.0 82.3,245.6 83.6,243.0 84.9,240.3 86.2,237.4 87.6,234.5 88.9,231.5 90.2,228.5 91.5,225.5 92.8,222.4 94.2,219.4 95.5,216.5 96.8,213.6 98.1,211.0 99.4,208.4 100.8,206.1 102.1,204.1 103.4,202.3 104.7,200.8 106.0,199.6 107.4,198.7 108.7,198.2 110.0,198.0 111.3,198.2 112.6,198.7 114.0,199.6 115.3,200.8 116.6,202.3 117.9,204.1 119.2,206.1 120.6,208.4 121.9,211.0 123.2,213.6 124.5,216.5 125.8,219.4 127.2,222.4 128.5,225.5 129.8,228.5 131.1,231.5 132.4,234.5 133.8,237.4 135.1,240.3 136.4,243.0 137.7,245.6 139.0,248.0 140.4,250.3 141.7,252.4 143.0,254.4 144.3,256.3 145.6,257.9 147.0,259.5 148.3,260.8 149.6,262.1 150.9,263.2 152.2,264.1 153.6,265.0 154.9,265.8 156.2,266.4 157.5,267.0 158.8,267.5 160.2,267.9 161.5,268.3 162.8,268.6 164.1,268.8 165.4,269.0 166.8,269.2 168.1,269.4 169.4,269.5 170.7,269.6 172.0,269.7 173.4,269.7 174.7,269.8 176.0,269.8"/>
  <!-- Gaussian envelope dashed -->
  <polyline fill="none" stroke="#C8860E" stroke-width="1" stroke-dasharray="5 3"
    points="44.0,269.8 45.3,269.8 46.6,269.7 48.0,269.7 49.3,269.6 50.6,269.5 51.9,269.4 53.2,269.2 54.6,269.0 55.9,268.8 57.2,268.6 58.5,268.3 59.8,267.9 61.2,267.5 62.5,267.0 63.8,266.4 65.1,265.8 66.4,265.0 67.8,264.1 69.1,263.2 70.4,262.1 71.7,260.8 73.0,259.5 74.4,257.9 75.7,256.3 77.0,254.4 78.3,252.4 79.6,250.3 81.0,248.0 82.3,245.6 83.6,243.0 84.9,240.3 86.2,237.4 87.6,234.5 88.9,231.5 90.2,228.5 91.5,225.5 92.8,222.4 94.2,219.4 95.5,216.5 96.8,213.6 98.1,211.0 99.4,208.4 100.8,206.1 102.1,204.1 103.4,202.3 104.7,200.8 106.0,199.6 107.4,198.7 108.7,198.2 110.0,198.0 111.3,198.2 112.6,198.7 114.0,199.6 115.3,200.8 116.6,202.3 117.9,204.1 119.2,206.1 120.6,208.4 121.9,211.0 123.2,213.6 124.5,216.5 125.8,219.4 127.2,222.4 128.5,225.5 129.8,228.5 131.1,231.5 132.4,234.5 133.8,237.4 135.1,240.3 136.4,243.0 137.7,245.6 139.0,248.0 140.4,250.3 141.7,252.4 143.0,254.4 144.3,256.3 145.6,257.9 147.0,259.5 148.3,260.8 149.6,262.1 150.9,263.2 152.2,264.1 153.6,265.0 154.9,265.8 156.2,266.4 157.5,267.0 158.8,267.5 160.2,267.9 161.5,268.3 162.8,268.6 164.1,268.8 165.4,269.0 166.8,269.2 168.1,269.4 169.4,269.5 170.7,269.6 172.0,269.7 173.4,269.7 174.7,269.8 176.0,269.8"/>

  <!-- ══ PANEL n=1 ══ (zero crossing at x≈0, SVG x≈267.3) -->
  <!-- Negative lobe fill (left of zero, above baseline = below in amplitude) -->
  <polygon fill="#ADADAD" fill-opacity="0.25" stroke="none"
    points="202.0,270 202.0,270.9 203.3,271.1 204.6,271.4 206.0,271.7 207.3,272.1 208.6,272.6 209.9,273.2 211.2,273.9 212.6,274.6 213.9,275.5 215.2,276.6 216.5,277.8 217.8,279.2 219.2,280.7 220.5,282.5 221.8,284.5 223.1,286.6 224.4,289.0 225.8,291.6 227.1,294.5 228.4,297.5 229.7,300.7 231.0,304.1 232.4,307.6 233.7,311.3 235.0,314.9 236.3,318.7 237.6,322.3 239.0,325.9 240.3,329.3 241.6,332.4 242.9,335.2 244.2,337.7 245.6,339.6 246.9,341.0 248.2,341.9 249.5,342.0 250.8,341.4 252.2,340.1 253.5,338.0 254.8,335.1 256.1,331.3 257.4,326.9 258.8,321.6 260.1,315.7 261.4,309.1 262.7,302.0 264.0,294.4 265.4,286.5 266.7,278.3 267.3,270 267.3,270"/>
  <!-- Positive lobe fill (right of zero) -->
  <polygon fill="#2a1a0e" fill-opacity="0.10" stroke="none"
    points="267.3,270 268.0,270.0 269.3,261.7 270.6,253.5 272.0,245.6 273.3,238.0 274.6,230.9 275.9,224.3 277.2,218.4 278.6,213.1 279.9,208.7 281.2,204.9 282.5,202.0 283.8,199.9 285.2,198.6 286.5,198.0 287.8,198.1 289.1,199.0 290.4,200.4 291.8,202.3 293.1,204.8 294.4,207.6 295.7,210.7 297.0,214.1 298.4,217.7 299.7,221.3 301.0,225.1 302.3,228.7 303.6,232.4 305.0,235.9 306.3,239.3 307.6,242.5 308.9,245.5 310.2,248.4 311.6,251.0 312.9,253.4 314.2,255.5 315.5,257.5 316.8,259.3 318.2,260.8 319.5,262.2 320.8,263.4 322.1,264.5 323.4,265.4 324.8,266.1 326.1,266.8 327.4,267.4 328.7,267.9 330.0,268.3 331.4,268.6 332.7,268.9 334.0,269.1 334.0,270"/>
  <!-- Wavefunction -->
  <polyline fill="none" stroke="#2a1a0e" stroke-width="2"
    points="202.0,270.9 203.3,271.1 204.6,271.4 206.0,271.7 207.3,272.1 208.6,272.6 209.9,273.2 211.2,273.9 212.6,274.6 213.9,275.5 215.2,276.6 216.5,277.8 217.8,279.2 219.2,280.7 220.5,282.5 221.8,284.5 223.1,286.6 224.4,289.0 225.8,291.6 227.1,294.5 228.4,297.5 229.7,300.7 231.0,304.1 232.4,307.6 233.7,311.3 235.0,314.9 236.3,318.7 237.6,322.3 239.0,325.9 240.3,329.3 241.6,332.4 242.9,335.2 244.2,337.7 245.6,339.6 246.9,341.0 248.2,341.9 249.5,342.0 250.8,341.4 252.2,340.1 253.5,338.0 254.8,335.1 256.1,331.3 257.4,326.9 258.8,321.6 260.1,315.7 261.4,309.1 262.7,302.0 264.0,294.4 265.4,286.5 266.7,278.3 268.0,270.0 269.3,261.7 270.6,253.5 272.0,245.6 273.3,238.0 274.6,230.9 275.9,224.3 277.2,218.4 278.6,213.1 279.9,208.7 281.2,204.9 282.5,202.0 283.8,199.9 285.2,198.6 286.5,198.0 287.8,198.1 289.1,199.0 290.4,200.4 291.8,202.3 293.1,204.8 294.4,207.6 295.7,210.7 297.0,214.1 298.4,217.7 299.7,221.3 301.0,225.1 302.3,228.7 303.6,232.4 305.0,235.9 306.3,239.3 307.6,242.5 308.9,245.5 310.2,248.4 311.6,251.0 312.9,253.4 314.2,255.5 315.5,257.5 316.8,259.3 318.2,260.8 319.5,262.2 320.8,263.4 322.1,264.5 323.4,265.4 324.8,266.1 326.1,266.8 327.4,267.4 328.7,267.9 330.0,268.3 331.4,268.6 332.7,268.9 334.0,269.1"/>
  <!-- Gaussian envelope -->
  <polyline fill="none" stroke="#C8860E" stroke-width="1" stroke-dasharray="5 3"
    points="202.0,269.8 203.3,269.8 204.6,269.7 206.0,269.7 207.3,269.6 208.6,269.5 209.9,269.4 211.2,269.2 212.6,269.0 213.9,268.8 215.2,268.6 216.5,268.3 217.8,267.9 219.2,267.5 220.5,267.0 221.8,266.4 223.1,265.8 224.4,265.0 225.8,264.1 227.1,263.2 228.4,262.1 229.7,260.8 231.0,259.5 232.4,257.9 233.7,256.3 235.0,254.4 236.3,252.4 237.6,250.3 239.0,248.0 240.3,245.6 241.6,243.0 242.9,240.3 244.2,237.4 245.6,234.5 246.9,231.5 248.2,228.5 249.5,225.5 250.8,222.4 252.2,219.4 253.5,216.5 254.8,213.6 256.1,211.0 257.4,208.4 258.8,206.1 260.1,204.1 261.4,202.3 262.7,200.8 264.0,199.6 265.4,198.7 266.7,198.2 268.0,198.0 269.3,198.2 270.6,198.7 272.0,199.6 273.3,200.8 274.6,202.3 275.9,204.1 277.2,206.1 278.6,208.4 279.9,211.0 281.2,213.6 282.5,216.5 283.8,219.4 285.2,222.4 286.5,225.5 287.8,228.5 289.1,231.5 290.4,234.5 291.8,237.4 293.1,240.3 294.4,243.0 295.7,245.6 297.0,248.0 298.4,250.3 299.7,252.4 301.0,254.4 302.3,256.3 303.6,257.9 305.0,259.5 306.3,260.8 307.6,262.1 308.9,263.2 310.2,264.1 311.6,265.0 312.9,265.8 314.2,266.4 315.5,267.0 316.8,267.5 318.2,267.9 319.5,268.3 320.8,268.6 322.1,268.8 323.4,269.0 324.8,269.2 326.1,269.4 327.4,269.5 328.7,269.6 330.0,269.7 331.4,269.7 332.7,269.8 334.0,269.8"/>
  <!-- Node tick at x≈267.3 -->
  <line x1="267.3" y1="266" x2="267.3" y2="274" stroke="#C8102E" stroke-width="1.5"/>

  <!-- ══ PANEL n=2 ══ (zero crossings at SVG x≈412.1 and 439.9) -->
  <!-- Positive lobe 1 (left): 360 to 412.1 -->
  <polygon fill="#2a1a0e" fill-opacity="0.10" stroke="none"
    points="360.0,270 360.0,266.8 361.3,266.0 362.6,265.2 364.0,264.2 365.3,263.0 366.6,261.7 367.9,260.2 369.2,258.4 370.6,256.4 371.9,254.2 373.2,251.7 374.5,248.9 375.8,246.0 377.2,242.7 378.5,239.3 379.8,235.6 381.1,231.8 382.4,227.8 383.8,223.8 385.1,219.7 386.4,215.8 387.7,212.0 389.0,208.4 390.4,205.2 391.7,202.5 393.0,200.3 394.3,198.8 395.6,198.0 397.0,198.1 398.3,199.1 399.6,201.1 400.9,204.1 402.2,208.1 403.6,213.2 404.9,219.3 406.2,226.3 407.5,234.2 408.8,242.7 410.2,251.8 411.5,261.3 412.1,270 412.1,270"/>
  <!-- Negative lobe (412.1 to 439.9) -->
  <polygon fill="#ADADAD" fill-opacity="0.25" stroke="none"
    points="412.1,270 412.8,271.0 414.1,280.6 415.4,290.0 416.8,299.0 418.1,307.3 419.4,314.7 420.7,321.0 422.0,326.1 423.4,329.8 424.7,332.1 426.0,332.9 427.3,332.1 428.6,329.8 430.0,326.1 431.3,321.0 432.6,314.7 433.9,307.3 435.2,299.0 436.6,290.0 437.9,280.6 439.2,271.0 439.9,270 439.9,270"/>
  <!-- Positive lobe 2 (right): 439.9 to 492 -->
  <polygon fill="#2a1a0e" fill-opacity="0.10" stroke="none"
    points="439.9,270 440.5,261.3 441.8,251.8 443.2,242.7 444.5,234.2 445.8,226.3 447.1,219.3 448.4,213.2 449.8,208.1 451.1,204.1 452.4,201.1 453.7,199.1 455.0,198.1 456.4,198.0 457.7,198.8 459.0,200.3 460.3,202.5 461.6,205.2 463.0,208.4 464.3,212.0 465.6,215.8 466.9,219.7 468.2,223.8 469.6,227.8 470.9,231.8 472.2,235.6 473.5,239.3 474.8,242.7 476.2,246.0 477.5,248.9 478.8,251.7 480.1,254.2 481.4,256.4 482.8,258.4 484.1,260.2 485.4,261.7 486.7,263.0 488.0,264.2 489.4,265.2 490.7,266.0 492.0,266.8 492.0,270"/>
  <!-- Wavefunction -->
  <polyline fill="none" stroke="#2a1a0e" stroke-width="2"
    points="360.0,266.8 361.3,266.0 362.6,265.2 364.0,264.2 365.3,263.0 366.6,261.7 367.9,260.2 369.2,258.4 370.6,256.4 371.9,254.2 373.2,251.7 374.5,248.9 375.8,246.0 377.2,242.7 378.5,239.3 379.8,235.6 381.1,231.8 382.4,227.8 383.8,223.8 385.1,219.7 386.4,215.8 387.7,212.0 389.0,208.4 390.4,205.2 391.7,202.5 393.0,200.3 394.3,198.8 395.6,198.0 397.0,198.1 398.3,199.1 399.6,201.1 400.9,204.1 402.2,208.1 403.6,213.2 404.9,219.3 406.2,226.3 407.5,234.2 408.8,242.7 410.2,251.8 411.5,261.3 412.8,271.0 414.1,280.6 415.4,290.0 416.8,299.0 418.1,307.3 419.4,314.7 420.7,321.0 422.0,326.1 423.4,329.8 424.7,332.1 426.0,332.9 427.3,332.1 428.6,329.8 430.0,326.1 431.3,321.0 432.6,314.7 433.9,307.3 435.2,299.0 436.6,290.0 437.9,280.6 439.2,271.0 440.5,261.3 441.8,251.8 443.2,242.7 444.5,234.2 445.8,226.3 447.1,219.3 448.4,213.2 449.8,208.1 451.1,204.1 452.4,201.1 453.7,199.1 455.0,198.1 456.4,198.0 457.7,198.8 459.0,200.3 460.3,202.5 461.6,205.2 463.0,208.4 464.3,212.0 465.6,215.8 466.9,219.7 468.2,223.8 469.6,227.8 470.9,231.8 472.2,235.6 473.5,239.3 474.8,242.7 476.2,246.0 477.5,248.9 478.8,251.7 480.1,254.2 481.4,256.4 482.8,258.4 484.1,260.2 485.4,261.7 486.7,263.0 488.0,264.2 489.4,265.2 490.7,266.0 492.0,266.8"/>
  <!-- Gaussian envelope -->
  <polyline fill="none" stroke="#C8860E" stroke-width="1" stroke-dasharray="5 3"
    points="360.0,269.8 361.3,269.8 362.6,269.7 364.0,269.7 365.3,269.6 366.6,269.5 367.9,269.4 369.2,269.2 370.6,269.0 371.9,268.8 373.2,268.6 374.5,268.3 375.8,267.9 377.2,267.5 378.5,267.0 379.8,266.4 381.1,265.8 382.4,265.0 383.8,264.1 385.1,263.2 386.4,262.1 387.7,260.8 389.0,259.5 390.4,257.9 391.7,256.3 393.0,254.4 394.3,252.4 395.6,250.3 397.0,248.0 398.3,245.6 399.6,243.0 400.9,240.3 402.2,237.4 403.6,234.5 404.9,231.5 406.2,228.5 407.5,225.5 408.8,222.4 410.2,219.4 411.5,216.5 412.8,213.6 414.1,211.0 415.4,208.4 416.8,206.1 418.1,204.1 419.4,202.3 420.7,200.8 422.0,199.6 423.4,198.7 424.7,198.2 426.0,198.0 427.3,198.2 428.6,198.7 430.0,199.6 431.3,200.8 432.6,202.3 433.9,204.1 435.2,206.1 436.6,208.4 437.9,211.0 439.2,213.6 440.5,216.5 441.8,219.4 443.2,222.4 444.5,225.5 445.8,228.5 447.1,231.5 448.4,234.5 449.8,237.4 451.1,240.3 452.4,243.0 453.7,245.6 455.0,248.0 456.4,250.3 457.7,252.4 459.0,254.4 460.3,256.3 461.6,257.9 463.0,259.5 464.3,260.8 465.6,262.1 466.9,263.2 468.2,264.1 469.6,265.0 470.9,265.8 472.2,266.4 473.5,267.0 474.8,267.5 476.2,267.9 477.5,268.3 478.8,268.6 480.1,268.8 481.4,269.0 482.8,269.2 484.1,269.4 485.4,269.5 486.7,269.6 488.0,269.7 489.4,269.7 490.7,269.8 492.0,269.8"/>
  <!-- Node ticks at 412.1 and 439.9 -->
  <line x1="412.1" y1="266" x2="412.1" y2="274" stroke="#C8102E" stroke-width="1.5"/>
  <line x1="439.9" y1="266" x2="439.9" y2="274" stroke="#C8102E" stroke-width="1.5"/>

  <!-- ══ PANEL n=3 ══ (zero crossings at SVG x≈560.9, 583.3, 607.1) -->
  <!-- Positive lobe 1 (left end, 518 to 560.9, above baseline since positive at left) -->
  <!-- Wait: n=3 starts POSITIVE at left (large negative x → positive for odd n with H_3>0 at far right... -->
  <!-- Check: H_3(x) = 8x³-12x. At x=-3.5: H_3=-3.5*... negative. psi_3 at left is positive (y=278.7&lt;270 means positive) -->
  <!-- Actually y=278.7 > 270 means BELOW baseline = negative amplitude. Let me recheck. -->
  <!-- SVG y increases downward. baseline_y=270. psi_3 starts at y=278.7 > 270 → NEGATIVE -->
  <!-- So left: negative; then positive; then negative; then positive (4 lobes for n=3) -->
  <!-- Negative lobe 1: 518 to 560.9 -->
  <polygon fill="#ADADAD" fill-opacity="0.25" stroke="none"
    points="518.0,270 518.0,278.7 519.3,280.4 520.6,282.4 522.0,284.5 523.3,287.0 524.6,289.7 525.9,292.8 527.2,296.1 528.6,299.6 529.9,303.4 531.2,307.4 532.5,311.6 533.8,315.8 535.2,320.1 536.5,324.3 537.8,328.3 539.1,332.0 540.4,335.3 541.8,338.1 543.1,340.2 544.4,341.6 545.7,342.0 547.0,341.4 548.4,339.7 549.7,336.9 551.0,332.8 552.3,327.5 553.6,321.1 555.0,313.6 556.3,305.0 557.6,295.7 558.9,285.7 560.2,275.3 560.9,270 560.9,270"/>
  <!-- Positive lobe 2: 560.9 to 583.3 -->
  <polygon fill="#2a1a0e" fill-opacity="0.10" stroke="none"
    points="560.9,270 561.6,264.8 562.9,254.4 564.2,244.5 565.5,235.2 566.8,227.1 568.2,220.2 569.5,214.8 570.8,211.2 572.1,209.5 573.4,209.7 574.8,211.8 576.1,215.9 577.4,221.8 578.7,229.3 580.0,238.2 581.4,248.2 582.7,258.9 583.3,270 583.3,270"/>
  <!-- Negative lobe 3: 583.3 to 607.1 -->
  <polygon fill="#ADADAD" fill-opacity="0.25" stroke="none"
    points="583.3,270 584.0,270.0 585.3,281.1 586.6,291.8 588.0,301.8 589.3,310.7 590.6,318.2 591.9,324.1 593.2,328.2 594.6,330.3 595.9,330.5 597.2,328.8 598.5,325.2 599.8,319.8 601.2,312.9 602.5,304.8 603.8,295.5 605.1,285.6 606.4,275.2 607.1,270 607.1,270"/>
  <!-- Positive lobe 4 (right): 607.1 to 650 -->
  <polygon fill="#2a1a0e" fill-opacity="0.10" stroke="none"
    points="607.1,270 607.8,264.7 609.1,254.3 610.4,244.3 611.7,235.0 613.0,226.4 614.4,218.9 615.7,212.5 617.0,207.2 618.3,203.1 619.6,200.3 621.0,198.6 622.3,198.0 623.6,198.4 624.9,199.8 626.2,201.9 627.6,204.7 628.9,208.0 630.2,211.7 631.5,215.7 632.8,219.9 634.2,224.2 635.5,228.4 636.8,232.6 638.1,236.6 639.4,240.4 640.8,243.9 642.1,247.2 643.4,250.3 644.7,253.0 646.0,255.5 647.4,257.6 648.7,259.6 650.0,261.3 650.0,270"/>
  <!-- Wavefunction -->
  <polyline fill="none" stroke="#2a1a0e" stroke-width="2"
    points="518.0,278.7 519.3,280.4 520.6,282.4 522.0,284.5 523.3,287.0 524.6,289.7 525.9,292.8 527.2,296.1 528.6,299.6 529.9,303.4 531.2,307.4 532.5,311.6 533.8,315.8 535.2,320.1 536.5,324.3 537.8,328.3 539.1,332.0 540.4,335.3 541.8,338.1 543.1,340.2 544.4,341.6 545.7,342.0 547.0,341.4 548.4,339.7 549.7,336.9 551.0,332.8 552.3,327.5 553.6,321.1 555.0,313.6 556.3,305.0 557.6,295.7 558.9,285.7 560.2,275.3 561.6,264.8 562.9,254.4 564.2,244.5 565.5,235.2 566.8,227.1 568.2,220.2 569.5,214.8 570.8,211.2 572.1,209.5 573.4,209.7 574.8,211.8 576.1,215.9 577.4,221.8 578.7,229.3 580.0,238.2 581.4,248.2 582.7,258.9 584.0,270.0 585.3,281.1 586.6,291.8 588.0,301.8 589.3,310.7 590.6,318.2 591.9,324.1 593.2,328.2 594.6,330.3 595.9,330.5 597.2,328.8 598.5,325.2 599.8,319.8 601.2,312.9 602.5,304.8 603.8,295.5 605.1,285.6 606.4,275.2 607.8,264.7 609.1,254.3 610.4,244.3 611.7,235.0 613.0,226.4 614.4,218.9 615.7,212.5 617.0,207.2 618.3,203.1 619.6,200.3 621.0,198.6 622.3,198.0 623.6,198.4 624.9,199.8 626.2,201.9 627.6,204.7 628.9,208.0 630.2,211.7 631.5,215.7 632.8,219.9 634.2,224.2 635.5,228.4 636.8,232.6 638.1,236.6 639.4,240.4 640.8,243.9 642.1,247.2 643.4,250.3 644.7,253.0 646.0,255.5 647.4,257.6 648.7,259.6 650.0,261.3"/>
  <!-- Gaussian envelope -->
  <polyline fill="none" stroke="#C8860E" stroke-width="1" stroke-dasharray="5 3"
    points="518.0,269.8 519.3,269.8 520.6,269.7 522.0,269.7 523.3,269.6 524.6,269.5 525.9,269.4 527.2,269.2 528.6,269.0 529.9,268.8 531.2,268.6 532.5,268.3 533.8,267.9 535.2,267.5 536.5,267.0 537.8,266.4 539.1,265.8 540.4,265.0 541.8,264.1 543.1,263.2 544.4,262.1 545.7,260.8 547.0,259.5 548.4,257.9 549.7,256.3 551.0,254.4 552.3,252.4 553.6,250.3 555.0,248.0 556.3,245.6 557.6,243.0 558.9,240.3 560.2,237.4 561.6,234.5 562.9,231.5 564.2,228.5 565.5,225.5 566.8,222.4 568.2,219.4 569.5,216.5 570.8,213.6 572.1,211.0 573.4,208.4 574.8,206.1 576.1,204.1 577.4,202.3 578.7,200.8 580.0,199.6 581.4,198.7 582.7,198.2 584.0,198.0 585.3,198.2 586.6,198.7 588.0,199.6 589.3,200.8 590.6,202.3 591.9,204.1 593.2,206.1 594.6,208.4 595.9,211.0 597.2,213.6 598.5,216.5 599.8,219.4 601.2,222.4 602.5,225.5 603.8,228.5 605.1,231.5 606.4,234.5 607.8,237.4 609.1,240.3 610.4,243.0 611.7,245.6 613.0,248.0 614.4,250.3 615.7,252.4 617.0,254.4 618.3,256.3 619.6,257.9 621.0,259.5 622.3,260.8 623.6,262.1 624.9,263.2 626.2,264.1 627.6,265.0 628.9,265.8 630.2,266.4 631.5,267.0 632.8,267.5 634.2,267.9 635.5,268.3 636.8,268.6 638.1,268.8 639.4,269.0 640.8,269.2 642.1,269.4 643.4,269.5 644.7,269.6 646.0,269.7 647.4,269.7 648.7,269.8 650.0,269.8"/>
  <!-- Node ticks -->
  <line x1="560.9" y1="266" x2="560.9" y2="274" stroke="#C8102E" stroke-width="1.5"/>
  <line x1="583.3" y1="266" x2="583.3" y2="274" stroke="#C8102E" stroke-width="1.5"/>
  <line x1="607.1" y1="266" x2="607.1" y2="274" stroke="#C8102E" stroke-width="1.5"/>

  <!-- Shared legend -->
  <rect x="36" y="348" width="628" height="22" fill="#FFFFFF" stroke="none"/>
  <line x1="36" y1="350" x2="664" y2="350" stroke="#D4D4D4" stroke-width="0.5"/>
  <!-- Legend items -->
  <rect x="50" y="356" width="30" height="10" fill="#2a1a0e" fill-opacity="0.10" stroke="#2a1a0e" stroke-width="0.75"/>
  <text x="86" y="365" font-family="'Inter',-apple-system,'Helvetica Neue',sans-serif"
        font-size="10" fill="#545454">positive lobe (ψ > 0)</text>
  <rect x="200" y="356" width="30" height="10" fill="#ADADAD" fill-opacity="0.25" stroke="#ADADAD" stroke-width="0.75"/>
  <text x="236" y="365" font-family="'Inter',-apple-system,'Helvetica Neue',sans-serif"
        font-size="10" fill="#545454">negative lobe (ψ &lt; 0)</text>
  <line x1="358" y1="361" x2="388" y2="361" stroke="#C8860E" stroke-width="1" stroke-dasharray="5 3"/>
  <text x="394" y="365" font-family="'Inter',-apple-system,'Helvetica Neue',sans-serif"
        font-size="10" fill="#545454">Gaussian envelope e^{−x²/2}</text>
  <line x1="545" y1="358" x2="545" y2="366" stroke="#C8102E" stroke-width="1.5"/>
  <text x="551" y="365" font-family="'Inter',-apple-system,'Helvetica Neue',sans-serif"
        font-size="10" fill="#545454">node (ψ = 0)</text>

  <!-- Caption -->
  <text x="350" y="384" text-anchor="middle"
        font-family="'Inter',-apple-system,'Helvetica Neue',sans-serif" font-size="11"
        fill="#2a1a0e">Node count = n: the nth eigenstate has exactly n zeros — a direct consequence of the Sturm oscillation theorem</text>
  <text x="350" y="398" text-anchor="middle"
        font-family="'Inter',-apple-system,'Helvetica Neue',sans-serif" font-size="11"
        fill="#545454">All curves computed from ψₙ(x) = Hₙ(x)e^{−x²/2} with normalization; Gaussian envelope bounds all lobes</text>
  <text x="350" y="412" text-anchor="middle"
        font-family="'Inter',-apple-system,'Helvetica Neue',sans-serif" font-size="11"
        fill="#545454">Even n → even functions; odd n → odd functions about x = 0</text>
</svg>
