<!-- ============================================================
  Book:    Quantum Mechanics — Math for Quantum Physics
  Chapter: 14-combinatorics-and-multiplicity
  Figure:  01 — Multiplicity peak and Gaussian sharpening
  Source:  pantry/14-combinatorics-and-multiplicity-cajal.md
  Date:    2026-06-06
  Author:  Humanitarians AI Incorporated
  ============================================================ -->
<svg viewBox="0 0 700 460" xmlns="http://www.w3.org/2000/svg"
     role="img" aria-labelledby="fig-title-c14-01">
  <title id="fig-title-c14-01">Multiplicity peak and Gaussian sharpening</title>
  <desc>Two-panel figure: top panel shows exact normalized binomial multiplicity bars for N=6 (ochre), N=20 (ink), and N=100 (red) peaking at N_up/N=0.5; bottom panel overlays the corresponding Gaussian envelope exp(−2s²/N) for each N, showing dramatic narrowing as N grows from 6 to 100.</desc>
  <metadata>
    <cajal:figure xmlns:cajal="https://bearbrown.ai/cajal/1.0"
      book="Quantum Mechanics" book-slug="quantum-mechanics-vol5"
      chapter="14-combinatorics-and-multiplicity" figure-number="01"
      figure-title="Multiplicity peak and Gaussian sharpening"
      figure-slug="multiplicity-peak-gaussian" figure-type="chart"
      priority="critical" author="Humanitarians AI Incorporated"
      date-generated="2026-06-06"
      source-file="pantry/14-combinatorics-and-multiplicity-cajal.md"/>
  </metadata>
  <defs>
    <marker id="arw" markerWidth="8" markerHeight="6" refX="7" refY="3" orient="auto">
      <polygon points="0 0,8 3,0 6" fill="#2a1a0e"/>
    </marker>
  </defs>
  <rect width="700" height="460" fill="#FFFFFF"/>

  <!-- Title -->
  <text x="350" y="22" text-anchor="middle"
        font-family="'EB Garamond','Garamond',Georgia,serif" font-size="14" fill="#2a1a0e">
    Multiplicity Ω(N, N↑)/Ω_max  and Gaussian approximation
  </text>

  <!-- TOP PANEL: bars -->
  <rect x="60" y="35" width="600" height="175" fill="#F5F5F5" stroke="#D4D4D4" stroke-width="0.75"/>
  <!-- Baseline -->
  <line x1="60" y1="210" x2="660" y2="210" stroke="#2a1a0e" stroke-width="0.75"/>
  <!-- Y-axis -->
  <line x1="60" y1="35" x2="60" y2="210" stroke="#2a1a0e" stroke-width="0.75"/>
  <!-- Y ticks -->
  <g font-family="'JetBrains Mono','Fira Code','Courier New',monospace" font-size="10" fill="#545454">
    <line x1="55" y1="35"  x2="60" y2="35"  stroke="#2a1a0e" stroke-width="0.75"/>
    <text x="52" y="39"  text-anchor="end">1</text>
    <line x1="55" y1="122" x2="60" y2="122" stroke="#2a1a0e" stroke-width="0.75"/>
    <text x="52" y="126" text-anchor="end">0.5</text>
    <line x1="55" y1="210" x2="60" y2="210" stroke="#2a1a0e" stroke-width="0.75"/>
    <text x="52" y="214" text-anchor="end">0</text>
  </g>
  <!-- Y-axis label -->
  <text x="20" y="125" text-anchor="middle" transform="rotate(-90,20,125)"
        font-family="'Inter',-apple-system,'Helvetica Neue',sans-serif" font-size="10" fill="#545454">
    Ω/Ω_max
  </text>

  <!-- Bars -->
  <rect x="29.1" y="201.2" width="61.7" height="8.8" fill="#C8860E" fill-opacity="0.65"/>
<rect x="129.1" y="157.5" width="61.7" height="52.5" fill="#C8860E" fill-opacity="0.65"/>
<rect x="229.1" y="78.8" width="61.7" height="131.2" fill="#C8860E" fill-opacity="0.65"/>
<rect x="329.1" y="35.0" width="61.7" height="175.0" fill="#C8860E" fill-opacity="0.65"/>
<rect x="429.1" y="78.8" width="61.7" height="131.2" fill="#C8860E" fill-opacity="0.65"/>
<rect x="529.1" y="157.5" width="61.7" height="52.5" fill="#C8860E" fill-opacity="0.65"/>
<rect x="629.1" y="201.2" width="61.7" height="8.8" fill="#C8860E" fill-opacity="0.65"/>
<rect x="139.7" y="208.9" width="20.6" height="1.1" fill="#2a1a0e" fill-opacity="0.55"/>
<rect x="169.7" y="205.4" width="20.6" height="4.6" fill="#2a1a0e" fill-opacity="0.55"/>
<rect x="199.7" y="195.3" width="20.6" height="14.7" fill="#2a1a0e" fill-opacity="0.55"/>
<rect x="229.7" y="173.3" width="20.6" height="36.7" fill="#2a1a0e" fill-opacity="0.55"/>
<rect x="259.7" y="136.6" width="20.6" height="73.4" fill="#2a1a0e" fill-opacity="0.55"/>
<rect x="289.7" y="90.7" width="20.6" height="119.3" fill="#2a1a0e" fill-opacity="0.55"/>
<rect x="319.7" y="50.9" width="20.6" height="159.1" fill="#2a1a0e" fill-opacity="0.55"/>
<rect x="349.7" y="35.0" width="20.6" height="175.0" fill="#2a1a0e" fill-opacity="0.55"/>
<rect x="379.7" y="50.9" width="20.6" height="159.1" fill="#2a1a0e" fill-opacity="0.55"/>
<rect x="409.7" y="90.7" width="20.6" height="119.3" fill="#2a1a0e" fill-opacity="0.55"/>
<rect x="439.7" y="136.6" width="20.6" height="73.4" fill="#2a1a0e" fill-opacity="0.55"/>
<rect x="469.7" y="173.3" width="20.6" height="36.7" fill="#2a1a0e" fill-opacity="0.55"/>
<rect x="499.7" y="195.3" width="20.6" height="14.7" fill="#2a1a0e" fill-opacity="0.55"/>
<rect x="529.7" y="205.4" width="20.6" height="4.6" fill="#2a1a0e" fill-opacity="0.55"/>
<rect x="559.7" y="208.9" width="20.6" height="1.1" fill="#2a1a0e" fill-opacity="0.55"/>
<rect x="249.9" y="209.8" width="4.3" height="0.2" fill="#C8102E" fill-opacity="0.50"/>
<rect x="255.9" y="209.5" width="4.3" height="0.5" fill="#C8102E" fill-opacity="0.50"/>
<rect x="261.9" y="209.0" width="4.3" height="1.0" fill="#C8102E" fill-opacity="0.50"/>
<rect x="267.9" y="208.1" width="4.3" height="1.9" fill="#C8102E" fill-opacity="0.50"/>
<rect x="273.9" y="206.6" width="4.3" height="3.4" fill="#C8102E" fill-opacity="0.50"/>
<rect x="279.9" y="204.1" width="4.3" height="5.9" fill="#C8102E" fill-opacity="0.50"/>
<rect x="285.9" y="200.2" width="4.3" height="9.8" fill="#C8102E" fill-opacity="0.50"/>
<rect x="291.9" y="194.4" width="4.3" height="15.6" fill="#C8102E" fill-opacity="0.50"/>
<rect x="297.9" y="186.2" width="4.3" height="23.8" fill="#C8102E" fill-opacity="0.50"/>
<rect x="303.9" y="175.1" width="4.3" height="34.9" fill="#C8102E" fill-opacity="0.50"/>
<rect x="309.9" y="161.0" width="4.3" height="49.0" fill="#C8102E" fill-opacity="0.50"/>
<rect x="315.9" y="143.9" width="4.3" height="66.1" fill="#C8102E" fill-opacity="0.50"/>
<rect x="321.9" y="124.4" width="4.3" height="85.6" fill="#C8102E" fill-opacity="0.50"/>
<rect x="327.9" y="103.4" width="4.3" height="106.6" fill="#C8102E" fill-opacity="0.50"/>
<rect x="333.9" y="82.6" width="4.3" height="127.4" fill="#C8102E" fill-opacity="0.50"/>
<rect x="339.9" y="63.6" width="4.3" height="146.4" fill="#C8102E" fill-opacity="0.50"/>
<rect x="345.9" y="48.3" width="4.3" height="161.7" fill="#C8102E" fill-opacity="0.50"/>
<rect x="351.9" y="38.4" width="4.3" height="171.6" fill="#C8102E" fill-opacity="0.50"/>
<rect x="357.9" y="35.0" width="4.3" height="175.0" fill="#C8102E" fill-opacity="0.50"/>
<rect x="363.9" y="38.4" width="4.3" height="171.6" fill="#C8102E" fill-opacity="0.50"/>
<rect x="369.9" y="48.3" width="4.3" height="161.7" fill="#C8102E" fill-opacity="0.50"/>
<rect x="375.9" y="63.6" width="4.3" height="146.4" fill="#C8102E" fill-opacity="0.50"/>
<rect x="381.9" y="82.6" width="4.3" height="127.4" fill="#C8102E" fill-opacity="0.50"/>
<rect x="387.9" y="103.4" width="4.3" height="106.6" fill="#C8102E" fill-opacity="0.50"/>
<rect x="393.9" y="124.4" width="4.3" height="85.6" fill="#C8102E" fill-opacity="0.50"/>
<rect x="399.9" y="143.9" width="4.3" height="66.1" fill="#C8102E" fill-opacity="0.50"/>
<rect x="405.9" y="161.0" width="4.3" height="49.0" fill="#C8102E" fill-opacity="0.50"/>
<rect x="411.9" y="175.1" width="4.3" height="34.9" fill="#C8102E" fill-opacity="0.50"/>
<rect x="417.9" y="186.2" width="4.3" height="23.8" fill="#C8102E" fill-opacity="0.50"/>
<rect x="423.9" y="194.4" width="4.3" height="15.6" fill="#C8102E" fill-opacity="0.50"/>
<rect x="429.9" y="200.2" width="4.3" height="9.8" fill="#C8102E" fill-opacity="0.50"/>
<rect x="435.9" y="204.1" width="4.3" height="5.9" fill="#C8102E" fill-opacity="0.50"/>
<rect x="441.9" y="206.6" width="4.3" height="3.4" fill="#C8102E" fill-opacity="0.50"/>
<rect x="447.9" y="208.1" width="4.3" height="1.9" fill="#C8102E" fill-opacity="0.50"/>
<rect x="453.9" y="209.0" width="4.3" height="1.0" fill="#C8102E" fill-opacity="0.50"/>
<rect x="459.9" y="209.5" width="4.3" height="0.5" fill="#C8102E" fill-opacity="0.50"/>
<rect x="465.9" y="209.8" width="4.3" height="0.2" fill="#C8102E" fill-opacity="0.50"/>

  <!-- Dashed center line top panel -->
  <line x1="360.0" y1="35" x2="360.0" y2="210" stroke="#2a1a0e" stroke-width="0.75" stroke-dasharray="4 3"/>

  <!-- BOTTOM PANEL: Gaussian envelopes -->
  <rect x="60" y="250" width="600" height="170" fill="#F5F5F5" stroke="#D4D4D4" stroke-width="0.75"/>
  <line x1="60" y1="420" x2="660" y2="420" stroke="#2a1a0e" stroke-width="0.75"/>
  <line x1="60" y1="250" x2="60"  y2="420" stroke="#2a1a0e" stroke-width="0.75"/>
  <!-- Y ticks bottom -->
  <g font-family="'JetBrains Mono','Fira Code','Courier New',monospace" font-size="10" fill="#545454">
    <line x1="55" y1="250" x2="60" y2="250" stroke="#2a1a0e" stroke-width="0.75"/>
    <text x="52" y="254" text-anchor="end">1</text>
    <line x1="55" y1="335" x2="60" y2="335" stroke="#2a1a0e" stroke-width="0.75"/>
    <text x="52" y="339" text-anchor="end">0.5</text>
    <line x1="55" y1="420" x2="60" y2="420" stroke="#2a1a0e" stroke-width="0.75"/>
    <text x="52" y="424" text-anchor="end">0</text>
  </g>
  <text x="20" y="337" text-anchor="middle" transform="rotate(-90,20,337)"
        font-family="'Inter',-apple-system,'Helvetica Neue',sans-serif" font-size="10" fill="#545454">
    Gaussian envelope
  </text>

  <!-- Gaussian curves -->
  <polyline fill="none" stroke="#C8860E" stroke-width="1.5" points="60.0,411.5 61.0,411.4 62.0,411.2 63.0,411.0 64.0,410.8 65.0,410.7 66.0,410.5 67.0,410.3 68.0,410.1 69.0,409.9 70.0,409.7 71.0,409.5 72.0,409.3 73.0,409.1 74.0,408.9 75.0,408.7 76.0,408.4 77.0,408.2 78.0,408.0 79.0,407.8 80.0,407.5 81.0,407.3 82.0,407.1 83.0,406.8 84.0,406.6 85.0,406.3 86.0,406.1 87.0,405.8 88.0,405.6 89.0,405.3 90.0,405.0 91.0,404.8 92.0,404.5 93.0,404.2 94.0,403.9 95.0,403.6 96.0,403.3 97.0,403.1 98.0,402.8 99.0,402.4 100.0,402.1 101.0,401.8 102.0,401.5 103.0,401.2 104.0,400.9 105.0,400.5 106.0,400.2 107.0,399.9 108.0,399.5 109.0,399.2 110.0,398.8 111.0,398.5 112.0,398.1 113.0,397.8 114.0,397.4 115.0,397.0 116.0,396.6 117.0,396.3 118.0,395.9 119.0,395.5 120.0,395.1 121.0,394.7 122.0,394.3 123.0,393.9 124.0,393.4 125.0,393.0 126.0,392.6 127.0,392.2 128.0,391.7 129.0,391.3 130.0,390.8 131.0,390.4 132.0,389.9 133.0,389.5 134.0,389.0 135.0,388.6 136.0,388.1 137.0,387.6 138.0,387.1 139.0,386.6 140.0,386.1 141.0,385.6 142.0,385.1 143.0,384.6 144.0,384.1 145.0,383.6 146.0,383.1 147.0,382.5 148.0,382.0 149.0,381.5 150.0,380.9 151.0,380.4 152.0,379.8 153.0,379.2 154.0,378.7 155.0,378.1 156.0,377.5 157.0,377.0 158.0,376.4 159.0,375.8 160.0,375.2 161.0,374.6 162.0,374.0 163.0,373.4 164.0,372.8 165.0,372.1 166.0,371.5 167.0,370.9 168.0,370.3 169.0,369.6 170.0,369.0 171.0,368.3 172.0,367.7 173.0,367.0 174.0,366.3 175.0,365.7 176.0,365.0 177.0,364.3 178.0,363.6 179.0,363.0 180.0,362.3 181.0,361.6 182.0,360.9 183.0,360.2 184.0,359.5 185.0,358.7 186.0,358.0 187.0,357.3 188.0,356.6 189.0,355.9 190.0,355.1 191.0,354.4 192.0,353.6 193.0,352.9 194.0,352.2 195.0,351.4 196.0,350.6 197.0,349.9 198.0,349.1 199.0,348.4 200.0,347.6 201.0,346.8 202.0,346.0 203.0,345.2 204.0,344.5 205.0,343.7 206.0,342.9 207.0,342.1 208.0,341.3 209.0,340.5 210.0,339.7 211.0,338.9 212.0,338.1 213.0,337.3 214.0,336.5 215.0,335.7 216.0,334.8 217.0,334.0 218.0,333.2 219.0,332.4 220.0,331.5 221.0,330.7 222.0,329.9 223.0,329.1 224.0,328.2 225.0,327.4 226.0,326.6 227.0,325.7 228.0,324.9 229.0,324.1 230.0,323.2 231.0,322.4 232.0,321.5 233.0,320.7 234.0,319.9 235.0,319.0 236.0,318.2 237.0,317.3 238.0,316.5 239.0,315.6 240.0,314.8 241.0,314.0 242.0,313.1 243.0,312.3 244.0,311.4 245.0,310.6 246.0,309.8 247.0,308.9 248.0,308.1 249.0,307.3 250.0,306.4 251.0,305.6 252.0,304.8 253.0,303.9 254.0,303.1 255.0,302.3 256.0,301.5 257.0,300.6 258.0,299.8 259.0,299.0 260.0,298.2 261.0,297.4 262.0,296.6 263.0,295.8 264.0,295.0 265.0,294.2 266.0,293.4 267.0,292.6 268.0,291.8 269.0,291.0 270.0,290.2 271.0,289.4 272.0,288.7 273.0,287.9 274.0,287.1 275.0,286.4 276.0,285.6 277.0,284.9 278.0,284.1 279.0,283.4 280.0,282.7 281.0,281.9 282.0,281.2 283.0,280.5 284.0,279.8 285.0,279.1 286.0,278.4 287.0,277.7 288.0,277.0 289.0,276.3 290.0,275.6 291.0,274.9 292.0,274.3 293.0,273.6 294.0,273.0 295.0,272.3 296.0,271.7 297.0,271.1 298.0,270.4 299.0,269.8 300.0,269.2 301.0,268.6 302.0,268.0 303.0,267.4 304.0,266.9 305.0,266.3 306.0,265.7 307.0,265.2 308.0,264.7 309.0,264.1 310.0,263.6 311.0,263.1 312.0,262.6 313.0,262.1 314.0,261.6 315.0,261.1 316.0,260.6 317.0,260.2 318.0,259.7 319.0,259.3 320.0,258.8 321.0,258.4 322.0,258.0 323.0,257.6 324.0,257.2 325.0,256.8 326.0,256.4 327.0,256.1 328.0,255.7 329.0,255.4 330.0,255.0 331.0,254.7 332.0,254.4 333.0,254.1 334.0,253.8 335.0,253.5 336.0,253.2 337.0,253.0 338.0,252.7 339.0,252.5 340.0,252.3 341.0,252.0 342.0,251.8 343.0,251.6 344.0,251.4 345.0,251.3 346.0,251.1 347.0,251.0 348.0,250.8 349.0,250.7 350.0,250.6 351.0,250.5 352.0,250.4 353.0,250.3 354.0,250.2 355.0,250.1 356.0,250.1 357.0,250.1 358.0,250.0 359.0,250.0 360.0,250.0 361.0,250.0 362.0,250.0 363.0,250.1 364.0,250.1 365.0,250.1 366.0,250.2 367.0,250.3 368.0,250.4 369.0,250.5 370.0,250.6 371.0,250.7 372.0,250.8 373.0,251.0 374.0,251.1 375.0,251.3 376.0,251.4 377.0,251.6 378.0,251.8 379.0,252.0 380.0,252.3 381.0,252.5 382.0,252.7 383.0,253.0 384.0,253.2 385.0,253.5 386.0,253.8 387.0,254.1 388.0,254.4 389.0,254.7 390.0,255.0 391.0,255.4 392.0,255.7 393.0,256.1 394.0,256.4 395.0,256.8 396.0,257.2 397.0,257.6 398.0,258.0 399.0,258.4 400.0,258.8 401.0,259.3 402.0,259.7 403.0,260.2 404.0,260.6 405.0,261.1 406.0,261.6 407.0,262.1 408.0,262.6 409.0,263.1 410.0,263.6 411.0,264.1 412.0,264.7 413.0,265.2 414.0,265.7 415.0,266.3 416.0,266.9 417.0,267.4 418.0,268.0 419.0,268.6 420.0,269.2 421.0,269.8 422.0,270.4 423.0,271.1 424.0,271.7 425.0,272.3 426.0,273.0 427.0,273.6 428.0,274.3 429.0,274.9 430.0,275.6 431.0,276.3 432.0,277.0 433.0,277.7 434.0,278.4 435.0,279.1 436.0,279.8 437.0,280.5 438.0,281.2 439.0,281.9 440.0,282.7 441.0,283.4 442.0,284.1 443.0,284.9 444.0,285.6 445.0,286.4 446.0,287.1 447.0,287.9 448.0,288.7 449.0,289.4 450.0,290.2 451.0,291.0 452.0,291.8 453.0,292.6 454.0,293.4 455.0,294.2 456.0,295.0 457.0,295.8 458.0,296.6 459.0,297.4 460.0,298.2 461.0,299.0 462.0,299.8 463.0,300.6 464.0,301.5 465.0,302.3 466.0,303.1 467.0,303.9 468.0,304.8 469.0,305.6 470.0,306.4 471.0,307.3 472.0,308.1 473.0,308.9 474.0,309.8 475.0,310.6 476.0,311.4 477.0,312.3 478.0,313.1 479.0,314.0 480.0,314.8 481.0,315.6 482.0,316.5 483.0,317.3 484.0,318.2 485.0,319.0 486.0,319.9 487.0,320.7 488.0,321.5 489.0,322.4 490.0,323.2 491.0,324.1 492.0,324.9 493.0,325.7 494.0,326.6 495.0,327.4 496.0,328.2 497.0,329.1 498.0,329.9 499.0,330.7 500.0,331.5 501.0,332.4 502.0,333.2 503.0,334.0 504.0,334.8 505.0,335.7 506.0,336.5 507.0,337.3 508.0,338.1 509.0,338.9 510.0,339.7 511.0,340.5 512.0,341.3 513.0,342.1 514.0,342.9 515.0,343.7 516.0,344.5 517.0,345.2 518.0,346.0 519.0,346.8 520.0,347.6 521.0,348.4 522.0,349.1 523.0,349.9 524.0,350.6 525.0,351.4 526.0,352.2 527.0,352.9 528.0,353.6 529.0,354.4 530.0,355.1 531.0,355.9 532.0,356.6 533.0,357.3 534.0,358.0 535.0,358.7 536.0,359.5 537.0,360.2 538.0,360.9 539.0,361.6 540.0,362.3 541.0,363.0 542.0,363.6 543.0,364.3 544.0,365.0 545.0,365.7 546.0,366.3 547.0,367.0 548.0,367.7 549.0,368.3 550.0,369.0 551.0,369.6 552.0,370.3 553.0,370.9 554.0,371.5 555.0,372.1 556.0,372.8 557.0,373.4 558.0,374.0 559.0,374.6 560.0,375.2 561.0,375.8 562.0,376.4 563.0,377.0 564.0,377.5 565.0,378.1 566.0,378.7 567.0,379.2 568.0,379.8 569.0,380.4 570.0,380.9 571.0,381.5 572.0,382.0 573.0,382.5 574.0,383.1 575.0,383.6 576.0,384.1 577.0,384.6 578.0,385.1 579.0,385.6 580.0,386.1 581.0,386.6 582.0,387.1 583.0,387.6 584.0,388.1 585.0,388.6 586.0,389.0 587.0,389.5 588.0,389.9 589.0,390.4 590.0,390.8 591.0,391.3 592.0,391.7 593.0,392.2 594.0,392.6 595.0,393.0 596.0,393.4 597.0,393.9 598.0,394.3 599.0,394.7 600.0,395.1 601.0,395.5 602.0,395.9 603.0,396.3 604.0,396.6 605.0,397.0 606.0,397.4 607.0,397.8 608.0,398.1 609.0,398.5 610.0,398.8 611.0,399.2 612.0,399.5 613.0,399.9 614.0,400.2 615.0,400.5 616.0,400.9 617.0,401.2 618.0,401.5 619.0,401.8 620.0,402.1 621.0,402.4 622.0,402.8 623.0,403.1 624.0,403.3 625.0,403.6 626.0,403.9 627.0,404.2 628.0,404.5 629.0,404.8 630.0,405.0 631.0,405.3 632.0,405.6 633.0,405.8 634.0,406.1 635.0,406.3 636.0,406.6 637.0,406.8 638.0,407.1 639.0,407.3 640.0,407.5 641.0,407.8 642.0,408.0 643.0,408.2 644.0,408.4 645.0,408.7 646.0,408.9 647.0,409.1 648.0,409.3 649.0,409.5 650.0,409.7 651.0,409.9 652.0,410.1 653.0,410.3 654.0,410.5 655.0,410.7 656.0,410.8 657.0,411.0 658.0,411.2 659.0,411.4 660.0,411.5"/>
<polyline fill="none" stroke="#2a1a0e" stroke-width="1.5" points="60.0,420.0 61.0,420.0 62.0,420.0 63.0,420.0 64.0,420.0 65.0,420.0 66.0,420.0 67.0,420.0 68.0,420.0 69.0,420.0 70.0,420.0 71.0,420.0 72.0,420.0 73.0,420.0 74.0,420.0 75.0,420.0 76.0,420.0 77.0,420.0 78.0,420.0 79.0,420.0 80.0,420.0 81.0,420.0 82.0,420.0 83.0,420.0 84.0,420.0 85.0,420.0 86.0,420.0 87.0,420.0 88.0,420.0 89.0,420.0 90.0,419.9 91.0,419.9 92.0,419.9 93.0,419.9 94.0,419.9 95.0,419.9 96.0,419.9 97.0,419.9 98.0,419.9 99.0,419.9 100.0,419.9 101.0,419.9 102.0,419.9 103.0,419.9 104.0,419.9 105.0,419.9 106.0,419.9 107.0,419.9 108.0,419.9 109.0,419.8 110.0,419.8 111.0,419.8 112.0,419.8 113.0,419.8 114.0,419.8 115.0,419.8 116.0,419.8 117.0,419.8 118.0,419.7 119.0,419.7 120.0,419.7 121.0,419.7 122.0,419.7 123.0,419.7 124.0,419.7 125.0,419.6 126.0,419.6 127.0,419.6 128.0,419.6 129.0,419.5 130.0,419.5 131.0,419.5 132.0,419.5 133.0,419.4 134.0,419.4 135.0,419.4 136.0,419.4 137.0,419.3 138.0,419.3 139.0,419.3 140.0,419.2 141.0,419.2 142.0,419.1 143.0,419.1 144.0,419.0 145.0,419.0 146.0,419.0 147.0,418.9 148.0,418.8 149.0,418.8 150.0,418.7 151.0,418.7 152.0,418.6 153.0,418.5 154.0,418.5 155.0,418.4 156.0,418.3 157.0,418.3 158.0,418.2 159.0,418.1 160.0,418.0 161.0,417.9 162.0,417.8 163.0,417.7 164.0,417.6 165.0,417.5 166.0,417.4 167.0,417.3 168.0,417.2 169.0,417.0 170.0,416.9 171.0,416.8 172.0,416.7 173.0,416.5 174.0,416.4 175.0,416.2 176.0,416.0 177.0,415.9 178.0,415.7 179.0,415.5 180.0,415.4 181.0,415.2 182.0,415.0 183.0,414.8 184.0,414.6 185.0,414.3 186.0,414.1 187.0,413.9 188.0,413.6 189.0,413.4 190.0,413.1 191.0,412.9 192.0,412.6 193.0,412.3 194.0,412.0 195.0,411.7 196.0,411.4 197.0,411.1 198.0,410.8 199.0,410.5 200.0,410.1 201.0,409.8 202.0,409.4 203.0,409.0 204.0,408.6 205.0,408.2 206.0,407.8 207.0,407.4 208.0,407.0 209.0,406.5 210.0,406.0 211.0,405.6 212.0,405.1 213.0,404.6 214.0,404.1 215.0,403.6 216.0,403.0 217.0,402.5 218.0,401.9 219.0,401.3 220.0,400.7 221.0,400.1 222.0,399.5 223.0,398.9 224.0,398.2 225.0,397.6 226.0,396.9 227.0,396.2 228.0,395.5 229.0,394.7 230.0,394.0 231.0,393.2 232.0,392.5 233.0,391.7 234.0,390.9 235.0,390.0 236.0,389.2 237.0,388.3 238.0,387.5 239.0,386.6 240.0,385.7 241.0,384.8 242.0,383.8 243.0,382.9 244.0,381.9 245.0,380.9 246.0,379.9 247.0,378.9 248.0,377.8 249.0,376.8 250.0,375.7 251.0,374.6 252.0,373.5 253.0,372.4 254.0,371.2 255.0,370.1 256.0,368.9 257.0,367.7 258.0,366.5 259.0,365.3 260.0,364.0 261.0,362.8 262.0,361.5 263.0,360.2 264.0,358.9 265.0,357.6 266.0,356.3 267.0,355.0 268.0,353.6 269.0,352.3 270.0,350.9 271.0,349.5 272.0,348.1 273.0,346.7 274.0,345.3 275.0,343.8 276.0,342.4 277.0,340.9 278.0,339.5 279.0,338.0 280.0,336.5 281.0,335.0 282.0,333.5 283.0,332.0 284.0,330.5 285.0,329.0 286.0,327.5 287.0,326.0 288.0,324.4 289.0,322.9 290.0,321.4 291.0,319.8 292.0,318.3 293.0,316.8 294.0,315.2 295.0,313.7 296.0,312.2 297.0,310.6 298.0,309.1 299.0,307.6 300.0,306.0 301.0,304.5 302.0,303.0 303.0,301.5 304.0,300.0 305.0,298.5 306.0,297.0 307.0,295.6 308.0,294.1 309.0,292.7 310.0,291.2 311.0,289.8 312.0,288.4 313.0,287.0 314.0,285.6 315.0,284.3 316.0,282.9 317.0,281.6 318.0,280.3 319.0,279.0 320.0,277.7 321.0,276.4 322.0,275.2 323.0,274.0 324.0,272.8 325.0,271.6 326.0,270.5 327.0,269.4 328.0,268.3 329.0,267.2 330.0,266.2 331.0,265.2 332.0,264.2 333.0,263.2 334.0,262.3 335.0,261.4 336.0,260.5 337.0,259.7 338.0,258.9 339.0,258.1 340.0,257.4 341.0,256.7 342.0,256.0 343.0,255.4 344.0,254.8 345.0,254.2 346.0,253.7 347.0,253.2 348.0,252.7 349.0,252.3 350.0,251.9 351.0,251.5 352.0,251.2 353.0,250.9 354.0,250.7 355.0,250.5 356.0,250.3 357.0,250.2 358.0,250.1 359.0,250.0 360.0,250.0 361.0,250.0 362.0,250.1 363.0,250.2 364.0,250.3 365.0,250.5 366.0,250.7 367.0,250.9 368.0,251.2 369.0,251.5 370.0,251.9 371.0,252.3 372.0,252.7 373.0,253.2 374.0,253.7 375.0,254.2 376.0,254.8 377.0,255.4 378.0,256.0 379.0,256.7 380.0,257.4 381.0,258.1 382.0,258.9 383.0,259.7 384.0,260.5 385.0,261.4 386.0,262.3 387.0,263.2 388.0,264.2 389.0,265.2 390.0,266.2 391.0,267.2 392.0,268.3 393.0,269.4 394.0,270.5 395.0,271.6 396.0,272.8 397.0,274.0 398.0,275.2 399.0,276.4 400.0,277.7 401.0,279.0 402.0,280.3 403.0,281.6 404.0,282.9 405.0,284.3 406.0,285.6 407.0,287.0 408.0,288.4 409.0,289.8 410.0,291.2 411.0,292.7 412.0,294.1 413.0,295.6 414.0,297.0 415.0,298.5 416.0,300.0 417.0,301.5 418.0,303.0 419.0,304.5 420.0,306.0 421.0,307.6 422.0,309.1 423.0,310.6 424.0,312.2 425.0,313.7 426.0,315.2 427.0,316.8 428.0,318.3 429.0,319.8 430.0,321.4 431.0,322.9 432.0,324.4 433.0,326.0 434.0,327.5 435.0,329.0 436.0,330.5 437.0,332.0 438.0,333.5 439.0,335.0 440.0,336.5 441.0,338.0 442.0,339.5 443.0,340.9 444.0,342.4 445.0,343.8 446.0,345.3 447.0,346.7 448.0,348.1 449.0,349.5 450.0,350.9 451.0,352.3 452.0,353.6 453.0,355.0 454.0,356.3 455.0,357.6 456.0,358.9 457.0,360.2 458.0,361.5 459.0,362.8 460.0,364.0 461.0,365.3 462.0,366.5 463.0,367.7 464.0,368.9 465.0,370.1 466.0,371.2 467.0,372.4 468.0,373.5 469.0,374.6 470.0,375.7 471.0,376.8 472.0,377.8 473.0,378.9 474.0,379.9 475.0,380.9 476.0,381.9 477.0,382.9 478.0,383.8 479.0,384.8 480.0,385.7 481.0,386.6 482.0,387.5 483.0,388.3 484.0,389.2 485.0,390.0 486.0,390.9 487.0,391.7 488.0,392.5 489.0,393.2 490.0,394.0 491.0,394.7 492.0,395.5 493.0,396.2 494.0,396.9 495.0,397.6 496.0,398.2 497.0,398.9 498.0,399.5 499.0,400.1 500.0,400.7 501.0,401.3 502.0,401.9 503.0,402.5 504.0,403.0 505.0,403.6 506.0,404.1 507.0,404.6 508.0,405.1 509.0,405.6 510.0,406.0 511.0,406.5 512.0,407.0 513.0,407.4 514.0,407.8 515.0,408.2 516.0,408.6 517.0,409.0 518.0,409.4 519.0,409.8 520.0,410.1 521.0,410.5 522.0,410.8 523.0,411.1 524.0,411.4 525.0,411.7 526.0,412.0 527.0,412.3 528.0,412.6 529.0,412.9 530.0,413.1 531.0,413.4 532.0,413.6 533.0,413.9 534.0,414.1 535.0,414.3 536.0,414.6 537.0,414.8 538.0,415.0 539.0,415.2 540.0,415.4 541.0,415.5 542.0,415.7 543.0,415.9 544.0,416.0 545.0,416.2 546.0,416.4 547.0,416.5 548.0,416.7 549.0,416.8 550.0,416.9 551.0,417.0 552.0,417.2 553.0,417.3 554.0,417.4 555.0,417.5 556.0,417.6 557.0,417.7 558.0,417.8 559.0,417.9 560.0,418.0 561.0,418.1 562.0,418.2 563.0,418.3 564.0,418.3 565.0,418.4 566.0,418.5 567.0,418.5 568.0,418.6 569.0,418.7 570.0,418.7 571.0,418.8 572.0,418.8 573.0,418.9 574.0,419.0 575.0,419.0 576.0,419.0 577.0,419.1 578.0,419.1 579.0,419.2 580.0,419.2 581.0,419.3 582.0,419.3 583.0,419.3 584.0,419.4 585.0,419.4 586.0,419.4 587.0,419.4 588.0,419.5 589.0,419.5 590.0,419.5 591.0,419.5 592.0,419.6 593.0,419.6 594.0,419.6 595.0,419.6 596.0,419.7 597.0,419.7 598.0,419.7 599.0,419.7 600.0,419.7 601.0,419.7 602.0,419.7 603.0,419.8 604.0,419.8 605.0,419.8 606.0,419.8 607.0,419.8 608.0,419.8 609.0,419.8 610.0,419.8 611.0,419.8 612.0,419.9 613.0,419.9 614.0,419.9 615.0,419.9 616.0,419.9 617.0,419.9 618.0,419.9 619.0,419.9 620.0,419.9 621.0,419.9 622.0,419.9 623.0,419.9 624.0,419.9 625.0,419.9 626.0,419.9 627.0,419.9 628.0,419.9 629.0,419.9 630.0,419.9 631.0,420.0 632.0,420.0 633.0,420.0 634.0,420.0 635.0,420.0 636.0,420.0 637.0,420.0 638.0,420.0 639.0,420.0 640.0,420.0 641.0,420.0 642.0,420.0 643.0,420.0 644.0,420.0 645.0,420.0 646.0,420.0 647.0,420.0 648.0,420.0 649.0,420.0 650.0,420.0 651.0,420.0 652.0,420.0 653.0,420.0 654.0,420.0 655.0,420.0 656.0,420.0 657.0,420.0 658.0,420.0 659.0,420.0 660.0,420.0"/>
<polyline fill="none" stroke="#C8102E" stroke-width="1.5" points="60.0,420.0 61.0,420.0 62.0,420.0 63.0,420.0 64.0,420.0 65.0,420.0 66.0,420.0 67.0,420.0 68.0,420.0 69.0,420.0 70.0,420.0 71.0,420.0 72.0,420.0 73.0,420.0 74.0,420.0 75.0,420.0 76.0,420.0 77.0,420.0 78.0,420.0 79.0,420.0 80.0,420.0 81.0,420.0 82.0,420.0 83.0,420.0 84.0,420.0 85.0,420.0 86.0,420.0 87.0,420.0 88.0,420.0 89.0,420.0 90.0,420.0 91.0,420.0 92.0,420.0 93.0,420.0 94.0,420.0 95.0,420.0 96.0,420.0 97.0,420.0 98.0,420.0 99.0,420.0 100.0,420.0 101.0,420.0 102.0,420.0 103.0,420.0 104.0,420.0 105.0,420.0 106.0,420.0 107.0,420.0 108.0,420.0 109.0,420.0 110.0,420.0 111.0,420.0 112.0,420.0 113.0,420.0 114.0,420.0 115.0,420.0 116.0,420.0 117.0,420.0 118.0,420.0 119.0,420.0 120.0,420.0 121.0,420.0 122.0,420.0 123.0,420.0 124.0,420.0 125.0,420.0 126.0,420.0 127.0,420.0 128.0,420.0 129.0,420.0 130.0,420.0 131.0,420.0 132.0,420.0 133.0,420.0 134.0,420.0 135.0,420.0 136.0,420.0 137.0,420.0 138.0,420.0 139.0,420.0 140.0,420.0 141.0,420.0 142.0,420.0 143.0,420.0 144.0,420.0 145.0,420.0 146.0,420.0 147.0,420.0 148.0,420.0 149.0,420.0 150.0,420.0 151.0,420.0 152.0,420.0 153.0,420.0 154.0,420.0 155.0,420.0 156.0,420.0 157.0,420.0 158.0,420.0 159.0,420.0 160.0,420.0 161.0,420.0 162.0,420.0 163.0,420.0 164.0,420.0 165.0,420.0 166.0,420.0 167.0,420.0 168.0,420.0 169.0,420.0 170.0,420.0 171.0,420.0 172.0,420.0 173.0,420.0 174.0,420.0 175.0,420.0 176.0,420.0 177.0,420.0 178.0,420.0 179.0,420.0 180.0,420.0 181.0,420.0 182.0,420.0 183.0,420.0 184.0,420.0 185.0,420.0 186.0,420.0 187.0,420.0 188.0,420.0 189.0,420.0 190.0,420.0 191.0,420.0 192.0,420.0 193.0,420.0 194.0,420.0 195.0,420.0 196.0,420.0 197.0,420.0 198.0,420.0 199.0,420.0 200.0,420.0 201.0,420.0 202.0,420.0 203.0,420.0 204.0,420.0 205.0,420.0 206.0,420.0 207.0,420.0 208.0,420.0 209.0,420.0 210.0,420.0 211.0,420.0 212.0,420.0 213.0,420.0 214.0,420.0 215.0,420.0 216.0,420.0 217.0,420.0 218.0,420.0 219.0,420.0 220.0,420.0 221.0,420.0 222.0,420.0 223.0,420.0 224.0,420.0 225.0,420.0 226.0,420.0 227.0,420.0 228.0,420.0 229.0,420.0 230.0,420.0 231.0,420.0 232.0,420.0 233.0,420.0 234.0,420.0 235.0,420.0 236.0,420.0 237.0,420.0 238.0,420.0 239.0,420.0 240.0,419.9 241.0,419.9 242.0,419.9 243.0,419.9 244.0,419.9 245.0,419.9 246.0,419.9 247.0,419.9 248.0,419.8 249.0,419.8 250.0,419.8 251.0,419.8 252.0,419.7 253.0,419.7 254.0,419.7 255.0,419.6 256.0,419.6 257.0,419.5 258.0,419.5 259.0,419.4 260.0,419.3 261.0,419.3 262.0,419.2 263.0,419.1 264.0,419.0 265.0,418.9 266.0,418.7 267.0,418.6 268.0,418.5 269.0,418.3 270.0,418.1 271.0,417.9 272.0,417.7 273.0,417.5 274.0,417.2 275.0,416.9 276.0,416.6 277.0,416.3 278.0,415.9 279.0,415.6 280.0,415.1 281.0,414.7 282.0,414.2 283.0,413.7 284.0,413.1 285.0,412.5 286.0,411.9 287.0,411.2 288.0,410.5 289.0,409.7 290.0,408.8 291.0,407.9 292.0,407.0 293.0,406.0 294.0,404.9 295.0,403.7 296.0,402.5 297.0,401.3 298.0,399.9 299.0,398.5 300.0,397.0 301.0,395.4 302.0,393.8 303.0,392.0 304.0,390.2 305.0,388.3 306.0,386.4 307.0,384.3 308.0,382.2 309.0,379.9 310.0,377.6 311.0,375.2 312.0,372.7 313.0,370.2 314.0,367.5 315.0,364.8 316.0,362.0 317.0,359.1 318.0,356.2 319.0,353.2 320.0,350.1 321.0,347.0 322.0,343.8 323.0,340.5 324.0,337.3 325.0,333.9 326.0,330.6 327.0,327.2 328.0,323.8 329.0,320.3 330.0,316.9 331.0,313.5 332.0,310.0 333.0,306.6 334.0,303.2 335.0,299.9 336.0,296.6 337.0,293.3 338.0,290.1 339.0,286.9 340.0,283.9 341.0,280.9 342.0,278.0 343.0,275.2 344.0,272.5 345.0,270.0 346.0,267.5 347.0,265.2 348.0,263.1 349.0,261.1 350.0,259.2 351.0,257.5 352.0,255.9 353.0,254.6 354.0,253.4 355.0,252.3 356.0,251.5 357.0,250.8 358.0,250.4 359.0,250.1 360.0,250.0 361.0,250.1 362.0,250.4 363.0,250.8 364.0,251.5 365.0,252.3 366.0,253.4 367.0,254.6 368.0,255.9 369.0,257.5 370.0,259.2 371.0,261.1 372.0,263.1 373.0,265.2 374.0,267.5 375.0,270.0 376.0,272.5 377.0,275.2 378.0,278.0 379.0,280.9 380.0,283.9 381.0,286.9 382.0,290.1 383.0,293.3 384.0,296.6 385.0,299.9 386.0,303.2 387.0,306.6 388.0,310.0 389.0,313.5 390.0,316.9 391.0,320.3 392.0,323.8 393.0,327.2 394.0,330.6 395.0,333.9 396.0,337.3 397.0,340.5 398.0,343.8 399.0,347.0 400.0,350.1 401.0,353.2 402.0,356.2 403.0,359.1 404.0,362.0 405.0,364.8 406.0,367.5 407.0,370.2 408.0,372.7 409.0,375.2 410.0,377.6 411.0,379.9 412.0,382.2 413.0,384.3 414.0,386.4 415.0,388.3 416.0,390.2 417.0,392.0 418.0,393.8 419.0,395.4 420.0,397.0 421.0,398.5 422.0,399.9 423.0,401.3 424.0,402.5 425.0,403.7 426.0,404.9 427.0,406.0 428.0,407.0 429.0,407.9 430.0,408.8 431.0,409.7 432.0,410.5 433.0,411.2 434.0,411.9 435.0,412.5 436.0,413.1 437.0,413.7 438.0,414.2 439.0,414.7 440.0,415.1 441.0,415.6 442.0,415.9 443.0,416.3 444.0,416.6 445.0,416.9 446.0,417.2 447.0,417.5 448.0,417.7 449.0,417.9 450.0,418.1 451.0,418.3 452.0,418.5 453.0,418.6 454.0,418.7 455.0,418.9 456.0,419.0 457.0,419.1 458.0,419.2 459.0,419.3 460.0,419.3 461.0,419.4 462.0,419.5 463.0,419.5 464.0,419.6 465.0,419.6 466.0,419.7 467.0,419.7 468.0,419.7 469.0,419.8 470.0,419.8 471.0,419.8 472.0,419.8 473.0,419.9 474.0,419.9 475.0,419.9 476.0,419.9 477.0,419.9 478.0,419.9 479.0,419.9 480.0,419.9 481.0,420.0 482.0,420.0 483.0,420.0 484.0,420.0 485.0,420.0 486.0,420.0 487.0,420.0 488.0,420.0 489.0,420.0 490.0,420.0 491.0,420.0 492.0,420.0 493.0,420.0 494.0,420.0 495.0,420.0 496.0,420.0 497.0,420.0 498.0,420.0 499.0,420.0 500.0,420.0 501.0,420.0 502.0,420.0 503.0,420.0 504.0,420.0 505.0,420.0 506.0,420.0 507.0,420.0 508.0,420.0 509.0,420.0 510.0,420.0 511.0,420.0 512.0,420.0 513.0,420.0 514.0,420.0 515.0,420.0 516.0,420.0 517.0,420.0 518.0,420.0 519.0,420.0 520.0,420.0 521.0,420.0 522.0,420.0 523.0,420.0 524.0,420.0 525.0,420.0 526.0,420.0 527.0,420.0 528.0,420.0 529.0,420.0 530.0,420.0 531.0,420.0 532.0,420.0 533.0,420.0 534.0,420.0 535.0,420.0 536.0,420.0 537.0,420.0 538.0,420.0 539.0,420.0 540.0,420.0 541.0,420.0 542.0,420.0 543.0,420.0 544.0,420.0 545.0,420.0 546.0,420.0 547.0,420.0 548.0,420.0 549.0,420.0 550.0,420.0 551.0,420.0 552.0,420.0 553.0,420.0 554.0,420.0 555.0,420.0 556.0,420.0 557.0,420.0 558.0,420.0 559.0,420.0 560.0,420.0 561.0,420.0 562.0,420.0 563.0,420.0 564.0,420.0 565.0,420.0 566.0,420.0 567.0,420.0 568.0,420.0 569.0,420.0 570.0,420.0 571.0,420.0 572.0,420.0 573.0,420.0 574.0,420.0 575.0,420.0 576.0,420.0 577.0,420.0 578.0,420.0 579.0,420.0 580.0,420.0 581.0,420.0 582.0,420.0 583.0,420.0 584.0,420.0 585.0,420.0 586.0,420.0 587.0,420.0 588.0,420.0 589.0,420.0 590.0,420.0 591.0,420.0 592.0,420.0 593.0,420.0 594.0,420.0 595.0,420.0 596.0,420.0 597.0,420.0 598.0,420.0 599.0,420.0 600.0,420.0 601.0,420.0 602.0,420.0 603.0,420.0 604.0,420.0 605.0,420.0 606.0,420.0 607.0,420.0 608.0,420.0 609.0,420.0 610.0,420.0 611.0,420.0 612.0,420.0 613.0,420.0 614.0,420.0 615.0,420.0 616.0,420.0 617.0,420.0 618.0,420.0 619.0,420.0 620.0,420.0 621.0,420.0 622.0,420.0 623.0,420.0 624.0,420.0 625.0,420.0 626.0,420.0 627.0,420.0 628.0,420.0 629.0,420.0 630.0,420.0 631.0,420.0 632.0,420.0 633.0,420.0 634.0,420.0 635.0,420.0 636.0,420.0 637.0,420.0 638.0,420.0 639.0,420.0 640.0,420.0 641.0,420.0 642.0,420.0 643.0,420.0 644.0,420.0 645.0,420.0 646.0,420.0 647.0,420.0 648.0,420.0 649.0,420.0 650.0,420.0 651.0,420.0 652.0,420.0 653.0,420.0 654.0,420.0 655.0,420.0 656.0,420.0 657.0,420.0 658.0,420.0 659.0,420.0 660.0,420.0"/>

  <!-- Dashed center line bottom panel -->
  <line x1="360.0" y1="250" x2="360.0" y2="420" stroke="#2a1a0e" stroke-width="0.75" stroke-dasharray="4 3"/>

  <!-- Shared X-axis ticks -->
  <g font-family="'JetBrains Mono','Fira Code','Courier New',monospace" font-size="10" fill="#545454">
    <line x1="60"  y1="420" x2="60"  y2="427" stroke="#2a1a0e" stroke-width="0.75"/>
    <text x="60"  y="440" text-anchor="middle">0</text>
    <line x1="195" y1="420" x2="195" y2="427" stroke="#2a1a0e" stroke-width="0.75"/>
    <text x="195" y="440" text-anchor="middle">0.25</text>
    <line x1="360" y1="420" x2="360" y2="427" stroke="#2a1a0e" stroke-width="0.75"/>
    <text x="360" y="440" text-anchor="middle">0.5</text>
    <line x1="525" y1="420" x2="525" y2="427" stroke="#2a1a0e" stroke-width="0.75"/>
    <text x="525" y="440" text-anchor="middle">0.75</text>
    <line x1="660" y1="420" x2="660" y2="427" stroke="#2a1a0e" stroke-width="0.75"/>
    <text x="660" y="440" text-anchor="middle">1</text>
  </g>
  <text x="360" y="456" text-anchor="middle"
        font-family="'Inter',-apple-system,'Helvetica Neue',sans-serif" font-size="11" fill="#545454">
    N↑ / N
  </text>

  <!-- Panel labels -->
  <text x="75" y="56" font-family="'Inter',-apple-system,'Helvetica Neue',sans-serif" font-size="10" fill="#545454">exact binomial</text>
  <text x="75" y="272" font-family="'Inter',-apple-system,'Helvetica Neue',sans-serif" font-size="10" fill="#545454">Gaussian envelope  exp(−2s²/N)</text>

  <!-- Legend -->
  <g font-family="'Inter',-apple-system,'Helvetica Neue',sans-serif" font-size="11" fill="#545454">
    <rect x="65" y="225" width="14" height="10" fill="#C8860E" fill-opacity="0.65"/>
    <text x="83" y="234">N = 6</text>
    <rect x="155" y="225" width="14" height="10" fill="#2a1a0e" fill-opacity="0.55"/>
    <text x="173" y="234">N = 20</text>
    <rect x="255" y="225" width="14" height="10" fill="#C8102E" fill-opacity="0.50"/>
    <text x="273" y="234">N = 100</text>
  </g>

</svg>
