<!-- ============================================================
  Book:    Quantum Mechanics — Math for Quantum Physics
  Chapter: 18-trigonometry-waves-and-the-harmonic-model
  Figure:  02 — Double-slit fringe intensity pattern
  Source:  pantry/18-trigonometry-waves-and-the-harmonic-model-cajal.md
  Date:    2026-06-06
  Author:  Humanitarians AI Incorporated
  ============================================================ -->
<svg viewBox="0 0 700 420" xmlns="http://www.w3.org/2000/svg"
     role="img" aria-labelledby="fig-title-c18-02">
  <title id="fig-title-c18-02">Double-slit fringe intensity pattern I(theta) = cos^2(pi d sin(theta)/lambda)</title>
  <desc>Single-panel line plot of double-slit intensity I proportional to cos^2(pi*u) versus u = d*sin(theta)/lambda from -3 to +3. The primary wavelength lambda (solid ink) shows seven peaks at integer u values. An overlaid dashed red curve for half the wavelength (double momentum) shows twice as many fringes in the same angular range, illustrating that faster electrons produce finer interference fringes.</desc>
  <metadata>
    <cajal:figure xmlns:cajal="https://bearbrown.ai/cajal/1.0"
      book="Quantum Mechanics" book-slug="quantum-mechanics-vol5"
      chapter="18-trigonometry-waves-and-the-harmonic-model" figure-number="02"
      figure-title="Double-slit fringe intensity pattern"
      figure-slug="double-slit-fringe-pattern" figure-type="chart"
      priority="critical" author="Humanitarians AI Incorporated"
      date-generated="2026-06-06"
      source-file="pantry/18-trigonometry-waves-and-the-harmonic-model-cajal.md"/>
  </metadata>
  <rect width="700" height="420" fill="#FFFFFF"/>

  <text x="350" y="28" text-anchor="middle"
        font-family="'EB Garamond','Garamond',Georgia,serif" font-size="14" fill="#2a1a0e">
    Double-slit intensity  I(theta) = cos&#xB2;(pi d sin(theta) / lambda)
  </text>

  <rect x="80" y="50" width="560" height="300" fill="#F5F5F5" stroke="#D4D4D4" stroke-width="0.75"/>

  <line x1="80" y1="274.3" x2="640" y2="274.3" stroke="#D4D4D4" stroke-width="0.75"/>
<line x1="80" y1="204.2" x2="640" y2="204.2" stroke="#D4D4D4" stroke-width="0.75"/>
<line x1="80" y1="134.1" x2="640" y2="134.1" stroke="#D4D4D4" stroke-width="0.75"/>


  <!-- Zero reference -->
  <line x1="80" y1="344.4" x2="640" y2="344.4" stroke="#2a1a0e" stroke-width="0.75"/>

  <!-- Lambda/2 curve (red dashed) — draw first so primary is on top -->
  <polyline fill="none" stroke="#C8102E" stroke-width="1.5" stroke-dasharray="5 3"
    points="80.0,64.0 80.9,65.1 81.9,68.4 82.8,73.9 83.7,81.4 84.7,90.8 85.6,102.0 86.5,114.8 87.5,129.1 88.4,144.5 89.3,160.9 90.3,177.9 91.2,195.4 92.1,213.0 93.1,230.5 94.0,247.5 94.9,263.9 95.9,279.3 96.8,293.6 97.7,306.4 98.7,317.6 99.6,327.1 100.5,334.5 101.5,340.0 102.4,343.3 103.3,344.4 104.3,343.3 105.2,340.0 106.1,334.5 107.1,327.1 108.0,317.6 108.9,306.4 109.9,293.6 110.8,279.3 111.7,263.9 112.7,247.5 113.6,230.5 114.5,213.0 115.5,195.4 116.4,177.9 117.3,160.9 118.3,144.5 119.2,129.1 120.1,114.8 121.1,102.0 122.0,90.8 122.9,81.4 123.9,73.9 124.8,68.4 125.7,65.1 126.7,64.0 127.6,65.1 128.5,68.4 129.5,73.9 130.4,81.4 131.3,90.8 132.3,102.0 133.2,114.8 134.1,129.1 135.1,144.5 136.0,160.9 136.9,177.9 137.9,195.4 138.8,213.0 139.7,230.5 140.7,247.5 141.6,263.9 142.5,279.3 143.5,293.6 144.4,306.4 145.3,317.6 146.3,327.1 147.2,334.5 148.1,340.0 149.1,343.3 150.0,344.4 150.9,343.3 151.9,340.0 152.8,334.5 153.7,327.1 154.7,317.6 155.6,306.4 156.5,293.6 157.5,279.3 158.4,263.9 159.3,247.5 160.3,230.5 161.2,213.0 162.1,195.4 163.1,177.9 164.0,160.9 164.9,144.5 165.9,129.1 166.8,114.8 167.7,102.0 168.7,90.8 169.6,81.4 170.5,73.9 171.5,68.4 172.4,65.1 173.3,64.0 174.3,65.1 175.2,68.4 176.1,73.9 177.1,81.4 178.0,90.8 178.9,102.0 179.9,114.8 180.8,129.1 181.7,144.5 182.7,160.9 183.6,177.9 184.5,195.4 185.5,213.0 186.4,230.5 187.3,247.5 188.3,263.9 189.2,279.3 190.1,293.6 191.1,306.4 192.0,317.6 192.9,327.1 193.9,334.5 194.8,340.0 195.7,343.3 196.7,344.4 197.6,343.3 198.5,340.0 199.5,334.5 200.4,327.1 201.3,317.6 202.3,306.4 203.2,293.6 204.1,279.3 205.1,263.9 206.0,247.5 206.9,230.5 207.9,213.0 208.8,195.4 209.7,177.9 210.7,160.9 211.6,144.5 212.5,129.1 213.5,114.8 214.4,102.0 215.3,90.8 216.3,81.4 217.2,73.9 218.1,68.4 219.1,65.1 220.0,64.0 220.9,65.1 221.9,68.4 222.8,73.9 223.7,81.4 224.7,90.8 225.6,102.0 226.5,114.8 227.5,129.1 228.4,144.5 229.3,160.9 230.3,177.9 231.2,195.4 232.1,213.0 233.1,230.5 234.0,247.5 234.9,263.9 235.9,279.3 236.8,293.6 237.7,306.4 238.7,317.6 239.6,327.1 240.5,334.5 241.5,340.0 242.4,343.3 243.3,344.4 244.3,343.3 245.2,340.0 246.1,334.5 247.1,327.1 248.0,317.6 248.9,306.4 249.9,293.6 250.8,279.3 251.7,263.9 252.7,247.5 253.6,230.5 254.5,213.0 255.5,195.4 256.4,177.9 257.3,160.9 258.3,144.5 259.2,129.1 260.1,114.8 261.1,102.0 262.0,90.8 262.9,81.4 263.9,73.9 264.8,68.4 265.7,65.1 266.7,64.0 267.6,65.1 268.5,68.4 269.5,73.9 270.4,81.4 271.3,90.8 272.3,102.0 273.2,114.8 274.1,129.1 275.1,144.5 276.0,160.9 276.9,177.9 277.9,195.4 278.8,213.0 279.7,230.5 280.7,247.5 281.6,263.9 282.5,279.3 283.5,293.6 284.4,306.4 285.3,317.6 286.3,327.1 287.2,334.5 288.1,340.0 289.1,343.3 290.0,344.4 290.9,343.3 291.9,340.0 292.8,334.5 293.7,327.1 294.7,317.6 295.6,306.4 296.5,293.6 297.5,279.3 298.4,263.9 299.3,247.5 300.3,230.5 301.2,213.0 302.1,195.4 303.1,177.9 304.0,160.9 304.9,144.5 305.9,129.1 306.8,114.8 307.7,102.0 308.7,90.8 309.6,81.4 310.5,73.9 311.5,68.4 312.4,65.1 313.3,64.0 314.3,65.1 315.2,68.4 316.1,73.9 317.1,81.4 318.0,90.8 318.9,102.0 319.9,114.8 320.8,129.1 321.7,144.5 322.7,160.9 323.6,177.9 324.5,195.4 325.5,213.0 326.4,230.5 327.3,247.5 328.3,263.9 329.2,279.3 330.1,293.6 331.1,306.4 332.0,317.6 332.9,327.1 333.9,334.5 334.8,340.0 335.7,343.3 336.7,344.4 337.6,343.3 338.5,340.0 339.5,334.5 340.4,327.1 341.3,317.6 342.3,306.4 343.2,293.6 344.1,279.3 345.1,263.9 346.0,247.5 346.9,230.5 347.9,213.0 348.8,195.4 349.7,177.9 350.7,160.9 351.6,144.5 352.5,129.1 353.5,114.8 354.4,102.0 355.3,90.8 356.3,81.4 357.2,73.9 358.1,68.4 359.1,65.1 360.0,64.0 360.9,65.1 361.9,68.4 362.8,73.9 363.7,81.4 364.7,90.8 365.6,102.0 366.5,114.8 367.5,129.1 368.4,144.5 369.3,160.9 370.3,177.9 371.2,195.4 372.1,213.0 373.1,230.5 374.0,247.5 374.9,263.9 375.9,279.3 376.8,293.6 377.7,306.4 378.7,317.6 379.6,327.1 380.5,334.5 381.5,340.0 382.4,343.3 383.3,344.4 384.3,343.3 385.2,340.0 386.1,334.5 387.1,327.1 388.0,317.6 388.9,306.4 389.9,293.6 390.8,279.3 391.7,263.9 392.7,247.5 393.6,230.5 394.5,213.0 395.5,195.4 396.4,177.9 397.3,160.9 398.3,144.5 399.2,129.1 400.1,114.8 401.1,102.0 402.0,90.8 402.9,81.4 403.9,73.9 404.8,68.4 405.7,65.1 406.7,64.0 407.6,65.1 408.5,68.4 409.5,73.9 410.4,81.4 411.3,90.8 412.3,102.0 413.2,114.8 414.1,129.1 415.1,144.5 416.0,160.9 416.9,177.9 417.9,195.4 418.8,213.0 419.7,230.5 420.7,247.5 421.6,263.9 422.5,279.3 423.5,293.6 424.4,306.4 425.3,317.6 426.3,327.1 427.2,334.5 428.1,340.0 429.1,343.3 430.0,344.4 430.9,343.3 431.9,340.0 432.8,334.5 433.7,327.1 434.7,317.6 435.6,306.4 436.5,293.6 437.5,279.3 438.4,263.9 439.3,247.5 440.3,230.5 441.2,213.0 442.1,195.4 443.1,177.9 444.0,160.9 444.9,144.5 445.9,129.1 446.8,114.8 447.7,102.0 448.7,90.8 449.6,81.4 450.5,73.9 451.5,68.4 452.4,65.1 453.3,64.0 454.3,65.1 455.2,68.4 456.1,73.9 457.1,81.4 458.0,90.8 458.9,102.0 459.9,114.8 460.8,129.1 461.7,144.5 462.7,160.9 463.6,177.9 464.5,195.4 465.5,213.0 466.4,230.5 467.3,247.5 468.3,263.9 469.2,279.3 470.1,293.6 471.1,306.4 472.0,317.6 472.9,327.1 473.9,334.5 474.8,340.0 475.7,343.3 476.7,344.4 477.6,343.3 478.5,340.0 479.5,334.5 480.4,327.1 481.3,317.6 482.3,306.4 483.2,293.6 484.1,279.3 485.1,263.9 486.0,247.5 486.9,230.5 487.9,213.0 488.8,195.4 489.7,177.9 490.7,160.9 491.6,144.5 492.5,129.1 493.5,114.8 494.4,102.0 495.3,90.8 496.3,81.4 497.2,73.9 498.1,68.4 499.1,65.1 500.0,64.0 500.9,65.1 501.9,68.4 502.8,73.9 503.7,81.4 504.7,90.8 505.6,102.0 506.5,114.8 507.5,129.1 508.4,144.5 509.3,160.9 510.3,177.9 511.2,195.4 512.1,213.0 513.1,230.5 514.0,247.5 514.9,263.9 515.9,279.3 516.8,293.6 517.7,306.4 518.7,317.6 519.6,327.1 520.5,334.5 521.5,340.0 522.4,343.3 523.3,344.4 524.3,343.3 525.2,340.0 526.1,334.5 527.1,327.1 528.0,317.6 528.9,306.4 529.9,293.6 530.8,279.3 531.7,263.9 532.7,247.5 533.6,230.5 534.5,213.0 535.5,195.4 536.4,177.9 537.3,160.9 538.3,144.5 539.2,129.1 540.1,114.8 541.1,102.0 542.0,90.8 542.9,81.4 543.9,73.9 544.8,68.4 545.7,65.1 546.7,64.0 547.6,65.1 548.5,68.4 549.5,73.9 550.4,81.4 551.3,90.8 552.3,102.0 553.2,114.8 554.1,129.1 555.1,144.5 556.0,160.9 556.9,177.9 557.9,195.4 558.8,213.0 559.7,230.5 560.7,247.5 561.6,263.9 562.5,279.3 563.5,293.6 564.4,306.4 565.3,317.6 566.3,327.1 567.2,334.5 568.1,340.0 569.1,343.3 570.0,344.4 570.9,343.3 571.9,340.0 572.8,334.5 573.7,327.1 574.7,317.6 575.6,306.4 576.5,293.6 577.5,279.3 578.4,263.9 579.3,247.5 580.3,230.5 581.2,213.0 582.1,195.4 583.1,177.9 584.0,160.9 584.9,144.5 585.9,129.1 586.8,114.8 587.7,102.0 588.7,90.8 589.6,81.4 590.5,73.9 591.5,68.4 592.4,65.1 593.3,64.0 594.3,65.1 595.2,68.4 596.1,73.9 597.1,81.4 598.0,90.8 598.9,102.0 599.9,114.8 600.8,129.1 601.7,144.5 602.7,160.9 603.6,177.9 604.5,195.4 605.5,213.0 606.4,230.5 607.3,247.5 608.3,263.9 609.2,279.3 610.1,293.6 611.1,306.4 612.0,317.6 612.9,327.1 613.9,334.5 614.8,340.0 615.7,343.3 616.7,344.4 617.6,343.3 618.5,340.0 619.5,334.5 620.4,327.1 621.3,317.6 622.3,306.4 623.2,293.6 624.1,279.3 625.1,263.9 626.0,247.5 626.9,230.5 627.9,213.0 628.8,195.4 629.7,177.9 630.7,160.9 631.6,144.5 632.5,129.1 633.5,114.8 634.4,102.0 635.3,90.8 636.3,81.4 637.2,73.9 638.1,68.4 639.1,65.1 640.0,64.0"/>

  <!-- Primary lambda curve (ink solid) -->
  <polyline fill="none" stroke="#2a1a0e" stroke-width="2"
    points="80.0,64.0 80.9,64.3 81.9,65.1 82.8,66.5 83.7,68.4 84.7,70.9 85.6,73.9 86.5,77.4 87.5,81.4 88.4,85.8 89.3,90.8 90.3,96.2 91.2,102.0 92.1,108.2 93.1,114.8 94.0,121.8 94.9,129.1 95.9,136.7 96.8,144.5 97.7,152.6 98.7,160.9 99.6,169.3 100.5,177.9 101.5,186.6 102.4,195.4 103.3,204.2 104.3,213.0 105.2,221.8 106.1,230.5 107.1,239.1 108.0,247.5 108.9,255.8 109.9,263.9 110.8,271.7 111.7,279.3 112.7,286.6 113.6,293.6 114.5,300.2 115.5,306.4 116.4,312.2 117.3,317.6 118.3,322.6 119.2,327.1 120.1,331.1 121.1,334.5 122.0,337.5 122.9,340.0 123.9,341.9 124.8,343.3 125.7,344.1 126.7,344.4 127.6,344.1 128.5,343.3 129.5,341.9 130.4,340.0 131.3,337.5 132.3,334.5 133.2,331.1 134.1,327.1 135.1,322.6 136.0,317.6 136.9,312.2 137.9,306.4 138.8,300.2 139.7,293.6 140.7,286.6 141.6,279.3 142.5,271.7 143.5,263.9 144.4,255.8 145.3,247.5 146.3,239.1 147.2,230.5 148.1,221.8 149.1,213.0 150.0,204.2 150.9,195.4 151.9,186.6 152.8,177.9 153.7,169.3 154.7,160.9 155.6,152.6 156.5,144.5 157.5,136.7 158.4,129.1 159.3,121.8 160.3,114.8 161.2,108.2 162.1,102.0 163.1,96.2 164.0,90.8 164.9,85.8 165.9,81.4 166.8,77.4 167.7,73.9 168.7,70.9 169.6,68.4 170.5,66.5 171.5,65.1 172.4,64.3 173.3,64.0 174.3,64.3 175.2,65.1 176.1,66.5 177.1,68.4 178.0,70.9 178.9,73.9 179.9,77.4 180.8,81.4 181.7,85.8 182.7,90.8 183.6,96.2 184.5,102.0 185.5,108.2 186.4,114.8 187.3,121.8 188.3,129.1 189.2,136.7 190.1,144.5 191.1,152.6 192.0,160.9 192.9,169.3 193.9,177.9 194.8,186.6 195.7,195.4 196.7,204.2 197.6,213.0 198.5,221.8 199.5,230.5 200.4,239.1 201.3,247.5 202.3,255.8 203.2,263.9 204.1,271.7 205.1,279.3 206.0,286.6 206.9,293.6 207.9,300.2 208.8,306.4 209.7,312.2 210.7,317.6 211.6,322.6 212.5,327.1 213.5,331.1 214.4,334.5 215.3,337.5 216.3,340.0 217.2,341.9 218.1,343.3 219.1,344.1 220.0,344.4 220.9,344.1 221.9,343.3 222.8,341.9 223.7,340.0 224.7,337.5 225.6,334.5 226.5,331.1 227.5,327.1 228.4,322.6 229.3,317.6 230.3,312.2 231.2,306.4 232.1,300.2 233.1,293.6 234.0,286.6 234.9,279.3 235.9,271.7 236.8,263.9 237.7,255.8 238.7,247.5 239.6,239.1 240.5,230.5 241.5,221.8 242.4,213.0 243.3,204.2 244.3,195.4 245.2,186.6 246.1,177.9 247.1,169.3 248.0,160.9 248.9,152.6 249.9,144.5 250.8,136.7 251.7,129.1 252.7,121.8 253.6,114.8 254.5,108.2 255.5,102.0 256.4,96.2 257.3,90.8 258.3,85.8 259.2,81.4 260.1,77.4 261.1,73.9 262.0,70.9 262.9,68.4 263.9,66.5 264.8,65.1 265.7,64.3 266.7,64.0 267.6,64.3 268.5,65.1 269.5,66.5 270.4,68.4 271.3,70.9 272.3,73.9 273.2,77.4 274.1,81.4 275.1,85.8 276.0,90.8 276.9,96.2 277.9,102.0 278.8,108.2 279.7,114.8 280.7,121.8 281.6,129.1 282.5,136.7 283.5,144.5 284.4,152.6 285.3,160.9 286.3,169.3 287.2,177.9 288.1,186.6 289.1,195.4 290.0,204.2 290.9,213.0 291.9,221.8 292.8,230.5 293.7,239.1 294.7,247.5 295.6,255.8 296.5,263.9 297.5,271.7 298.4,279.3 299.3,286.6 300.3,293.6 301.2,300.2 302.1,306.4 303.1,312.2 304.0,317.6 304.9,322.6 305.9,327.1 306.8,331.1 307.7,334.5 308.7,337.5 309.6,340.0 310.5,341.9 311.5,343.3 312.4,344.1 313.3,344.4 314.3,344.1 315.2,343.3 316.1,341.9 317.1,340.0 318.0,337.5 318.9,334.5 319.9,331.1 320.8,327.1 321.7,322.6 322.7,317.6 323.6,312.2 324.5,306.4 325.5,300.2 326.4,293.6 327.3,286.6 328.3,279.3 329.2,271.7 330.1,263.9 331.1,255.8 332.0,247.5 332.9,239.1 333.9,230.5 334.8,221.8 335.7,213.0 336.7,204.2 337.6,195.4 338.5,186.6 339.5,177.9 340.4,169.3 341.3,160.9 342.3,152.6 343.2,144.5 344.1,136.7 345.1,129.1 346.0,121.8 346.9,114.8 347.9,108.2 348.8,102.0 349.7,96.2 350.7,90.8 351.6,85.8 352.5,81.4 353.5,77.4 354.4,73.9 355.3,70.9 356.3,68.4 357.2,66.5 358.1,65.1 359.1,64.3 360.0,64.0 360.9,64.3 361.9,65.1 362.8,66.5 363.7,68.4 364.7,70.9 365.6,73.9 366.5,77.4 367.5,81.4 368.4,85.8 369.3,90.8 370.3,96.2 371.2,102.0 372.1,108.2 373.1,114.8 374.0,121.8 374.9,129.1 375.9,136.7 376.8,144.5 377.7,152.6 378.7,160.9 379.6,169.3 380.5,177.9 381.5,186.6 382.4,195.4 383.3,204.2 384.3,213.0 385.2,221.8 386.1,230.5 387.1,239.1 388.0,247.5 388.9,255.8 389.9,263.9 390.8,271.7 391.7,279.3 392.7,286.6 393.6,293.6 394.5,300.2 395.5,306.4 396.4,312.2 397.3,317.6 398.3,322.6 399.2,327.1 400.1,331.1 401.1,334.5 402.0,337.5 402.9,340.0 403.9,341.9 404.8,343.3 405.7,344.1 406.7,344.4 407.6,344.1 408.5,343.3 409.5,341.9 410.4,340.0 411.3,337.5 412.3,334.5 413.2,331.1 414.1,327.1 415.1,322.6 416.0,317.6 416.9,312.2 417.9,306.4 418.8,300.2 419.7,293.6 420.7,286.6 421.6,279.3 422.5,271.7 423.5,263.9 424.4,255.8 425.3,247.5 426.3,239.1 427.2,230.5 428.1,221.8 429.1,213.0 430.0,204.2 430.9,195.4 431.9,186.6 432.8,177.9 433.7,169.3 434.7,160.9 435.6,152.6 436.5,144.5 437.5,136.7 438.4,129.1 439.3,121.8 440.3,114.8 441.2,108.2 442.1,102.0 443.1,96.2 444.0,90.8 444.9,85.8 445.9,81.4 446.8,77.4 447.7,73.9 448.7,70.9 449.6,68.4 450.5,66.5 451.5,65.1 452.4,64.3 453.3,64.0 454.3,64.3 455.2,65.1 456.1,66.5 457.1,68.4 458.0,70.9 458.9,73.9 459.9,77.4 460.8,81.4 461.7,85.8 462.7,90.8 463.6,96.2 464.5,102.0 465.5,108.2 466.4,114.8 467.3,121.8 468.3,129.1 469.2,136.7 470.1,144.5 471.1,152.6 472.0,160.9 472.9,169.3 473.9,177.9 474.8,186.6 475.7,195.4 476.7,204.2 477.6,213.0 478.5,221.8 479.5,230.5 480.4,239.1 481.3,247.5 482.3,255.8 483.2,263.9 484.1,271.7 485.1,279.3 486.0,286.6 486.9,293.6 487.9,300.2 488.8,306.4 489.7,312.2 490.7,317.6 491.6,322.6 492.5,327.1 493.5,331.1 494.4,334.5 495.3,337.5 496.3,340.0 497.2,341.9 498.1,343.3 499.1,344.1 500.0,344.4 500.9,344.1 501.9,343.3 502.8,341.9 503.7,340.0 504.7,337.5 505.6,334.5 506.5,331.1 507.5,327.1 508.4,322.6 509.3,317.6 510.3,312.2 511.2,306.4 512.1,300.2 513.1,293.6 514.0,286.6 514.9,279.3 515.9,271.7 516.8,263.9 517.7,255.8 518.7,247.5 519.6,239.1 520.5,230.5 521.5,221.8 522.4,213.0 523.3,204.2 524.3,195.4 525.2,186.6 526.1,177.9 527.1,169.3 528.0,160.9 528.9,152.6 529.9,144.5 530.8,136.7 531.7,129.1 532.7,121.8 533.6,114.8 534.5,108.2 535.5,102.0 536.4,96.2 537.3,90.8 538.3,85.8 539.2,81.4 540.1,77.4 541.1,73.9 542.0,70.9 542.9,68.4 543.9,66.5 544.8,65.1 545.7,64.3 546.7,64.0 547.6,64.3 548.5,65.1 549.5,66.5 550.4,68.4 551.3,70.9 552.3,73.9 553.2,77.4 554.1,81.4 555.1,85.8 556.0,90.8 556.9,96.2 557.9,102.0 558.8,108.2 559.7,114.8 560.7,121.8 561.6,129.1 562.5,136.7 563.5,144.5 564.4,152.6 565.3,160.9 566.3,169.3 567.2,177.9 568.1,186.6 569.1,195.4 570.0,204.2 570.9,213.0 571.9,221.8 572.8,230.5 573.7,239.1 574.7,247.5 575.6,255.8 576.5,263.9 577.5,271.7 578.4,279.3 579.3,286.6 580.3,293.6 581.2,300.2 582.1,306.4 583.1,312.2 584.0,317.6 584.9,322.6 585.9,327.1 586.8,331.1 587.7,334.5 588.7,337.5 589.6,340.0 590.5,341.9 591.5,343.3 592.4,344.1 593.3,344.4 594.3,344.1 595.2,343.3 596.1,341.9 597.1,340.0 598.0,337.5 598.9,334.5 599.9,331.1 600.8,327.1 601.7,322.6 602.7,317.6 603.6,312.2 604.5,306.4 605.5,300.2 606.4,293.6 607.3,286.6 608.3,279.3 609.2,271.7 610.1,263.9 611.1,255.8 612.0,247.5 612.9,239.1 613.9,230.5 614.8,221.8 615.7,213.0 616.7,204.2 617.6,195.4 618.5,186.6 619.5,177.9 620.4,169.3 621.3,160.9 622.3,152.6 623.2,144.5 624.1,136.7 625.1,129.1 626.0,121.8 626.9,114.8 627.9,108.2 628.8,102.0 629.7,96.2 630.7,90.8 631.6,85.8 632.5,81.4 633.5,77.4 634.4,73.9 635.3,70.9 636.3,68.4 637.2,66.5 638.1,65.1 639.1,64.3 640.0,64.0"/>

  <!-- Y-axis ticks -->
  <line x1="75" y1="344.4" x2="80" y2="344.4" stroke="#2a1a0e" stroke-width="0.75"/>
<text x="72" y="348.4" text-anchor="end" font-family="'JetBrains Mono','Fira Code','Courier New',monospace" font-size="11" fill="#545454">0</text>
<line x1="75" y1="274.3" x2="80" y2="274.3" stroke="#2a1a0e" stroke-width="0.75"/>
<text x="72" y="278.3" text-anchor="end" font-family="'JetBrains Mono','Fira Code','Courier New',monospace" font-size="11" fill="#545454">0.25</text>
<line x1="75" y1="204.2" x2="80" y2="204.2" stroke="#2a1a0e" stroke-width="0.75"/>
<text x="72" y="208.2" text-anchor="end" font-family="'JetBrains Mono','Fira Code','Courier New',monospace" font-size="11" fill="#545454">0.5</text>
<line x1="75" y1="134.1" x2="80" y2="134.1" stroke="#2a1a0e" stroke-width="0.75"/>
<text x="72" y="138.1" text-anchor="end" font-family="'JetBrains Mono','Fira Code','Courier New',monospace" font-size="11" fill="#545454">0.75</text>
<line x1="75" y1="64.0" x2="80" y2="64.0" stroke="#2a1a0e" stroke-width="0.75"/>
<text x="72" y="68.0" text-anchor="end" font-family="'JetBrains Mono','Fira Code','Courier New',monospace" font-size="11" fill="#545454">1.0</text>

  <text x="22" y="205" text-anchor="middle" transform="rotate(-90,22,205)"
        font-family="'Inter',-apple-system,'Helvetica Neue',sans-serif" font-size="11" fill="#545454">
    intensity I / I_max
  </text>

  <!-- X-axis ticks -->
  <g font-family="'JetBrains Mono','Fira Code','Courier New',monospace" font-size="11" fill="#545454">
    <line x1="80.0" y1="350" x2="80.0" y2="355" stroke="#2a1a0e" stroke-width="0.75"/><text x="80.0" y="368" text-anchor="middle">-3</text><line x1="173.3" y1="350" x2="173.3" y2="355" stroke="#2a1a0e" stroke-width="0.75"/><text x="173.3" y="368" text-anchor="middle">-2</text><line x1="266.7" y1="350" x2="266.7" y2="355" stroke="#2a1a0e" stroke-width="0.75"/><text x="266.7" y="368" text-anchor="middle">-1</text><line x1="360.0" y1="350" x2="360.0" y2="355" stroke="#2a1a0e" stroke-width="0.75"/><text x="360.0" y="368" text-anchor="middle">0</text><line x1="453.3" y1="350" x2="453.3" y2="355" stroke="#2a1a0e" stroke-width="0.75"/><text x="453.3" y="368" text-anchor="middle">1</text><line x1="546.7" y1="350" x2="546.7" y2="355" stroke="#2a1a0e" stroke-width="0.75"/><text x="546.7" y="368" text-anchor="middle">2</text><line x1="640.0" y1="350" x2="640.0" y2="355" stroke="#2a1a0e" stroke-width="0.75"/><text x="640.0" y="368" text-anchor="middle">3</text>
  </g>
  <text x="360" y="384" text-anchor="middle"
        font-family="'Inter',-apple-system,'Helvetica Neue',sans-serif" font-size="11" fill="#545454">
    d sin(theta) / lambda  (fringe order)
  </text>

  <!-- Fringe-spacing annotation -->
  <line x1="360.0" y1="58" x2="453.3" y2="58" stroke="#2a1a0e" stroke-width="0.75"/>
  <line x1="360.0" y1="54" x2="360.0" y2="62" stroke="#2a1a0e" stroke-width="0.75"/>
  <line x1="453.3" y1="54" x2="453.3" y2="62" stroke="#2a1a0e" stroke-width="0.75"/>
  <text x="406.7" y="50" text-anchor="middle"
        font-family="'Inter',-apple-system,'Helvetica Neue',sans-serif" font-size="10" fill="#2a1a0e">fringe spacing</text>

  <!-- Legend -->
  <g font-family="'Inter',-apple-system,'Helvetica Neue',sans-serif" font-size="11" fill="#545454">
    <line x1="90" y1="400" x2="120" y2="400" stroke="#2a1a0e" stroke-width="2"/>
    <text x="124" y="404">lambda (primary)</text>
    <line x1="270" y1="400" x2="300" y2="400" stroke="#C8102E" stroke-width="1.5" stroke-dasharray="5 3"/>
    <text x="304" y="404">lambda/2  (2x momentum → 2x fringe density)</text>
  </g>

</svg>
