<!-- ============================================================
  Book:    Quantum Mechanics — Math for Quantum Physics
  Chapter: 18-trigonometry-waves-and-the-harmonic-model
  Figure:  03 — Group velocity vs phase velocity: carrier and envelope
  Source:  pantry/18-trigonometry-waves-and-the-harmonic-model-cajal.md
  Date:    2026-06-06
  Author:  Humanitarians AI Incorporated
  ============================================================ -->
<svg viewBox="0 0 700 440" xmlns="http://www.w3.org/2000/svg"
     role="img" aria-labelledby="fig-title-c18-03">
  <title id="fig-title-c18-03">Group velocity versus phase velocity: carrier wave and beat envelope at two times</title>
  <desc>Two stacked snapshots of a matter-wave packet showing the fast carrier wave cos(kx) (ink, fine oscillations) and its slow beat envelope |cos(dk/2 * x)| (red, broad shape). Between the top panel at t=0 and the bottom panel at later time, the envelope peak (group velocity arrow, longer) has advanced twice as far as the carrier phase pattern (phase velocity arrow, shorter), with a vertical dashed reference line at the initial envelope peak position making the differential displacement explicit. For de Broglie matter waves v_g = 2*v_ph = v_particle.</desc>
  <metadata>
    <cajal:figure xmlns:cajal="https://bearbrown.ai/cajal/1.0"
      book="Quantum Mechanics" book-slug="quantum-mechanics-vol5"
      chapter="18-trigonometry-waves-and-the-harmonic-model" figure-number="03"
      figure-title="Group velocity vs phase velocity: carrier and envelope"
      figure-slug="group-vs-phase-velocity" figure-type="diagram"
      priority="important" author="Humanitarians AI Incorporated"
      date-generated="2026-06-06"
      source-file="pantry/18-trigonometry-waves-and-the-harmonic-model-cajal.md"/>
  </metadata>
  <defs>
    <marker id="arw18a" markerWidth="8" markerHeight="6" refX="7" refY="3" orient="auto">
      <polygon points="0 0,8 3,0 6" fill="#2a1a0e"/></marker>
    <marker id="arw18b" markerWidth="8" markerHeight="6" refX="7" refY="3" orient="auto">
      <polygon points="0 0,8 3,0 6" fill="#C8102E"/></marker>
  </defs>
  <rect width="700" height="440" fill="#FFFFFF"/>

  <text x="350" y="24" text-anchor="middle"
        font-family="'EB Garamond','Garamond',Georgia,serif" font-size="14" fill="#2a1a0e">
    Group velocity  v&#x1D454; = 2v&#x209A;&#x2095;  for de Broglie matter wave  (omega = hbar k&#xB2;/2m)
  </text>

  <!-- TOP PANEL: t = 0 -->
  <rect x="60" y="40" width="600" height="150" fill="#F5F5F5" stroke="#D4D4D4" stroke-width="0.75"/>
  <text x="68" y="56" font-family="'JetBrains Mono','Fira Code','Courier New',monospace" font-size="11" fill="#545454">t = 0</text>

  <!-- Zero line top -->
  <line x1="60" y1="115.0" x2="660" y2="115.0" stroke="#D4D4D4" stroke-width="0.75"/>

  <!-- Carrier wave top (ink, fine) -->
  <polyline fill="none" stroke="#2a1a0e" stroke-width="0.8" points="60.0,46.8 60.8,50.2 61.5,59.8 62.2,74.9 63.0,93.9 63.8,115.0 64.5,136.1 65.2,155.1 66.0,170.2 66.8,179.8 67.5,183.2 68.2,179.8 69.0,170.2 69.8,155.1 70.5,136.1 71.2,115.0 72.0,93.9 72.8,74.9 73.5,59.8 74.2,50.2 75.0,46.8 75.8,50.2 76.5,59.8 77.2,74.9 78.0,93.9 78.8,115.0 79.5,136.1 80.2,155.1 81.0,170.2 81.8,179.8 82.5,183.2 83.2,179.8 84.0,170.2 84.8,155.1 85.5,136.1 86.2,115.0 87.0,93.9 87.8,74.9 88.5,59.8 89.2,50.2 90.0,46.8 90.8,50.2 91.5,59.8 92.2,74.9 93.0,93.9 93.8,115.0 94.5,136.1 95.2,155.1 96.0,170.2 96.8,179.8 97.5,183.2 98.2,179.8 99.0,170.2 99.8,155.1 100.5,136.1 101.2,115.0 102.0,93.9 102.8,74.9 103.5,59.8 104.2,50.2 105.0,46.8 105.8,50.2 106.5,59.8 107.2,74.9 108.0,93.9 108.8,115.0 109.5,136.1 110.2,155.1 111.0,170.2 111.8,179.8 112.5,183.2 113.2,179.8 114.0,170.2 114.8,155.1 115.5,136.1 116.2,115.0 117.0,93.9 117.8,74.9 118.5,59.8 119.2,50.2 120.0,46.8 120.8,50.2 121.5,59.8 122.2,74.9 123.0,93.9 123.8,115.0 124.5,136.1 125.2,155.1 126.0,170.2 126.8,179.8 127.5,183.2 128.2,179.8 129.0,170.2 129.8,155.1 130.5,136.1 131.2,115.0 132.0,93.9 132.8,74.9 133.5,59.8 134.2,50.2 135.0,46.8 135.8,50.2 136.5,59.8 137.2,74.9 138.0,93.9 138.8,115.0 139.5,136.1 140.2,155.1 141.0,170.2 141.8,179.8 142.5,183.2 143.2,179.8 144.0,170.2 144.8,155.1 145.5,136.1 146.2,115.0 147.0,93.9 147.8,74.9 148.5,59.8 149.2,50.2 150.0,46.8 150.8,50.2 151.5,59.8 152.2,74.9 153.0,93.9 153.8,115.0 154.5,136.1 155.2,155.1 156.0,170.2 156.8,179.8 157.5,183.2 158.2,179.8 159.0,170.2 159.8,155.1 160.5,136.1 161.2,115.0 162.0,93.9 162.8,74.9 163.5,59.8 164.2,50.2 165.0,46.8 165.8,50.2 166.5,59.8 167.2,74.9 168.0,93.9 168.8,115.0 169.5,136.1 170.2,155.1 171.0,170.2 171.8,179.8 172.5,183.2 173.2,179.8 174.0,170.2 174.8,155.1 175.5,136.1 176.2,115.0 177.0,93.9 177.8,74.9 178.5,59.8 179.2,50.2 180.0,46.8 180.8,50.2 181.5,59.8 182.2,74.9 183.0,93.9 183.7,115.0 184.5,136.1 185.2,155.1 186.0,170.2 186.8,179.8 187.5,183.2 188.2,179.8 189.0,170.2 189.7,155.1 190.5,136.1 191.2,115.0 192.0,93.9 192.8,74.9 193.5,59.8 194.2,50.2 195.0,46.8 195.8,50.2 196.5,59.8 197.2,74.9 198.0,93.9 198.8,115.0 199.5,136.1 200.2,155.1 201.0,170.2 201.8,179.8 202.5,183.2 203.2,179.8 204.0,170.2 204.8,155.1 205.5,136.1 206.2,115.0 207.0,93.9 207.8,74.9 208.5,59.8 209.2,50.2 210.0,46.8 210.7,50.2 211.5,59.8 212.3,74.9 213.0,93.9 213.8,115.0 214.5,136.1 215.2,155.1 216.0,170.2 216.8,179.8 217.5,183.2 218.2,179.8 219.0,170.2 219.8,155.1 220.5,136.1 221.2,115.0 222.0,93.9 222.8,74.9 223.5,59.8 224.2,50.2 225.0,46.8 225.8,50.2 226.5,59.8 227.2,74.9 228.0,93.9 228.8,115.0 229.5,136.1 230.2,155.1 231.0,170.2 231.7,179.8 232.5,183.2 233.2,179.8 234.0,170.2 234.8,155.1 235.5,136.1 236.2,115.0 237.0,93.9 237.8,74.9 238.5,59.8 239.2,50.2 240.0,46.8 240.8,50.2 241.5,59.8 242.2,74.9 243.0,93.9 243.8,115.0 244.5,136.1 245.2,155.1 246.0,170.2 246.7,179.8 247.5,183.2 248.3,179.8 249.0,170.2 249.8,155.1 250.5,136.1 251.3,115.0 252.0,93.9 252.8,74.9 253.5,59.8 254.2,50.2 255.0,46.8 255.8,50.2 256.5,59.8 257.2,74.9 258.0,93.9 258.8,115.0 259.5,136.1 260.2,155.1 261.0,170.2 261.8,179.8 262.5,183.2 263.2,179.8 264.0,170.2 264.8,155.1 265.5,136.1 266.2,115.0 267.0,93.9 267.8,74.9 268.5,59.8 269.2,50.2 270.0,46.8 270.8,50.2 271.5,59.8 272.2,74.9 273.0,93.9 273.8,115.0 274.5,136.1 275.2,155.1 276.0,170.2 276.8,179.8 277.5,183.2 278.2,179.8 279.0,170.2 279.8,155.1 280.5,136.1 281.2,115.0 282.0,93.9 282.8,74.9 283.5,59.8 284.2,50.2 285.0,46.8 285.8,50.2 286.5,59.8 287.2,74.9 288.0,93.9 288.8,115.0 289.5,136.1 290.2,155.1 291.0,170.2 291.8,179.8 292.5,183.2 293.2,179.8 294.0,170.2 294.8,155.1 295.5,136.1 296.2,115.0 297.0,93.9 297.8,74.9 298.5,59.8 299.2,50.2 300.0,46.8 300.8,50.2 301.5,59.8 302.2,74.9 303.0,93.9 303.8,115.0 304.5,136.1 305.2,155.1 306.0,170.2 306.8,179.8 307.5,183.2 308.2,179.8 309.0,170.2 309.8,155.1 310.5,136.1 311.2,115.0 312.0,93.9 312.8,74.9 313.5,59.8 314.2,50.2 315.0,46.8 315.7,50.2 316.5,59.8 317.3,74.9 318.0,93.9 318.8,115.0 319.5,136.1 320.2,155.1 321.0,170.2 321.8,179.8 322.5,183.2 323.2,179.8 324.0,170.2 324.8,155.1 325.5,136.1 326.2,115.0 327.0,93.9 327.7,74.9 328.5,59.8 329.2,50.2 330.0,46.8 330.8,50.2 331.5,59.8 332.2,74.9 333.0,93.9 333.8,115.0 334.5,136.1 335.2,155.1 336.0,170.2 336.8,179.8 337.5,183.2 338.2,179.8 339.0,170.2 339.8,155.1 340.5,136.1 341.2,115.0 342.0,93.9 342.7,74.9 343.5,59.8 344.2,50.2 345.0,46.8 345.8,50.2 346.5,59.8 347.2,74.9 348.0,93.9 348.8,115.0 349.5,136.1 350.2,155.1 351.0,170.2 351.8,179.8 352.5,183.2 353.2,179.8 354.0,170.2 354.8,155.1 355.5,136.1 356.2,115.0 357.0,93.9 357.8,74.9 358.5,59.8 359.2,50.2 360.0,46.8 360.8,50.2 361.5,59.8 362.2,74.9 363.0,93.9 363.8,115.0 364.5,136.1 365.2,155.1 366.0,170.2 366.8,179.8 367.5,183.2 368.2,179.8 369.0,170.2 369.8,155.1 370.5,136.1 371.2,115.0 372.0,93.9 372.8,74.9 373.5,59.8 374.3,50.2 375.0,46.8 375.8,50.2 376.5,59.8 377.2,74.9 378.0,93.9 378.8,115.0 379.5,136.1 380.3,155.1 381.0,170.2 381.8,179.8 382.5,183.2 383.2,179.8 384.0,170.2 384.8,155.1 385.5,136.1 386.3,115.0 387.0,93.9 387.8,74.9 388.5,59.8 389.2,50.2 390.0,46.8 390.8,50.2 391.5,59.8 392.2,74.9 393.0,93.9 393.7,115.0 394.5,136.1 395.2,155.1 396.0,170.2 396.8,179.8 397.5,183.2 398.3,179.8 399.0,170.2 399.8,155.1 400.5,136.1 401.3,115.0 402.0,93.9 402.8,74.9 403.5,59.8 404.2,50.2 405.0,46.8 405.8,50.2 406.5,59.8 407.2,74.9 408.0,93.9 408.7,115.0 409.5,136.1 410.2,155.1 411.0,170.2 411.7,179.8 412.5,183.2 413.3,179.8 414.0,170.2 414.8,155.1 415.5,136.1 416.2,115.0 417.0,93.9 417.8,74.9 418.5,59.8 419.2,50.2 420.0,46.8 420.7,50.2 421.5,59.8 422.2,74.9 423.0,93.9 423.8,115.0 424.5,136.1 425.2,155.1 426.0,170.2 426.8,179.8 427.5,183.2 428.2,179.8 429.0,170.2 429.8,155.1 430.5,136.1 431.2,115.0 432.0,93.9 432.8,74.9 433.5,59.8 434.2,50.2 435.0,46.8 435.8,50.2 436.5,59.8 437.2,74.9 438.0,93.9 438.8,115.0 439.5,136.1 440.2,155.1 441.0,170.2 441.8,179.8 442.5,183.2 443.2,179.8 444.0,170.2 444.8,155.1 445.5,136.1 446.2,115.0 447.0,93.9 447.8,74.9 448.5,59.8 449.3,50.2 450.0,46.8 450.8,50.2 451.5,59.8 452.3,74.9 453.0,93.9 453.8,115.0 454.5,136.1 455.3,155.1 456.0,170.2 456.8,179.8 457.5,183.2 458.2,179.8 459.0,170.2 459.8,155.1 460.5,136.1 461.3,115.0 462.0,93.9 462.8,74.9 463.5,59.8 464.3,50.2 465.0,46.8 465.8,50.2 466.5,59.8 467.3,74.9 468.0,93.9 468.8,115.0 469.5,136.1 470.2,155.1 471.0,170.2 471.8,179.8 472.5,183.2 473.2,179.8 474.0,170.2 474.8,155.1 475.5,136.1 476.3,115.0 477.0,93.9 477.8,74.9 478.5,59.8 479.3,50.2 480.0,46.8 480.8,50.2 481.5,59.8 482.3,74.9 483.0,93.9 483.8,115.0 484.5,136.1 485.2,155.1 486.0,170.2 486.8,179.8 487.5,183.2 488.2,179.8 489.0,170.2 489.7,155.1 490.5,136.1 491.2,115.0 492.0,93.9 492.8,74.9 493.5,59.8 494.3,50.2 495.0,46.8 495.8,50.2 496.5,59.8 497.2,74.9 498.0,93.9 498.8,115.0 499.5,136.1 500.2,155.1 501.0,170.2 501.8,179.8 502.5,183.2 503.2,179.8 504.0,170.2 504.8,155.1 505.5,136.1 506.2,115.0 507.0,93.9 507.8,74.9 508.5,59.8 509.2,50.2 510.0,46.8 510.8,50.2 511.5,59.8 512.2,74.9 513.0,93.9 513.8,115.0 514.5,136.1 515.2,155.1 516.0,170.2 516.8,179.8 517.5,183.2 518.2,179.8 519.0,170.2 519.8,155.1 520.5,136.1 521.2,115.0 522.0,93.9 522.8,74.9 523.5,59.8 524.2,50.2 525.0,46.8 525.8,50.2 526.5,59.8 527.2,74.9 528.0,93.9 528.8,115.0 529.5,136.1 530.2,155.1 531.0,170.2 531.8,179.8 532.5,183.2 533.2,179.8 534.0,170.2 534.8,155.1 535.5,136.1 536.2,115.0 537.0,93.9 537.8,74.9 538.5,59.8 539.2,50.2 540.0,46.8 540.8,50.2 541.5,59.8 542.2,74.9 543.0,93.9 543.8,115.0 544.5,136.1 545.2,155.1 546.0,170.2 546.8,179.8 547.5,183.2 548.2,179.8 549.0,170.2 549.8,155.1 550.5,136.1 551.2,115.0 552.0,93.9 552.8,74.9 553.5,59.8 554.2,50.2 555.0,46.8 555.8,50.2 556.5,59.8 557.2,74.9 558.0,93.9 558.8,115.0 559.5,136.1 560.2,155.1 561.0,170.2 561.8,179.8 562.5,183.2 563.2,179.8 564.0,170.2 564.8,155.1 565.5,136.1 566.2,115.0 567.0,93.9 567.8,74.9 568.5,59.8 569.2,50.2 570.0,46.8 570.8,50.2 571.5,59.8 572.2,74.9 573.0,93.9 573.7,115.0 574.5,136.1 575.2,155.1 576.0,170.2 576.7,179.8 577.5,183.2 578.2,179.8 579.0,170.2 579.8,155.1 580.5,136.1 581.2,115.0 582.0,93.9 582.8,74.9 583.5,59.8 584.2,50.2 585.0,46.8 585.8,50.2 586.5,59.8 587.2,74.9 588.0,93.9 588.8,115.0 589.5,136.1 590.2,155.1 591.0,170.2 591.8,179.8 592.5,183.2 593.2,179.8 594.0,170.2 594.8,155.1 595.5,136.1 596.3,115.0 597.0,93.9 597.8,74.9 598.5,59.8 599.2,50.2 600.0,46.8 600.7,50.2 601.5,59.8 602.2,74.9 603.0,93.9 603.7,115.0 604.5,136.1 605.2,155.1 606.0,170.2 606.8,179.8 607.5,183.2 608.2,179.8 609.0,170.2 609.8,155.1 610.5,136.1 611.2,115.0 612.0,93.9 612.8,74.9 613.5,59.8 614.2,50.2 615.0,46.8 615.8,50.2 616.5,59.8 617.2,74.9 618.0,93.9 618.8,115.0 619.5,136.1 620.2,155.1 621.0,170.2 621.8,179.8 622.5,183.2 623.2,179.8 624.0,170.2 624.8,155.1 625.5,136.1 626.2,115.0 627.0,93.9 627.8,74.9 628.5,59.8 629.2,50.2 630.0,46.8 630.8,50.2 631.5,59.8 632.3,74.9 633.0,93.9 633.8,115.0 634.5,136.1 635.2,155.1 636.0,170.2 636.8,179.8 637.5,183.2 638.2,179.8 639.0,170.2 639.8,155.1 640.5,136.1 641.2,115.0 642.0,93.9 642.8,74.9 643.5,59.8 644.2,50.2 645.0,46.8 645.8,50.2 646.5,59.8 647.2,74.9 648.0,93.9 648.8,115.0 649.5,136.1 650.2,155.1 651.0,170.2 651.8,179.8 652.5,183.2 653.2,179.8 654.0,170.2 654.8,155.1 655.5,136.1 656.2,115.0 657.0,93.9 657.8,74.9 658.5,59.8 659.2,50.2 660.0,46.8"/>

  <!-- Envelope top (red, bold) -->
  <polyline fill="none" stroke="#C8102E" stroke-width="2" points="60.0,46.8 60.8,46.8 61.5,46.8 62.2,46.8 63.0,46.9 63.8,46.9 64.5,46.9 65.2,46.9 66.0,47.0 66.8,47.0 67.5,47.0 68.2,47.1 69.0,47.1 69.8,47.2 70.5,47.2 71.2,47.3 72.0,47.4 72.8,47.4 73.5,47.5 74.2,47.6 75.0,47.7 75.8,47.7 76.5,47.8 77.2,47.9 78.0,48.0 78.8,48.1 79.5,48.2 80.2,48.3 81.0,48.5 81.8,48.6 82.5,48.7 83.2,48.8 84.0,49.0 84.8,49.1 85.5,49.2 86.2,49.4 87.0,49.5 87.8,49.7 88.5,49.8 89.2,50.0 90.0,50.2 90.8,50.3 91.5,50.5 92.2,50.7 93.0,50.8 93.8,51.0 94.5,51.2 95.2,51.4 96.0,51.6 96.8,51.8 97.5,52.0 98.2,52.2 99.0,52.4 99.8,52.6 100.5,52.9 101.2,53.1 102.0,53.3 102.8,53.5 103.5,53.8 104.2,54.0 105.0,54.2 105.8,54.5 106.5,54.7 107.2,55.0 108.0,55.3 108.8,55.5 109.5,55.8 110.2,56.0 111.0,56.3 111.8,56.6 112.5,56.9 113.2,57.1 114.0,57.4 114.8,57.7 115.5,58.0 116.2,58.3 117.0,58.6 117.8,58.9 118.5,59.2 119.2,59.5 120.0,59.8 120.8,60.2 121.5,60.5 122.2,60.8 123.0,61.1 123.8,61.5 124.5,61.8 125.2,62.1 126.0,62.5 126.8,62.8 127.5,63.2 128.2,63.5 129.0,63.9 129.8,64.2 130.5,64.6 131.2,64.9 132.0,65.3 132.8,65.7 133.5,66.0 134.2,66.4 135.0,66.8 135.8,67.2 136.5,67.6 137.2,67.9 138.0,68.3 138.8,68.7 139.5,69.1 140.2,69.5 141.0,69.9 141.8,70.3 142.5,70.7 143.2,71.1 144.0,71.5 144.8,72.0 145.5,72.4 146.2,72.8 147.0,73.2 147.8,73.6 148.5,74.1 149.2,74.5 150.0,74.9 150.8,75.4 151.5,75.8 152.2,76.2 153.0,76.7 153.8,77.1 154.5,77.6 155.2,78.0 156.0,78.5 156.8,78.9 157.5,79.4 158.2,79.8 159.0,80.3 159.8,80.8 160.5,81.2 161.2,81.7 162.0,82.2 162.8,82.6 163.5,83.1 164.2,83.6 165.0,84.0 165.8,84.5 166.5,85.0 167.2,85.5 168.0,86.0 168.8,86.5 169.5,86.9 170.2,87.4 171.0,87.9 171.8,88.4 172.5,88.9 173.2,89.4 174.0,89.9 174.8,90.4 175.5,90.9 176.2,91.4 177.0,91.9 177.8,92.4 178.5,92.9 179.2,93.4 180.0,93.9 180.8,94.4 181.5,95.0 182.2,95.5 183.0,96.0 183.7,96.5 184.5,97.0 185.2,97.5 186.0,98.0 186.8,98.6 187.5,99.1 188.2,99.6 189.0,100.1 189.7,100.6 190.5,101.2 191.2,101.7 192.0,102.2 192.8,102.8 193.5,103.3 194.2,103.8 195.0,104.3 195.8,104.9 196.5,105.4 197.2,105.9 198.0,106.5 198.8,107.0 199.5,107.5 200.2,108.1 201.0,108.6 201.8,109.1 202.5,109.7 203.2,110.2 204.0,110.7 204.8,111.3 205.5,111.8 206.2,112.3 207.0,112.9 207.8,113.4 208.5,113.9 209.2,114.5 210.0,115.0 210.7,114.5 211.5,113.9 212.3,113.4 213.0,112.9 213.8,112.3 214.5,111.8 215.2,111.3 216.0,110.7 216.8,110.2 217.5,109.7 218.2,109.1 219.0,108.6 219.8,108.1 220.5,107.5 221.2,107.0 222.0,106.5 222.8,105.9 223.5,105.4 224.2,104.9 225.0,104.3 225.8,103.8 226.5,103.3 227.2,102.8 228.0,102.2 228.8,101.7 229.5,101.2 230.2,100.6 231.0,100.1 231.7,99.6 232.5,99.1 233.2,98.6 234.0,98.0 234.8,97.5 235.5,97.0 236.2,96.5 237.0,96.0 237.8,95.5 238.5,95.0 239.2,94.4 240.0,93.9 240.8,93.4 241.5,92.9 242.2,92.4 243.0,91.9 243.8,91.4 244.5,90.9 245.2,90.4 246.0,89.9 246.7,89.4 247.5,88.9 248.3,88.4 249.0,87.9 249.8,87.4 250.5,86.9 251.3,86.5 252.0,86.0 252.8,85.5 253.5,85.0 254.2,84.5 255.0,84.0 255.8,83.6 256.5,83.1 257.2,82.6 258.0,82.2 258.8,81.7 259.5,81.2 260.2,80.8 261.0,80.3 261.8,79.8 262.5,79.4 263.2,78.9 264.0,78.5 264.8,78.0 265.5,77.6 266.2,77.1 267.0,76.7 267.8,76.2 268.5,75.8 269.2,75.4 270.0,74.9 270.8,74.5 271.5,74.1 272.2,73.6 273.0,73.2 273.8,72.8 274.5,72.4 275.2,72.0 276.0,71.5 276.8,71.1 277.5,70.7 278.2,70.3 279.0,69.9 279.8,69.5 280.5,69.1 281.2,68.7 282.0,68.3 282.8,67.9 283.5,67.6 284.2,67.2 285.0,66.8 285.8,66.4 286.5,66.0 287.2,65.7 288.0,65.3 288.8,64.9 289.5,64.6 290.2,64.2 291.0,63.9 291.8,63.5 292.5,63.2 293.2,62.8 294.0,62.5 294.8,62.1 295.5,61.8 296.2,61.5 297.0,61.1 297.8,60.8 298.5,60.5 299.2,60.2 300.0,59.8 300.8,59.5 301.5,59.2 302.2,58.9 303.0,58.6 303.8,58.3 304.5,58.0 305.2,57.7 306.0,57.4 306.8,57.1 307.5,56.9 308.2,56.6 309.0,56.3 309.8,56.0 310.5,55.8 311.2,55.5 312.0,55.3 312.8,55.0 313.5,54.7 314.2,54.5 315.0,54.2 315.7,54.0 316.5,53.8 317.3,53.5 318.0,53.3 318.8,53.1 319.5,52.9 320.2,52.6 321.0,52.4 321.8,52.2 322.5,52.0 323.2,51.8 324.0,51.6 324.8,51.4 325.5,51.2 326.2,51.0 327.0,50.8 327.7,50.7 328.5,50.5 329.2,50.3 330.0,50.2 330.8,50.0 331.5,49.8 332.2,49.7 333.0,49.5 333.8,49.4 334.5,49.2 335.2,49.1 336.0,49.0 336.8,48.8 337.5,48.7 338.2,48.6 339.0,48.5 339.8,48.3 340.5,48.2 341.2,48.1 342.0,48.0 342.7,47.9 343.5,47.8 344.2,47.7 345.0,47.7 345.8,47.6 346.5,47.5 347.2,47.4 348.0,47.4 348.8,47.3 349.5,47.2 350.2,47.2 351.0,47.1 351.8,47.1 352.5,47.0 353.2,47.0 354.0,47.0 354.8,46.9 355.5,46.9 356.2,46.9 357.0,46.9 357.8,46.8 358.5,46.8 359.2,46.8 360.0,46.8 360.8,46.8 361.5,46.8 362.2,46.8 363.0,46.9 363.8,46.9 364.5,46.9 365.2,46.9 366.0,47.0 366.8,47.0 367.5,47.0 368.2,47.1 369.0,47.1 369.8,47.2 370.5,47.2 371.2,47.3 372.0,47.4 372.8,47.4 373.5,47.5 374.3,47.6 375.0,47.7 375.8,47.7 376.5,47.8 377.2,47.9 378.0,48.0 378.8,48.1 379.5,48.2 380.3,48.3 381.0,48.5 381.8,48.6 382.5,48.7 383.2,48.8 384.0,49.0 384.8,49.1 385.5,49.2 386.3,49.4 387.0,49.5 387.8,49.7 388.5,49.8 389.2,50.0 390.0,50.2 390.8,50.3 391.5,50.5 392.2,50.7 393.0,50.8 393.7,51.0 394.5,51.2 395.2,51.4 396.0,51.6 396.8,51.8 397.5,52.0 398.3,52.2 399.0,52.4 399.8,52.6 400.5,52.9 401.3,53.1 402.0,53.3 402.8,53.5 403.5,53.8 404.2,54.0 405.0,54.2 405.8,54.5 406.5,54.7 407.2,55.0 408.0,55.3 408.7,55.5 409.5,55.8 410.2,56.0 411.0,56.3 411.7,56.6 412.5,56.9 413.3,57.1 414.0,57.4 414.8,57.7 415.5,58.0 416.2,58.3 417.0,58.6 417.8,58.9 418.5,59.2 419.2,59.5 420.0,59.8 420.7,60.2 421.5,60.5 422.2,60.8 423.0,61.1 423.8,61.5 424.5,61.8 425.2,62.1 426.0,62.5 426.8,62.8 427.5,63.2 428.2,63.5 429.0,63.9 429.8,64.2 430.5,64.6 431.2,64.9 432.0,65.3 432.8,65.7 433.5,66.0 434.2,66.4 435.0,66.8 435.8,67.2 436.5,67.6 437.2,67.9 438.0,68.3 438.8,68.7 439.5,69.1 440.2,69.5 441.0,69.9 441.8,70.3 442.5,70.7 443.2,71.1 444.0,71.5 444.8,72.0 445.5,72.4 446.2,72.8 447.0,73.2 447.8,73.6 448.5,74.1 449.3,74.5 450.0,74.9 450.8,75.4 451.5,75.8 452.3,76.2 453.0,76.7 453.8,77.1 454.5,77.6 455.3,78.0 456.0,78.5 456.8,78.9 457.5,79.4 458.2,79.8 459.0,80.3 459.8,80.8 460.5,81.2 461.3,81.7 462.0,82.2 462.8,82.6 463.5,83.1 464.3,83.6 465.0,84.0 465.8,84.5 466.5,85.0 467.3,85.5 468.0,86.0 468.8,86.5 469.5,86.9 470.2,87.4 471.0,87.9 471.8,88.4 472.5,88.9 473.2,89.4 474.0,89.9 474.8,90.4 475.5,90.9 476.3,91.4 477.0,91.9 477.8,92.4 478.5,92.9 479.3,93.4 480.0,93.9 480.8,94.4 481.5,95.0 482.3,95.5 483.0,96.0 483.8,96.5 484.5,97.0 485.2,97.5 486.0,98.0 486.8,98.6 487.5,99.1 488.2,99.6 489.0,100.1 489.7,100.6 490.5,101.2 491.2,101.7 492.0,102.2 492.8,102.8 493.5,103.3 494.3,103.8 495.0,104.3 495.8,104.9 496.5,105.4 497.2,105.9 498.0,106.5 498.8,107.0 499.5,107.5 500.2,108.1 501.0,108.6 501.8,109.1 502.5,109.7 503.2,110.2 504.0,110.7 504.8,111.3 505.5,111.8 506.2,112.3 507.0,112.9 507.8,113.4 508.5,113.9 509.2,114.5 510.0,115.0 510.8,114.5 511.5,113.9 512.2,113.4 513.0,112.9 513.8,112.3 514.5,111.8 515.2,111.3 516.0,110.7 516.8,110.2 517.5,109.7 518.2,109.1 519.0,108.6 519.8,108.1 520.5,107.5 521.2,107.0 522.0,106.5 522.8,105.9 523.5,105.4 524.2,104.9 525.0,104.3 525.8,103.8 526.5,103.3 527.2,102.8 528.0,102.2 528.8,101.7 529.5,101.2 530.2,100.6 531.0,100.1 531.8,99.6 532.5,99.1 533.2,98.6 534.0,98.0 534.8,97.5 535.5,97.0 536.2,96.5 537.0,96.0 537.8,95.5 538.5,95.0 539.2,94.4 540.0,93.9 540.8,93.4 541.5,92.9 542.2,92.4 543.0,91.9 543.8,91.4 544.5,90.9 545.2,90.4 546.0,89.9 546.8,89.4 547.5,88.9 548.2,88.4 549.0,87.9 549.8,87.4 550.5,86.9 551.2,86.5 552.0,86.0 552.8,85.5 553.5,85.0 554.2,84.5 555.0,84.0 555.8,83.6 556.5,83.1 557.2,82.6 558.0,82.2 558.8,81.7 559.5,81.2 560.2,80.8 561.0,80.3 561.8,79.8 562.5,79.4 563.2,78.9 564.0,78.5 564.8,78.0 565.5,77.6 566.2,77.1 567.0,76.7 567.8,76.2 568.5,75.8 569.2,75.4 570.0,74.9 570.8,74.5 571.5,74.1 572.2,73.6 573.0,73.2 573.7,72.8 574.5,72.4 575.2,72.0 576.0,71.5 576.7,71.1 577.5,70.7 578.2,70.3 579.0,69.9 579.8,69.5 580.5,69.1 581.2,68.7 582.0,68.3 582.8,67.9 583.5,67.6 584.2,67.2 585.0,66.8 585.8,66.4 586.5,66.0 587.2,65.7 588.0,65.3 588.8,64.9 589.5,64.6 590.2,64.2 591.0,63.9 591.8,63.5 592.5,63.2 593.2,62.8 594.0,62.5 594.8,62.1 595.5,61.8 596.3,61.5 597.0,61.1 597.8,60.8 598.5,60.5 599.2,60.2 600.0,59.8 600.7,59.5 601.5,59.2 602.2,58.9 603.0,58.6 603.7,58.3 604.5,58.0 605.2,57.7 606.0,57.4 606.8,57.1 607.5,56.9 608.2,56.6 609.0,56.3 609.8,56.0 610.5,55.8 611.2,55.5 612.0,55.3 612.8,55.0 613.5,54.7 614.2,54.5 615.0,54.2 615.8,54.0 616.5,53.8 617.2,53.5 618.0,53.3 618.8,53.1 619.5,52.9 620.2,52.6 621.0,52.4 621.8,52.2 622.5,52.0 623.2,51.8 624.0,51.6 624.8,51.4 625.5,51.2 626.2,51.0 627.0,50.8 627.8,50.7 628.5,50.5 629.2,50.3 630.0,50.2 630.8,50.0 631.5,49.8 632.3,49.7 633.0,49.5 633.8,49.4 634.5,49.2 635.2,49.1 636.0,49.0 636.8,48.8 637.5,48.7 638.2,48.6 639.0,48.5 639.8,48.3 640.5,48.2 641.2,48.1 642.0,48.0 642.8,47.9 643.5,47.8 644.2,47.7 645.0,47.7 645.8,47.6 646.5,47.5 647.2,47.4 648.0,47.4 648.8,47.3 649.5,47.2 650.2,47.2 651.0,47.1 651.8,47.1 652.5,47.0 653.2,47.0 654.0,47.0 654.8,46.9 655.5,46.9 656.2,46.9 657.0,46.9 657.8,46.8 658.5,46.8 659.2,46.8 660.0,46.8"/>
  <polyline fill="none" stroke="#C8102E" stroke-width="2" points="60.0,183.2 60.8,183.2 61.5,183.2 62.2,183.2 63.0,183.1 63.8,183.1 64.5,183.1 65.2,183.1 66.0,183.0 66.8,183.0 67.5,183.0 68.2,182.9 69.0,182.9 69.8,182.8 70.5,182.8 71.2,182.7 72.0,182.6 72.8,182.6 73.5,182.5 74.2,182.4 75.0,182.3 75.8,182.3 76.5,182.2 77.2,182.1 78.0,182.0 78.8,181.9 79.5,181.8 80.2,181.7 81.0,181.5 81.8,181.4 82.5,181.3 83.2,181.2 84.0,181.0 84.8,180.9 85.5,180.8 86.2,180.6 87.0,180.5 87.8,180.3 88.5,180.2 89.2,180.0 90.0,179.8 90.8,179.7 91.5,179.5 92.2,179.3 93.0,179.2 93.8,179.0 94.5,178.8 95.2,178.6 96.0,178.4 96.8,178.2 97.5,178.0 98.2,177.8 99.0,177.6 99.8,177.4 100.5,177.1 101.2,176.9 102.0,176.7 102.8,176.5 103.5,176.2 104.2,176.0 105.0,175.8 105.8,175.5 106.5,175.3 107.2,175.0 108.0,174.7 108.8,174.5 109.5,174.2 110.2,174.0 111.0,173.7 111.8,173.4 112.5,173.1 113.2,172.9 114.0,172.6 114.8,172.3 115.5,172.0 116.2,171.7 117.0,171.4 117.8,171.1 118.5,170.8 119.2,170.5 120.0,170.2 120.8,169.8 121.5,169.5 122.2,169.2 123.0,168.9 123.8,168.5 124.5,168.2 125.2,167.9 126.0,167.5 126.8,167.2 127.5,166.8 128.2,166.5 129.0,166.1 129.8,165.8 130.5,165.4 131.2,165.1 132.0,164.7 132.8,164.3 133.5,164.0 134.2,163.6 135.0,163.2 135.8,162.8 136.5,162.4 137.2,162.1 138.0,161.7 138.8,161.3 139.5,160.9 140.2,160.5 141.0,160.1 141.8,159.7 142.5,159.3 143.2,158.9 144.0,158.5 144.8,158.0 145.5,157.6 146.2,157.2 147.0,156.8 147.8,156.4 148.5,155.9 149.2,155.5 150.0,155.1 150.8,154.6 151.5,154.2 152.2,153.8 153.0,153.3 153.8,152.9 154.5,152.4 155.2,152.0 156.0,151.5 156.8,151.1 157.5,150.6 158.2,150.2 159.0,149.7 159.8,149.2 160.5,148.8 161.2,148.3 162.0,147.8 162.8,147.4 163.5,146.9 164.2,146.4 165.0,146.0 165.8,145.5 166.5,145.0 167.2,144.5 168.0,144.0 168.8,143.5 169.5,143.1 170.2,142.6 171.0,142.1 171.8,141.6 172.5,141.1 173.2,140.6 174.0,140.1 174.8,139.6 175.5,139.1 176.2,138.6 177.0,138.1 177.8,137.6 178.5,137.1 179.2,136.6 180.0,136.1 180.8,135.6 181.5,135.0 182.2,134.5 183.0,134.0 183.7,133.5 184.5,133.0 185.2,132.5 186.0,132.0 186.8,131.4 187.5,130.9 188.2,130.4 189.0,129.9 189.7,129.4 190.5,128.8 191.2,128.3 192.0,127.8 192.8,127.2 193.5,126.7 194.2,126.2 195.0,125.7 195.8,125.1 196.5,124.6 197.2,124.1 198.0,123.5 198.8,123.0 199.5,122.5 200.2,121.9 201.0,121.4 201.8,120.9 202.5,120.3 203.2,119.8 204.0,119.3 204.8,118.7 205.5,118.2 206.2,117.7 207.0,117.1 207.8,116.6 208.5,116.1 209.2,115.5 210.0,115.0 210.7,115.5 211.5,116.1 212.3,116.6 213.0,117.1 213.8,117.7 214.5,118.2 215.2,118.7 216.0,119.3 216.8,119.8 217.5,120.3 218.2,120.9 219.0,121.4 219.8,121.9 220.5,122.5 221.2,123.0 222.0,123.5 222.8,124.1 223.5,124.6 224.2,125.1 225.0,125.7 225.8,126.2 226.5,126.7 227.2,127.2 228.0,127.8 228.8,128.3 229.5,128.8 230.2,129.4 231.0,129.9 231.7,130.4 232.5,130.9 233.2,131.4 234.0,132.0 234.8,132.5 235.5,133.0 236.2,133.5 237.0,134.0 237.8,134.5 238.5,135.0 239.2,135.6 240.0,136.1 240.8,136.6 241.5,137.1 242.2,137.6 243.0,138.1 243.8,138.6 244.5,139.1 245.2,139.6 246.0,140.1 246.7,140.6 247.5,141.1 248.3,141.6 249.0,142.1 249.8,142.6 250.5,143.1 251.3,143.5 252.0,144.0 252.8,144.5 253.5,145.0 254.2,145.5 255.0,146.0 255.8,146.4 256.5,146.9 257.2,147.4 258.0,147.8 258.8,148.3 259.5,148.8 260.2,149.2 261.0,149.7 261.8,150.2 262.5,150.6 263.2,151.1 264.0,151.5 264.8,152.0 265.5,152.4 266.2,152.9 267.0,153.3 267.8,153.8 268.5,154.2 269.2,154.6 270.0,155.1 270.8,155.5 271.5,155.9 272.2,156.4 273.0,156.8 273.8,157.2 274.5,157.6 275.2,158.0 276.0,158.5 276.8,158.9 277.5,159.3 278.2,159.7 279.0,160.1 279.8,160.5 280.5,160.9 281.2,161.3 282.0,161.7 282.8,162.1 283.5,162.4 284.2,162.8 285.0,163.2 285.8,163.6 286.5,164.0 287.2,164.3 288.0,164.7 288.8,165.1 289.5,165.4 290.2,165.8 291.0,166.1 291.8,166.5 292.5,166.8 293.2,167.2 294.0,167.5 294.8,167.9 295.5,168.2 296.2,168.5 297.0,168.9 297.8,169.2 298.5,169.5 299.2,169.8 300.0,170.2 300.8,170.5 301.5,170.8 302.2,171.1 303.0,171.4 303.8,171.7 304.5,172.0 305.2,172.3 306.0,172.6 306.8,172.9 307.5,173.1 308.2,173.4 309.0,173.7 309.8,174.0 310.5,174.2 311.2,174.5 312.0,174.7 312.8,175.0 313.5,175.3 314.2,175.5 315.0,175.8 315.7,176.0 316.5,176.2 317.3,176.5 318.0,176.7 318.8,176.9 319.5,177.1 320.2,177.4 321.0,177.6 321.8,177.8 322.5,178.0 323.2,178.2 324.0,178.4 324.8,178.6 325.5,178.8 326.2,179.0 327.0,179.2 327.7,179.3 328.5,179.5 329.2,179.7 330.0,179.8 330.8,180.0 331.5,180.2 332.2,180.3 333.0,180.5 333.8,180.6 334.5,180.8 335.2,180.9 336.0,181.0 336.8,181.2 337.5,181.3 338.2,181.4 339.0,181.5 339.8,181.7 340.5,181.8 341.2,181.9 342.0,182.0 342.7,182.1 343.5,182.2 344.2,182.3 345.0,182.3 345.8,182.4 346.5,182.5 347.2,182.6 348.0,182.6 348.8,182.7 349.5,182.8 350.2,182.8 351.0,182.9 351.8,182.9 352.5,183.0 353.2,183.0 354.0,183.0 354.8,183.1 355.5,183.1 356.2,183.1 357.0,183.1 357.8,183.2 358.5,183.2 359.2,183.2 360.0,183.2 360.8,183.2 361.5,183.2 362.2,183.2 363.0,183.1 363.8,183.1 364.5,183.1 365.2,183.1 366.0,183.0 366.8,183.0 367.5,183.0 368.2,182.9 369.0,182.9 369.8,182.8 370.5,182.8 371.2,182.7 372.0,182.6 372.8,182.6 373.5,182.5 374.3,182.4 375.0,182.3 375.8,182.3 376.5,182.2 377.2,182.1 378.0,182.0 378.8,181.9 379.5,181.8 380.3,181.7 381.0,181.5 381.8,181.4 382.5,181.3 383.2,181.2 384.0,181.0 384.8,180.9 385.5,180.8 386.3,180.6 387.0,180.5 387.8,180.3 388.5,180.2 389.2,180.0 390.0,179.8 390.8,179.7 391.5,179.5 392.2,179.3 393.0,179.2 393.7,179.0 394.5,178.8 395.2,178.6 396.0,178.4 396.8,178.2 397.5,178.0 398.3,177.8 399.0,177.6 399.8,177.4 400.5,177.1 401.3,176.9 402.0,176.7 402.8,176.5 403.5,176.2 404.2,176.0 405.0,175.8 405.8,175.5 406.5,175.3 407.2,175.0 408.0,174.7 408.7,174.5 409.5,174.2 410.2,174.0 411.0,173.7 411.7,173.4 412.5,173.1 413.3,172.9 414.0,172.6 414.8,172.3 415.5,172.0 416.2,171.7 417.0,171.4 417.8,171.1 418.5,170.8 419.2,170.5 420.0,170.2 420.7,169.8 421.5,169.5 422.2,169.2 423.0,168.9 423.8,168.5 424.5,168.2 425.2,167.9 426.0,167.5 426.8,167.2 427.5,166.8 428.2,166.5 429.0,166.1 429.8,165.8 430.5,165.4 431.2,165.1 432.0,164.7 432.8,164.3 433.5,164.0 434.2,163.6 435.0,163.2 435.8,162.8 436.5,162.4 437.2,162.1 438.0,161.7 438.8,161.3 439.5,160.9 440.2,160.5 441.0,160.1 441.8,159.7 442.5,159.3 443.2,158.9 444.0,158.5 444.8,158.0 445.5,157.6 446.2,157.2 447.0,156.8 447.8,156.4 448.5,155.9 449.3,155.5 450.0,155.1 450.8,154.6 451.5,154.2 452.3,153.8 453.0,153.3 453.8,152.9 454.5,152.4 455.3,152.0 456.0,151.5 456.8,151.1 457.5,150.6 458.2,150.2 459.0,149.7 459.8,149.2 460.5,148.8 461.3,148.3 462.0,147.8 462.8,147.4 463.5,146.9 464.3,146.4 465.0,146.0 465.8,145.5 466.5,145.0 467.3,144.5 468.0,144.0 468.8,143.5 469.5,143.1 470.2,142.6 471.0,142.1 471.8,141.6 472.5,141.1 473.2,140.6 474.0,140.1 474.8,139.6 475.5,139.1 476.3,138.6 477.0,138.1 477.8,137.6 478.5,137.1 479.3,136.6 480.0,136.1 480.8,135.6 481.5,135.0 482.3,134.5 483.0,134.0 483.8,133.5 484.5,133.0 485.2,132.5 486.0,132.0 486.8,131.4 487.5,130.9 488.2,130.4 489.0,129.9 489.7,129.4 490.5,128.8 491.2,128.3 492.0,127.8 492.8,127.2 493.5,126.7 494.3,126.2 495.0,125.7 495.8,125.1 496.5,124.6 497.2,124.1 498.0,123.5 498.8,123.0 499.5,122.5 500.2,121.9 501.0,121.4 501.8,120.9 502.5,120.3 503.2,119.8 504.0,119.3 504.8,118.7 505.5,118.2 506.2,117.7 507.0,117.1 507.8,116.6 508.5,116.1 509.2,115.5 510.0,115.0 510.8,115.5 511.5,116.1 512.2,116.6 513.0,117.1 513.8,117.7 514.5,118.2 515.2,118.7 516.0,119.3 516.8,119.8 517.5,120.3 518.2,120.9 519.0,121.4 519.8,121.9 520.5,122.5 521.2,123.0 522.0,123.5 522.8,124.1 523.5,124.6 524.2,125.1 525.0,125.7 525.8,126.2 526.5,126.7 527.2,127.2 528.0,127.8 528.8,128.3 529.5,128.8 530.2,129.4 531.0,129.9 531.8,130.4 532.5,130.9 533.2,131.4 534.0,132.0 534.8,132.5 535.5,133.0 536.2,133.5 537.0,134.0 537.8,134.5 538.5,135.0 539.2,135.6 540.0,136.1 540.8,136.6 541.5,137.1 542.2,137.6 543.0,138.1 543.8,138.6 544.5,139.1 545.2,139.6 546.0,140.1 546.8,140.6 547.5,141.1 548.2,141.6 549.0,142.1 549.8,142.6 550.5,143.1 551.2,143.5 552.0,144.0 552.8,144.5 553.5,145.0 554.2,145.5 555.0,146.0 555.8,146.4 556.5,146.9 557.2,147.4 558.0,147.8 558.8,148.3 559.5,148.8 560.2,149.2 561.0,149.7 561.8,150.2 562.5,150.6 563.2,151.1 564.0,151.5 564.8,152.0 565.5,152.4 566.2,152.9 567.0,153.3 567.8,153.8 568.5,154.2 569.2,154.6 570.0,155.1 570.8,155.5 571.5,155.9 572.2,156.4 573.0,156.8 573.7,157.2 574.5,157.6 575.2,158.0 576.0,158.5 576.7,158.9 577.5,159.3 578.2,159.7 579.0,160.1 579.8,160.5 580.5,160.9 581.2,161.3 582.0,161.7 582.8,162.1 583.5,162.4 584.2,162.8 585.0,163.2 585.8,163.6 586.5,164.0 587.2,164.3 588.0,164.7 588.8,165.1 589.5,165.4 590.2,165.8 591.0,166.1 591.8,166.5 592.5,166.8 593.2,167.2 594.0,167.5 594.8,167.9 595.5,168.2 596.3,168.5 597.0,168.9 597.8,169.2 598.5,169.5 599.2,169.8 600.0,170.2 600.7,170.5 601.5,170.8 602.2,171.1 603.0,171.4 603.7,171.7 604.5,172.0 605.2,172.3 606.0,172.6 606.8,172.9 607.5,173.1 608.2,173.4 609.0,173.7 609.8,174.0 610.5,174.2 611.2,174.5 612.0,174.7 612.8,175.0 613.5,175.3 614.2,175.5 615.0,175.8 615.8,176.0 616.5,176.2 617.2,176.5 618.0,176.7 618.8,176.9 619.5,177.1 620.2,177.4 621.0,177.6 621.8,177.8 622.5,178.0 623.2,178.2 624.0,178.4 624.8,178.6 625.5,178.8 626.2,179.0 627.0,179.2 627.8,179.3 628.5,179.5 629.2,179.7 630.0,179.8 630.8,180.0 631.5,180.2 632.3,180.3 633.0,180.5 633.8,180.6 634.5,180.8 635.2,180.9 636.0,181.0 636.8,181.2 637.5,181.3 638.2,181.4 639.0,181.5 639.8,181.7 640.5,181.8 641.2,181.9 642.0,182.0 642.8,182.1 643.5,182.2 644.2,182.3 645.0,182.3 645.8,182.4 646.5,182.5 647.2,182.6 648.0,182.6 648.8,182.7 649.5,182.8 650.2,182.8 651.0,182.9 651.8,182.9 652.5,183.0 653.2,183.0 654.0,183.0 654.8,183.1 655.5,183.1 656.2,183.1 657.0,183.1 657.8,183.2 658.5,183.2 659.2,183.2 660.0,183.2"/>

  <!-- Phase-velocity arrow (ink, shorter) at y=yb0-20 -->
  <line x1="60.0" y1="172" x2="107.7" y2="172" stroke="#2a1a0e" stroke-width="1.5" marker-end="url(#arw18a)"/>
  <text x="83.9" y="168" text-anchor="middle" font-family="'Inter',-apple-system,'Helvetica Neue',sans-serif" font-size="9" fill="#2a1a0e">v&#x209A;&#x2095;</text>

  <!-- Group-velocity arrow (red, twice as long) at y=yt0+12 -->
  <line x1="60.0" y1="54" x2="155.5" y2="54" stroke="#C8102E" stroke-width="1.5" marker-end="url(#arw18b)"/>
  <text x="107.7" y="50" text-anchor="middle" font-family="'Inter',-apple-system,'Helvetica Neue',sans-serif" font-size="9" fill="#C8102E">v&#x1D454; = 2v&#x209A;&#x2095;</text>

  <!-- Reference dashed line at envelope peak t=0 -->
  <line x1="60.0" y1="35" x2="60.0" y2="395" stroke="#2a1a0e" stroke-width="0.75" stroke-dasharray="4 3"/>

  <!-- BOTTOM PANEL: t = dt -->
  <rect x="60" y="225" width="600" height="150" fill="#F5F5F5" stroke="#D4D4D4" stroke-width="0.75"/>
  <text x="68" y="241" font-family="'JetBrains Mono','Fira Code','Courier New',monospace" font-size="11" fill="#545454">t = &#x394;t</text>

  <!-- Zero line bottom -->
  <line x1="60" y1="300.0" x2="660" y2="300.0" stroke="#D4D4D4" stroke-width="0.75"/>

  <!-- Carrier wave bottom -->
  <polyline fill="none" stroke="#2a1a0e" stroke-width="0.8" points="60.0,272.2 60.8,254.3 61.5,240.9 62.2,233.3 63.0,232.2 63.8,237.8 64.5,249.4 65.2,266.0 66.0,285.9 66.8,307.2 67.5,327.8 68.2,345.7 69.0,359.1 69.8,366.7 70.5,367.8 71.2,362.2 72.0,350.6 72.8,334.0 73.5,314.1 74.2,292.8 75.0,272.2 75.8,254.3 76.5,240.9 77.2,233.3 78.0,232.2 78.8,237.8 79.5,249.4 80.2,266.0 81.0,285.9 81.8,307.2 82.5,327.8 83.2,345.7 84.0,359.1 84.8,366.7 85.5,367.8 86.2,362.2 87.0,350.6 87.8,334.0 88.5,314.1 89.2,292.8 90.0,272.2 90.8,254.3 91.5,240.9 92.2,233.3 93.0,232.2 93.8,237.8 94.5,249.4 95.2,266.0 96.0,285.9 96.8,307.2 97.5,327.8 98.2,345.7 99.0,359.1 99.8,366.7 100.5,367.8 101.2,362.2 102.0,350.6 102.8,334.0 103.5,314.1 104.2,292.8 105.0,272.2 105.8,254.3 106.5,240.9 107.2,233.3 108.0,232.2 108.8,237.8 109.5,249.4 110.2,266.0 111.0,285.9 111.8,307.2 112.5,327.8 113.2,345.7 114.0,359.1 114.8,366.7 115.5,367.8 116.2,362.2 117.0,350.6 117.8,334.0 118.5,314.1 119.2,292.8 120.0,272.2 120.8,254.3 121.5,240.9 122.2,233.3 123.0,232.2 123.8,237.8 124.5,249.4 125.2,266.0 126.0,285.9 126.8,307.2 127.5,327.8 128.2,345.7 129.0,359.1 129.8,366.7 130.5,367.8 131.2,362.2 132.0,350.6 132.8,334.0 133.5,314.1 134.2,292.8 135.0,272.2 135.8,254.3 136.5,240.9 137.2,233.3 138.0,232.2 138.8,237.8 139.5,249.4 140.2,266.0 141.0,285.9 141.8,307.2 142.5,327.8 143.2,345.7 144.0,359.1 144.8,366.7 145.5,367.8 146.2,362.2 147.0,350.6 147.8,334.0 148.5,314.1 149.2,292.8 150.0,272.2 150.8,254.3 151.5,240.9 152.2,233.3 153.0,232.2 153.8,237.8 154.5,249.4 155.2,266.0 156.0,285.9 156.8,307.2 157.5,327.8 158.2,345.7 159.0,359.1 159.8,366.7 160.5,367.8 161.2,362.2 162.0,350.6 162.8,334.0 163.5,314.1 164.2,292.8 165.0,272.2 165.8,254.3 166.5,240.9 167.2,233.3 168.0,232.2 168.8,237.8 169.5,249.4 170.2,266.0 171.0,285.9 171.8,307.2 172.5,327.8 173.2,345.7 174.0,359.1 174.8,366.7 175.5,367.8 176.2,362.2 177.0,350.6 177.8,334.0 178.5,314.1 179.2,292.8 180.0,272.2 180.8,254.3 181.5,240.9 182.2,233.3 183.0,232.2 183.7,237.8 184.5,249.4 185.2,266.0 186.0,285.9 186.8,307.2 187.5,327.8 188.2,345.7 189.0,359.1 189.7,366.7 190.5,367.8 191.2,362.2 192.0,350.6 192.8,334.0 193.5,314.1 194.2,292.8 195.0,272.2 195.8,254.3 196.5,240.9 197.2,233.3 198.0,232.2 198.8,237.8 199.5,249.4 200.2,266.0 201.0,285.9 201.8,307.2 202.5,327.8 203.2,345.7 204.0,359.1 204.8,366.7 205.5,367.8 206.2,362.2 207.0,350.6 207.8,334.0 208.5,314.1 209.2,292.8 210.0,272.2 210.7,254.3 211.5,240.9 212.3,233.3 213.0,232.2 213.8,237.8 214.5,249.4 215.2,266.0 216.0,285.9 216.8,307.2 217.5,327.8 218.2,345.7 219.0,359.1 219.8,366.7 220.5,367.8 221.2,362.2 222.0,350.6 222.8,334.0 223.5,314.1 224.2,292.8 225.0,272.2 225.8,254.3 226.5,240.9 227.2,233.3 228.0,232.2 228.8,237.8 229.5,249.4 230.2,266.0 231.0,285.9 231.7,307.2 232.5,327.8 233.2,345.7 234.0,359.1 234.8,366.7 235.5,367.8 236.2,362.2 237.0,350.6 237.8,334.0 238.5,314.1 239.2,292.8 240.0,272.2 240.8,254.3 241.5,240.9 242.2,233.3 243.0,232.2 243.8,237.8 244.5,249.4 245.2,266.0 246.0,285.9 246.7,307.2 247.5,327.8 248.3,345.7 249.0,359.1 249.8,366.7 250.5,367.8 251.3,362.2 252.0,350.6 252.8,334.0 253.5,314.1 254.2,292.8 255.0,272.2 255.8,254.3 256.5,240.9 257.2,233.3 258.0,232.2 258.8,237.8 259.5,249.4 260.2,266.0 261.0,285.9 261.8,307.2 262.5,327.8 263.2,345.7 264.0,359.1 264.8,366.7 265.5,367.8 266.2,362.2 267.0,350.6 267.8,334.0 268.5,314.1 269.2,292.8 270.0,272.2 270.8,254.3 271.5,240.9 272.2,233.3 273.0,232.2 273.8,237.8 274.5,249.4 275.2,266.0 276.0,285.9 276.8,307.2 277.5,327.8 278.2,345.7 279.0,359.1 279.8,366.7 280.5,367.8 281.2,362.2 282.0,350.6 282.8,334.0 283.5,314.1 284.2,292.8 285.0,272.2 285.8,254.3 286.5,240.9 287.2,233.3 288.0,232.2 288.8,237.8 289.5,249.4 290.2,266.0 291.0,285.9 291.8,307.2 292.5,327.8 293.2,345.7 294.0,359.1 294.8,366.7 295.5,367.8 296.2,362.2 297.0,350.6 297.8,334.0 298.5,314.1 299.2,292.8 300.0,272.2 300.8,254.3 301.5,240.9 302.2,233.3 303.0,232.2 303.8,237.8 304.5,249.4 305.2,266.0 306.0,285.9 306.8,307.2 307.5,327.8 308.2,345.7 309.0,359.1 309.8,366.7 310.5,367.8 311.2,362.2 312.0,350.6 312.8,334.0 313.5,314.1 314.2,292.8 315.0,272.2 315.7,254.3 316.5,240.9 317.3,233.3 318.0,232.2 318.8,237.8 319.5,249.4 320.2,266.0 321.0,285.9 321.8,307.2 322.5,327.8 323.2,345.7 324.0,359.1 324.8,366.7 325.5,367.8 326.2,362.2 327.0,350.6 327.7,334.0 328.5,314.1 329.2,292.8 330.0,272.2 330.8,254.3 331.5,240.9 332.2,233.3 333.0,232.2 333.8,237.8 334.5,249.4 335.2,266.0 336.0,285.9 336.8,307.2 337.5,327.8 338.2,345.7 339.0,359.1 339.8,366.7 340.5,367.8 341.2,362.2 342.0,350.6 342.7,334.0 343.5,314.1 344.2,292.8 345.0,272.2 345.8,254.3 346.5,240.9 347.2,233.3 348.0,232.2 348.8,237.8 349.5,249.4 350.2,266.0 351.0,285.9 351.8,307.2 352.5,327.8 353.2,345.7 354.0,359.1 354.8,366.7 355.5,367.8 356.2,362.2 357.0,350.6 357.8,334.0 358.5,314.1 359.2,292.8 360.0,272.2 360.8,254.3 361.5,240.9 362.2,233.3 363.0,232.2 363.8,237.8 364.5,249.4 365.2,266.0 366.0,285.9 366.8,307.2 367.5,327.8 368.2,345.7 369.0,359.1 369.8,366.7 370.5,367.8 371.2,362.2 372.0,350.6 372.8,334.0 373.5,314.1 374.3,292.8 375.0,272.2 375.8,254.3 376.5,240.9 377.2,233.3 378.0,232.2 378.8,237.8 379.5,249.4 380.3,266.0 381.0,285.9 381.8,307.2 382.5,327.8 383.2,345.7 384.0,359.1 384.8,366.7 385.5,367.8 386.3,362.2 387.0,350.6 387.8,334.0 388.5,314.1 389.2,292.8 390.0,272.2 390.8,254.3 391.5,240.9 392.2,233.3 393.0,232.2 393.7,237.8 394.5,249.4 395.2,266.0 396.0,285.9 396.8,307.2 397.5,327.8 398.3,345.7 399.0,359.1 399.8,366.7 400.5,367.8 401.3,362.2 402.0,350.6 402.8,334.0 403.5,314.1 404.2,292.8 405.0,272.2 405.8,254.3 406.5,240.9 407.2,233.3 408.0,232.2 408.7,237.8 409.5,249.4 410.2,266.0 411.0,285.9 411.7,307.2 412.5,327.8 413.3,345.7 414.0,359.1 414.8,366.7 415.5,367.8 416.2,362.2 417.0,350.6 417.8,334.0 418.5,314.1 419.2,292.8 420.0,272.2 420.7,254.3 421.5,240.9 422.2,233.3 423.0,232.2 423.8,237.8 424.5,249.4 425.2,266.0 426.0,285.9 426.8,307.2 427.5,327.8 428.2,345.7 429.0,359.1 429.8,366.7 430.5,367.8 431.2,362.2 432.0,350.6 432.8,334.0 433.5,314.1 434.2,292.8 435.0,272.2 435.8,254.3 436.5,240.9 437.2,233.3 438.0,232.2 438.8,237.8 439.5,249.4 440.2,266.0 441.0,285.9 441.8,307.2 442.5,327.8 443.2,345.7 444.0,359.1 444.8,366.7 445.5,367.8 446.2,362.2 447.0,350.6 447.8,334.0 448.5,314.1 449.3,292.8 450.0,272.2 450.8,254.3 451.5,240.9 452.3,233.3 453.0,232.2 453.8,237.8 454.5,249.4 455.3,266.0 456.0,285.9 456.8,307.2 457.5,327.8 458.2,345.7 459.0,359.1 459.8,366.7 460.5,367.8 461.3,362.2 462.0,350.6 462.8,334.0 463.5,314.1 464.3,292.8 465.0,272.2 465.8,254.3 466.5,240.9 467.3,233.3 468.0,232.2 468.8,237.8 469.5,249.4 470.2,266.0 471.0,285.9 471.8,307.2 472.5,327.8 473.2,345.7 474.0,359.1 474.8,366.7 475.5,367.8 476.3,362.2 477.0,350.6 477.8,334.0 478.5,314.1 479.3,292.8 480.0,272.2 480.8,254.3 481.5,240.9 482.3,233.3 483.0,232.2 483.8,237.8 484.5,249.4 485.2,266.0 486.0,285.9 486.8,307.2 487.5,327.8 488.2,345.7 489.0,359.1 489.7,366.7 490.5,367.8 491.2,362.2 492.0,350.6 492.8,334.0 493.5,314.1 494.3,292.8 495.0,272.2 495.8,254.3 496.5,240.9 497.2,233.3 498.0,232.2 498.8,237.8 499.5,249.4 500.2,266.0 501.0,285.9 501.8,307.2 502.5,327.8 503.2,345.7 504.0,359.1 504.8,366.7 505.5,367.8 506.2,362.2 507.0,350.6 507.8,334.0 508.5,314.1 509.2,292.8 510.0,272.2 510.8,254.3 511.5,240.9 512.2,233.3 513.0,232.2 513.8,237.8 514.5,249.4 515.2,266.0 516.0,285.9 516.8,307.2 517.5,327.8 518.2,345.7 519.0,359.1 519.8,366.7 520.5,367.8 521.2,362.2 522.0,350.6 522.8,334.0 523.5,314.1 524.2,292.8 525.0,272.2 525.8,254.3 526.5,240.9 527.2,233.3 528.0,232.2 528.8,237.8 529.5,249.4 530.2,266.0 531.0,285.9 531.8,307.2 532.5,327.8 533.2,345.7 534.0,359.1 534.8,366.7 535.5,367.8 536.2,362.2 537.0,350.6 537.8,334.0 538.5,314.1 539.2,292.8 540.0,272.2 540.8,254.3 541.5,240.9 542.2,233.3 543.0,232.2 543.8,237.8 544.5,249.4 545.2,266.0 546.0,285.9 546.8,307.2 547.5,327.8 548.2,345.7 549.0,359.1 549.8,366.7 550.5,367.8 551.2,362.2 552.0,350.6 552.8,334.0 553.5,314.1 554.2,292.8 555.0,272.2 555.8,254.3 556.5,240.9 557.2,233.3 558.0,232.2 558.8,237.8 559.5,249.4 560.2,266.0 561.0,285.9 561.8,307.2 562.5,327.8 563.2,345.7 564.0,359.1 564.8,366.7 565.5,367.8 566.2,362.2 567.0,350.6 567.8,334.0 568.5,314.1 569.2,292.8 570.0,272.2 570.8,254.3 571.5,240.9 572.2,233.3 573.0,232.2 573.7,237.8 574.5,249.4 575.2,266.0 576.0,285.9 576.7,307.2 577.5,327.8 578.2,345.7 579.0,359.1 579.8,366.7 580.5,367.8 581.2,362.2 582.0,350.6 582.8,334.0 583.5,314.1 584.2,292.8 585.0,272.2 585.8,254.3 586.5,240.9 587.2,233.3 588.0,232.2 588.8,237.8 589.5,249.4 590.2,266.0 591.0,285.9 591.8,307.2 592.5,327.8 593.2,345.7 594.0,359.1 594.8,366.7 595.5,367.8 596.3,362.2 597.0,350.6 597.8,334.0 598.5,314.1 599.2,292.8 600.0,272.2 600.7,254.3 601.5,240.9 602.2,233.3 603.0,232.2 603.7,237.8 604.5,249.4 605.2,266.0 606.0,285.9 606.8,307.2 607.5,327.8 608.2,345.7 609.0,359.1 609.8,366.7 610.5,367.8 611.2,362.2 612.0,350.6 612.8,334.0 613.5,314.1 614.2,292.8 615.0,272.2 615.8,254.3 616.5,240.9 617.2,233.3 618.0,232.2 618.8,237.8 619.5,249.4 620.2,266.0 621.0,285.9 621.8,307.2 622.5,327.8 623.2,345.7 624.0,359.1 624.8,366.7 625.5,367.8 626.2,362.2 627.0,350.6 627.8,334.0 628.5,314.1 629.2,292.8 630.0,272.2 630.8,254.3 631.5,240.9 632.3,233.3 633.0,232.2 633.8,237.8 634.5,249.4 635.2,266.0 636.0,285.9 636.8,307.2 637.5,327.8 638.2,345.7 639.0,359.1 639.8,366.7 640.5,367.8 641.2,362.2 642.0,350.6 642.8,334.0 643.5,314.1 644.2,292.8 645.0,272.2 645.8,254.3 646.5,240.9 647.2,233.3 648.0,232.2 648.8,237.8 649.5,249.4 650.2,266.0 651.0,285.9 651.8,307.2 652.5,327.8 653.2,345.7 654.0,359.1 654.8,366.7 655.5,367.8 656.2,362.2 657.0,350.6 657.8,334.0 658.5,314.1 659.2,292.8 660.0,272.2"/>

  <!-- Envelope bottom (red, bold) -->
  <polyline fill="none" stroke="#C8102E" stroke-width="2" points="60.0,263.2 60.8,262.7 61.5,262.3 62.2,261.8 63.0,261.4 63.8,260.9 64.5,260.5 65.2,260.1 66.0,259.6 66.8,259.2 67.5,258.8 68.2,258.3 69.0,257.9 69.8,257.5 70.5,257.1 71.2,256.7 72.0,256.3 72.8,255.9 73.5,255.4 74.2,255.0 75.0,254.6 75.8,254.2 76.5,253.8 77.2,253.5 78.0,253.1 78.8,252.7 79.5,252.3 80.2,251.9 81.0,251.5 81.8,251.2 82.5,250.8 83.2,250.4 84.0,250.1 84.8,249.7 85.5,249.3 86.2,249.0 87.0,248.6 87.8,248.3 88.5,247.9 89.2,247.6 90.0,247.2 90.8,246.9 91.5,246.6 92.2,246.2 93.0,245.9 93.8,245.6 94.5,245.3 95.2,244.9 96.0,244.6 96.8,244.3 97.5,244.0 98.2,243.7 99.0,243.4 99.8,243.1 100.5,242.8 101.2,242.5 102.0,242.2 102.8,242.0 103.5,241.7 104.2,241.4 105.0,241.1 105.8,240.9 106.5,240.6 107.2,240.3 108.0,240.1 108.8,239.8 109.5,239.6 110.2,239.3 111.0,239.1 111.8,238.8 112.5,238.6 113.2,238.4 114.0,238.2 114.8,237.9 115.5,237.7 116.2,237.5 117.0,237.3 117.8,237.1 118.5,236.9 119.2,236.7 120.0,236.5 120.8,236.3 121.5,236.1 122.2,235.9 123.0,235.7 123.8,235.6 124.5,235.4 125.2,235.2 126.0,235.0 126.8,234.9 127.5,234.7 128.2,234.6 129.0,234.4 129.8,234.3 130.5,234.1 131.2,234.0 132.0,233.9 132.8,233.7 133.5,233.6 134.2,233.5 135.0,233.4 135.8,233.3 136.5,233.2 137.2,233.1 138.0,233.0 138.8,232.9 139.5,232.8 140.2,232.7 141.0,232.6 141.8,232.5 142.5,232.4 143.2,232.4 144.0,232.3 144.8,232.2 145.5,232.2 146.2,232.1 147.0,232.1 147.8,232.0 148.5,232.0 149.2,232.0 150.0,231.9 150.8,231.9 151.5,231.9 152.2,231.9 153.0,231.8 153.8,231.8 154.5,231.8 155.2,231.8 156.0,231.8 156.8,231.8 157.5,231.8 158.2,231.8 159.0,231.9 159.8,231.9 160.5,231.9 161.2,231.9 162.0,232.0 162.8,232.0 163.5,232.1 164.2,232.1 165.0,232.2 165.8,232.2 166.5,232.3 167.2,232.3 168.0,232.4 168.8,232.5 169.5,232.6 170.2,232.6 171.0,232.7 171.8,232.8 172.5,232.9 173.2,233.0 174.0,233.1 174.8,233.2 175.5,233.3 176.2,233.4 177.0,233.5 177.8,233.7 178.5,233.8 179.2,233.9 180.0,234.1 180.8,234.2 181.5,234.3 182.2,234.5 183.0,234.6 183.7,234.8 184.5,234.9 185.2,235.1 186.0,235.3 186.8,235.4 187.5,235.6 188.2,235.8 189.0,236.0 189.7,236.2 190.5,236.3 191.2,236.5 192.0,236.7 192.8,236.9 193.5,237.1 194.2,237.4 195.0,237.6 195.8,237.8 196.5,238.0 197.2,238.2 198.0,238.5 198.8,238.7 199.5,238.9 200.2,239.2 201.0,239.4 201.8,239.7 202.5,239.9 203.2,240.2 204.0,240.4 204.8,240.7 205.5,241.0 206.2,241.2 207.0,241.5 207.8,241.8 208.5,242.1 209.2,242.3 210.0,242.6 210.7,242.9 211.5,243.2 212.3,243.5 213.0,243.8 213.8,244.1 214.5,244.4 215.2,244.7 216.0,245.1 216.8,245.4 217.5,245.7 218.2,246.0 219.0,246.3 219.8,246.7 220.5,247.0 221.2,247.4 222.0,247.7 222.8,248.0 223.5,248.4 224.2,248.7 225.0,249.1 225.8,249.5 226.5,249.8 227.2,250.2 228.0,250.5 228.8,250.9 229.5,251.3 230.2,251.7 231.0,252.0 231.7,252.4 232.5,252.8 233.2,253.2 234.0,253.6 234.8,254.0 235.5,254.4 236.2,254.8 237.0,255.2 237.8,255.6 238.5,256.0 239.2,256.4 240.0,256.8 240.8,257.2 241.5,257.7 242.2,258.1 243.0,258.5 243.8,258.9 244.5,259.4 245.2,259.8 246.0,260.2 246.7,260.7 247.5,261.1 248.3,261.5 249.0,262.0 249.8,262.4 250.5,262.9 251.3,263.3 252.0,263.8 252.8,264.2 253.5,264.7 254.2,265.1 255.0,265.6 255.8,266.1 256.5,266.5 257.2,267.0 258.0,267.5 258.8,267.9 259.5,268.4 260.2,268.9 261.0,269.4 261.8,269.8 262.5,270.3 263.2,270.8 264.0,271.3 264.8,271.8 265.5,272.3 266.2,272.8 267.0,273.3 267.8,273.7 268.5,274.2 269.2,274.7 270.0,275.2 270.8,275.7 271.5,276.2 272.2,276.7 273.0,277.2 273.8,277.8 274.5,278.3 275.2,278.8 276.0,279.3 276.8,279.8 277.5,280.3 278.2,280.8 279.0,281.3 279.8,281.8 280.5,282.4 281.2,282.9 282.0,283.4 282.8,283.9 283.5,284.4 284.2,285.0 285.0,285.5 285.8,286.0 286.5,286.5 287.2,287.1 288.0,287.6 288.8,288.1 289.5,288.6 290.2,289.2 291.0,289.7 291.8,290.2 292.5,290.8 293.2,291.3 294.0,291.8 294.8,292.3 295.5,292.9 296.2,293.4 297.0,293.9 297.8,294.5 298.5,295.0 299.2,295.5 300.0,296.1 300.8,296.6 301.5,297.1 302.2,297.7 303.0,298.2 303.8,298.8 304.5,299.3 305.2,299.8 306.0,299.6 306.8,299.1 307.5,298.6 308.2,298.0 309.0,297.5 309.8,297.0 310.5,296.4 311.2,295.9 312.0,295.4 312.8,294.8 313.5,294.3 314.2,293.8 315.0,293.2 315.7,292.7 316.5,292.2 317.3,291.6 318.0,291.1 318.8,290.6 319.5,290.0 320.2,289.5 321.0,289.0 321.8,288.4 322.5,287.9 323.2,287.4 324.0,286.9 324.8,286.3 325.5,285.8 326.2,285.3 327.0,284.8 327.7,284.3 328.5,283.7 329.2,283.2 330.0,282.7 330.8,282.2 331.5,281.7 332.2,281.1 333.0,280.6 333.8,280.1 334.5,279.6 335.2,279.1 336.0,278.6 336.8,278.1 337.5,277.6 338.2,277.1 339.0,276.6 339.8,276.1 340.5,275.6 341.2,275.1 342.0,274.6 342.7,274.1 343.5,273.6 344.2,273.1 345.0,272.6 345.8,272.1 346.5,271.6 347.2,271.1 348.0,270.6 348.8,270.2 349.5,269.7 350.2,269.2 351.0,268.7 351.8,268.2 352.5,267.8 353.2,267.3 354.0,266.8 354.8,266.4 355.5,265.9 356.2,265.4 357.0,265.0 357.8,264.5 358.5,264.1 359.2,263.6 360.0,263.2 360.8,262.7 361.5,262.3 362.2,261.8 363.0,261.4 363.8,260.9 364.5,260.5 365.2,260.1 366.0,259.6 366.8,259.2 367.5,258.8 368.2,258.3 369.0,257.9 369.8,257.5 370.5,257.1 371.2,256.7 372.0,256.3 372.8,255.9 373.5,255.4 374.3,255.0 375.0,254.6 375.8,254.2 376.5,253.8 377.2,253.5 378.0,253.1 378.8,252.7 379.5,252.3 380.3,251.9 381.0,251.5 381.8,251.2 382.5,250.8 383.2,250.4 384.0,250.1 384.8,249.7 385.5,249.3 386.3,249.0 387.0,248.6 387.8,248.3 388.5,247.9 389.2,247.6 390.0,247.2 390.8,246.9 391.5,246.6 392.2,246.2 393.0,245.9 393.7,245.6 394.5,245.3 395.2,244.9 396.0,244.6 396.8,244.3 397.5,244.0 398.3,243.7 399.0,243.4 399.8,243.1 400.5,242.8 401.3,242.5 402.0,242.2 402.8,242.0 403.5,241.7 404.2,241.4 405.0,241.1 405.8,240.9 406.5,240.6 407.2,240.3 408.0,240.1 408.7,239.8 409.5,239.6 410.2,239.3 411.0,239.1 411.7,238.8 412.5,238.6 413.3,238.4 414.0,238.2 414.8,237.9 415.5,237.7 416.2,237.5 417.0,237.3 417.8,237.1 418.5,236.9 419.2,236.7 420.0,236.5 420.7,236.3 421.5,236.1 422.2,235.9 423.0,235.7 423.8,235.6 424.5,235.4 425.2,235.2 426.0,235.0 426.8,234.9 427.5,234.7 428.2,234.6 429.0,234.4 429.8,234.3 430.5,234.1 431.2,234.0 432.0,233.9 432.8,233.7 433.5,233.6 434.2,233.5 435.0,233.4 435.8,233.3 436.5,233.2 437.2,233.1 438.0,233.0 438.8,232.9 439.5,232.8 440.2,232.7 441.0,232.6 441.8,232.5 442.5,232.4 443.2,232.4 444.0,232.3 444.8,232.2 445.5,232.2 446.2,232.1 447.0,232.1 447.8,232.0 448.5,232.0 449.3,232.0 450.0,231.9 450.8,231.9 451.5,231.9 452.3,231.9 453.0,231.8 453.8,231.8 454.5,231.8 455.3,231.8 456.0,231.8 456.8,231.8 457.5,231.8 458.2,231.8 459.0,231.9 459.8,231.9 460.5,231.9 461.3,231.9 462.0,232.0 462.8,232.0 463.5,232.1 464.3,232.1 465.0,232.2 465.8,232.2 466.5,232.3 467.3,232.3 468.0,232.4 468.8,232.5 469.5,232.6 470.2,232.6 471.0,232.7 471.8,232.8 472.5,232.9 473.2,233.0 474.0,233.1 474.8,233.2 475.5,233.3 476.3,233.4 477.0,233.5 477.8,233.7 478.5,233.8 479.3,233.9 480.0,234.1 480.8,234.2 481.5,234.3 482.3,234.5 483.0,234.6 483.8,234.8 484.5,234.9 485.2,235.1 486.0,235.3 486.8,235.4 487.5,235.6 488.2,235.8 489.0,236.0 489.7,236.2 490.5,236.3 491.2,236.5 492.0,236.7 492.8,236.9 493.5,237.1 494.3,237.4 495.0,237.6 495.8,237.8 496.5,238.0 497.2,238.2 498.0,238.5 498.8,238.7 499.5,238.9 500.2,239.2 501.0,239.4 501.8,239.7 502.5,239.9 503.2,240.2 504.0,240.4 504.8,240.7 505.5,241.0 506.2,241.2 507.0,241.5 507.8,241.8 508.5,242.1 509.2,242.3 510.0,242.6 510.8,242.9 511.5,243.2 512.2,243.5 513.0,243.8 513.8,244.1 514.5,244.4 515.2,244.7 516.0,245.1 516.8,245.4 517.5,245.7 518.2,246.0 519.0,246.3 519.8,246.7 520.5,247.0 521.2,247.4 522.0,247.7 522.8,248.0 523.5,248.4 524.2,248.7 525.0,249.1 525.8,249.5 526.5,249.8 527.2,250.2 528.0,250.5 528.8,250.9 529.5,251.3 530.2,251.7 531.0,252.0 531.8,252.4 532.5,252.8 533.2,253.2 534.0,253.6 534.8,254.0 535.5,254.4 536.2,254.8 537.0,255.2 537.8,255.6 538.5,256.0 539.2,256.4 540.0,256.8 540.8,257.2 541.5,257.7 542.2,258.1 543.0,258.5 543.8,258.9 544.5,259.4 545.2,259.8 546.0,260.2 546.8,260.7 547.5,261.1 548.2,261.5 549.0,262.0 549.8,262.4 550.5,262.9 551.2,263.3 552.0,263.8 552.8,264.2 553.5,264.7 554.2,265.1 555.0,265.6 555.8,266.1 556.5,266.5 557.2,267.0 558.0,267.5 558.8,267.9 559.5,268.4 560.2,268.9 561.0,269.4 561.8,269.8 562.5,270.3 563.2,270.8 564.0,271.3 564.8,271.8 565.5,272.3 566.2,272.8 567.0,273.3 567.8,273.7 568.5,274.2 569.2,274.7 570.0,275.2 570.8,275.7 571.5,276.2 572.2,276.7 573.0,277.2 573.7,277.8 574.5,278.3 575.2,278.8 576.0,279.3 576.7,279.8 577.5,280.3 578.2,280.8 579.0,281.3 579.8,281.8 580.5,282.4 581.2,282.9 582.0,283.4 582.8,283.9 583.5,284.4 584.2,285.0 585.0,285.5 585.8,286.0 586.5,286.5 587.2,287.1 588.0,287.6 588.8,288.1 589.5,288.6 590.2,289.2 591.0,289.7 591.8,290.2 592.5,290.8 593.2,291.3 594.0,291.8 594.8,292.3 595.5,292.9 596.3,293.4 597.0,293.9 597.8,294.5 598.5,295.0 599.2,295.5 600.0,296.1 600.7,296.6 601.5,297.1 602.2,297.7 603.0,298.2 603.7,298.8 604.5,299.3 605.2,299.8 606.0,299.6 606.8,299.1 607.5,298.6 608.2,298.0 609.0,297.5 609.8,297.0 610.5,296.4 611.2,295.9 612.0,295.4 612.8,294.8 613.5,294.3 614.2,293.8 615.0,293.2 615.8,292.7 616.5,292.2 617.2,291.6 618.0,291.1 618.8,290.6 619.5,290.0 620.2,289.5 621.0,289.0 621.8,288.4 622.5,287.9 623.2,287.4 624.0,286.9 624.8,286.3 625.5,285.8 626.2,285.3 627.0,284.8 627.8,284.3 628.5,283.7 629.2,283.2 630.0,282.7 630.8,282.2 631.5,281.7 632.3,281.1 633.0,280.6 633.8,280.1 634.5,279.6 635.2,279.1 636.0,278.6 636.8,278.1 637.5,277.6 638.2,277.1 639.0,276.6 639.8,276.1 640.5,275.6 641.2,275.1 642.0,274.6 642.8,274.1 643.5,273.6 644.2,273.1 645.0,272.6 645.8,272.1 646.5,271.6 647.2,271.1 648.0,270.6 648.8,270.2 649.5,269.7 650.2,269.2 651.0,268.7 651.8,268.2 652.5,267.8 653.2,267.3 654.0,266.8 654.8,266.4 655.5,265.9 656.2,265.4 657.0,265.0 657.8,264.5 658.5,264.1 659.2,263.6 660.0,263.2"/>
  <polyline fill="none" stroke="#C8102E" stroke-width="2" points="60.0,336.8 60.8,337.3 61.5,337.7 62.2,338.2 63.0,338.6 63.8,339.1 64.5,339.5 65.2,339.9 66.0,340.4 66.8,340.8 67.5,341.2 68.2,341.7 69.0,342.1 69.8,342.5 70.5,342.9 71.2,343.3 72.0,343.7 72.8,344.1 73.5,344.6 74.2,345.0 75.0,345.4 75.8,345.8 76.5,346.2 77.2,346.5 78.0,346.9 78.8,347.3 79.5,347.7 80.2,348.1 81.0,348.5 81.8,348.8 82.5,349.2 83.2,349.6 84.0,349.9 84.8,350.3 85.5,350.7 86.2,351.0 87.0,351.4 87.8,351.7 88.5,352.1 89.2,352.4 90.0,352.8 90.8,353.1 91.5,353.4 92.2,353.8 93.0,354.1 93.8,354.4 94.5,354.7 95.2,355.1 96.0,355.4 96.8,355.7 97.5,356.0 98.2,356.3 99.0,356.6 99.8,356.9 100.5,357.2 101.2,357.5 102.0,357.8 102.8,358.0 103.5,358.3 104.2,358.6 105.0,358.9 105.8,359.1 106.5,359.4 107.2,359.7 108.0,359.9 108.8,360.2 109.5,360.4 110.2,360.7 111.0,360.9 111.8,361.2 112.5,361.4 113.2,361.6 114.0,361.8 114.8,362.1 115.5,362.3 116.2,362.5 117.0,362.7 117.8,362.9 118.5,363.1 119.2,363.3 120.0,363.5 120.8,363.7 121.5,363.9 122.2,364.1 123.0,364.3 123.8,364.4 124.5,364.6 125.2,364.8 126.0,365.0 126.8,365.1 127.5,365.3 128.2,365.4 129.0,365.6 129.8,365.7 130.5,365.9 131.2,366.0 132.0,366.1 132.8,366.3 133.5,366.4 134.2,366.5 135.0,366.6 135.8,366.7 136.5,366.8 137.2,366.9 138.0,367.0 138.8,367.1 139.5,367.2 140.2,367.3 141.0,367.4 141.8,367.5 142.5,367.6 143.2,367.6 144.0,367.7 144.8,367.8 145.5,367.8 146.2,367.9 147.0,367.9 147.8,368.0 148.5,368.0 149.2,368.0 150.0,368.1 150.8,368.1 151.5,368.1 152.2,368.1 153.0,368.2 153.8,368.2 154.5,368.2 155.2,368.2 156.0,368.2 156.8,368.2 157.5,368.2 158.2,368.2 159.0,368.1 159.8,368.1 160.5,368.1 161.2,368.1 162.0,368.0 162.8,368.0 163.5,367.9 164.2,367.9 165.0,367.8 165.8,367.8 166.5,367.7 167.2,367.7 168.0,367.6 168.8,367.5 169.5,367.4 170.2,367.4 171.0,367.3 171.8,367.2 172.5,367.1 173.2,367.0 174.0,366.9 174.8,366.8 175.5,366.7 176.2,366.6 177.0,366.5 177.8,366.3 178.5,366.2 179.2,366.1 180.0,365.9 180.8,365.8 181.5,365.7 182.2,365.5 183.0,365.4 183.7,365.2 184.5,365.1 185.2,364.9 186.0,364.7 186.8,364.6 187.5,364.4 188.2,364.2 189.0,364.0 189.7,363.8 190.5,363.7 191.2,363.5 192.0,363.3 192.8,363.1 193.5,362.9 194.2,362.6 195.0,362.4 195.8,362.2 196.5,362.0 197.2,361.8 198.0,361.5 198.8,361.3 199.5,361.1 200.2,360.8 201.0,360.6 201.8,360.3 202.5,360.1 203.2,359.8 204.0,359.6 204.8,359.3 205.5,359.0 206.2,358.8 207.0,358.5 207.8,358.2 208.5,357.9 209.2,357.7 210.0,357.4 210.7,357.1 211.5,356.8 212.3,356.5 213.0,356.2 213.8,355.9 214.5,355.6 215.2,355.3 216.0,354.9 216.8,354.6 217.5,354.3 218.2,354.0 219.0,353.7 219.8,353.3 220.5,353.0 221.2,352.6 222.0,352.3 222.8,352.0 223.5,351.6 224.2,351.3 225.0,350.9 225.8,350.5 226.5,350.2 227.2,349.8 228.0,349.5 228.8,349.1 229.5,348.7 230.2,348.3 231.0,348.0 231.7,347.6 232.5,347.2 233.2,346.8 234.0,346.4 234.8,346.0 235.5,345.6 236.2,345.2 237.0,344.8 237.8,344.4 238.5,344.0 239.2,343.6 240.0,343.2 240.8,342.8 241.5,342.3 242.2,341.9 243.0,341.5 243.8,341.1 244.5,340.6 245.2,340.2 246.0,339.8 246.7,339.3 247.5,338.9 248.3,338.5 249.0,338.0 249.8,337.6 250.5,337.1 251.3,336.7 252.0,336.2 252.8,335.8 253.5,335.3 254.2,334.9 255.0,334.4 255.8,333.9 256.5,333.5 257.2,333.0 258.0,332.5 258.8,332.1 259.5,331.6 260.2,331.1 261.0,330.6 261.8,330.2 262.5,329.7 263.2,329.2 264.0,328.7 264.8,328.2 265.5,327.7 266.2,327.2 267.0,326.7 267.8,326.3 268.5,325.8 269.2,325.3 270.0,324.8 270.8,324.3 271.5,323.8 272.2,323.3 273.0,322.8 273.8,322.2 274.5,321.7 275.2,321.2 276.0,320.7 276.8,320.2 277.5,319.7 278.2,319.2 279.0,318.7 279.8,318.2 280.5,317.6 281.2,317.1 282.0,316.6 282.8,316.1 283.5,315.6 284.2,315.0 285.0,314.5 285.8,314.0 286.5,313.5 287.2,312.9 288.0,312.4 288.8,311.9 289.5,311.4 290.2,310.8 291.0,310.3 291.8,309.8 292.5,309.2 293.2,308.7 294.0,308.2 294.8,307.7 295.5,307.1 296.2,306.6 297.0,306.1 297.8,305.5 298.5,305.0 299.2,304.5 300.0,303.9 300.8,303.4 301.5,302.9 302.2,302.3 303.0,301.8 303.8,301.2 304.5,300.7 305.2,300.2 306.0,300.4 306.8,300.9 307.5,301.4 308.2,302.0 309.0,302.5 309.8,303.0 310.5,303.6 311.2,304.1 312.0,304.6 312.8,305.2 313.5,305.7 314.2,306.2 315.0,306.8 315.7,307.3 316.5,307.8 317.3,308.4 318.0,308.9 318.8,309.4 319.5,310.0 320.2,310.5 321.0,311.0 321.8,311.6 322.5,312.1 323.2,312.6 324.0,313.1 324.8,313.7 325.5,314.2 326.2,314.7 327.0,315.2 327.7,315.7 328.5,316.3 329.2,316.8 330.0,317.3 330.8,317.8 331.5,318.3 332.2,318.9 333.0,319.4 333.8,319.9 334.5,320.4 335.2,320.9 336.0,321.4 336.8,321.9 337.5,322.4 338.2,322.9 339.0,323.4 339.8,323.9 340.5,324.4 341.2,324.9 342.0,325.4 342.7,325.9 343.5,326.4 344.2,326.9 345.0,327.4 345.8,327.9 346.5,328.4 347.2,328.9 348.0,329.4 348.8,329.8 349.5,330.3 350.2,330.8 351.0,331.3 351.8,331.8 352.5,332.2 353.2,332.7 354.0,333.2 354.8,333.6 355.5,334.1 356.2,334.6 357.0,335.0 357.8,335.5 358.5,335.9 359.2,336.4 360.0,336.8 360.8,337.3 361.5,337.7 362.2,338.2 363.0,338.6 363.8,339.1 364.5,339.5 365.2,339.9 366.0,340.4 366.8,340.8 367.5,341.2 368.2,341.7 369.0,342.1 369.8,342.5 370.5,342.9 371.2,343.3 372.0,343.7 372.8,344.1 373.5,344.6 374.3,345.0 375.0,345.4 375.8,345.8 376.5,346.2 377.2,346.5 378.0,346.9 378.8,347.3 379.5,347.7 380.3,348.1 381.0,348.5 381.8,348.8 382.5,349.2 383.2,349.6 384.0,349.9 384.8,350.3 385.5,350.7 386.3,351.0 387.0,351.4 387.8,351.7 388.5,352.1 389.2,352.4 390.0,352.8 390.8,353.1 391.5,353.4 392.2,353.8 393.0,354.1 393.7,354.4 394.5,354.7 395.2,355.1 396.0,355.4 396.8,355.7 397.5,356.0 398.3,356.3 399.0,356.6 399.8,356.9 400.5,357.2 401.3,357.5 402.0,357.8 402.8,358.0 403.5,358.3 404.2,358.6 405.0,358.9 405.8,359.1 406.5,359.4 407.2,359.7 408.0,359.9 408.7,360.2 409.5,360.4 410.2,360.7 411.0,360.9 411.7,361.2 412.5,361.4 413.3,361.6 414.0,361.8 414.8,362.1 415.5,362.3 416.2,362.5 417.0,362.7 417.8,362.9 418.5,363.1 419.2,363.3 420.0,363.5 420.7,363.7 421.5,363.9 422.2,364.1 423.0,364.3 423.8,364.4 424.5,364.6 425.2,364.8 426.0,365.0 426.8,365.1 427.5,365.3 428.2,365.4 429.0,365.6 429.8,365.7 430.5,365.9 431.2,366.0 432.0,366.1 432.8,366.3 433.5,366.4 434.2,366.5 435.0,366.6 435.8,366.7 436.5,366.8 437.2,366.9 438.0,367.0 438.8,367.1 439.5,367.2 440.2,367.3 441.0,367.4 441.8,367.5 442.5,367.6 443.2,367.6 444.0,367.7 444.8,367.8 445.5,367.8 446.2,367.9 447.0,367.9 447.8,368.0 448.5,368.0 449.3,368.0 450.0,368.1 450.8,368.1 451.5,368.1 452.3,368.1 453.0,368.2 453.8,368.2 454.5,368.2 455.3,368.2 456.0,368.2 456.8,368.2 457.5,368.2 458.2,368.2 459.0,368.1 459.8,368.1 460.5,368.1 461.3,368.1 462.0,368.0 462.8,368.0 463.5,367.9 464.3,367.9 465.0,367.8 465.8,367.8 466.5,367.7 467.3,367.7 468.0,367.6 468.8,367.5 469.5,367.4 470.2,367.4 471.0,367.3 471.8,367.2 472.5,367.1 473.2,367.0 474.0,366.9 474.8,366.8 475.5,366.7 476.3,366.6 477.0,366.5 477.8,366.3 478.5,366.2 479.3,366.1 480.0,365.9 480.8,365.8 481.5,365.7 482.3,365.5 483.0,365.4 483.8,365.2 484.5,365.1 485.2,364.9 486.0,364.7 486.8,364.6 487.5,364.4 488.2,364.2 489.0,364.0 489.7,363.8 490.5,363.7 491.2,363.5 492.0,363.3 492.8,363.1 493.5,362.9 494.3,362.6 495.0,362.4 495.8,362.2 496.5,362.0 497.2,361.8 498.0,361.5 498.8,361.3 499.5,361.1 500.2,360.8 501.0,360.6 501.8,360.3 502.5,360.1 503.2,359.8 504.0,359.6 504.8,359.3 505.5,359.0 506.2,358.8 507.0,358.5 507.8,358.2 508.5,357.9 509.2,357.7 510.0,357.4 510.8,357.1 511.5,356.8 512.2,356.5 513.0,356.2 513.8,355.9 514.5,355.6 515.2,355.3 516.0,354.9 516.8,354.6 517.5,354.3 518.2,354.0 519.0,353.7 519.8,353.3 520.5,353.0 521.2,352.6 522.0,352.3 522.8,352.0 523.5,351.6 524.2,351.3 525.0,350.9 525.8,350.5 526.5,350.2 527.2,349.8 528.0,349.5 528.8,349.1 529.5,348.7 530.2,348.3 531.0,348.0 531.8,347.6 532.5,347.2 533.2,346.8 534.0,346.4 534.8,346.0 535.5,345.6 536.2,345.2 537.0,344.8 537.8,344.4 538.5,344.0 539.2,343.6 540.0,343.2 540.8,342.8 541.5,342.3 542.2,341.9 543.0,341.5 543.8,341.1 544.5,340.6 545.2,340.2 546.0,339.8 546.8,339.3 547.5,338.9 548.2,338.5 549.0,338.0 549.8,337.6 550.5,337.1 551.2,336.7 552.0,336.2 552.8,335.8 553.5,335.3 554.2,334.9 555.0,334.4 555.8,333.9 556.5,333.5 557.2,333.0 558.0,332.5 558.8,332.1 559.5,331.6 560.2,331.1 561.0,330.6 561.8,330.2 562.5,329.7 563.2,329.2 564.0,328.7 564.8,328.2 565.5,327.7 566.2,327.2 567.0,326.7 567.8,326.3 568.5,325.8 569.2,325.3 570.0,324.8 570.8,324.3 571.5,323.8 572.2,323.3 573.0,322.8 573.7,322.2 574.5,321.7 575.2,321.2 576.0,320.7 576.7,320.2 577.5,319.7 578.2,319.2 579.0,318.7 579.8,318.2 580.5,317.6 581.2,317.1 582.0,316.6 582.8,316.1 583.5,315.6 584.2,315.0 585.0,314.5 585.8,314.0 586.5,313.5 587.2,312.9 588.0,312.4 588.8,311.9 589.5,311.4 590.2,310.8 591.0,310.3 591.8,309.8 592.5,309.2 593.2,308.7 594.0,308.2 594.8,307.7 595.5,307.1 596.3,306.6 597.0,306.1 597.8,305.5 598.5,305.0 599.2,304.5 600.0,303.9 600.7,303.4 601.5,302.9 602.2,302.3 603.0,301.8 603.7,301.2 604.5,300.7 605.2,300.2 606.0,300.4 606.8,300.9 607.5,301.4 608.2,302.0 609.0,302.5 609.8,303.0 610.5,303.6 611.2,304.1 612.0,304.6 612.8,305.2 613.5,305.7 614.2,306.2 615.0,306.8 615.8,307.3 616.5,307.8 617.2,308.4 618.0,308.9 618.8,309.4 619.5,310.0 620.2,310.5 621.0,311.0 621.8,311.6 622.5,312.1 623.2,312.6 624.0,313.1 624.8,313.7 625.5,314.2 626.2,314.7 627.0,315.2 627.8,315.7 628.5,316.3 629.2,316.8 630.0,317.3 630.8,317.8 631.5,318.3 632.3,318.9 633.0,319.4 633.8,319.9 634.5,320.4 635.2,320.9 636.0,321.4 636.8,321.9 637.5,322.4 638.2,322.9 639.0,323.4 639.8,323.9 640.5,324.4 641.2,324.9 642.0,325.4 642.8,325.9 643.5,326.4 644.2,326.9 645.0,327.4 645.8,327.9 646.5,328.4 647.2,328.9 648.0,329.4 648.8,329.8 649.5,330.3 650.2,330.8 651.0,331.3 651.8,331.8 652.5,332.2 653.2,332.7 654.0,333.2 654.8,333.6 655.5,334.1 656.2,334.6 657.0,335.0 657.8,335.5 658.5,335.9 659.2,336.4 660.0,336.8"/>

  <!-- Displacement markers -->
  <!-- Envelope peak moved from px_ref to px_ep1 -->
  <circle cx="155.5" cy="231.8" r="5" fill="#C8102E" fill-opacity="0.8"/>
  <!-- Phase marker -->
  <circle cx="107.7" cy="231.8" r="5" fill="#2a1a0e" fill-opacity="0.7"/>

  <!-- Displacement arrows from reference line -->
  <!-- Phase displacement (shorter) -->
  <line x1="60.0" y1="387" x2="107.7" y2="387" stroke="#2a1a0e" stroke-width="1.5" marker-end="url(#arw18a)"/>
  <text x="83.9" y="401" text-anchor="middle" font-family="'Inter',-apple-system,'Helvetica Neue',sans-serif" font-size="10" fill="#2a1a0e">v&#x209A;&#x2095; &#x394;t</text>

  <!-- Envelope displacement (longer) -->
  <line x1="60.0" y1="395" x2="155.5" y2="395" stroke="#C8102E" stroke-width="1.5" marker-end="url(#arw18b)"/>
  <text x="107.7" y="409" text-anchor="middle" font-family="'Inter',-apple-system,'Helvetica Neue',sans-serif" font-size="10" fill="#C8102E">v&#x1D454; &#x394;t = 2 v&#x209A;&#x2095; &#x394;t</text>

  <!-- x-axis label -->
  <text x="360" y="425" text-anchor="middle"
        font-family="'Inter',-apple-system,'Helvetica Neue',sans-serif" font-size="11" fill="#545454">position x</text>

  <!-- Legend -->
  <g font-family="'Inter',-apple-system,'Helvetica Neue',sans-serif" font-size="11" fill="#545454">
    <line x1="75" y1="436" x2="105" y2="436" stroke="#2a1a0e" stroke-width="1"/>
    <text x="109" y="440">carrier  cos(kx)</text>
    <line x1="250" y1="436" x2="280" y2="436" stroke="#C8102E" stroke-width="2"/>
    <text x="284" y="440">envelope  |cos(dk/2 &#xB7; x)|</text>
    <line x1="490" y1="436" x2="510" y2="436" stroke="#2a1a0e" stroke-width="0.75" stroke-dasharray="4 3"/>
    <text x="514" y="440">reference</text>
  </g>

</svg>
