<!-- ============================================================
  Book:    Quantum Mechanics — Math for Quantum Physics
  Chapter: 18-trigonometry-waves-and-the-harmonic-model
  Figure:  01 — Superposition: constructive, destructive, and partial interference
  Source:  pantry/18-trigonometry-waves-and-the-harmonic-model-cajal.md
  Date:    2026-06-06
  Author:  Humanitarians AI Incorporated
  ============================================================ -->
<svg viewBox="0 0 700 455" xmlns="http://www.w3.org/2000/svg"
     role="img" aria-labelledby="fig-title-c18-01">
  <title id="fig-title-c18-01">Wave superposition: constructive, destructive, and partial interference for three phase differences</title>
  <desc>Three stacked panels showing the superposition of two equal-amplitude waves (ochre and gray dashed) with phase differences delta=0, pi, and pi/2. The resultant sum (solid red) has amplitude 2A for delta=0 (fully constructive), zero for delta=pi (fully destructive, flat line), and A*sqrt(2) for delta=pi/2 (partial). Amplitude indicators mark the peak in each panel.</desc>
  <metadata>
    <cajal:figure xmlns:cajal="https://bearbrown.ai/cajal/1.0"
      book="Quantum Mechanics" book-slug="quantum-mechanics-vol5"
      chapter="18-trigonometry-waves-and-the-harmonic-model" figure-number="01"
      figure-title="Superposition: constructive, destructive, and partial interference"
      figure-slug="wave-superposition-three-cases" figure-type="diagram"
      priority="critical" author="Humanitarians AI Incorporated"
      date-generated="2026-06-06"
      source-file="pantry/18-trigonometry-waves-and-the-harmonic-model-cajal.md"/>
  </metadata>
  <rect width="700" height="455" fill="#FFFFFF"/>

  <text x="350" y="28" text-anchor="middle"
        font-family="'EB Garamond','Garamond',Georgia,serif" font-size="14" fill="#2a1a0e">
    Superposition  A cos(kx) + A cos(kx + delta)  —  amplitude 2A |cos(delta/2)|
  </text>

  <rect x="70" y="40" width="570" height="100" fill="#F5F5F5" stroke="#D4D4D4" stroke-width="0.75"/>
<line x1="70" y1="90.0" x2="640" y2="90.0" stroke="#D4D4D4" stroke-width="0.75"/>
<polyline fill="none" stroke="#C8860E" stroke-width="1" stroke-dasharray="5 3" points="70.0,67.3 72.8,67.3 75.7,67.3 78.5,67.4 81.4,67.5 84.2,67.6 87.1,67.7 90.0,67.8 92.8,68.0 95.7,68.2 98.5,68.4 101.3,68.6 104.2,68.9 107.1,69.1 109.9,69.4 112.8,69.7 115.6,70.1 118.5,70.4 121.3,70.8 124.1,71.2 127.0,71.6 129.9,72.0 132.7,72.5 135.6,73.0 138.4,73.4 141.2,73.9 144.1,74.4 146.9,75.0 149.8,75.5 152.7,76.1 155.5,76.6 158.3,77.2 161.2,77.8 164.1,78.4 166.9,79.1 169.8,79.7 172.6,80.3 175.5,81.0 178.3,81.6 181.2,82.3 184.0,83.0 186.8,83.7 189.7,84.3 192.6,85.0 195.4,85.7 198.2,86.4 201.1,87.2 204.0,87.9 206.8,88.6 209.7,89.3 212.5,90.0 215.3,90.7 218.2,91.4 221.1,92.1 223.9,92.8 226.8,93.6 229.6,94.3 232.4,95.0 235.3,95.7 238.1,96.3 241.0,97.0 243.8,97.7 246.7,98.4 249.6,99.0 252.4,99.7 255.2,100.3 258.1,100.9 261.0,101.6 263.8,102.2 266.6,102.8 269.5,103.4 272.4,103.9 275.2,104.5 278.0,105.0 280.9,105.6 283.8,106.1 286.6,106.6 289.5,107.0 292.3,107.5 295.1,108.0 298.0,108.4 300.9,108.8 303.7,109.2 306.6,109.6 309.4,109.9 312.2,110.3 315.1,110.6 317.9,110.9 320.8,111.1 323.6,111.4 326.5,111.6 329.3,111.8 332.2,112.0 335.0,112.2 337.9,112.3 340.8,112.4 343.6,112.5 346.4,112.6 349.3,112.7 352.2,112.7 355.0,112.7 357.9,112.7 360.7,112.7 363.6,112.6 366.4,112.5 369.2,112.4 372.1,112.3 375.0,112.2 377.8,112.0 380.6,111.8 383.5,111.6 386.4,111.4 389.2,111.1 392.0,110.9 394.9,110.6 397.8,110.3 400.6,109.9 403.4,109.6 406.3,109.2 409.1,108.8 412.0,108.4 414.9,108.0 417.7,107.5 420.6,107.0 423.4,106.6 426.2,106.1 429.1,105.6 431.9,105.0 434.8,104.5 437.7,103.9 440.5,103.4 443.4,102.8 446.2,102.2 449.1,101.6 451.9,100.9 454.8,100.3 457.6,99.7 460.5,99.0 463.3,98.4 466.2,97.7 469.0,97.0 471.8,96.3 474.7,95.7 477.6,95.0 480.4,94.3 483.2,93.6 486.1,92.8 489.0,92.1 491.8,91.4 494.6,90.7 497.5,90.0 500.4,89.3 503.2,88.6 506.1,87.9 508.9,87.2 511.8,86.4 514.6,85.7 517.4,85.0 520.3,84.3 523.2,83.7 526.0,83.0 528.8,82.3 531.7,81.6 534.5,81.0 537.4,80.3 540.2,79.7 543.1,79.1 546.0,78.4 548.8,77.8 551.6,77.2 554.5,76.6 557.3,76.1 560.2,75.5 563.0,75.0 565.9,74.4 568.8,73.9 571.6,73.4 574.5,73.0 577.3,72.5 580.2,72.0 583.0,71.6 585.9,71.2 588.7,70.8 591.5,70.4 594.4,70.1 597.2,69.7 600.1,69.4 603.0,69.1 605.8,68.9 608.7,68.6 611.5,68.4 614.4,68.2 617.2,68.0 620.0,67.8 622.9,67.7 625.8,67.6 628.6,67.5 631.5,67.4 634.3,67.3 637.1,67.3 640.0,67.3"/>
<polyline fill="none" stroke="#787878" stroke-width="1" stroke-dasharray="5 3" points="70.0,67.3 72.8,67.3 75.7,67.3 78.5,67.4 81.4,67.5 84.2,67.6 87.1,67.7 90.0,67.8 92.8,68.0 95.7,68.2 98.5,68.4 101.3,68.6 104.2,68.9 107.1,69.1 109.9,69.4 112.8,69.7 115.6,70.1 118.5,70.4 121.3,70.8 124.1,71.2 127.0,71.6 129.9,72.0 132.7,72.5 135.6,73.0 138.4,73.4 141.2,73.9 144.1,74.4 146.9,75.0 149.8,75.5 152.7,76.1 155.5,76.6 158.3,77.2 161.2,77.8 164.1,78.4 166.9,79.1 169.8,79.7 172.6,80.3 175.5,81.0 178.3,81.6 181.2,82.3 184.0,83.0 186.8,83.7 189.7,84.3 192.6,85.0 195.4,85.7 198.2,86.4 201.1,87.2 204.0,87.9 206.8,88.6 209.7,89.3 212.5,90.0 215.3,90.7 218.2,91.4 221.1,92.1 223.9,92.8 226.8,93.6 229.6,94.3 232.4,95.0 235.3,95.7 238.1,96.3 241.0,97.0 243.8,97.7 246.7,98.4 249.6,99.0 252.4,99.7 255.2,100.3 258.1,100.9 261.0,101.6 263.8,102.2 266.6,102.8 269.5,103.4 272.4,103.9 275.2,104.5 278.0,105.0 280.9,105.6 283.8,106.1 286.6,106.6 289.5,107.0 292.3,107.5 295.1,108.0 298.0,108.4 300.9,108.8 303.7,109.2 306.6,109.6 309.4,109.9 312.2,110.3 315.1,110.6 317.9,110.9 320.8,111.1 323.6,111.4 326.5,111.6 329.3,111.8 332.2,112.0 335.0,112.2 337.9,112.3 340.8,112.4 343.6,112.5 346.4,112.6 349.3,112.7 352.2,112.7 355.0,112.7 357.9,112.7 360.7,112.7 363.6,112.6 366.4,112.5 369.2,112.4 372.1,112.3 375.0,112.2 377.8,112.0 380.6,111.8 383.5,111.6 386.4,111.4 389.2,111.1 392.0,110.9 394.9,110.6 397.8,110.3 400.6,109.9 403.4,109.6 406.3,109.2 409.1,108.8 412.0,108.4 414.9,108.0 417.7,107.5 420.6,107.0 423.4,106.6 426.2,106.1 429.1,105.6 431.9,105.0 434.8,104.5 437.7,103.9 440.5,103.4 443.4,102.8 446.2,102.2 449.1,101.6 451.9,100.9 454.8,100.3 457.6,99.7 460.5,99.0 463.3,98.4 466.2,97.7 469.0,97.0 471.8,96.3 474.7,95.7 477.6,95.0 480.4,94.3 483.2,93.6 486.1,92.8 489.0,92.1 491.8,91.4 494.6,90.7 497.5,90.0 500.4,89.3 503.2,88.6 506.1,87.9 508.9,87.2 511.8,86.4 514.6,85.7 517.4,85.0 520.3,84.3 523.2,83.7 526.0,83.0 528.8,82.3 531.7,81.6 534.5,81.0 537.4,80.3 540.2,79.7 543.1,79.1 546.0,78.4 548.8,77.8 551.6,77.2 554.5,76.6 557.3,76.1 560.2,75.5 563.0,75.0 565.9,74.4 568.8,73.9 571.6,73.4 574.5,73.0 577.3,72.5 580.2,72.0 583.0,71.6 585.9,71.2 588.7,70.8 591.5,70.4 594.4,70.1 597.2,69.7 600.1,69.4 603.0,69.1 605.8,68.9 608.7,68.6 611.5,68.4 614.4,68.2 617.2,68.0 620.0,67.8 622.9,67.7 625.8,67.6 628.6,67.5 631.5,67.4 634.3,67.3 637.1,67.3 640.0,67.3"/>
<polyline fill="none" stroke="#C8102E" stroke-width="2.5" points="70.0,44.5 72.8,44.6 75.7,44.6 78.5,44.7 81.4,44.9 84.2,45.1 87.1,45.4 90.0,45.6 92.8,46.0 95.7,46.4 98.5,46.8 101.3,47.2 104.2,47.7 107.1,48.3 109.9,48.9 112.8,49.5 115.6,50.2 118.5,50.9 121.3,51.6 124.1,52.4 127.0,53.2 129.9,54.1 132.7,55.0 135.6,55.9 138.4,56.9 141.2,57.9 144.1,58.9 146.9,59.9 149.8,61.0 152.7,62.1 155.5,63.3 158.3,64.5 161.2,65.6 164.1,66.9 166.9,68.1 169.8,69.4 172.6,70.6 175.5,71.9 178.3,73.3 181.2,74.6 184.0,76.0 186.8,77.3 189.7,78.7 192.6,80.1 195.4,81.5 198.2,82.9 201.1,84.3 204.0,85.7 206.8,87.1 209.7,88.6 212.5,90.0 215.3,91.4 218.2,92.9 221.1,94.3 223.9,95.7 226.8,97.1 229.6,98.5 232.4,99.9 235.3,101.3 238.1,102.7 241.0,104.0 243.8,105.4 246.7,106.7 249.6,108.1 252.4,109.4 255.2,110.6 258.1,111.9 261.0,113.1 263.8,114.4 266.6,115.5 269.5,116.7 272.4,117.9 275.2,119.0 278.0,120.1 280.9,121.1 283.8,122.1 286.6,123.1 289.5,124.1 292.3,125.0 295.1,125.9 298.0,126.8 300.9,127.6 303.7,128.4 306.6,129.1 309.4,129.8 312.2,130.5 315.1,131.1 317.9,131.7 320.8,132.3 323.6,132.8 326.5,133.2 329.3,133.6 332.2,134.0 335.0,134.4 337.9,134.6 340.8,134.9 343.6,135.1 346.4,135.3 349.3,135.4 352.2,135.4 355.0,135.5 357.9,135.4 360.7,135.4 363.6,135.3 366.4,135.1 369.2,134.9 372.1,134.6 375.0,134.4 377.8,134.0 380.6,133.6 383.5,133.2 386.4,132.8 389.2,132.3 392.0,131.7 394.9,131.1 397.8,130.5 400.6,129.8 403.4,129.1 406.3,128.4 409.1,127.6 412.0,126.8 414.9,125.9 417.7,125.0 420.6,124.1 423.4,123.1 426.2,122.1 429.1,121.1 431.9,120.1 434.8,119.0 437.7,117.9 440.5,116.7 443.4,115.5 446.2,114.4 449.1,113.1 451.9,111.9 454.8,110.6 457.6,109.4 460.5,108.1 463.3,106.7 466.2,105.4 469.0,104.0 471.8,102.7 474.7,101.3 477.6,99.9 480.4,98.5 483.2,97.1 486.1,95.7 489.0,94.3 491.8,92.9 494.6,91.4 497.5,90.0 500.4,88.6 503.2,87.1 506.1,85.7 508.9,84.3 511.8,82.9 514.6,81.5 517.4,80.1 520.3,78.7 523.2,77.3 526.0,76.0 528.8,74.6 531.7,73.3 534.5,71.9 537.4,70.6 540.2,69.4 543.1,68.1 546.0,66.9 548.8,65.6 551.6,64.5 554.5,63.3 557.3,62.1 560.2,61.0 563.0,59.9 565.9,58.9 568.8,57.9 571.6,56.9 574.5,55.9 577.3,55.0 580.2,54.1 583.0,53.2 585.9,52.4 588.7,51.6 591.5,50.9 594.4,50.2 597.2,49.5 600.1,48.9 603.0,48.3 605.8,47.7 608.7,47.2 611.5,46.8 614.4,46.4 617.2,46.0 620.0,45.6 622.9,45.4 625.8,45.1 628.6,44.9 631.5,44.7 634.3,44.6 637.1,44.6 640.0,44.5"/>
<line x1="70.0" y1="44.5" x2="70.0" y2="90.0" stroke="#2a1a0e" stroke-width="1"/>
<line x1="65.0" y1="44.5" x2="75.0" y2="44.5" stroke="#2a1a0e" stroke-width="1"/>
<line x1="65.0" y1="90.0" x2="75.0" y2="90.0" stroke="#2a1a0e" stroke-width="1"/>
<text x="78.0" y="71.3" font-family="'JetBrains Mono','Fira Code','Courier New',monospace" font-size="11" fill="#2a1a0e">2A</text>
<text x="80" y="56" font-family="'JetBrains Mono','Fira Code','Courier New',monospace" font-size="12" fill="#545454">δ = 0</text>
<rect x="70" y="175" width="570" height="100" fill="#F5F5F5" stroke="#D4D4D4" stroke-width="0.75"/>
<line x1="70" y1="225.0" x2="640" y2="225.0" stroke="#D4D4D4" stroke-width="0.75"/>
<polyline fill="none" stroke="#C8860E" stroke-width="1" stroke-dasharray="5 3" points="70.0,202.3 72.8,202.3 75.7,202.3 78.5,202.4 81.4,202.5 84.2,202.6 87.1,202.7 90.0,202.8 92.8,203.0 95.7,203.2 98.5,203.4 101.3,203.6 104.2,203.9 107.1,204.1 109.9,204.4 112.8,204.7 115.6,205.1 118.5,205.4 121.3,205.8 124.1,206.2 127.0,206.6 129.9,207.0 132.7,207.5 135.6,208.0 138.4,208.4 141.2,208.9 144.1,209.4 146.9,210.0 149.8,210.5 152.7,211.1 155.5,211.6 158.3,212.2 161.2,212.8 164.1,213.4 166.9,214.1 169.8,214.7 172.6,215.3 175.5,216.0 178.3,216.6 181.2,217.3 184.0,218.0 186.8,218.7 189.7,219.3 192.6,220.0 195.4,220.7 198.2,221.4 201.1,222.2 204.0,222.9 206.8,223.6 209.7,224.3 212.5,225.0 215.3,225.7 218.2,226.4 221.1,227.1 223.9,227.8 226.8,228.6 229.6,229.3 232.4,230.0 235.3,230.7 238.1,231.3 241.0,232.0 243.8,232.7 246.7,233.4 249.6,234.0 252.4,234.7 255.2,235.3 258.1,235.9 261.0,236.6 263.8,237.2 266.6,237.8 269.5,238.4 272.4,238.9 275.2,239.5 278.0,240.0 280.9,240.6 283.8,241.1 286.6,241.6 289.5,242.0 292.3,242.5 295.1,243.0 298.0,243.4 300.9,243.8 303.7,244.2 306.6,244.6 309.4,244.9 312.2,245.3 315.1,245.6 317.9,245.9 320.8,246.1 323.6,246.4 326.5,246.6 329.3,246.8 332.2,247.0 335.0,247.2 337.9,247.3 340.8,247.4 343.6,247.5 346.4,247.6 349.3,247.7 352.2,247.7 355.0,247.7 357.9,247.7 360.7,247.7 363.6,247.6 366.4,247.5 369.2,247.4 372.1,247.3 375.0,247.2 377.8,247.0 380.6,246.8 383.5,246.6 386.4,246.4 389.2,246.1 392.0,245.9 394.9,245.6 397.8,245.3 400.6,244.9 403.4,244.6 406.3,244.2 409.1,243.8 412.0,243.4 414.9,243.0 417.7,242.5 420.6,242.0 423.4,241.6 426.2,241.1 429.1,240.6 431.9,240.0 434.8,239.5 437.7,238.9 440.5,238.4 443.4,237.8 446.2,237.2 449.1,236.6 451.9,235.9 454.8,235.3 457.6,234.7 460.5,234.0 463.3,233.4 466.2,232.7 469.0,232.0 471.8,231.3 474.7,230.7 477.6,230.0 480.4,229.3 483.2,228.6 486.1,227.8 489.0,227.1 491.8,226.4 494.6,225.7 497.5,225.0 500.4,224.3 503.2,223.6 506.1,222.9 508.9,222.2 511.8,221.4 514.6,220.7 517.4,220.0 520.3,219.3 523.2,218.7 526.0,218.0 528.8,217.3 531.7,216.6 534.5,216.0 537.4,215.3 540.2,214.7 543.1,214.1 546.0,213.4 548.8,212.8 551.6,212.2 554.5,211.6 557.3,211.1 560.2,210.5 563.0,210.0 565.9,209.4 568.8,208.9 571.6,208.4 574.5,208.0 577.3,207.5 580.2,207.0 583.0,206.6 585.9,206.2 588.7,205.8 591.5,205.4 594.4,205.1 597.2,204.7 600.1,204.4 603.0,204.1 605.8,203.9 608.7,203.6 611.5,203.4 614.4,203.2 617.2,203.0 620.0,202.8 622.9,202.7 625.8,202.6 628.6,202.5 631.5,202.4 634.3,202.3 637.1,202.3 640.0,202.3"/>
<polyline fill="none" stroke="#787878" stroke-width="1" stroke-dasharray="5 3" points="70.0,247.7 72.8,247.7 75.7,247.7 78.5,247.6 81.4,247.5 84.2,247.4 87.1,247.3 90.0,247.2 92.8,247.0 95.7,246.8 98.5,246.6 101.3,246.4 104.2,246.1 107.1,245.9 109.9,245.6 112.8,245.3 115.6,244.9 118.5,244.6 121.3,244.2 124.1,243.8 127.0,243.4 129.9,243.0 132.7,242.5 135.6,242.0 138.4,241.6 141.2,241.1 144.1,240.6 146.9,240.0 149.8,239.5 152.7,238.9 155.5,238.4 158.3,237.8 161.2,237.2 164.1,236.6 166.9,235.9 169.8,235.3 172.6,234.7 175.5,234.0 178.3,233.4 181.2,232.7 184.0,232.0 186.8,231.3 189.7,230.7 192.6,230.0 195.4,229.3 198.2,228.6 201.1,227.8 204.0,227.1 206.8,226.4 209.7,225.7 212.5,225.0 215.3,224.3 218.2,223.6 221.1,222.9 223.9,222.2 226.8,221.4 229.6,220.7 232.4,220.0 235.3,219.3 238.1,218.7 241.0,218.0 243.8,217.3 246.7,216.6 249.6,216.0 252.4,215.3 255.2,214.7 258.1,214.1 261.0,213.4 263.8,212.8 266.6,212.2 269.5,211.6 272.4,211.1 275.2,210.5 278.0,210.0 280.9,209.4 283.8,208.9 286.6,208.4 289.5,208.0 292.3,207.5 295.1,207.0 298.0,206.6 300.9,206.2 303.7,205.8 306.6,205.4 309.4,205.1 312.2,204.7 315.1,204.4 317.9,204.1 320.8,203.9 323.6,203.6 326.5,203.4 329.3,203.2 332.2,203.0 335.0,202.8 337.9,202.7 340.8,202.6 343.6,202.5 346.4,202.4 349.3,202.3 352.2,202.3 355.0,202.3 357.9,202.3 360.7,202.3 363.6,202.4 366.4,202.5 369.2,202.6 372.1,202.7 375.0,202.8 377.8,203.0 380.6,203.2 383.5,203.4 386.4,203.6 389.2,203.9 392.0,204.1 394.9,204.4 397.8,204.7 400.6,205.1 403.4,205.4 406.3,205.8 409.1,206.2 412.0,206.6 414.9,207.0 417.7,207.5 420.6,208.0 423.4,208.4 426.2,208.9 429.1,209.4 431.9,210.0 434.8,210.5 437.7,211.1 440.5,211.6 443.4,212.2 446.2,212.8 449.1,213.4 451.9,214.1 454.8,214.7 457.6,215.3 460.5,216.0 463.3,216.6 466.2,217.3 469.0,218.0 471.8,218.7 474.7,219.3 477.6,220.0 480.4,220.7 483.2,221.4 486.1,222.2 489.0,222.9 491.8,223.6 494.6,224.3 497.5,225.0 500.4,225.7 503.2,226.4 506.1,227.1 508.9,227.8 511.8,228.6 514.6,229.3 517.4,230.0 520.3,230.7 523.2,231.3 526.0,232.0 528.8,232.7 531.7,233.4 534.5,234.0 537.4,234.7 540.2,235.3 543.1,235.9 546.0,236.6 548.8,237.2 551.6,237.8 554.5,238.4 557.3,238.9 560.2,239.5 563.0,240.0 565.9,240.6 568.8,241.1 571.6,241.6 574.5,242.0 577.3,242.5 580.2,243.0 583.0,243.4 585.9,243.8 588.7,244.2 591.5,244.6 594.4,244.9 597.2,245.3 600.1,245.6 603.0,245.9 605.8,246.1 608.7,246.4 611.5,246.6 614.4,246.8 617.2,247.0 620.0,247.2 622.9,247.3 625.8,247.4 628.6,247.5 631.5,247.6 634.3,247.7 637.1,247.7 640.0,247.7"/>
<polyline fill="none" stroke="#C8102E" stroke-width="2.5" points="70.0,225.0 72.8,225.0 75.7,225.0 78.5,225.0 81.4,225.0 84.2,225.0 87.1,225.0 90.0,225.0 92.8,225.0 95.7,225.0 98.5,225.0 101.3,225.0 104.2,225.0 107.1,225.0 109.9,225.0 112.8,225.0 115.6,225.0 118.5,225.0 121.3,225.0 124.1,225.0 127.0,225.0 129.9,225.0 132.7,225.0 135.6,225.0 138.4,225.0 141.2,225.0 144.1,225.0 146.9,225.0 149.8,225.0 152.7,225.0 155.5,225.0 158.3,225.0 161.2,225.0 164.1,225.0 166.9,225.0 169.8,225.0 172.6,225.0 175.5,225.0 178.3,225.0 181.2,225.0 184.0,225.0 186.8,225.0 189.7,225.0 192.6,225.0 195.4,225.0 198.2,225.0 201.1,225.0 204.0,225.0 206.8,225.0 209.7,225.0 212.5,225.0 215.3,225.0 218.2,225.0 221.1,225.0 223.9,225.0 226.8,225.0 229.6,225.0 232.4,225.0 235.3,225.0 238.1,225.0 241.0,225.0 243.8,225.0 246.7,225.0 249.6,225.0 252.4,225.0 255.2,225.0 258.1,225.0 261.0,225.0 263.8,225.0 266.6,225.0 269.5,225.0 272.4,225.0 275.2,225.0 278.0,225.0 280.9,225.0 283.8,225.0 286.6,225.0 289.5,225.0 292.3,225.0 295.1,225.0 298.0,225.0 300.9,225.0 303.7,225.0 306.6,225.0 309.4,225.0 312.2,225.0 315.1,225.0 317.9,225.0 320.8,225.0 323.6,225.0 326.5,225.0 329.3,225.0 332.2,225.0 335.0,225.0 337.9,225.0 340.8,225.0 343.6,225.0 346.4,225.0 349.3,225.0 352.2,225.0 355.0,225.0 357.9,225.0 360.7,225.0 363.6,225.0 366.4,225.0 369.2,225.0 372.1,225.0 375.0,225.0 377.8,225.0 380.6,225.0 383.5,225.0 386.4,225.0 389.2,225.0 392.0,225.0 394.9,225.0 397.8,225.0 400.6,225.0 403.4,225.0 406.3,225.0 409.1,225.0 412.0,225.0 414.9,225.0 417.7,225.0 420.6,225.0 423.4,225.0 426.2,225.0 429.1,225.0 431.9,225.0 434.8,225.0 437.7,225.0 440.5,225.0 443.4,225.0 446.2,225.0 449.1,225.0 451.9,225.0 454.8,225.0 457.6,225.0 460.5,225.0 463.3,225.0 466.2,225.0 469.0,225.0 471.8,225.0 474.7,225.0 477.6,225.0 480.4,225.0 483.2,225.0 486.1,225.0 489.0,225.0 491.8,225.0 494.6,225.0 497.5,225.0 500.4,225.0 503.2,225.0 506.1,225.0 508.9,225.0 511.8,225.0 514.6,225.0 517.4,225.0 520.3,225.0 523.2,225.0 526.0,225.0 528.8,225.0 531.7,225.0 534.5,225.0 537.4,225.0 540.2,225.0 543.1,225.0 546.0,225.0 548.8,225.0 551.6,225.0 554.5,225.0 557.3,225.0 560.2,225.0 563.0,225.0 565.9,225.0 568.8,225.0 571.6,225.0 574.5,225.0 577.3,225.0 580.2,225.0 583.0,225.0 585.9,225.0 588.7,225.0 591.5,225.0 594.4,225.0 597.2,225.0 600.1,225.0 603.0,225.0 605.8,225.0 608.7,225.0 611.5,225.0 614.4,225.0 617.2,225.0 620.0,225.0 622.9,225.0 625.8,225.0 628.6,225.0 631.5,225.0 634.3,225.0 637.1,225.0 640.0,225.0"/>
<text x="80" y="191" font-family="'JetBrains Mono','Fira Code','Courier New',monospace" font-size="12" fill="#545454">δ = π</text>
<rect x="70" y="310" width="570" height="100" fill="#F5F5F5" stroke="#D4D4D4" stroke-width="0.75"/>
<line x1="70" y1="360.0" x2="640" y2="360.0" stroke="#D4D4D4" stroke-width="0.75"/>
<polyline fill="none" stroke="#C8860E" stroke-width="1" stroke-dasharray="5 3" points="70.0,337.3 72.8,337.3 75.7,337.3 78.5,337.4 81.4,337.5 84.2,337.6 87.1,337.7 90.0,337.8 92.8,338.0 95.7,338.2 98.5,338.4 101.3,338.6 104.2,338.9 107.1,339.1 109.9,339.4 112.8,339.7 115.6,340.1 118.5,340.4 121.3,340.8 124.1,341.2 127.0,341.6 129.9,342.0 132.7,342.5 135.6,343.0 138.4,343.4 141.2,343.9 144.1,344.4 146.9,345.0 149.8,345.5 152.7,346.1 155.5,346.6 158.3,347.2 161.2,347.8 164.1,348.4 166.9,349.1 169.8,349.7 172.6,350.3 175.5,351.0 178.3,351.6 181.2,352.3 184.0,353.0 186.8,353.7 189.7,354.3 192.6,355.0 195.4,355.7 198.2,356.4 201.1,357.2 204.0,357.9 206.8,358.6 209.7,359.3 212.5,360.0 215.3,360.7 218.2,361.4 221.1,362.1 223.9,362.8 226.8,363.6 229.6,364.3 232.4,365.0 235.3,365.7 238.1,366.3 241.0,367.0 243.8,367.7 246.7,368.4 249.6,369.0 252.4,369.7 255.2,370.3 258.1,370.9 261.0,371.6 263.8,372.2 266.6,372.8 269.5,373.4 272.4,373.9 275.2,374.5 278.0,375.0 280.9,375.6 283.8,376.1 286.6,376.6 289.5,377.0 292.3,377.5 295.1,378.0 298.0,378.4 300.9,378.8 303.7,379.2 306.6,379.6 309.4,379.9 312.2,380.3 315.1,380.6 317.9,380.9 320.8,381.1 323.6,381.4 326.5,381.6 329.3,381.8 332.2,382.0 335.0,382.2 337.9,382.3 340.8,382.4 343.6,382.5 346.4,382.6 349.3,382.7 352.2,382.7 355.0,382.7 357.9,382.7 360.7,382.7 363.6,382.6 366.4,382.5 369.2,382.4 372.1,382.3 375.0,382.2 377.8,382.0 380.6,381.8 383.5,381.6 386.4,381.4 389.2,381.1 392.0,380.9 394.9,380.6 397.8,380.3 400.6,379.9 403.4,379.6 406.3,379.2 409.1,378.8 412.0,378.4 414.9,378.0 417.7,377.5 420.6,377.0 423.4,376.6 426.2,376.1 429.1,375.6 431.9,375.0 434.8,374.5 437.7,373.9 440.5,373.4 443.4,372.8 446.2,372.2 449.1,371.6 451.9,370.9 454.8,370.3 457.6,369.7 460.5,369.0 463.3,368.4 466.2,367.7 469.0,367.0 471.8,366.3 474.7,365.7 477.6,365.0 480.4,364.3 483.2,363.6 486.1,362.8 489.0,362.1 491.8,361.4 494.6,360.7 497.5,360.0 500.4,359.3 503.2,358.6 506.1,357.9 508.9,357.2 511.8,356.4 514.6,355.7 517.4,355.0 520.3,354.3 523.2,353.7 526.0,353.0 528.8,352.3 531.7,351.6 534.5,351.0 537.4,350.3 540.2,349.7 543.1,349.1 546.0,348.4 548.8,347.8 551.6,347.2 554.5,346.6 557.3,346.1 560.2,345.5 563.0,345.0 565.9,344.4 568.8,343.9 571.6,343.4 574.5,343.0 577.3,342.5 580.2,342.0 583.0,341.6 585.9,341.2 588.7,340.8 591.5,340.4 594.4,340.1 597.2,339.7 600.1,339.4 603.0,339.1 605.8,338.9 608.7,338.6 611.5,338.4 614.4,338.2 617.2,338.0 620.0,337.8 622.9,337.7 625.8,337.6 628.6,337.5 631.5,337.4 634.3,337.3 637.1,337.3 640.0,337.3"/>
<polyline fill="none" stroke="#787878" stroke-width="1" stroke-dasharray="5 3" points="70.0,360.0 72.8,360.7 75.7,361.4 78.5,362.1 81.4,362.8 84.2,363.6 87.1,364.3 90.0,365.0 92.8,365.7 95.7,366.3 98.5,367.0 101.3,367.7 104.2,368.4 107.1,369.0 109.9,369.7 112.8,370.3 115.6,370.9 118.5,371.6 121.3,372.2 124.1,372.8 127.0,373.4 129.9,373.9 132.7,374.5 135.6,375.0 138.4,375.6 141.2,376.1 144.1,376.6 146.9,377.0 149.8,377.5 152.7,378.0 155.5,378.4 158.3,378.8 161.2,379.2 164.1,379.6 166.9,379.9 169.8,380.3 172.6,380.6 175.5,380.9 178.3,381.1 181.2,381.4 184.0,381.6 186.8,381.8 189.7,382.0 192.6,382.2 195.4,382.3 198.2,382.4 201.1,382.5 204.0,382.6 206.8,382.7 209.7,382.7 212.5,382.7 215.3,382.7 218.2,382.7 221.1,382.6 223.9,382.5 226.8,382.4 229.6,382.3 232.4,382.2 235.3,382.0 238.1,381.8 241.0,381.6 243.8,381.4 246.7,381.1 249.6,380.9 252.4,380.6 255.2,380.3 258.1,379.9 261.0,379.6 263.8,379.2 266.6,378.8 269.5,378.4 272.4,378.0 275.2,377.5 278.0,377.0 280.9,376.6 283.8,376.1 286.6,375.6 289.5,375.0 292.3,374.5 295.1,373.9 298.0,373.4 300.9,372.8 303.7,372.2 306.6,371.6 309.4,370.9 312.2,370.3 315.1,369.7 317.9,369.0 320.8,368.4 323.6,367.7 326.5,367.0 329.3,366.3 332.2,365.7 335.0,365.0 337.9,364.3 340.8,363.6 343.6,362.8 346.4,362.1 349.3,361.4 352.2,360.7 355.0,360.0 357.9,359.3 360.7,358.6 363.6,357.9 366.4,357.2 369.2,356.4 372.1,355.7 375.0,355.0 377.8,354.3 380.6,353.7 383.5,353.0 386.4,352.3 389.2,351.6 392.0,351.0 394.9,350.3 397.8,349.7 400.6,349.1 403.4,348.4 406.3,347.8 409.1,347.2 412.0,346.6 414.9,346.1 417.7,345.5 420.6,345.0 423.4,344.4 426.2,343.9 429.1,343.4 431.9,343.0 434.8,342.5 437.7,342.0 440.5,341.6 443.4,341.2 446.2,340.8 449.1,340.4 451.9,340.1 454.8,339.7 457.6,339.4 460.5,339.1 463.3,338.9 466.2,338.6 469.0,338.4 471.8,338.2 474.7,338.0 477.6,337.8 480.4,337.7 483.2,337.6 486.1,337.5 489.0,337.4 491.8,337.3 494.6,337.3 497.5,337.3 500.4,337.3 503.2,337.3 506.1,337.4 508.9,337.5 511.8,337.6 514.6,337.7 517.4,337.8 520.3,338.0 523.2,338.2 526.0,338.4 528.8,338.6 531.7,338.9 534.5,339.1 537.4,339.4 540.2,339.7 543.1,340.1 546.0,340.4 548.8,340.8 551.6,341.2 554.5,341.6 557.3,342.0 560.2,342.5 563.0,343.0 565.9,343.4 568.8,343.9 571.6,344.4 574.5,345.0 577.3,345.5 580.2,346.1 583.0,346.6 585.9,347.2 588.7,347.8 591.5,348.4 594.4,349.1 597.2,349.7 600.1,350.3 603.0,351.0 605.8,351.6 608.7,352.3 611.5,353.0 614.4,353.7 617.2,354.3 620.0,355.0 622.9,355.7 625.8,356.4 628.6,357.2 631.5,357.9 634.3,358.6 637.1,359.3 640.0,360.0"/>
<polyline fill="none" stroke="#C8102E" stroke-width="2.5" points="70.0,337.3 72.8,338.0 75.7,338.7 78.5,339.5 81.4,340.3 84.2,341.1 87.1,341.9 90.0,342.8 92.8,343.6 95.7,344.5 98.5,345.4 101.3,346.3 104.2,347.2 107.1,348.2 109.9,349.1 112.8,350.1 115.6,351.0 118.5,352.0 121.3,353.0 124.1,354.0 127.0,355.0 129.9,356.0 132.7,357.0 135.6,358.0 138.4,359.0 141.2,360.0 144.1,361.0 146.9,362.0 149.8,363.0 152.7,364.0 155.5,365.0 158.3,366.0 161.2,367.0 164.1,368.0 166.9,369.0 169.8,369.9 172.6,370.9 175.5,371.8 178.3,372.8 181.2,373.7 184.0,374.6 186.8,375.5 189.7,376.4 192.6,377.2 195.4,378.1 198.2,378.9 201.1,379.7 204.0,380.5 206.8,381.3 209.7,382.0 212.5,382.7 215.3,383.4 218.2,384.1 221.1,384.8 223.9,385.4 226.8,386.0 229.6,386.6 232.4,387.1 235.3,387.7 238.1,388.2 241.0,388.6 243.8,389.1 246.7,389.5 249.6,389.9 252.4,390.2 255.2,390.6 258.1,390.9 261.0,391.1 263.8,391.4 266.6,391.6 269.5,391.7 272.4,391.9 275.2,392.0 278.0,392.1 280.9,392.1 283.8,392.1 286.6,392.1 289.5,392.1 292.3,392.0 295.1,391.9 298.0,391.7 300.9,391.6 303.7,391.4 306.6,391.1 309.4,390.9 312.2,390.6 315.1,390.2 317.9,389.9 320.8,389.5 323.6,389.1 326.5,388.6 329.3,388.2 332.2,387.7 335.0,387.1 337.9,386.6 340.8,386.0 343.6,385.4 346.4,384.8 349.3,384.1 352.2,383.4 355.0,382.7 357.9,382.0 360.7,381.3 363.6,380.5 366.4,379.7 369.2,378.9 372.1,378.1 375.0,377.2 377.8,376.4 380.6,375.5 383.5,374.6 386.4,373.7 389.2,372.8 392.0,371.8 394.9,370.9 397.8,369.9 400.6,369.0 403.4,368.0 406.3,367.0 409.1,366.0 412.0,365.0 414.9,364.0 417.7,363.0 420.6,362.0 423.4,361.0 426.2,360.0 429.1,359.0 431.9,358.0 434.8,357.0 437.7,356.0 440.5,355.0 443.4,354.0 446.2,353.0 449.1,352.0 451.9,351.0 454.8,350.1 457.6,349.1 460.5,348.2 463.3,347.2 466.2,346.3 469.0,345.4 471.8,344.5 474.7,343.6 477.6,342.8 480.4,341.9 483.2,341.1 486.1,340.3 489.0,339.5 491.8,338.7 494.6,338.0 497.5,337.3 500.4,336.6 503.2,335.9 506.1,335.2 508.9,334.6 511.8,334.0 514.6,333.4 517.4,332.9 520.3,332.3 523.2,331.8 526.0,331.4 528.8,330.9 531.7,330.5 534.5,330.1 537.4,329.8 540.2,329.4 543.1,329.1 546.0,328.9 548.8,328.6 551.6,328.4 554.5,328.3 557.3,328.1 560.2,328.0 563.0,327.9 565.9,327.9 568.8,327.9 571.6,327.9 574.5,327.9 577.3,328.0 580.2,328.1 583.0,328.3 585.9,328.4 588.7,328.6 591.5,328.9 594.4,329.1 597.2,329.4 600.1,329.8 603.0,330.1 605.8,330.5 608.7,330.9 611.5,331.4 614.4,331.8 617.2,332.3 620.0,332.9 622.9,333.4 625.8,334.0 628.6,334.6 631.5,335.2 634.3,335.9 637.1,336.6 640.0,337.3"/>
<line x1="568.8" y1="327.9" x2="568.8" y2="360.0" stroke="#2a1a0e" stroke-width="1"/>
<line x1="563.8" y1="327.9" x2="573.8" y2="327.9" stroke="#2a1a0e" stroke-width="1"/>
<line x1="563.8" y1="360.0" x2="573.8" y2="360.0" stroke="#2a1a0e" stroke-width="1"/>
<text x="576.8" y="347.9" font-family="'JetBrains Mono','Fira Code','Courier New',monospace" font-size="11" fill="#2a1a0e">A&#x221A;2</text>
<text x="80" y="326" font-family="'JetBrains Mono','Fira Code','Courier New',monospace" font-size="12" fill="#545454">δ = π/2</text>


  <!-- X-axis ticks shared -->
  <g font-family="'JetBrains Mono','Fira Code','Courier New',monospace" font-size="10" fill="#545454">
    <line x1="70" y1="410" x2="70" y2="417" stroke="#2a1a0e" stroke-width="0.75"/>
    <text x="70" y="428" text-anchor="middle">0</text>
    <line x1="212.5" y1="410" x2="212.5" y2="417" stroke="#2a1a0e" stroke-width="0.75"/>
    <text x="212.5" y="428" text-anchor="middle">pi/2</text>
    <line x1="355.0" y1="410" x2="355.0" y2="417" stroke="#2a1a0e" stroke-width="0.75"/>
    <text x="355.0" y="428" text-anchor="middle">pi</text>
    <line x1="497.5" y1="410" x2="497.5" y2="417" stroke="#2a1a0e" stroke-width="0.75"/>
    <text x="497.5" y="428" text-anchor="middle">3pi/2</text>
    <line x1="640" y1="410" x2="640" y2="417" stroke="#2a1a0e" stroke-width="0.75"/>
    <text x="640" y="428" text-anchor="middle">2pi</text>
  </g>
  <text x="355" y="443" text-anchor="middle"
        font-family="'Inter',-apple-system,'Helvetica Neue',sans-serif" font-size="11" fill="#545454">x  (one wavelength)</text>

  <!-- Legend -->
  <g font-family="'Inter',-apple-system,'Helvetica Neue',sans-serif" font-size="11" fill="#545454">
    <line x1="75" y1="452" x2="100" y2="452" stroke="#C8860E" stroke-width="1" stroke-dasharray="5 3"/>
    <text x="104" y="456">wave 1</text>
    <line x1="175" y1="452" x2="200" y2="452" stroke="#787878" stroke-width="1" stroke-dasharray="5 3"/>
    <text x="204" y="456">wave 2</text>
    <line x1="290" y1="452" x2="315" y2="452" stroke="#C8102E" stroke-width="2.5"/>
    <text x="319" y="456">resultant  A&#x2081;+A&#x2082;</text>
  </g>

</svg>
